<svg width="189" height="33" viewBox="0 0 189 33" fill="none" xmlns="http://www.w3.org/2000/svg">
<g filter="url(#filter0_d_40_55)">
<path d="M20.448 30.956C19.568 31.0147 18.4093 31.0587 16.972 31.088C15.5347 31.1467 13.188 31.1173 9.932 31C6.676 30.912 4.10933 30.6333 2.232 30.164C1.704 20.1907 1.86533 10.452 2.716 0.947999C3.03867 0.918666 3.47867 0.874665 4.036 0.815998C4.62267 0.757332 5.69333 0.669332 7.248 0.551999C8.832 0.434665 10.3133 0.361332 11.692 0.331999C13.0707 0.273331 14.5373 0.273331 16.092 0.331999C17.676 0.361332 18.9373 0.463998 19.876 0.639997C19.964 0.933332 20.0667 1.344 20.184 1.872C20.3307 2.4 20.492 3.368 20.668 4.776C20.844 6.15467 20.8733 7.416 20.756 8.56L13.76 9.352L13.408 6.36C11.4427 6.56533 9.976 6.85867 9.008 7.24C9.008 14.4267 9.30133 20.0587 9.888 24.136H15.212L15.52 21.1L22.032 21.408C22.032 21.5547 22.032 21.7747 22.032 22.068C22.0613 22.332 22.0613 22.86 22.032 23.652C22.0027 24.444 21.944 25.2067 21.856 25.94C21.768 26.6733 21.592 27.5093 21.328 28.448C21.0933 29.3867 20.8 30.2227 20.448 30.956ZM41.4546 15.512C41.5426 16.0693 41.6452 16.788 41.7626 17.668C41.9092 18.548 42.0852 19.9707 42.2906 21.936C42.5252 23.872 42.6279 25.368 42.5986 26.424C41.6012 28.096 40.5306 29.5187 39.3866 30.692C34.2826 31.396 29.9999 31.484 26.5386 30.956C25.1306 29.988 23.8399 28.5653 22.6666 26.688C23.0479 20.4693 23.3852 16.0987 23.6786 13.576C23.7959 13.4293 24.0012 13.1653 24.2946 12.784C24.5879 12.4027 24.8959 11.9773 25.2186 11.508C25.5412 11.0387 25.7759 10.716 25.9226 10.54C30.7919 10.0707 35.1919 10.1293 39.1226 10.716C39.6506 11.4493 40.1639 12.3293 40.6626 13.356C41.1906 14.3827 41.4546 15.1013 41.4546 15.512ZM29.2666 24.796C32.0826 24.7373 34.0919 24.5613 35.2946 24.268C35.2359 21.276 35.0892 19.032 34.8546 17.536C32.5959 17.096 30.9239 17.096 29.8386 17.536C29.6626 19.208 29.5306 20.66 29.4426 21.892C29.3546 23.0947 29.2959 23.8867 29.2666 24.268V24.796ZM50.0655 0.464C50.7695 8.67733 51.3122 18.768 51.6935 30.736L43.9495 30.648L43.8615 0.595998L50.0655 0.464ZM59.4327 0.464C60.1367 8.67733 60.6794 18.768 61.0607 30.736L53.3167 30.648L53.2287 0.595998L59.4327 0.464ZM80.5479 24.884C80.5772 24.9427 80.6065 25.0307 80.6359 25.148C80.6945 25.2653 80.7825 25.544 80.8999 25.984C81.0172 26.3947 81.0905 26.8053 81.1199 27.216C81.1785 27.6267 81.2225 28.1693 81.2519 28.844C81.2812 29.5187 81.2225 30.164 81.0759 30.78C80.1665 30.8387 78.9785 30.8973 77.5119 30.956C76.0745 30.9853 73.6985 30.9413 70.3839 30.824C67.0985 30.7067 64.5172 30.428 62.6399 29.988C62.4639 25.0013 62.3905 21.7307 62.4199 20.176C62.4492 18.6213 62.5812 16.4947 62.8159 13.796C63.5492 12.388 64.4585 11.1267 65.5439 10.012C72.5839 9.396 77.4972 9.36667 80.2839 9.924C80.3719 10.3347 80.4599 10.8773 80.5479 11.552C80.6652 12.1973 80.7825 13.3413 80.8999 14.984C81.0465 16.5973 81.0905 17.976 81.0319 19.12L80.9879 19.692C80.6065 19.9267 80.0785 20.2053 79.4039 20.528C78.7292 20.8507 77.3945 21.364 75.3999 22.068C73.4345 22.772 71.5425 23.2853 69.7239 23.608C69.7825 24.1947 69.8559 24.7667 69.9439 25.324L80.5479 24.884ZM69.4599 15.908L69.4159 18.68C71.1759 18.2693 72.7159 17.888 74.0359 17.536L73.8159 15.644C71.8799 15.4387 70.4279 15.5267 69.4599 15.908ZM100.216 24.312C100.392 25.984 100.334 28.14 100.04 30.78C99.2189 30.8387 98.1482 30.8973 96.8282 30.956C95.5082 30.9853 93.3229 30.9413 90.2722 30.824C87.2216 30.7067 84.7576 30.428 82.8802 29.988C82.6456 24.7373 82.5429 21.4373 82.5722 20.088C82.6309 18.7093 82.8949 15.424 83.3642 10.232C83.5109 10.2027 83.7162 10.1733 83.9802 10.144C84.2736 10.1147 84.8456 10.0707 85.6962 10.012C86.5469 9.924 87.3829 9.85067 88.2042 9.792C89.0256 9.73333 89.9936 9.68933 91.1082 9.66C92.2229 9.60133 93.2642 9.572 94.2322 9.572C95.2002 9.54267 96.1829 9.55733 97.1802 9.616C98.1776 9.67467 99.0136 9.77733 99.6882 9.924C99.7176 10.0707 99.7469 10.3053 99.7762 10.628C99.8349 10.9213 99.8936 11.596 99.9522 12.652C100.04 13.6787 100.011 14.764 99.8642 15.908C99.2189 15.8787 98.3976 15.8493 97.4002 15.82C96.4029 15.7613 94.9656 15.7027 93.0882 15.644C91.2402 15.5853 90.0962 15.556 89.6562 15.556L89.4802 19.472C89.4509 21.1147 89.4802 22.684 89.5682 24.18L100.216 24.312ZM118.593 23.212C118.828 25.06 118.579 27.392 117.845 30.208C117.083 30.472 116.071 30.6627 114.809 30.78C113.548 30.8973 112.287 30.956 111.025 30.956C109.793 30.956 108.605 30.9413 107.461 30.912C106.317 30.8827 105.379 30.8533 104.645 30.824L103.589 30.736C103.003 28.2427 102.753 24.0773 102.841 18.24L101.081 18.284V11.904H103.017C103.164 6.68267 103.252 2.796 103.281 0.243997L111.245 0.0679996L110.541 11.904H112.301V17.932L110.189 18.02L109.793 24.664L112.301 24.752L112.521 23.608L118.593 23.212ZM126.302 9.352L126.698 30.736L119.702 30.648L119.658 9.22L126.302 9.352ZM126.214 7.064L119.878 6.844L119.57 0.639997C120.245 0.463998 121.14 0.346665 122.254 0.287999C123.398 0.229332 124.366 0.199998 125.158 0.199998L126.346 0.243997C126.61 2.796 126.566 5.06933 126.214 7.064ZM146.771 15.512C146.859 16.0693 146.962 16.788 147.079 17.668C147.226 18.548 147.402 19.9707 147.607 21.936C147.842 23.872 147.944 25.368 147.915 26.424C146.918 28.096 145.847 29.5187 144.703 30.692C139.599 31.396 135.316 31.484 131.855 30.956C130.447 29.988 129.156 28.5653 127.983 26.688C128.364 20.4693 128.702 16.0987 128.995 13.576C129.112 13.4293 129.318 13.1653 129.611 12.784C129.904 12.4027 130.212 11.9773 130.535 11.508C130.858 11.0387 131.092 10.716 131.239 10.54C136.108 10.0707 140.508 10.1293 144.439 10.716C144.967 11.4493 145.48 12.3293 145.979 13.356C146.507 14.3827 146.771 15.1013 146.771 15.512ZM134.583 24.796C137.399 24.7373 139.408 24.5613 140.611 24.268C140.552 21.276 140.406 19.032 140.171 17.536C137.912 17.096 136.24 17.096 135.155 17.536C134.979 19.208 134.847 20.66 134.759 21.892C134.671 23.0947 134.612 23.8867 134.583 24.268V24.796ZM166.954 11.2C167.599 17.7413 167.614 24.3267 166.998 30.956L160.354 30.736L160.618 16.788C159.621 16.7 158.227 16.876 156.438 17.316L156.658 30.736L149.266 30.648L149.178 10.276L156.306 9.704V10.672C160.442 9.704 163.991 9.88 166.954 11.2ZM187.373 22.112C188.253 24.5467 188.356 27.568 187.681 31.176C187.124 31.2347 185.657 31.2347 183.281 31.176C180.905 31.1173 179.38 31.0733 178.705 31.044C178.031 31.044 176.432 30.9853 173.909 30.868C171.416 30.7507 169.744 30.6773 168.893 30.648L169.553 24.048L182.005 26.248L168.893 20.792C168.835 19.736 168.849 18.6507 168.937 17.536C169.055 16.4213 169.216 15.4533 169.421 14.632C169.656 13.7813 169.876 13.0187 170.081 12.344C170.316 11.6693 170.521 11.1413 170.697 10.76L170.917 10.232C173.528 9.99733 175.948 9.90933 178.177 9.968C180.436 10.0267 182.328 10.1587 183.853 10.364L186.097 10.672L185.085 16.656L176.725 15.292L176.241 17.272L187.373 22.112Z" fill="#FBFDFF"/>
<path d="M20.448 30.956L20.4918 31.6129L20.8752 31.5874L21.0415 31.2409L20.448 30.956ZM16.972 31.088L16.9586 30.4296L16.9452 30.4302L16.972 31.088ZM9.932 31L9.95571 30.342L9.94979 30.3419L9.932 31ZM2.232 30.164L1.57455 30.1988L1.60027 30.6847L2.07232 30.8027L2.232 30.164ZM2.716 0.947999L2.65639 0.292328L2.10923 0.342069L2.06025 0.889305L2.716 0.947999ZM4.036 0.815998L3.97049 0.160882L3.96708 0.161241L4.036 0.815998ZM7.248 0.551999L7.19936 -0.104578L7.19845 -0.104509L7.248 0.551999ZM11.692 0.331999L11.706 0.990373L11.72 0.989778L11.692 0.331999ZM16.092 0.331999L16.0672 0.990027L16.0798 0.990261L16.092 0.331999ZM19.876 0.639997L20.5066 0.450816L20.3914 0.0667872L19.9973 -0.00710082L19.876 0.639997ZM20.184 1.872L19.5413 2.01482L19.545 2.03162L19.5496 2.04821L20.184 1.872ZM20.668 4.776L20.0147 4.85766L20.0149 4.85937L20.668 4.776ZM20.756 8.56L20.8301 9.21419L21.3568 9.15456L21.4109 8.62717L20.756 8.56ZM13.76 9.352L13.1061 9.42892L13.1827 10.0799L13.8341 10.0062L13.76 9.352ZM13.408 6.36L14.0619 6.28307L13.9859 5.63766L13.3396 5.70519L13.408 6.36ZM9.008 7.24L8.76669 6.62744L8.34963 6.79174V7.24H9.008ZM9.888 24.136L9.23634 24.2298L9.31758 24.7944H9.888V24.136ZM15.212 24.136V24.7944H15.807L15.867 24.2024L15.212 24.136ZM15.52 21.1L15.5511 20.4424L14.928 20.4129L14.865 21.0335L15.52 21.1ZM22.032 21.408H22.6904V20.78L22.0631 20.7504L22.032 21.408ZM22.032 22.068H21.3736V22.1045L21.3777 22.1407L22.032 22.068ZM22.032 23.652L21.3741 23.6276L22.032 23.652ZM21.856 25.94L22.5097 26.0184L21.856 25.94ZM21.328 28.448L20.6942 28.2697L20.6916 28.279L20.6893 28.2883L21.328 28.448ZM20.4042 30.2991C19.5386 30.3568 18.3912 30.4005 16.9586 30.4298L16.9854 31.7462C18.4275 31.7168 19.5974 31.6725 20.4918 31.6129L20.4042 30.2991ZM16.9452 30.4302C15.5352 30.4877 13.2105 30.4593 9.95571 30.3421L9.90829 31.6579C13.1655 31.7753 15.5341 31.8056 16.9988 31.7458L16.9452 30.4302ZM9.94979 30.3419C6.71394 30.2544 4.20174 29.9778 2.39168 29.5253L2.07232 30.8027C4.01693 31.2889 6.63806 31.5696 9.91421 31.6581L9.94979 30.3419ZM2.88945 30.1292C2.36303 20.1856 2.524 10.4782 3.37175 1.00669L2.06025 0.889305C1.20667 10.4258 1.04497 20.1957 1.57455 30.1988L2.88945 30.1292ZM2.77561 1.60367C3.10282 1.57392 3.54637 1.52955 4.10492 1.47076L3.96708 0.161241C3.41097 0.21978 2.97451 0.263408 2.65639 0.292328L2.77561 1.60367ZM4.10151 1.47111C4.67915 1.41334 5.74232 1.32588 7.29755 1.20851L7.19845 -0.104509C5.64435 0.0127819 4.56619 0.101321 3.97049 0.16089L4.10151 1.47111ZM7.29664 1.20857C8.87079 1.09197 10.3405 1.01928 11.706 0.990225L11.678 -0.326227C10.2862 -0.296615 8.79321 -0.22264 7.19936 -0.104577L7.29664 1.20857ZM11.72 0.989778C13.079 0.931947 14.5279 0.93182 16.0672 0.989905L16.1168 -0.325908C14.5467 -0.385157 13.0623 -0.385284 11.664 -0.325781L11.72 0.989778ZM16.0798 0.990261C17.6477 1.0193 18.8677 1.12079 19.7547 1.2871L19.9973 -0.00710082C19.0069 -0.192798 17.7043 -0.296632 16.1042 -0.326263L16.0798 0.990261ZM19.2454 0.829179C19.3266 1.0999 19.4252 1.49257 19.5413 2.01482L20.8267 1.72918C20.7081 1.19543 20.6014 0.766761 20.5066 0.450816L19.2454 0.829179ZM19.5496 2.04821C19.6817 2.52374 19.8384 3.44693 20.0147 4.85766L21.3213 4.69434C21.1456 3.28906 20.9796 2.27626 20.8184 1.69579L19.5496 2.04821ZM20.0149 4.85937C20.1858 6.19807 20.2123 7.40802 20.1011 8.49282L21.4109 8.62717C21.5343 7.42398 21.5022 6.11126 21.3211 4.69263L20.0149 4.85937ZM20.6819 7.9058L13.6859 8.6978L13.8341 10.0062L20.8301 9.21419L20.6819 7.9058ZM14.4139 9.27507L14.0619 6.28307L12.7541 6.43692L13.1061 9.42892L14.4139 9.27507ZM13.3396 5.70519C11.358 5.91222 9.81959 6.21266 8.76669 6.62744L9.24931 7.85256C10.1324 7.50467 11.5273 7.21844 13.4764 7.01481L13.3396 5.70519ZM8.34963 7.24C8.34963 14.4386 8.6431 20.1068 9.23634 24.2298L10.5397 24.0422C9.95957 20.0106 9.66638 14.4147 9.66638 7.24H8.34963ZM9.888 24.7944H15.212V23.4776H9.888V24.7944ZM15.867 24.2024L16.175 21.1665L14.865 21.0335L14.557 24.0695L15.867 24.2024ZM15.4889 21.7576L22.0009 22.0656L22.0631 20.7504L15.5511 20.4424L15.4889 21.7576ZM21.3736 21.408C21.3736 21.4083 21.3736 21.4086 21.3736 21.4089C21.3736 21.4091 21.3736 21.4094 21.3736 21.4097C21.3736 21.41 21.3736 21.4103 21.3736 21.4106C21.3736 21.4109 21.3736 21.4112 21.3736 21.4115C21.3736 21.4117 21.3736 21.412 21.3736 21.4123C21.3736 21.4126 21.3736 21.4129 21.3736 21.4132C21.3736 21.4135 21.3736 21.4138 21.3736 21.4141C21.3736 21.4143 21.3736 21.4146 21.3736 21.4149C21.3736 21.4152 21.3736 21.4155 21.3736 21.4158C21.3736 21.4161 21.3736 21.4164 21.3736 21.4167C21.3736 21.417 21.3736 21.4173 21.3736 21.4176C21.3736 21.4178 21.3736 21.4181 21.3736 21.4184C21.3736 21.4187 21.3736 21.419 21.3736 21.4193C21.3736 21.4196 21.3736 21.4199 21.3736 21.4202C21.3736 21.4205 21.3736 21.4208 21.3736 21.4211C21.3736 21.4214 21.3736 21.4217 21.3736 21.422C21.3736 21.4223 21.3736 21.4226 21.3736 21.4229C21.3736 21.4231 21.3736 21.4234 21.3736 21.4237C21.3736 21.424 21.3736 21.4243 21.3736 21.4246C21.3736 21.4249 21.3736 21.4252 21.3736 21.4255C21.3736 21.4258 21.3736 21.4261 21.3736 21.4264C21.3736 21.4267 21.3736 21.427 21.3736 21.4273C21.3736 21.4276 21.3736 21.4279 21.3736 21.4282C21.3736 21.4285 21.3736 21.4288 21.3736 21.4291C21.3736 21.4294 21.3736 21.4297 21.3736 21.43C21.3736 21.4303 21.3736 21.4306 21.3736 21.4309C21.3736 21.4312 21.3736 21.4315 21.3736 21.4318C21.3736 21.4321 21.3736 21.4324 21.3736 21.4327C21.3736 21.433 21.3736 21.4333 21.3736 21.4336C21.3736 21.4339 21.3736 21.4342 21.3736 21.4345C21.3736 21.4348 21.3736 21.4351 21.3736 21.4354C21.3736 21.4358 21.3736 21.4361 21.3736 21.4364C21.3736 21.4367 21.3736 21.437 21.3736 21.4373C21.3736 21.4376 21.3736 21.4379 21.3736 21.4382C21.3736 21.4385 21.3736 21.4388 21.3736 21.4391C21.3736 21.4394 21.3736 21.4397 21.3736 21.44C21.3736 21.4403 21.3736 21.4406 21.3736 21.4409C21.3736 21.4413 21.3736 21.4416 21.3736 21.4419C21.3736 21.4422 21.3736 21.4425 21.3736 21.4428C21.3736 21.4431 21.3736 21.4434 21.3736 21.4437C21.3736 21.444 21.3736 21.4443 21.3736 21.4446C21.3736 21.445 21.3736 21.4453 21.3736 21.4456C21.3736 21.4459 21.3736 21.4462 21.3736 21.4465C21.3736 21.4468 21.3736 21.4471 21.3736 21.4474C21.3736 21.4477 21.3736 21.4481 21.3736 21.4484C21.3736 21.4487 21.3736 21.449 21.3736 21.4493C21.3736 21.4496 21.3736 21.4499 21.3736 21.4502C21.3736 21.4506 21.3736 21.4509 21.3736 21.4512C21.3736 21.4515 21.3736 21.4518 21.3736 21.4521C21.3736 21.4524 21.3736 21.4528 21.3736 21.4531C21.3736 21.4534 21.3736 21.4537 21.3736 21.454C21.3736 21.4543 21.3736 21.4546 21.3736 21.455C21.3736 21.4553 21.3736 21.4556 21.3736 21.4559C21.3736 21.4562 21.3736 21.4565 21.3736 21.4569C21.3736 21.4572 21.3736 21.4575 21.3736 21.4578C21.3736 21.4581 21.3736 21.4584 21.3736 21.4588C21.3736 21.4591 21.3736 21.4594 21.3736 21.4597C21.3736 21.46 21.3736 21.4603 21.3736 21.4607C21.3736 21.461 21.3736 21.4613 21.3736 21.4616C21.3736 21.4619 21.3736 21.4623 21.3736 21.4626C21.3736 21.4629 21.3736 21.4632 21.3736 21.4635C21.3736 21.4639 21.3736 21.4642 21.3736 21.4645C21.3736 21.4648 21.3736 21.4651 21.3736 21.4655C21.3736 21.4658 21.3736 21.4661 21.3736 21.4664C21.3736 21.4668 21.3736 21.4671 21.3736 21.4674C21.3736 21.4677 21.3736 21.4681 21.3736 21.4684C21.3736 21.4687 21.3736 21.469 21.3736 21.4693C21.3736 21.4697 21.3736 21.47 21.3736 21.4703C21.3736 21.4706 21.3736 21.471 21.3736 21.4713C21.3736 21.4716 21.3736 21.4719 21.3736 21.4723C21.3736 21.4726 21.3736 21.4729 21.3736 21.4732C21.3736 21.4736 21.3736 21.4739 21.3736 21.4742C21.3736 21.4746 21.3736 21.4749 21.3736 21.4752C21.3736 21.4755 21.3736 21.4759 21.3736 21.4762C21.3736 21.4765 21.3736 21.4768 21.3736 21.4772C21.3736 21.4775 21.3736 21.4778 21.3736 21.4782C21.3736 21.4785 21.3736 21.4788 21.3736 21.4791C21.3736 21.4795 21.3736 21.4798 21.3736 21.4801C21.3736 21.4805 21.3736 21.4808 21.3736 21.4811C21.3736 21.4815 21.3736 21.4818 21.3736 21.4821C21.3736 21.4825 21.3736 21.4828 21.3736 21.4831C21.3736 21.4834 21.3736 21.4838 21.3736 21.4841C21.3736 21.4844 21.3736 21.4848 21.3736 21.4851C21.3736 21.4854 21.3736 21.4858 21.3736 21.4861C21.3736 21.4864 21.3736 21.4868 21.3736 21.4871C21.3736 21.4874 21.3736 21.4878 21.3736 21.4881C21.3736 21.4884 21.3736 21.4888 21.3736 21.4891C21.3736 21.4895 21.3736 21.4898 21.3736 21.4901C21.3736 21.4905 21.3736 21.4908 21.3736 21.4911C21.3736 21.4915 21.3736 21.4918 21.3736 21.4921C21.3736 21.4925 21.3736 21.4928 21.3736 21.4932C21.3736 21.4935 21.3736 21.4938 21.3736 21.4942C21.3736 21.4945 21.3736 21.4948 21.3736 21.4952C21.3736 21.4955 21.3736 21.4959 21.3736 21.4962C21.3736 21.4965 21.3736 21.4969 21.3736 21.4972C21.3736 21.4976 21.3736 21.4979 21.3736 21.4982C21.3736 21.4986 21.3736 21.4989 21.3736 21.4993C21.3736 21.4996 21.3736 21.4999 21.3736 21.5003C21.3736 21.5006 21.3736 21.501 21.3736 21.5013C21.3736 21.5016 21.3736 21.502 21.3736 21.5023C21.3736 21.5027 21.3736 21.503 21.3736 21.5034C21.3736 21.5037 21.3736 21.504 21.3736 21.5044C21.3736 21.5047 21.3736 21.5051 21.3736 21.5054C21.3736 21.5058 21.3736 21.5061 21.3736 21.5065C21.3736 21.5068 21.3736 21.5071 21.3736 21.5075C21.3736 21.5078 21.3736 21.5082 21.3736 21.5085C21.3736 21.5089 21.3736 21.5092 21.3736 21.5096C21.3736 21.5099 21.3736 21.5103 21.3736 21.5106C21.3736 21.5109 21.3736 21.5113 21.3736 21.5116C21.3736 21.512 21.3736 21.5123 21.3736 21.5127C21.3736 21.513 21.3736 21.5134 21.3736 21.5137C21.3736 21.5141 21.3736 21.5144 21.3736 21.5148C21.3736 21.5151 21.3736 21.5155 21.3736 21.5158C21.3736 21.5162 21.3736 21.5165 21.3736 21.5169C21.3736 21.5172 21.3736 21.5176 21.3736 21.5179C21.3736 21.5183 21.3736 21.5186 21.3736 21.519C21.3736 21.5193 21.3736 21.5197 21.3736 21.52C21.3736 21.5204 21.3736 21.5207 21.3736 21.5211C21.3736 21.5214 21.3736 21.5218 21.3736 21.5222C21.3736 21.5225 21.3736 21.5229 21.3736 21.5232C21.3736 21.5236 21.3736 21.5239 21.3736 21.5243C21.3736 21.5246 21.3736 21.525 21.3736 21.5253C21.3736 21.5257 21.3736 21.526 21.3736 21.5264C21.3736 21.5268 21.3736 21.5271 21.3736 21.5275C21.3736 21.5278 21.3736 21.5282 21.3736 21.5285C21.3736 21.5289 21.3736 21.5292 21.3736 21.5296C21.3736 21.53 21.3736 21.5303 21.3736 21.5307C21.3736 21.531 21.3736 21.5314 21.3736 21.5317C21.3736 21.5321 21.3736 21.5325 21.3736 21.5328C21.3736 21.5332 21.3736 21.5335 21.3736 21.5339C21.3736 21.5343 21.3736 21.5346 21.3736 21.535C21.3736 21.5353 21.3736 21.5357 21.3736 21.5361C21.3736 21.5364 21.3736 21.5368 21.3736 21.5371C21.3736 21.5375 21.3736 21.5379 21.3736 21.5382C21.3736 21.5386 21.3736 21.5389 21.3736 21.5393C21.3736 21.5397 21.3736 21.54 21.3736 21.5404C21.3736 21.5408 21.3736 21.5411 21.3736 21.5415C21.3736 21.5418 21.3736 21.5422 21.3736 21.5426C21.3736 21.5429 21.3736 21.5433 21.3736 21.5437C21.3736 21.544 21.3736 21.5444 21.3736 21.5448C21.3736 21.5451 21.3736 21.5455 21.3736 21.5459C21.3736 21.5462 21.3736 21.5466 21.3736 21.547C21.3736 21.5473 21.3736 21.5477 21.3736 21.5481C21.3736 21.5484 21.3736 21.5488 21.3736 21.5492C21.3736 21.5495 21.3736 21.5499 21.3736 21.5503C21.3736 21.5506 21.3736 21.551 21.3736 21.5514C21.3736 21.5517 21.3736 21.5521 21.3736 21.5525C21.3736 21.5528 21.3736 21.5532 21.3736 21.5536C21.3736 21.5539 21.3736 21.5543 21.3736 21.5547C21.3736 21.555 21.3736 21.5554 21.3736 21.5558C21.3736 21.5562 21.3736 21.5565 21.3736 21.5569C21.3736 21.5573 21.3736 21.5576 21.3736 21.558C21.3736 21.5584 21.3736 21.5588 21.3736 21.5591C21.3736 21.5595 21.3736 21.5599 21.3736 21.5602C21.3736 21.5606 21.3736 21.561 21.3736 21.5614C21.3736 21.5617 21.3736 21.5621 21.3736 21.5625C21.3736 21.5629 21.3736 21.5632 21.3736 21.5636C21.3736 21.564 21.3736 21.5644 21.3736 21.5647C21.3736 21.5651 21.3736 21.5655 21.3736 21.5659C21.3736 21.5662 21.3736 21.5666 21.3736 21.567C21.3736 21.5674 21.3736 21.5677 21.3736 21.5681C21.3736 21.5685 21.3736 21.5689 21.3736 21.5692C21.3736 21.5696 21.3736 21.57 21.3736 21.5704C21.3736 21.5708 21.3736 21.5711 21.3736 21.5715C21.3736 21.5719 21.3736 21.5723 21.3736 21.5726C21.3736 21.573 21.3736 21.5734 21.3736 21.5738C21.3736 21.5742 21.3736 21.5745 21.3736 21.5749C21.3736 21.5753 21.3736 21.5757 21.3736 21.5761C21.3736 21.5764 21.3736 21.5768 21.3736 21.5772C21.3736 21.5776 21.3736 21.578 21.3736 21.5783C21.3736 21.5787 21.3736 21.5791 21.3736 21.5795C21.3736 21.5799 21.3736 21.5803 21.3736 21.5806C21.3736 21.581 21.3736 21.5814 21.3736 21.5818C21.3736 21.5822 21.3736 21.5826 21.3736 21.5829C21.3736 21.5833 21.3736 21.5837 21.3736 21.5841C21.3736 21.5845 21.3736 21.5849 21.3736 21.5852C21.3736 21.5856 21.3736 21.586 21.3736 21.5864C21.3736 21.5868 21.3736 21.5872 21.3736 21.5876C21.3736 21.5879 21.3736 21.5883 21.3736 21.5887C21.3736 21.5891 21.3736 21.5895 21.3736 21.5899C21.3736 21.5903 21.3736 21.5907 21.3736 21.591C21.3736 21.5914 21.3736 21.5918 21.3736 21.5922C21.3736 21.5926 21.3736 21.593 21.3736 21.5934C21.3736 21.5938 21.3736 21.5941 21.3736 21.5945C21.3736 21.5949 21.3736 21.5953 21.3736 21.5957C21.3736 21.5961 21.3736 21.5965 21.3736 21.5969C21.3736 21.5973 21.3736 21.5977 21.3736 21.598C21.3736 21.5984 21.3736 21.5988 21.3736 21.5992C21.3736 21.5996 21.3736 21.6 21.3736 21.6004C21.3736 21.6008 21.3736 21.6012 21.3736 21.6016C21.3736 21.602 21.3736 21.6024 21.3736 21.6028C21.3736 21.6031 21.3736 21.6035 21.3736 21.6039C21.3736 21.6043 21.3736 21.6047 21.3736 21.6051C21.3736 21.6055 21.3736 21.6059 21.3736 21.6063C21.3736 21.6067 21.3736 21.6071 21.3736 21.6075C21.3736 21.6079 21.3736 21.6083 21.3736 21.6087C21.3736 21.6091 21.3736 21.6095 21.3736 21.6099C21.3736 21.6103 21.3736 21.6107 21.3736 21.6111C21.3736 21.6115 21.3736 21.6119 21.3736 21.6122C21.3736 21.6126 21.3736 21.613 21.3736 21.6134C21.3736 21.6138 21.3736 21.6142 21.3736 21.6146C21.3736 21.615 21.3736 21.6154 21.3736 21.6158C21.3736 21.6162 21.3736 21.6166 21.3736 21.617C21.3736 21.6174 21.3736 21.6178 21.3736 21.6182C21.3736 21.6186 21.3736 21.619 21.3736 21.6194C21.3736 21.6198 21.3736 21.6202 21.3736 21.6206C21.3736 21.621 21.3736 21.6214 21.3736 21.6219C21.3736 21.6223 21.3736 21.6227 21.3736 21.6231C21.3736 21.6235 21.3736 21.6239 21.3736 21.6243C21.3736 21.6247 21.3736 21.6251 21.3736 21.6255C21.3736 21.6259 21.3736 21.6263 21.3736 21.6267C21.3736 21.6271 21.3736 21.6275 21.3736 21.6279C21.3736 21.6283 21.3736 21.6287 21.3736 21.6291C21.3736 21.6295 21.3736 21.6299 21.3736 21.6303C21.3736 21.6307 21.3736 21.6312 21.3736 21.6316C21.3736 21.632 21.3736 21.6324 21.3736 21.6328C21.3736 21.6332 21.3736 21.6336 21.3736 21.634C21.3736 21.6344 21.3736 21.6348 21.3736 21.6352C21.3736 21.6356 21.3736 21.636 21.3736 21.6365C21.3736 21.6369 21.3736 21.6373 21.3736 21.6377C21.3736 21.6381 21.3736 21.6385 21.3736 21.6389C21.3736 21.6393 21.3736 21.6397 21.3736 21.6401C21.3736 21.6406 21.3736 21.641 21.3736 21.6414C21.3736 21.6418 21.3736 21.6422 21.3736 21.6426C21.3736 21.643 21.3736 21.6434 21.3736 21.6438C21.3736 21.6443 21.3736 21.6447 21.3736 21.6451C21.3736 21.6455 21.3736 21.6459 21.3736 21.6463C21.3736 21.6467 21.3736 21.6472 21.3736 21.6476C21.3736 21.648 21.3736 21.6484 21.3736 21.6488C21.3736 21.6492 21.3736 21.6496 21.3736 21.6501C21.3736 21.6505 21.3736 21.6509 21.3736 21.6513C21.3736 21.6517 21.3736 21.6521 21.3736 21.6525C21.3736 21.653 21.3736 21.6534 21.3736 21.6538C21.3736 21.6542 21.3736 21.6546 21.3736 21.655C21.3736 21.6555 21.3736 21.6559 21.3736 21.6563C21.3736 21.6567 21.3736 21.6571 21.3736 21.6576C21.3736 21.658 21.3736 21.6584 21.3736 21.6588C21.3736 21.6592 21.3736 21.6596 21.3736 21.6601C21.3736 21.6605 21.3736 21.6609 21.3736 21.6613C21.3736 21.6617 21.3736 21.6622 21.3736 21.6626C21.3736 21.663 21.3736 21.6634 21.3736 21.6639C21.3736 21.6643 21.3736 21.6647 21.3736 21.6651C21.3736 21.6655 21.3736 21.666 21.3736 21.6664C21.3736 21.6668 21.3736 21.6672 21.3736 21.6677C21.3736 21.6681 21.3736 21.6685 21.3736 21.6689C21.3736 21.6693 21.3736 21.6698 21.3736 21.6702C21.3736 21.6706 21.3736 21.671 21.3736 21.6715C21.3736 21.6719 21.3736 21.6723 21.3736 21.6727C21.3736 21.6732 21.3736 21.6736 21.3736 21.674C21.3736 21.6744 21.3736 21.6749 21.3736 21.6753C21.3736 21.6757 21.3736 21.6761 21.3736 21.6766C21.3736 21.677 21.3736 21.6774 21.3736 21.6779C21.3736 21.6783 21.3736 21.6787 21.3736 21.6791C21.3736 21.6796 21.3736 21.68 21.3736 21.6804C21.3736 21.6809 21.3736 21.6813 21.3736 21.6817C21.3736 21.6821 21.3736 21.6826 21.3736 21.683C21.3736 21.6834 21.3736 21.6839 21.3736 21.6843C21.3736 21.6847 21.3736 21.6852 21.3736 21.6856C21.3736 21.686 21.3736 21.6864 21.3736 21.6869C21.3736 21.6873 21.3736 21.6877 21.3736 21.6882C21.3736 21.6886 21.3736 21.689 21.3736 21.6895C21.3736 21.6899 21.3736 21.6903 21.3736 21.6908C21.3736 21.6912 21.3736 21.6916 21.3736 21.6921C21.3736 21.6925 21.3736 21.6929 21.3736 21.6934C21.3736 21.6938 21.3736 21.6942 21.3736 21.6947C21.3736 21.6951 21.3736 21.6955 21.3736 21.696C21.3736 21.6964 21.3736 21.6968 21.3736 21.6973C21.3736 21.6977 21.3736 21.6982 21.3736 21.6986C21.3736 21.699 21.3736 21.6995 21.3736 21.6999C21.3736 21.7003 21.3736 21.7008 21.3736 21.7012C21.3736 21.7016 21.3736 21.7021 21.3736 21.7025C21.3736 21.703 21.3736 21.7034 21.3736 21.7038C21.3736 21.7043 21.3736 21.7047 21.3736 21.7052C21.3736 21.7056 21.3736 21.706 21.3736 21.7065C21.3736 21.7069 21.3736 21.7074 21.3736 21.7078C21.3736 21.7082 21.3736 21.7087 21.3736 21.7091C21.3736 21.7096 21.3736 21.71 21.3736 21.7104C21.3736 21.7109 21.3736 21.7113 21.3736 21.7118C21.3736 21.7122 21.3736 21.7126 21.3736 21.7131C21.3736 21.7135 21.3736 21.714 21.3736 21.7144C21.3736 21.7149 21.3736 21.7153 21.3736 21.7157C21.3736 21.7162 21.3736 21.7166 21.3736 21.7171C21.3736 21.7175 21.3736 21.718 21.3736 21.7184C21.3736 21.7189 21.3736 21.7193 21.3736 21.7198C21.3736 21.7202 21.3736 21.7206 21.3736 21.7211C21.3736 21.7215 21.3736 21.722 21.3736 21.7224C21.3736 21.7229 21.3736 21.7233 21.3736 21.7238C21.3736 21.7242 21.3736 21.7247 21.3736 21.7251C21.3736 21.7256 21.3736 21.726 21.3736 21.7265C21.3736 21.7269 21.3736 21.7273 21.3736 21.7278C21.3736 21.7282 21.3736 21.7287 21.3736 21.7291C21.3736 21.7296 21.3736 21.73 21.3736 21.7305C21.3736 21.7309 21.3736 21.7314 21.3736 21.7318C21.3736 21.7323 21.3736 21.7327 21.3736 21.7332C21.3736 21.7336 21.3736 21.7341 21.3736 21.7345C21.3736 21.735 21.3736 21.7355 21.3736 21.7359C21.3736 21.7364 21.3736 21.7368 21.3736 21.7373C21.3736 21.7377 21.3736 21.7382 21.3736 21.7386C21.3736 21.7391 21.3736 21.7395 21.3736 21.74C21.3736 21.7404 21.3736 21.7409 21.3736 21.7413C21.3736 21.7418 21.3736 21.7423 21.3736 21.7427C21.3736 21.7432 21.3736 21.7436 21.3736 21.7441C21.3736 21.7445 21.3736 21.745 21.3736 21.7454C21.3736 21.7459 21.3736 21.7464 21.3736 21.7468C21.3736 21.7473 21.3736 21.7477 21.3736 21.7482C21.3736 21.7486 21.3736 21.7491 21.3736 21.7495C21.3736 21.75 21.3736 21.7505 21.3736 21.7509C21.3736 21.7514 21.3736 21.7518 21.3736 21.7523C21.3736 21.7528 21.3736 21.7532 21.3736 21.7537C21.3736 21.7541 21.3736 21.7546 21.3736 21.7551C21.3736 21.7555 21.3736 21.756 21.3736 21.7564C21.3736 21.7569 21.3736 21.7574 21.3736 21.7578C21.3736 21.7583 21.3736 21.7587 21.3736 21.7592C21.3736 21.7597 21.3736 21.7601 21.3736 21.7606C21.3736 21.7611 21.3736 21.7615 21.3736 21.762C21.3736 21.7624 21.3736 21.7629 21.3736 21.7634C21.3736 21.7638 21.3736 21.7643 21.3736 21.7648C21.3736 21.7652 21.3736 21.7657 21.3736 21.7661C21.3736 21.7666 21.3736 21.7671 21.3736 21.7675C21.3736 21.768 21.3736 21.7685 21.3736 21.7689C21.3736 21.7694 21.3736 21.7699 21.3736 21.7703C21.3736 21.7708 21.3736 21.7713 21.3736 21.7717C21.3736 21.7722 21.3736 21.7727 21.3736 21.7731C21.3736 21.7736 21.3736 21.7741 21.3736 21.7745C21.3736 21.775 21.3736 21.7755 21.3736 21.7759C21.3736 21.7764 21.3736 21.7769 21.3736 21.7773C21.3736 21.7778 21.3736 21.7783 21.3736 21.7788C21.3736 21.7792 21.3736 21.7797 21.3736 21.7802C21.3736 21.7806 21.3736 21.7811 21.3736 21.7816C21.3736 21.782 21.3736 21.7825 21.3736 21.783C21.3736 21.7835 21.3736 21.7839 21.3736 21.7844C21.3736 21.7849 21.3736 21.7853 21.3736 21.7858C21.3736 21.7863 21.3736 21.7868 21.3736 21.7872C21.3736 21.7877 21.3736 21.7882 21.3736 21.7887C21.3736 21.7891 21.3736 21.7896 21.3736 21.7901C21.3736 21.7905 21.3736 21.791 21.3736 21.7915C21.3736 21.792 21.3736 21.7924 21.3736 21.7929C21.3736 21.7934 21.3736 21.7939 21.3736 21.7943C21.3736 21.7948 21.3736 21.7953 21.3736 21.7958C21.3736 21.7962 21.3736 21.7967 21.3736 21.7972C21.3736 21.7977 21.3736 21.7982 21.3736 21.7986C21.3736 21.7991 21.3736 21.7996 21.3736 21.8001C21.3736 21.8005 21.3736 21.801 21.3736 21.8015C21.3736 21.802 21.3736 21.8025 21.3736 21.8029C21.3736 21.8034 21.3736 21.8039 21.3736 21.8044C21.3736 21.8049 21.3736 21.8053 21.3736 21.8058C21.3736 21.8063 21.3736 21.8068 21.3736 21.8073C21.3736 21.8077 21.3736 21.8082 21.3736 21.8087C21.3736 21.8092 21.3736 21.8097 21.3736 21.8101C21.3736 21.8106 21.3736 21.8111 21.3736 21.8116C21.3736 21.8121 21.3736 21.8126 21.3736 21.813C21.3736 21.8135 21.3736 21.814 21.3736 21.8145C21.3736 21.815 21.3736 21.8155 21.3736 21.8159C21.3736 21.8164 21.3736 21.8169 21.3736 21.8174C21.3736 21.8179 21.3736 21.8184 21.3736 21.8188C21.3736 21.8193 21.3736 21.8198 21.3736 21.8203C21.3736 21.8208 21.3736 21.8213 21.3736 21.8218C21.3736 21.8222 21.3736 21.8227 21.3736 21.8232C21.3736 21.8237 21.3736 21.8242 21.3736 21.8247C21.3736 21.8252 21.3736 21.8257 21.3736 21.8261C21.3736 21.8266 21.3736 21.8271 21.3736 21.8276C21.3736 21.8281 21.3736 21.8286 21.3736 21.8291C21.3736 21.8296 21.3736 21.83 21.3736 21.8305C21.3736 21.831 21.3736 21.8315 21.3736 21.832C21.3736 21.8325 21.3736 21.833 21.3736 21.8335C21.3736 21.834 21.3736 21.8345 21.3736 21.835C21.3736 21.8354 21.3736 21.8359 21.3736 21.8364C21.3736 21.8369 21.3736 21.8374 21.3736 21.8379C21.3736 21.8384 21.3736 21.8389 21.3736 21.8394C21.3736 21.8399 21.3736 21.8404 21.3736 21.8409C21.3736 21.8414 21.3736 21.8418 21.3736 21.8423C21.3736 21.8428 21.3736 21.8433 21.3736 21.8438C21.3736 21.8443 21.3736 21.8448 21.3736 21.8453C21.3736 21.8458 21.3736 21.8463 21.3736 21.8468C21.3736 21.8473 21.3736 21.8478 21.3736 21.8483C21.3736 21.8488 21.3736 21.8493 21.3736 21.8498C21.3736 21.8503 21.3736 21.8508 21.3736 21.8513C21.3736 21.8518 21.3736 21.8523 21.3736 21.8528C21.3736 21.8533 21.3736 21.8538 21.3736 21.8543C21.3736 21.8547 21.3736 21.8552 21.3736 21.8557C21.3736 21.8562 21.3736 21.8567 21.3736 21.8572C21.3736 21.8577 21.3736 21.8582 21.3736 21.8587C21.3736 21.8592 21.3736 21.8597 21.3736 21.8602C21.3736 21.8607 21.3736 21.8612 21.3736 21.8617C21.3736 21.8623 21.3736 21.8628 21.3736 21.8633C21.3736 21.8638 21.3736 21.8643 21.3736 21.8648C21.3736 21.8653 21.3736 21.8658 21.3736 21.8663C21.3736 21.8668 21.3736 21.8673 21.3736 21.8678C21.3736 21.8683 21.3736 21.8688 21.3736 21.8693C21.3736 21.8698 21.3736 21.8703 21.3736 21.8708C21.3736 21.8713 21.3736 21.8718 21.3736 21.8723C21.3736 21.8728 21.3736 21.8733 21.3736 21.8738C21.3736 21.8743 21.3736 21.8748 21.3736 21.8754C21.3736 21.8759 21.3736 21.8764 21.3736 21.8769C21.3736 21.8774 21.3736 21.8779 21.3736 21.8784C21.3736 21.8789 21.3736 21.8794 21.3736 21.8799C21.3736 21.8804 21.3736 21.8809 21.3736 21.8814C21.3736 21.882 21.3736 21.8825 21.3736 21.883C21.3736 21.8835 21.3736 21.884 21.3736 21.8845C21.3736 21.885 21.3736 21.8855 21.3736 21.886C21.3736 21.8865 21.3736 21.887 21.3736 21.8876C21.3736 21.8881 21.3736 21.8886 21.3736 21.8891C21.3736 21.8896 21.3736 21.8901 21.3736 21.8906C21.3736 21.8911 21.3736 21.8917 21.3736 21.8922C21.3736 21.8927 21.3736 21.8932 21.3736 21.8937C21.3736 21.8942 21.3736 21.8947 21.3736 21.8952C21.3736 21.8958 21.3736 21.8963 21.3736 21.8968C21.3736 21.8973 21.3736 21.8978 21.3736 21.8983C21.3736 21.8988 21.3736 21.8994 21.3736 21.8999C21.3736 21.9004 21.3736 21.9009 21.3736 21.9014C21.3736 21.9019 21.3736 21.9025 21.3736 21.903C21.3736 21.9035 21.3736 21.904 21.3736 21.9045C21.3736 21.905 21.3736 21.9056 21.3736 21.9061C21.3736 21.9066 21.3736 21.9071 21.3736 21.9076C21.3736 21.9081 21.3736 21.9087 21.3736 21.9092C21.3736 21.9097 21.3736 21.9102 21.3736 21.9107C21.3736 21.9113 21.3736 21.9118 21.3736 21.9123C21.3736 21.9128 21.3736 21.9133 21.3736 21.9139C21.3736 21.9144 21.3736 21.9149 21.3736 21.9154C21.3736 21.9159 21.3736 21.9165 21.3736 21.917C21.3736 21.9175 21.3736 21.918 21.3736 21.9185C21.3736 21.9191 21.3736 21.9196 21.3736 21.9201C21.3736 21.9206 21.3736 21.9212 21.3736 21.9217C21.3736 21.9222 21.3736 21.9227 21.3736 21.9232C21.3736 21.9238 21.3736 21.9243 21.3736 21.9248C21.3736 21.9253 21.3736 21.9259 21.3736 21.9264C21.3736 21.9269 21.3736 21.9274 21.3736 21.928C21.3736 21.9285 21.3736 21.929 21.3736 21.9295C21.3736 21.9301 21.3736 21.9306 21.3736 21.9311C21.3736 21.9317 21.3736 21.9322 21.3736 21.9327C21.3736 21.9332 21.3736 21.9338 21.3736 21.9343C21.3736 21.9348 21.3736 21.9353 21.3736 21.9359C21.3736 21.9364 21.3736 21.9369 21.3736 21.9375C21.3736 21.938 21.3736 21.9385 21.3736 21.939C21.3736 21.9396 21.3736 21.9401 21.3736 21.9406C21.3736 21.9412 21.3736 21.9417 21.3736 21.9422C21.3736 21.9428 21.3736 21.9433 21.3736 21.9438C21.3736 21.9443 21.3736 21.9449 21.3736 21.9454C21.3736 21.9459 21.3736 21.9465 21.3736 21.947C21.3736 21.9475 21.3736 21.9481 21.3736 21.9486C21.3736 21.9491 21.3736 21.9497 21.3736 21.9502C21.3736 21.9507 21.3736 21.9513 21.3736 21.9518C21.3736 21.9523 21.3736 21.9529 21.3736 21.9534C21.3736 21.9539 21.3736 21.9545 21.3736 21.955C21.3736 21.9555 21.3736 21.9561 21.3736 21.9566C21.3736 21.9571 21.3736 21.9577 21.3736 21.9582C21.3736 21.9588 21.3736 21.9593 21.3736 21.9598C21.3736 21.9604 21.3736 21.9609 21.3736 21.9614C21.3736 21.962 21.3736 21.9625 21.3736 21.963C21.3736 21.9636 21.3736 21.9641 21.3736 21.9647C21.3736 21.9652 21.3736 21.9657 21.3736 21.9663C21.3736 21.9668 21.3736 21.9674 21.3736 21.9679C21.3736 21.9684 21.3736 21.969 21.3736 21.9695C21.3736 21.9701 21.3736 21.9706 21.3736 21.9711C21.3736 21.9717 21.3736 21.9722 21.3736 21.9728C21.3736 21.9733 21.3736 21.9738 21.3736 21.9744C21.3736 21.9749 21.3736 21.9755 21.3736 21.976C21.3736 21.9765 21.3736 21.9771 21.3736 21.9776C21.3736 21.9782 21.3736 21.9787 21.3736 21.9793C21.3736 21.9798 21.3736 21.9804 21.3736 21.9809C21.3736 21.9814 21.3736 21.982 21.3736 21.9825C21.3736 21.9831 21.3736 21.9836 21.3736 21.9842C21.3736 21.9847 21.3736 21.9853 21.3736 21.9858C21.3736 21.9863 21.3736 21.9869 21.3736 21.9874C21.3736 21.988 21.3736 21.9885 21.3736 21.9891C21.3736 21.9896 21.3736 21.9902 21.3736 21.9907C21.3736 21.9913 21.3736 21.9918 21.3736 21.9924C21.3736 21.9929 21.3736 21.9935 21.3736 21.994C21.3736 21.9945 21.3736 21.9951 21.3736 21.9956C21.3736 21.9962 21.3736 21.9967 21.3736 21.9973C21.3736 21.9978 21.3736 21.9984 21.3736 21.9989C21.3736 21.9995 21.3736 22 21.3736 22.0006C21.3736 22.0011 21.3736 22.0017 21.3736 22.0022C21.3736 22.0028 21.3736 22.0033 21.3736 22.0039C21.3736 22.0044 21.3736 22.005 21.3736 22.0056C21.3736 22.0061 21.3736 22.0067 21.3736 22.0072C21.3736 22.0078 21.3736 22.0083 21.3736 22.0089C21.3736 22.0094 21.3736 22.01 21.3736 22.0105C21.3736 22.0111 21.3736 22.0116 21.3736 22.0122C21.3736 22.0127 21.3736 22.0133 21.3736 22.0139C21.3736 22.0144 21.3736 22.015 21.3736 22.0155C21.3736 22.0161 21.3736 22.0166 21.3736 22.0172C21.3736 22.0177 21.3736 22.0183 21.3736 22.0189C21.3736 22.0194 21.3736 22.02 21.3736 22.0205C21.3736 22.0211 21.3736 22.0216 21.3736 22.0222C21.3736 22.0228 21.3736 22.0233 21.3736 22.0239C21.3736 22.0244 21.3736 22.025 21.3736 22.0256C21.3736 22.0261 21.3736 22.0267 21.3736 22.0272C21.3736 22.0278 21.3736 22.0284 21.3736 22.0289C21.3736 22.0295 21.3736 22.03 21.3736 22.0306C21.3736 22.0312 21.3736 22.0317 21.3736 22.0323C21.3736 22.0328 21.3736 22.0334 21.3736 22.034C21.3736 22.0345 21.3736 22.0351 21.3736 22.0356C21.3736 22.0362 21.3736 22.0368 21.3736 22.0373C21.3736 22.0379 21.3736 22.0385 21.3736 22.039C21.3736 22.0396 21.3736 22.0401 21.3736 22.0407C21.3736 22.0413 21.3736 22.0418 21.3736 22.0424C21.3736 22.043 21.3736 22.0435 21.3736 22.0441C21.3736 22.0447 21.3736 22.0452 21.3736 22.0458C21.3736 22.0464 21.3736 22.0469 21.3736 22.0475C21.3736 22.0481 21.3736 22.0486 21.3736 22.0492C21.3736 22.0498 21.3736 22.0503 21.3736 22.0509C21.3736 22.0515 21.3736 22.052 21.3736 22.0526C21.3736 22.0532 21.3736 22.0537 21.3736 22.0543C21.3736 22.0549 21.3736 22.0554 21.3736 22.056C21.3736 22.0566 21.3736 22.0571 21.3736 22.0577C21.3736 22.0583 21.3736 22.0589 21.3736 22.0594C21.3736 22.06 21.3736 22.0606 21.3736 22.0611C21.3736 22.0617 21.3736 22.0623 21.3736 22.0629C21.3736 22.0634 21.3736 22.064 21.3736 22.0646C21.3736 22.0651 21.3736 22.0657 21.3736 22.0663C21.3736 22.0669 21.3736 22.0674 21.3736 22.068H22.6904C22.6904 22.0674 22.6904 22.0669 22.6904 22.0663C22.6904 22.0657 22.6904 22.0651 22.6904 22.0646C22.6904 22.064 22.6904 22.0634 22.6904 22.0629C22.6904 22.0623 22.6904 22.0617 22.6904 22.0611C22.6904 22.0606 22.6904 22.06 22.6904 22.0594C22.6904 22.0589 22.6904 22.0583 22.6904 22.0577C22.6904 22.0571 22.6904 22.0566 22.6904 22.056C22.6904 22.0554 22.6904 22.0549 22.6904 22.0543C22.6904 22.0537 22.6904 22.0532 22.6904 22.0526C22.6904 22.052 22.6904 22.0515 22.6904 22.0509C22.6904 22.0503 22.6904 22.0498 22.6904 22.0492C22.6904 22.0486 22.6904 22.0481 22.6904 22.0475C22.6904 22.0469 22.6904 22.0464 22.6904 22.0458C22.6904 22.0452 22.6904 22.0447 22.6904 22.0441C22.6904 22.0435 22.6904 22.043 22.6904 22.0424C22.6904 22.0418 22.6904 22.0413 22.6904 22.0407C22.6904 22.0401 22.6904 22.0396 22.6904 22.039C22.6904 22.0385 22.6904 22.0379 22.6904 22.0373C22.6904 22.0368 22.6904 22.0362 22.6904 22.0356C22.6904 22.0351 22.6904 22.0345 22.6904 22.034C22.6904 22.0334 22.6904 22.0328 22.6904 22.0323C22.6904 22.0317 22.6904 22.0312 22.6904 22.0306C22.6904 22.03 22.6904 22.0295 22.6904 22.0289C22.6904 22.0284 22.6904 22.0278 22.6904 22.0272C22.6904 22.0267 22.6904 22.0261 22.6904 22.0256C22.6904 22.025 22.6904 22.0244 22.6904 22.0239C22.6904 22.0233 22.6904 22.0228 22.6904 22.0222C22.6904 22.0216 22.6904 22.0211 22.6904 22.0205C22.6904 22.02 22.6904 22.0194 22.6904 22.0189C22.6904 22.0183 22.6904 22.0177 22.6904 22.0172C22.6904 22.0166 22.6904 22.0161 22.6904 22.0155C22.6904 22.015 22.6904 22.0144 22.6904 22.0139C22.6904 22.0133 22.6904 22.0127 22.6904 22.0122C22.6904 22.0116 22.6904 22.0111 22.6904 22.0105C22.6904 22.01 22.6904 22.0094 22.6904 22.0089C22.6904 22.0083 22.6904 22.0078 22.6904 22.0072C22.6904 22.0067 22.6904 22.0061 22.6904 22.0056C22.6904 22.005 22.6904 22.0044 22.6904 22.0039C22.6904 22.0033 22.6904 22.0028 22.6904 22.0022C22.6904 22.0017 22.6904 22.0011 22.6904 22.0006C22.6904 22 22.6904 21.9995 22.6904 21.9989C22.6904 21.9984 22.6904 21.9978 22.6904 21.9973C22.6904 21.9967 22.6904 21.9962 22.6904 21.9956C22.6904 21.9951 22.6904 21.9945 22.6904 21.994C22.6904 21.9935 22.6904 21.9929 22.6904 21.9924C22.6904 21.9918 22.6904 21.9913 22.6904 21.9907C22.6904 21.9902 22.6904 21.9896 22.6904 21.9891C22.6904 21.9885 22.6904 21.988 22.6904 21.9874C22.6904 21.9869 22.6904 21.9863 22.6904 21.9858C22.6904 21.9853 22.6904 21.9847 22.6904 21.9842C22.6904 21.9836 22.6904 21.9831 22.6904 21.9825C22.6904 21.982 22.6904 21.9814 22.6904 21.9809C22.6904 21.9804 22.6904 21.9798 22.6904 21.9793C22.6904 21.9787 22.6904 21.9782 22.6904 21.9776C22.6904 21.9771 22.6904 21.9765 22.6904 21.976C22.6904 21.9755 22.6904 21.9749 22.6904 21.9744C22.6904 21.9738 22.6904 21.9733 22.6904 21.9728C22.6904 21.9722 22.6904 21.9717 22.6904 21.9711C22.6904 21.9706 22.6904 21.9701 22.6904 21.9695C22.6904 21.969 22.6904 21.9684 22.6904 21.9679C22.6904 21.9674 22.6904 21.9668 22.6904 21.9663C22.6904 21.9657 22.6904 21.9652 22.6904 21.9647C22.6904 21.9641 22.6904 21.9636 22.6904 21.963C22.6904 21.9625 22.6904 21.962 22.6904 21.9614C22.6904 21.9609 22.6904 21.9604 22.6904 21.9598C22.6904 21.9593 22.6904 21.9588 22.6904 21.9582C22.6904 21.9577 22.6904 21.9571 22.6904 21.9566C22.6904 21.9561 22.6904 21.9555 22.6904 21.955C22.6904 21.9545 22.6904 21.9539 22.6904 21.9534C22.6904 21.9529 22.6904 21.9523 22.6904 21.9518C22.6904 21.9513 22.6904 21.9507 22.6904 21.9502C22.6904 21.9497 22.6904 21.9491 22.6904 21.9486C22.6904 21.9481 22.6904 21.9475 22.6904 21.947C22.6904 21.9465 22.6904 21.9459 22.6904 21.9454C22.6904 21.9449 22.6904 21.9443 22.6904 21.9438C22.6904 21.9433 22.6904 21.9428 22.6904 21.9422C22.6904 21.9417 22.6904 21.9412 22.6904 21.9406C22.6904 21.9401 22.6904 21.9396 22.6904 21.939C22.6904 21.9385 22.6904 21.938 22.6904 21.9375C22.6904 21.9369 22.6904 21.9364 22.6904 21.9359C22.6904 21.9353 22.6904 21.9348 22.6904 21.9343C22.6904 21.9338 22.6904 21.9332 22.6904 21.9327C22.6904 21.9322 22.6904 21.9317 22.6904 21.9311C22.6904 21.9306 22.6904 21.9301 22.6904 21.9295C22.6904 21.929 22.6904 21.9285 22.6904 21.928C22.6904 21.9274 22.6904 21.9269 22.6904 21.9264C22.6904 21.9259 22.6904 21.9253 22.6904 21.9248C22.6904 21.9243 22.6904 21.9238 22.6904 21.9232C22.6904 21.9227 22.6904 21.9222 22.6904 21.9217C22.6904 21.9212 22.6904 21.9206 22.6904 21.9201C22.6904 21.9196 22.6904 21.9191 22.6904 21.9185C22.6904 21.918 22.6904 21.9175 22.6904 21.917C22.6904 21.9165 22.6904 21.9159 22.6904 21.9154C22.6904 21.9149 22.6904 21.9144 22.6904 21.9139C22.6904 21.9133 22.6904 21.9128 22.6904 21.9123C22.6904 21.9118 22.6904 21.9113 22.6904 21.9107C22.6904 21.9102 22.6904 21.9097 22.6904 21.9092C22.6904 21.9087 22.6904 21.9081 22.6904 21.9076C22.6904 21.9071 22.6904 21.9066 22.6904 21.9061C22.6904 21.9056 22.6904 21.905 22.6904 21.9045C22.6904 21.904 22.6904 21.9035 22.6904 21.903C22.6904 21.9025 22.6904 21.9019 22.6904 21.9014C22.6904 21.9009 22.6904 21.9004 22.6904 21.8999C22.6904 21.8994 22.6904 21.8988 22.6904 21.8983C22.6904 21.8978 22.6904 21.8973 22.6904 21.8968C22.6904 21.8963 22.6904 21.8958 22.6904 21.8952C22.6904 21.8947 22.6904 21.8942 22.6904 21.8937C22.6904 21.8932 22.6904 21.8927 22.6904 21.8922C22.6904 21.8917 22.6904 21.8911 22.6904 21.8906C22.6904 21.8901 22.6904 21.8896 22.6904 21.8891C22.6904 21.8886 22.6904 21.8881 22.6904 21.8876C22.6904 21.887 22.6904 21.8865 22.6904 21.886C22.6904 21.8855 22.6904 21.885 22.6904 21.8845C22.6904 21.884 22.6904 21.8835 22.6904 21.883C22.6904 21.8825 22.6904 21.882 22.6904 21.8814C22.6904 21.8809 22.6904 21.8804 22.6904 21.8799C22.6904 21.8794 22.6904 21.8789 22.6904 21.8784C22.6904 21.8779 22.6904 21.8774 22.6904 21.8769C22.6904 21.8764 22.6904 21.8759 22.6904 21.8754C22.6904 21.8748 22.6904 21.8743 22.6904 21.8738C22.6904 21.8733 22.6904 21.8728 22.6904 21.8723C22.6904 21.8718 22.6904 21.8713 22.6904 21.8708C22.6904 21.8703 22.6904 21.8698 22.6904 21.8693C22.6904 21.8688 22.6904 21.8683 22.6904 21.8678C22.6904 21.8673 22.6904 21.8668 22.6904 21.8663C22.6904 21.8658 22.6904 21.8653 22.6904 21.8648C22.6904 21.8643 22.6904 21.8638 22.6904 21.8633C22.6904 21.8628 22.6904 21.8623 22.6904 21.8617C22.6904 21.8612 22.6904 21.8607 22.6904 21.8602C22.6904 21.8597 22.6904 21.8592 22.6904 21.8587C22.6904 21.8582 22.6904 21.8577 22.6904 21.8572C22.6904 21.8567 22.6904 21.8562 22.6904 21.8557C22.6904 21.8552 22.6904 21.8547 22.6904 21.8543C22.6904 21.8538 22.6904 21.8533 22.6904 21.8528C22.6904 21.8523 22.6904 21.8518 22.6904 21.8513C22.6904 21.8508 22.6904 21.8503 22.6904 21.8498C22.6904 21.8493 22.6904 21.8488 22.6904 21.8483C22.6904 21.8478 22.6904 21.8473 22.6904 21.8468C22.6904 21.8463 22.6904 21.8458 22.6904 21.8453C22.6904 21.8448 22.6904 21.8443 22.6904 21.8438C22.6904 21.8433 22.6904 21.8428 22.6904 21.8423C22.6904 21.8418 22.6904 21.8414 22.6904 21.8409C22.6904 21.8404 22.6904 21.8399 22.6904 21.8394C22.6904 21.8389 22.6904 21.8384 22.6904 21.8379C22.6904 21.8374 22.6904 21.8369 22.6904 21.8364C22.6904 21.8359 22.6904 21.8354 22.6904 21.835C22.6904 21.8345 22.6904 21.834 22.6904 21.8335C22.6904 21.833 22.6904 21.8325 22.6904 21.832C22.6904 21.8315 22.6904 21.831 22.6904 21.8305C22.6904 21.83 22.6904 21.8296 22.6904 21.8291C22.6904 21.8286 22.6904 21.8281 22.6904 21.8276C22.6904 21.8271 22.6904 21.8266 22.6904 21.8261C22.6904 21.8257 22.6904 21.8252 22.6904 21.8247C22.6904 21.8242 22.6904 21.8237 22.6904 21.8232C22.6904 21.8227 22.6904 21.8222 22.6904 21.8218C22.6904 21.8213 22.6904 21.8208 22.6904 21.8203C22.6904 21.8198 22.6904 21.8193 22.6904 21.8188C22.6904 21.8184 22.6904 21.8179 22.6904 21.8174C22.6904 21.8169 22.6904 21.8164 22.6904 21.8159C22.6904 21.8155 22.6904 21.815 22.6904 21.8145C22.6904 21.814 22.6904 21.8135 22.6904 21.813C22.6904 21.8126 22.6904 21.8121 22.6904 21.8116C22.6904 21.8111 22.6904 21.8106 22.6904 21.8101C22.6904 21.8097 22.6904 21.8092 22.6904 21.8087C22.6904 21.8082 22.6904 21.8077 22.6904 21.8073C22.6904 21.8068 22.6904 21.8063 22.6904 21.8058C22.6904 21.8053 22.6904 21.8049 22.6904 21.8044C22.6904 21.8039 22.6904 21.8034 22.6904 21.8029C22.6904 21.8025 22.6904 21.802 22.6904 21.8015C22.6904 21.801 22.6904 21.8005 22.6904 21.8001C22.6904 21.7996 22.6904 21.7991 22.6904 21.7986C22.6904 21.7982 22.6904 21.7977 22.6904 21.7972C22.6904 21.7967 22.6904 21.7962 22.6904 21.7958C22.6904 21.7953 22.6904 21.7948 22.6904 21.7943C22.6904 21.7939 22.6904 21.7934 22.6904 21.7929C22.6904 21.7924 22.6904 21.792 22.6904 21.7915C22.6904 21.791 22.6904 21.7905 22.6904 21.7901C22.6904 21.7896 22.6904 21.7891 22.6904 21.7887C22.6904 21.7882 22.6904 21.7877 22.6904 21.7872C22.6904 21.7868 22.6904 21.7863 22.6904 21.7858C22.6904 21.7853 22.6904 21.7849 22.6904 21.7844C22.6904 21.7839 22.6904 21.7835 22.6904 21.783C22.6904 21.7825 22.6904 21.782 22.6904 21.7816C22.6904 21.7811 22.6904 21.7806 22.6904 21.7802C22.6904 21.7797 22.6904 21.7792 22.6904 21.7788C22.6904 21.7783 22.6904 21.7778 22.6904 21.7773C22.6904 21.7769 22.6904 21.7764 22.6904 21.7759C22.6904 21.7755 22.6904 21.775 22.6904 21.7745C22.6904 21.7741 22.6904 21.7736 22.6904 21.7731C22.6904 21.7727 22.6904 21.7722 22.6904 21.7717C22.6904 21.7713 22.6904 21.7708 22.6904 21.7703C22.6904 21.7699 22.6904 21.7694 22.6904 21.7689C22.6904 21.7685 22.6904 21.768 22.6904 21.7675C22.6904 21.7671 22.6904 21.7666 22.6904 21.7661C22.6904 21.7657 22.6904 21.7652 22.6904 21.7648C22.6904 21.7643 22.6904 21.7638 22.6904 21.7634C22.6904 21.7629 22.6904 21.7624 22.6904 21.762C22.6904 21.7615 22.6904 21.7611 22.6904 21.7606C22.6904 21.7601 22.6904 21.7597 22.6904 21.7592C22.6904 21.7587 22.6904 21.7583 22.6904 21.7578C22.6904 21.7574 22.6904 21.7569 22.6904 21.7564C22.6904 21.756 22.6904 21.7555 22.6904 21.7551C22.6904 21.7546 22.6904 21.7541 22.6904 21.7537C22.6904 21.7532 22.6904 21.7528 22.6904 21.7523C22.6904 21.7518 22.6904 21.7514 22.6904 21.7509C22.6904 21.7505 22.6904 21.75 22.6904 21.7495C22.6904 21.7491 22.6904 21.7486 22.6904 21.7482C22.6904 21.7477 22.6904 21.7473 22.6904 21.7468C22.6904 21.7464 22.6904 21.7459 22.6904 21.7454C22.6904 21.745 22.6904 21.7445 22.6904 21.7441C22.6904 21.7436 22.6904 21.7432 22.6904 21.7427C22.6904 21.7423 22.6904 21.7418 22.6904 21.7413C22.6904 21.7409 22.6904 21.7404 22.6904 21.74C22.6904 21.7395 22.6904 21.7391 22.6904 21.7386C22.6904 21.7382 22.6904 21.7377 22.6904 21.7373C22.6904 21.7368 22.6904 21.7364 22.6904 21.7359C22.6904 21.7355 22.6904 21.735 22.6904 21.7345C22.6904 21.7341 22.6904 21.7336 22.6904 21.7332C22.6904 21.7327 22.6904 21.7323 22.6904 21.7318C22.6904 21.7314 22.6904 21.7309 22.6904 21.7305C22.6904 21.73 22.6904 21.7296 22.6904 21.7291C22.6904 21.7287 22.6904 21.7282 22.6904 21.7278C22.6904 21.7273 22.6904 21.7269 22.6904 21.7265C22.6904 21.726 22.6904 21.7256 22.6904 21.7251C22.6904 21.7247 22.6904 21.7242 22.6904 21.7238C22.6904 21.7233 22.6904 21.7229 22.6904 21.7224C22.6904 21.722 22.6904 21.7215 22.6904 21.7211C22.6904 21.7206 22.6904 21.7202 22.6904 21.7198C22.6904 21.7193 22.6904 21.7189 22.6904 21.7184C22.6904 21.718 22.6904 21.7175 22.6904 21.7171C22.6904 21.7166 22.6904 21.7162 22.6904 21.7157C22.6904 21.7153 22.6904 21.7149 22.6904 21.7144C22.6904 21.714 22.6904 21.7135 22.6904 21.7131C22.6904 21.7126 22.6904 21.7122 22.6904 21.7118C22.6904 21.7113 22.6904 21.7109 22.6904 21.7104C22.6904 21.71 22.6904 21.7096 22.6904 21.7091C22.6904 21.7087 22.6904 21.7082 22.6904 21.7078C22.6904 21.7074 22.6904 21.7069 22.6904 21.7065C22.6904 21.706 22.6904 21.7056 22.6904 21.7052C22.6904 21.7047 22.6904 21.7043 22.6904 21.7038C22.6904 21.7034 22.6904 21.703 22.6904 21.7025C22.6904 21.7021 22.6904 21.7016 22.6904 21.7012C22.6904 21.7008 22.6904 21.7003 22.6904 21.6999C22.6904 21.6995 22.6904 21.699 22.6904 21.6986C22.6904 21.6982 22.6904 21.6977 22.6904 21.6973C22.6904 21.6968 22.6904 21.6964 22.6904 21.696C22.6904 21.6955 22.6904 21.6951 22.6904 21.6947C22.6904 21.6942 22.6904 21.6938 22.6904 21.6934C22.6904 21.6929 22.6904 21.6925 22.6904 21.6921C22.6904 21.6916 22.6904 21.6912 22.6904 21.6908C22.6904 21.6903 22.6904 21.6899 22.6904 21.6895C22.6904 21.689 22.6904 21.6886 22.6904 21.6882C22.6904 21.6877 22.6904 21.6873 22.6904 21.6869C22.6904 21.6864 22.6904 21.686 22.6904 21.6856C22.6904 21.6852 22.6904 21.6847 22.6904 21.6843C22.6904 21.6839 22.6904 21.6834 22.6904 21.683C22.6904 21.6826 22.6904 21.6821 22.6904 21.6817C22.6904 21.6813 22.6904 21.6809 22.6904 21.6804C22.6904 21.68 22.6904 21.6796 22.6904 21.6791C22.6904 21.6787 22.6904 21.6783 22.6904 21.6779C22.6904 21.6774 22.6904 21.677 22.6904 21.6766C22.6904 21.6761 22.6904 21.6757 22.6904 21.6753C22.6904 21.6749 22.6904 21.6744 22.6904 21.674C22.6904 21.6736 22.6904 21.6732 22.6904 21.6727C22.6904 21.6723 22.6904 21.6719 22.6904 21.6715C22.6904 21.671 22.6904 21.6706 22.6904 21.6702C22.6904 21.6698 22.6904 21.6693 22.6904 21.6689C22.6904 21.6685 22.6904 21.6681 22.6904 21.6677C22.6904 21.6672 22.6904 21.6668 22.6904 21.6664C22.6904 21.666 22.6904 21.6655 22.6904 21.6651C22.6904 21.6647 22.6904 21.6643 22.6904 21.6639C22.6904 21.6634 22.6904 21.663 22.6904 21.6626C22.6904 21.6622 22.6904 21.6617 22.6904 21.6613C22.6904 21.6609 22.6904 21.6605 22.6904 21.6601C22.6904 21.6596 22.6904 21.6592 22.6904 21.6588C22.6904 21.6584 22.6904 21.658 22.6904 21.6576C22.6904 21.6571 22.6904 21.6567 22.6904 21.6563C22.6904 21.6559 22.6904 21.6555 22.6904 21.655C22.6904 21.6546 22.6904 21.6542 22.6904 21.6538C22.6904 21.6534 22.6904 21.653 22.6904 21.6525C22.6904 21.6521 22.6904 21.6517 22.6904 21.6513C22.6904 21.6509 22.6904 21.6505 22.6904 21.6501C22.6904 21.6496 22.6904 21.6492 22.6904 21.6488C22.6904 21.6484 22.6904 21.648 22.6904 21.6476C22.6904 21.6472 22.6904 21.6467 22.6904 21.6463C22.6904 21.6459 22.6904 21.6455 22.6904 21.6451C22.6904 21.6447 22.6904 21.6443 22.6904 21.6438C22.6904 21.6434 22.6904 21.643 22.6904 21.6426C22.6904 21.6422 22.6904 21.6418 22.6904 21.6414C22.6904 21.641 22.6904 21.6406 22.6904 21.6401C22.6904 21.6397 22.6904 21.6393 22.6904 21.6389C22.6904 21.6385 22.6904 21.6381 22.6904 21.6377C22.6904 21.6373 22.6904 21.6369 22.6904 21.6365C22.6904 21.636 22.6904 21.6356 22.6904 21.6352C22.6904 21.6348 22.6904 21.6344 22.6904 21.634C22.6904 21.6336 22.6904 21.6332 22.6904 21.6328C22.6904 21.6324 22.6904 21.632 22.6904 21.6316C22.6904 21.6312 22.6904 21.6307 22.6904 21.6303C22.6904 21.6299 22.6904 21.6295 22.6904 21.6291C22.6904 21.6287 22.6904 21.6283 22.6904 21.6279C22.6904 21.6275 22.6904 21.6271 22.6904 21.6267C22.6904 21.6263 22.6904 21.6259 22.6904 21.6255C22.6904 21.6251 22.6904 21.6247 22.6904 21.6243C22.6904 21.6239 22.6904 21.6235 22.6904 21.6231C22.6904 21.6227 22.6904 21.6223 22.6904 21.6219C22.6904 21.6214 22.6904 21.621 22.6904 21.6206C22.6904 21.6202 22.6904 21.6198 22.6904 21.6194C22.6904 21.619 22.6904 21.6186 22.6904 21.6182C22.6904 21.6178 22.6904 21.6174 22.6904 21.617C22.6904 21.6166 22.6904 21.6162 22.6904 21.6158C22.6904 21.6154 22.6904 21.615 22.6904 21.6146C22.6904 21.6142 22.6904 21.6138 22.6904 21.6134C22.6904 21.613 22.6904 21.6126 22.6904 21.6122C22.6904 21.6119 22.6904 21.6115 22.6904 21.6111C22.6904 21.6107 22.6904 21.6103 22.6904 21.6099C22.6904 21.6095 22.6904 21.6091 22.6904 21.6087C22.6904 21.6083 22.6904 21.6079 22.6904 21.6075C22.6904 21.6071 22.6904 21.6067 22.6904 21.6063C22.6904 21.6059 22.6904 21.6055 22.6904 21.6051C22.6904 21.6047 22.6904 21.6043 22.6904 21.6039C22.6904 21.6035 22.6904 21.6031 22.6904 21.6028C22.6904 21.6024 22.6904 21.602 22.6904 21.6016C22.6904 21.6012 22.6904 21.6008 22.6904 21.6004C22.6904 21.6 22.6904 21.5996 22.6904 21.5992C22.6904 21.5988 22.6904 21.5984 22.6904 21.598C22.6904 21.5977 22.6904 21.5973 22.6904 21.5969C22.6904 21.5965 22.6904 21.5961 22.6904 21.5957C22.6904 21.5953 22.6904 21.5949 22.6904 21.5945C22.6904 21.5941 22.6904 21.5938 22.6904 21.5934C22.6904 21.593 22.6904 21.5926 22.6904 21.5922C22.6904 21.5918 22.6904 21.5914 22.6904 21.591C22.6904 21.5907 22.6904 21.5903 22.6904 21.5899C22.6904 21.5895 22.6904 21.5891 22.6904 21.5887C22.6904 21.5883 22.6904 21.5879 22.6904 21.5876C22.6904 21.5872 22.6904 21.5868 22.6904 21.5864C22.6904 21.586 22.6904 21.5856 22.6904 21.5852C22.6904 21.5849 22.6904 21.5845 22.6904 21.5841C22.6904 21.5837 22.6904 21.5833 22.6904 21.5829C22.6904 21.5826 22.6904 21.5822 22.6904 21.5818C22.6904 21.5814 22.6904 21.581 22.6904 21.5806C22.6904 21.5803 22.6904 21.5799 22.6904 21.5795C22.6904 21.5791 22.6904 21.5787 22.6904 21.5783C22.6904 21.578 22.6904 21.5776 22.6904 21.5772C22.6904 21.5768 22.6904 21.5764 22.6904 21.5761C22.6904 21.5757 22.6904 21.5753 22.6904 21.5749C22.6904 21.5745 22.6904 21.5742 22.6904 21.5738C22.6904 21.5734 22.6904 21.573 22.6904 21.5726C22.6904 21.5723 22.6904 21.5719 22.6904 21.5715C22.6904 21.5711 22.6904 21.5708 22.6904 21.5704C22.6904 21.57 22.6904 21.5696 22.6904 21.5692C22.6904 21.5689 22.6904 21.5685 22.6904 21.5681C22.6904 21.5677 22.6904 21.5674 22.6904 21.567C22.6904 21.5666 22.6904 21.5662 22.6904 21.5659C22.6904 21.5655 22.6904 21.5651 22.6904 21.5647C22.6904 21.5644 22.6904 21.564 22.6904 21.5636C22.6904 21.5632 22.6904 21.5629 22.6904 21.5625C22.6904 21.5621 22.6904 21.5617 22.6904 21.5614C22.6904 21.561 22.6904 21.5606 22.6904 21.5602C22.6904 21.5599 22.6904 21.5595 22.6904 21.5591C22.6904 21.5588 22.6904 21.5584 22.6904 21.558C22.6904 21.5576 22.6904 21.5573 22.6904 21.5569C22.6904 21.5565 22.6904 21.5562 22.6904 21.5558C22.6904 21.5554 22.6904 21.555 22.6904 21.5547C22.6904 21.5543 22.6904 21.5539 22.6904 21.5536C22.6904 21.5532 22.6904 21.5528 22.6904 21.5525C22.6904 21.5521 22.6904 21.5517 22.6904 21.5514C22.6904 21.551 22.6904 21.5506 22.6904 21.5503C22.6904 21.5499 22.6904 21.5495 22.6904 21.5492C22.6904 21.5488 22.6904 21.5484 22.6904 21.5481C22.6904 21.5477 22.6904 21.5473 22.6904 21.547C22.6904 21.5466 22.6904 21.5462 22.6904 21.5459C22.6904 21.5455 22.6904 21.5451 22.6904 21.5448C22.6904 21.5444 22.6904 21.544 22.6904 21.5437C22.6904 21.5433 22.6904 21.5429 22.6904 21.5426C22.6904 21.5422 22.6904 21.5418 22.6904 21.5415C22.6904 21.5411 22.6904 21.5408 22.6904 21.5404C22.6904 21.54 22.6904 21.5397 22.6904 21.5393C22.6904 21.5389 22.6904 21.5386 22.6904 21.5382C22.6904 21.5379 22.6904 21.5375 22.6904 21.5371C22.6904 21.5368 22.6904 21.5364 22.6904 21.5361C22.6904 21.5357 22.6904 21.5353 22.6904 21.535C22.6904 21.5346 22.6904 21.5343 22.6904 21.5339C22.6904 21.5335 22.6904 21.5332 22.6904 21.5328C22.6904 21.5325 22.6904 21.5321 22.6904 21.5317C22.6904 21.5314 22.6904 21.531 22.6904 21.5307C22.6904 21.5303 22.6904 21.53 22.6904 21.5296C22.6904 21.5292 22.6904 21.5289 22.6904 21.5285C22.6904 21.5282 22.6904 21.5278 22.6904 21.5275C22.6904 21.5271 22.6904 21.5268 22.6904 21.5264C22.6904 21.526 22.6904 21.5257 22.6904 21.5253C22.6904 21.525 22.6904 21.5246 22.6904 21.5243C22.6904 21.5239 22.6904 21.5236 22.6904 21.5232C22.6904 21.5229 22.6904 21.5225 22.6904 21.5222C22.6904 21.5218 22.6904 21.5214 22.6904 21.5211C22.6904 21.5207 22.6904 21.5204 22.6904 21.52C22.6904 21.5197 22.6904 21.5193 22.6904 21.519C22.6904 21.5186 22.6904 21.5183 22.6904 21.5179C22.6904 21.5176 22.6904 21.5172 22.6904 21.5169C22.6904 21.5165 22.6904 21.5162 22.6904 21.5158C22.6904 21.5155 22.6904 21.5151 22.6904 21.5148C22.6904 21.5144 22.6904 21.5141 22.6904 21.5137C22.6904 21.5134 22.6904 21.513 22.6904 21.5127C22.6904 21.5123 22.6904 21.512 22.6904 21.5116C22.6904 21.5113 22.6904 21.5109 22.6904 21.5106C22.6904 21.5103 22.6904 21.5099 22.6904 21.5096C22.6904 21.5092 22.6904 21.5089 22.6904 21.5085C22.6904 21.5082 22.6904 21.5078 22.6904 21.5075C22.6904 21.5071 22.6904 21.5068 22.6904 21.5065C22.6904 21.5061 22.6904 21.5058 22.6904 21.5054C22.6904 21.5051 22.6904 21.5047 22.6904 21.5044C22.6904 21.504 22.6904 21.5037 22.6904 21.5034C22.6904 21.503 22.6904 21.5027 22.6904 21.5023C22.6904 21.502 22.6904 21.5016 22.6904 21.5013C22.6904 21.501 22.6904 21.5006 22.6904 21.5003C22.6904 21.4999 22.6904 21.4996 22.6904 21.4993C22.6904 21.4989 22.6904 21.4986 22.6904 21.4982C22.6904 21.4979 22.6904 21.4976 22.6904 21.4972C22.6904 21.4969 22.6904 21.4965 22.6904 21.4962C22.6904 21.4959 22.6904 21.4955 22.6904 21.4952C22.6904 21.4948 22.6904 21.4945 22.6904 21.4942C22.6904 21.4938 22.6904 21.4935 22.6904 21.4932C22.6904 21.4928 22.6904 21.4925 22.6904 21.4921C22.6904 21.4918 22.6904 21.4915 22.6904 21.4911C22.6904 21.4908 22.6904 21.4905 22.6904 21.4901C22.6904 21.4898 22.6904 21.4895 22.6904 21.4891C22.6904 21.4888 22.6904 21.4884 22.6904 21.4881C22.6904 21.4878 22.6904 21.4874 22.6904 21.4871C22.6904 21.4868 22.6904 21.4864 22.6904 21.4861C22.6904 21.4858 22.6904 21.4854 22.6904 21.4851C22.6904 21.4848 22.6904 21.4844 22.6904 21.4841C22.6904 21.4838 22.6904 21.4834 22.6904 21.4831C22.6904 21.4828 22.6904 21.4825 22.6904 21.4821C22.6904 21.4818 22.6904 21.4815 22.6904 21.4811C22.6904 21.4808 22.6904 21.4805 22.6904 21.4801C22.6904 21.4798 22.6904 21.4795 22.6904 21.4791C22.6904 21.4788 22.6904 21.4785 22.6904 21.4782C22.6904 21.4778 22.6904 21.4775 22.6904 21.4772C22.6904 21.4768 22.6904 21.4765 22.6904 21.4762C22.6904 21.4759 22.6904 21.4755 22.6904 21.4752C22.6904 21.4749 22.6904 21.4746 22.6904 21.4742C22.6904 21.4739 22.6904 21.4736 22.6904 21.4732C22.6904 21.4729 22.6904 21.4726 22.6904 21.4723C22.6904 21.4719 22.6904 21.4716 22.6904 21.4713C22.6904 21.471 22.6904 21.4706 22.6904 21.4703C22.6904 21.47 22.6904 21.4697 22.6904 21.4693C22.6904 21.469 22.6904 21.4687 22.6904 21.4684C22.6904 21.4681 22.6904 21.4677 22.6904 21.4674C22.6904 21.4671 22.6904 21.4668 22.6904 21.4664C22.6904 21.4661 22.6904 21.4658 22.6904 21.4655C22.6904 21.4651 22.6904 21.4648 22.6904 21.4645C22.6904 21.4642 22.6904 21.4639 22.6904 21.4635C22.6904 21.4632 22.6904 21.4629 22.6904 21.4626C22.6904 21.4623 22.6904 21.4619 22.6904 21.4616C22.6904 21.4613 22.6904 21.461 22.6904 21.4607C22.6904 21.4603 22.6904 21.46 22.6904 21.4597C22.6904 21.4594 22.6904 21.4591 22.6904 21.4588C22.6904 21.4584 22.6904 21.4581 22.6904 21.4578C22.6904 21.4575 22.6904 21.4572 22.6904 21.4569C22.6904 21.4565 22.6904 21.4562 22.6904 21.4559C22.6904 21.4556 22.6904 21.4553 22.6904 21.455C22.6904 21.4546 22.6904 21.4543 22.6904 21.454C22.6904 21.4537 22.6904 21.4534 22.6904 21.4531C22.6904 21.4528 22.6904 21.4524 22.6904 21.4521C22.6904 21.4518 22.6904 21.4515 22.6904 21.4512C22.6904 21.4509 22.6904 21.4506 22.6904 21.4502C22.6904 21.4499 22.6904 21.4496 22.6904 21.4493C22.6904 21.449 22.6904 21.4487 22.6904 21.4484C22.6904 21.4481 22.6904 21.4477 22.6904 21.4474C22.6904 21.4471 22.6904 21.4468 22.6904 21.4465C22.6904 21.4462 22.6904 21.4459 22.6904 21.4456C22.6904 21.4453 22.6904 21.445 22.6904 21.4446C22.6904 21.4443 22.6904 21.444 22.6904 21.4437C22.6904 21.4434 22.6904 21.4431 22.6904 21.4428C22.6904 21.4425 22.6904 21.4422 22.6904 21.4419C22.6904 21.4416 22.6904 21.4413 22.6904 21.4409C22.6904 21.4406 22.6904 21.4403 22.6904 21.44C22.6904 21.4397 22.6904 21.4394 22.6904 21.4391C22.6904 21.4388 22.6904 21.4385 22.6904 21.4382C22.6904 21.4379 22.6904 21.4376 22.6904 21.4373C22.6904 21.437 22.6904 21.4367 22.6904 21.4364C22.6904 21.4361 22.6904 21.4358 22.6904 21.4354C22.6904 21.4351 22.6904 21.4348 22.6904 21.4345C22.6904 21.4342 22.6904 21.4339 22.6904 21.4336C22.6904 21.4333 22.6904 21.433 22.6904 21.4327C22.6904 21.4324 22.6904 21.4321 22.6904 21.4318C22.6904 21.4315 22.6904 21.4312 22.6904 21.4309C22.6904 21.4306 22.6904 21.4303 22.6904 21.43C22.6904 21.4297 22.6904 21.4294 22.6904 21.4291C22.6904 21.4288 22.6904 21.4285 22.6904 21.4282C22.6904 21.4279 22.6904 21.4276 22.6904 21.4273C22.6904 21.427 22.6904 21.4267 22.6904 21.4264C22.6904 21.4261 22.6904 21.4258 22.6904 21.4255C22.6904 21.4252 22.6904 21.4249 22.6904 21.4246C22.6904 21.4243 22.6904 21.424 22.6904 21.4237C22.6904 21.4234 22.6904 21.4231 22.6904 21.4229C22.6904 21.4226 22.6904 21.4223 22.6904 21.422C22.6904 21.4217 22.6904 21.4214 22.6904 21.4211C22.6904 21.4208 22.6904 21.4205 22.6904 21.4202C22.6904 21.4199 22.6904 21.4196 22.6904 21.4193C22.6904 21.419 22.6904 21.4187 22.6904 21.4184C22.6904 21.4181 22.6904 21.4178 22.6904 21.4176C22.6904 21.4173 22.6904 21.417 22.6904 21.4167C22.6904 21.4164 22.6904 21.4161 22.6904 21.4158C22.6904 21.4155 22.6904 21.4152 22.6904 21.4149C22.6904 21.4146 22.6904 21.4143 22.6904 21.4141C22.6904 21.4138 22.6904 21.4135 22.6904 21.4132C22.6904 21.4129 22.6904 21.4126 22.6904 21.4123C22.6904 21.412 22.6904 21.4117 22.6904 21.4115C22.6904 21.4112 22.6904 21.4109 22.6904 21.4106C22.6904 21.4103 22.6904 21.41 22.6904 21.4097C22.6904 21.4094 22.6904 21.4091 22.6904 21.4089C22.6904 21.4086 22.6904 21.4083 22.6904 21.408H21.3736ZM21.3777 22.1407C21.4007 22.3483 21.4037 22.8276 21.3741 23.6276L22.6899 23.6764C22.719 22.8924 22.722 22.3157 22.6863 21.9953L21.3777 22.1407ZM21.3741 23.6276C21.3454 24.4029 21.288 25.1474 21.2023 25.8616L22.5097 26.0184C22.6 25.2659 22.66 24.4851 22.6899 23.6764L21.3741 23.6276ZM21.2023 25.8616C21.1194 26.5525 20.9517 27.3541 20.6942 28.2697L21.9618 28.6263C22.2323 27.6646 22.4166 26.7942 22.5097 26.0184L21.2023 25.8616ZM20.6893 28.2883C20.4634 29.1917 20.184 29.9846 19.8545 30.6711L21.0415 31.2409C21.416 30.4608 21.7232 29.5817 21.9667 28.6077L20.6893 28.2883ZM41.4546 15.512H40.7962V15.5637L40.8042 15.6147L41.4546 15.512ZM41.7626 17.668L41.11 17.755L41.1114 17.7656L41.1131 17.7762L41.7626 17.668ZM42.2906 21.936L41.6357 22.0044L41.637 22.0152L42.2906 21.936ZM42.5986 26.424L43.164 26.7613L43.2519 26.6139L43.2567 26.4423L42.5986 26.424ZM39.3866 30.692L39.4765 31.3442L39.7003 31.3133L39.858 31.1516L39.3866 30.692ZM26.5386 30.956L26.1656 31.4985L26.29 31.5841L26.4393 31.6068L26.5386 30.956ZM22.6666 26.688L22.0094 26.6477L21.9965 26.8581L22.1083 27.0369L22.6666 26.688ZM23.6786 13.576L23.1645 13.1647L23.0464 13.3123L23.0246 13.5L23.6786 13.576ZM24.2946 12.784L23.7727 12.3826V12.3826L24.2946 12.784ZM25.2186 11.508L24.676 11.135L25.2186 11.508ZM25.9226 10.54L25.8594 9.88466L25.59 9.91062L25.4168 10.1185L25.9226 10.54ZM39.1226 10.716L39.6569 10.3313L39.4945 10.1058L39.2197 10.0648L39.1226 10.716ZM40.6626 13.356L40.0704 13.6436L40.0736 13.6504L40.0771 13.6571L40.6626 13.356ZM29.2666 24.796H28.6082V25.4682L29.2803 25.4542L29.2666 24.796ZM35.2946 24.268L35.4506 24.9076L35.9632 24.7826L35.9528 24.2551L35.2946 24.268ZM34.8546 17.536L35.505 17.434L35.4335 16.978L34.9804 16.8898L34.8546 17.536ZM29.8386 17.536L29.5912 16.9259L29.2252 17.0743L29.1838 17.4671L29.8386 17.536ZM29.4426 21.892L30.0992 21.94L30.0993 21.9389L29.4426 21.892ZM29.2666 24.268L28.6101 24.2175L28.6082 24.2427V24.268H29.2666ZM40.8042 15.6147C40.8911 16.1647 40.993 16.8777 41.11 17.755L42.4152 17.581C42.2975 16.6983 42.194 15.9739 42.1049 15.4093L40.8042 15.6147ZM41.1131 17.7762C41.2563 18.6349 41.4306 20.0404 41.6358 22.0044L42.9454 21.8676C42.7399 19.9009 42.5622 18.4611 42.412 17.5598L41.1131 17.7762ZM41.637 22.0152C41.8704 23.9411 41.9684 25.3988 41.9404 26.4057L43.2567 26.4423C43.2874 25.3372 43.1801 23.8029 42.9442 21.8568L41.637 22.0152ZM42.0331 26.0867C41.0575 27.7224 40.0172 29.1021 38.9152 30.2324L39.858 31.1516C41.044 29.9352 42.145 28.4696 43.164 26.7613L42.0331 26.0867ZM39.2966 30.0398C34.2288 30.7388 30.0145 30.8202 26.6378 30.3052L26.4393 31.6068C29.9853 32.1478 34.3364 32.0532 39.4765 31.3442L39.2966 30.0398ZM26.9116 30.4135C25.5964 29.5093 24.3639 28.1615 23.2249 26.3391L22.1083 27.0369C23.3159 28.9692 24.6647 30.4667 26.1656 31.4985L26.9116 30.4135ZM23.3237 26.7283C23.705 20.5094 24.0415 16.1549 24.3325 13.652L23.0246 13.5C22.729 16.0424 22.3907 20.4293 22.0094 26.6477L23.3237 26.7283ZM24.1927 13.9873C24.3144 13.8351 24.5232 13.5665 24.8164 13.1854L23.7727 12.3826C23.4792 12.7641 23.2774 13.0235 23.1645 13.1647L24.1927 13.9873ZM24.8164 13.1854C25.118 12.7933 25.4329 12.3583 25.7611 11.881L24.676 11.135C24.3588 11.5964 24.0578 12.012 23.7727 12.3826L24.8164 13.1854ZM25.7611 11.881C26.0842 11.4111 26.3034 11.1114 26.4283 10.9615L25.4168 10.1185C25.2484 10.3206 24.9983 10.6663 24.676 11.135L25.7611 11.881ZM25.9857 11.1953C30.8134 10.73 35.1583 10.79 39.0254 11.3672L39.2197 10.0648C35.2255 9.46867 30.7704 9.41131 25.8594 9.88466L25.9857 11.1953ZM38.5883 11.1007C39.0894 11.7967 39.5841 12.6425 40.0704 13.6436L41.2548 13.0684C40.7437 12.0161 40.2118 11.102 39.6569 10.3313L38.5883 11.1007ZM40.0771 13.6571C40.3343 14.1572 40.5193 14.5673 40.6386 14.892C40.7628 15.2303 40.7962 15.4247 40.7962 15.512H42.1129C42.1129 15.1886 42.0143 14.8184 41.8746 14.438C41.7299 14.0441 41.5189 13.5815 41.248 13.0549L40.0771 13.6571ZM29.2803 25.4542C32.0993 25.3955 34.1718 25.2195 35.4506 24.9076L35.1386 23.6284C34.012 23.9032 32.0659 24.0792 29.2528 24.1378L29.2803 25.4542ZM35.9528 24.2551C35.894 21.2561 35.7468 18.9757 35.505 17.434L34.2041 17.638C34.4316 19.0883 34.5778 21.2959 34.6363 24.2809L35.9528 24.2551ZM34.9804 16.8898C32.697 16.445 30.8632 16.4102 29.5912 16.9259L30.0859 18.1461C30.9846 17.7818 32.4947 17.747 34.7287 18.1822L34.9804 16.8898ZM29.1838 17.4671C29.0073 19.144 28.8745 20.6037 28.7859 21.8451L30.0993 21.9389C30.1866 20.7163 30.3178 19.272 30.4933 17.6049L29.1838 17.4671ZM28.7859 21.844C28.6979 23.0469 28.6393 23.8376 28.6101 24.2175L29.923 24.3185C29.9524 23.9357 30.0112 23.1425 30.0992 21.94L28.7859 21.844ZM28.6082 24.268V24.796H29.9249V24.268H28.6082ZM50.0655 0.464L50.7215 0.407774L50.6687 -0.207359L50.0515 -0.194226L50.0655 0.464ZM51.6935 30.736L51.686 31.3943L52.3734 31.4021L52.3515 30.715L51.6935 30.736ZM43.9495 30.648L43.2911 30.6499L43.293 31.299L43.942 31.3063L43.9495 30.648ZM43.8615 0.595998L43.8475 -0.0622277L43.2012 -0.0484778L43.2031 0.597926L43.8615 0.595998ZM49.4095 0.520226C50.1122 8.71789 50.6544 18.796 51.0355 30.757L52.3515 30.715C51.97 18.74 51.4268 8.63677 50.7215 0.407774L49.4095 0.520226ZM51.701 30.0777L43.957 29.9897L43.942 31.3063L51.686 31.3943L51.701 30.0777ZM44.6079 30.6461L44.5199 0.59407L43.2031 0.597926L43.2911 30.6499L44.6079 30.6461ZM43.8755 1.25422L50.0795 1.12223L50.0515 -0.194226L43.8475 -0.0622277L43.8755 1.25422ZM59.4327 0.464L60.0887 0.407774L60.0359 -0.207359L59.4187 -0.194226L59.4327 0.464ZM61.0607 30.736L61.0532 31.3943L61.7406 31.4021L61.7187 30.715L61.0607 30.736ZM53.3167 30.648L52.6583 30.6499L52.6602 31.299L53.3092 31.3063L53.3167 30.648ZM53.2287 0.595998L53.2147 -0.0622277L52.5684 -0.0484778L52.5703 0.597926L53.2287 0.595998ZM58.7767 0.520226C59.4794 8.71789 60.0215 18.796 60.4026 30.757L61.7187 30.715C61.3372 18.74 60.794 8.63677 60.0887 0.407774L58.7767 0.520226ZM61.0682 30.0777L53.3242 29.9897L53.3092 31.3063L61.0532 31.3943L61.0682 30.0777ZM53.9751 30.6461L53.8871 0.59407L52.5703 0.597926L52.6583 30.6499L53.9751 30.6461ZM53.2427 1.25422L59.4467 1.12223L59.4187 -0.194226L53.2147 -0.0622277L53.2427 1.25422ZM80.5479 24.884L81.1367 24.5896L80.9462 24.2085L80.5206 24.2262L80.5479 24.884ZM80.6359 25.148L79.9972 25.3077L80.0147 25.3778L80.047 25.4424L80.6359 25.148ZM80.8999 25.984L80.2636 26.1537L80.2668 26.1649L80.8999 25.984ZM81.1199 27.216L80.4632 27.2629L80.4648 27.2861L80.4681 27.3091L81.1199 27.216ZM81.0759 30.78L81.1183 31.437L81.6037 31.4057L81.7163 30.9325L81.0759 30.78ZM77.5119 30.956L77.5253 31.6144L77.5382 31.6138L77.5119 30.956ZM70.3839 30.824L70.3604 31.482L70.3606 31.482L70.3839 30.824ZM62.6399 29.988L61.9819 30.0112L61.9997 30.5142L62.4896 30.629L62.6399 29.988ZM62.4199 20.176L63.0781 20.1884L62.4199 20.176ZM62.8159 13.796L62.232 13.4919L62.1713 13.6082L62.16 13.739L62.8159 13.796ZM65.5439 10.012L65.4865 9.35613L65.2428 9.37745L65.0722 9.55271L65.5439 10.012ZM80.2839 9.924L80.9276 9.78605L80.837 9.36322L80.413 9.27841L80.2839 9.924ZM80.5479 11.552L79.895 11.6372L79.8972 11.6535L79.9001 11.6698L80.5479 11.552ZM80.8999 14.984L80.243 15.0309L80.2442 15.0436L80.8999 14.984ZM81.0319 19.12L81.6883 19.1705L81.689 19.1621L81.6894 19.1537L81.0319 19.12ZM80.9879 19.692L81.3329 20.2527L81.6186 20.0769L81.6443 19.7425L80.9879 19.692ZM79.4039 20.528L79.6879 21.1219L79.4039 20.528ZM75.3999 22.068L75.1808 21.4472L75.1779 21.4482L75.3999 22.068ZM69.7239 23.608L69.6089 22.9597L69.008 23.0663L69.0688 23.6735L69.7239 23.608ZM69.9439 25.324L69.2936 25.4267L69.385 26.0061L69.9712 25.9818L69.9439 25.324ZM69.4599 15.908L69.2186 15.2954L68.8086 15.457L68.8016 15.8976L69.4599 15.908ZM69.4159 18.68L68.7576 18.6696L68.7442 19.5128L69.5655 19.3212L69.4159 18.68ZM74.0359 17.536L74.2055 18.1721L74.7556 18.0255L74.6898 17.46L74.0359 17.536ZM73.8159 15.644L74.4698 15.568L74.409 15.0448L73.8853 14.9893L73.8159 15.644ZM79.959 25.1784C79.9554 25.1711 79.9588 25.1767 79.9673 25.2022C79.9753 25.2263 79.9854 25.2608 79.9972 25.3077L81.2746 24.9883C81.2416 24.8564 81.1985 24.7131 81.1367 24.5896L79.959 25.1784ZM80.047 25.4424C80.0466 25.4415 80.0536 25.4561 80.068 25.4949C80.0815 25.5314 80.0982 25.5802 80.1181 25.6433C80.1579 25.7694 80.2064 25.9386 80.2637 26.1536L81.536 25.8144C81.4235 25.3924 81.3194 25.0429 81.2247 24.8536L80.047 25.4424ZM80.2668 26.1649C80.3721 26.5335 80.4372 26.8993 80.4632 27.2629L81.7766 27.1691C81.7439 26.7114 81.6623 26.2559 81.5329 25.8031L80.2668 26.1649ZM80.4681 27.3091C80.5224 27.6894 80.5652 28.208 80.5941 28.8726L81.9096 28.8154C81.8799 28.1307 81.8346 27.564 81.7716 27.1229L80.4681 27.3091ZM80.5941 28.8726C80.621 29.4904 80.5671 30.0746 80.4354 30.6275L81.7163 30.9325C81.878 30.2534 81.9414 29.5469 81.9096 28.8154L80.5941 28.8726ZM81.0335 30.123C80.1317 30.1812 78.9497 30.2396 77.4856 30.2982L77.5382 31.6138C79.0074 31.5551 80.2014 31.4962 81.1183 31.437L81.0335 30.123ZM77.4984 30.2978C76.0811 30.3267 73.7212 30.2833 70.4072 30.166L70.3606 31.482C73.6759 31.5993 76.068 31.644 77.5253 31.6142L77.4984 30.2978ZM70.4074 30.166C67.1394 30.0493 64.6069 29.7728 62.7901 29.347L62.4896 30.629C64.4276 31.0832 67.0577 31.364 70.3604 31.482L70.4074 30.166ZM63.2978 29.9648C63.1217 24.9742 63.0492 21.722 63.0781 20.1884L61.7616 20.1636C61.7319 21.7393 61.806 25.0284 61.9819 30.0112L63.2978 29.9648ZM63.0781 20.1884C63.1071 18.6556 63.2376 16.546 63.4718 13.853L62.16 13.739C61.9248 16.4433 61.7914 18.587 61.7616 20.1636L63.0781 20.1884ZM63.3998 14.1001C64.1041 12.7479 64.9759 11.539 66.0156 10.4713L65.0722 9.55271C63.9412 10.7143 62.9943 12.0281 62.232 13.4919L63.3998 14.1001ZM65.6013 10.6679C72.6443 10.0516 77.4712 10.0329 80.1548 10.5696L80.413 9.27841C77.5232 8.70045 72.5235 8.74039 65.4865 9.35613L65.6013 10.6679ZM79.6401 10.0619C79.7228 10.4478 79.8081 10.9708 79.895 11.6372L81.2007 11.4668C81.1116 10.7839 81.0209 10.2215 80.9276 9.78605L79.6401 10.0619ZM79.9001 11.6698C80.0103 12.2758 80.1258 13.3871 80.2432 15.0309L81.5566 14.9371C81.4393 13.2956 81.3201 12.1189 81.1956 11.4342L79.9001 11.6698ZM80.2442 15.0436C80.3891 16.6375 80.4309 17.9832 80.3744 19.0863L81.6894 19.1537C81.7502 17.9688 81.704 16.5571 81.5555 14.9244L80.2442 15.0436ZM80.3754 19.0695L80.3314 19.6415L81.6443 19.7425L81.6883 19.1705L80.3754 19.0695ZM80.6428 19.1313C80.2899 19.3485 79.7854 19.6157 79.1198 19.9341L79.6879 21.1219C80.3717 20.7949 80.9232 20.5049 81.3329 20.2527L80.6428 19.1313ZM79.1198 19.9341C78.4817 20.2392 77.1795 20.7417 75.1808 21.4472L75.619 22.6888C77.6096 21.9863 78.9767 21.4621 79.6879 21.1219L79.1198 19.9341ZM75.1779 21.4482C73.2429 22.1413 71.3868 22.6443 69.6089 22.9597L69.8389 24.2563C71.6983 23.9264 73.6262 23.4027 75.6219 22.6878L75.1779 21.4482ZM69.0688 23.6735C69.1286 24.2721 69.2035 24.8565 69.2936 25.4267L70.5942 25.2213C70.5082 24.6769 70.4365 24.1173 70.379 23.5425L69.0688 23.6735ZM69.9712 25.9818L80.5752 25.5418L80.5206 24.2262L69.9166 24.6662L69.9712 25.9818ZM68.8016 15.8976L68.7576 18.6696L70.0742 18.6904L70.1182 15.9184L68.8016 15.8976ZM69.5655 19.3212C71.3302 18.9094 72.8771 18.5264 74.2055 18.1721L73.8662 16.8999C72.5546 17.2496 71.0216 17.6293 69.2663 18.0388L69.5655 19.3212ZM74.6898 17.46L74.4698 15.568L73.1619 15.72L73.3819 17.612L74.6898 17.46ZM73.8853 14.9893C71.9206 14.7809 70.3382 14.8544 69.2186 15.2954L69.7012 16.5206C70.5176 16.199 71.8391 16.0964 73.7464 16.2987L73.8853 14.9893ZM100.216 24.312L100.871 24.2431L100.81 23.6609L100.224 23.6537L100.216 24.312ZM100.04 30.78L100.087 31.4367L100.634 31.3976L100.695 30.8527L100.04 30.78ZM96.8282 30.956L96.8428 31.6142L96.8502 31.6141L96.8575 31.6137L96.8282 30.956ZM90.2722 30.824L90.2469 31.4819L90.2722 30.824ZM82.8802 29.988L82.2225 30.0174L82.2448 30.5153L82.73 30.629L82.8802 29.988ZM82.5722 20.088L81.9143 20.06L81.914 20.0737L82.5722 20.088ZM83.3642 10.232L83.2351 9.58641L82.7528 9.68287L82.7085 10.1727L83.3642 10.232ZM83.9802 10.144L83.9147 9.48885L83.9075 9.48965L83.9802 10.144ZM85.6962 10.012L85.7415 10.6688L85.7528 10.668L85.764 10.6669L85.6962 10.012ZM88.2042 9.792L88.2511 10.4487L88.2042 9.792ZM91.1082 9.66L91.1255 10.3181L91.1342 10.3179L91.1428 10.3175L91.1082 9.66ZM94.2322 9.572V10.2304H94.2422L94.2522 10.2301L94.2322 9.572ZM97.1802 9.616L97.1416 10.2732L97.1802 9.616ZM99.6882 9.924L100.334 9.79488L100.249 9.37222L99.8281 9.28065L99.6882 9.924ZM99.7762 10.628L99.1206 10.6876L99.1237 10.7226L99.1306 10.7571L99.7762 10.628ZM99.9522 12.652L99.2949 12.6885L99.2954 12.6984L99.2962 12.7082L99.9522 12.652ZM99.8642 15.908L99.8343 16.5657L100.44 16.5932L100.517 15.9917L99.8642 15.908ZM97.4002 15.82L97.3616 16.4772L97.3712 16.4778L97.3809 16.4781L97.4002 15.82ZM93.0882 15.644L93.0673 16.302L93.0677 16.3021L93.0882 15.644ZM89.6562 15.556V14.8976H89.0268L88.9985 15.5264L89.6562 15.556ZM89.4802 19.472L88.8225 19.4424L88.8221 19.4513L88.822 19.4602L89.4802 19.472ZM89.5682 24.18L88.911 24.2187L88.947 24.8307L89.5601 24.8383L89.5682 24.18ZM99.5615 24.3809C99.7305 25.9869 99.6766 28.0906 99.3859 30.7073L100.695 30.8527C100.99 28.1894 101.054 25.9811 100.871 24.2431L99.5615 24.3809ZM99.9933 30.1233C99.1803 30.1814 98.1161 30.2397 96.799 30.2983L96.8575 31.6137C98.1803 31.5549 99.2575 31.496 100.087 31.4367L99.9933 30.1233ZM96.8136 30.2978C95.5154 30.3266 93.3475 30.2834 90.2975 30.1661L90.2469 31.4819C93.2982 31.5992 95.5011 31.644 96.8428 31.6142L96.8136 30.2978ZM90.2975 30.1661C87.2676 30.0496 84.8502 29.7735 83.0305 29.347L82.73 30.629C84.6649 31.0825 87.1755 31.3638 90.2469 31.4819L90.2975 30.1661ZM83.5379 29.9586C83.3029 24.7002 83.2017 21.4249 83.2304 20.1023L81.914 20.0737C81.8841 21.4497 81.9882 24.7745 82.2225 30.0174L83.5379 29.9586ZM83.23 20.116C83.2879 18.7564 83.5501 15.4885 84.0199 10.2913L82.7085 10.1727C82.2397 15.3595 81.9739 18.6623 81.9144 20.06L83.23 20.116ZM83.4933 10.8776C83.6123 10.8538 83.7958 10.8269 84.0529 10.7983L83.9075 9.48965C83.6367 9.51975 83.4094 9.55154 83.2351 9.58641L83.4933 10.8776ZM84.0457 10.7991C84.3274 10.7709 84.8894 10.7276 85.7415 10.6688L85.6509 9.35518C84.8017 9.41375 84.2197 9.45839 83.9147 9.48889L84.0457 10.7991ZM85.764 10.6669C86.608 10.5796 87.437 10.5069 88.2511 10.4487L88.1573 9.1353C87.3288 9.19448 86.4858 9.26843 85.6285 9.35712L85.764 10.6669ZM88.2511 10.4487C89.0599 10.3909 90.0175 10.3473 91.1255 10.3181L91.0909 9.00185C89.9696 9.03136 88.9912 9.07573 88.1573 9.1353L88.2511 10.4487ZM91.1428 10.3175C92.2477 10.2593 93.2773 10.2304 94.2322 10.2304V8.91362C93.2511 8.91362 92.1981 8.94335 91.0736 9.00253L91.1428 10.3175ZM94.2522 10.2301C95.2 10.2013 96.1631 10.2157 97.1416 10.2732L97.2189 8.95876C96.2026 8.89898 95.2004 8.88398 94.2123 8.91393L94.2522 10.2301ZM97.1416 10.2732C98.1185 10.3307 98.9181 10.4303 99.5484 10.5673L99.8281 9.28065C99.109 9.12432 98.2366 9.01863 97.2189 8.95876L97.1416 10.2732ZM99.0426 10.0531C99.0646 10.163 99.0915 10.3679 99.1206 10.6876L100.432 10.5684C100.402 10.2428 100.371 9.97836 100.334 9.79488L99.0426 10.0531ZM99.1306 10.7571C99.1783 10.9952 99.2354 11.619 99.2949 12.6885L100.61 12.6155C100.552 11.573 100.492 10.8474 100.422 10.4989L99.1306 10.7571ZM99.2962 12.7082C99.3798 13.6831 99.3526 14.7213 99.2112 15.8243L100.517 15.9917C100.669 14.8067 100.701 13.6742 100.608 12.5958L99.2962 12.7082ZM99.8941 15.2503C99.2439 15.2207 98.4188 15.1913 97.4196 15.1619L97.3809 16.4781C98.3764 16.5074 99.1938 16.5366 99.8343 16.5657L99.8941 15.2503ZM97.4389 15.1628C96.4324 15.1036 94.9879 15.0447 93.1088 14.9859L93.0677 16.3021C94.9432 16.3607 96.3734 16.4191 97.3616 16.4772L97.4389 15.1628ZM93.1091 14.986C91.2654 14.9274 90.1091 14.8976 89.6562 14.8976V16.2144C90.0833 16.2144 91.2151 16.2432 93.0673 16.302L93.1091 14.986ZM88.9985 15.5264L88.8225 19.4424L90.1379 19.5016L90.3139 15.5856L88.9985 15.5264ZM88.822 19.4602C88.7923 21.1181 88.8219 22.7044 88.911 24.2187L90.2255 24.1413C90.1385 22.6636 90.1094 21.1112 90.1385 19.4838L88.822 19.4602ZM89.5601 24.8383L100.208 24.9703L100.224 23.6537L89.5764 23.5217L89.5601 24.8383ZM118.593 23.212L119.247 23.1291L119.169 22.5147L118.551 22.555L118.593 23.212ZM117.845 30.208L118.061 30.8302L118.394 30.7149L118.483 30.3739L117.845 30.208ZM114.809 30.78L114.748 30.1245L114.809 30.78ZM107.461 30.912L107.478 30.2538L107.461 30.912ZM104.645 30.824L104.591 31.4801L104.605 31.4813L104.619 31.4818L104.645 30.824ZM103.589 30.736L102.949 30.8868L103.058 31.3524L103.535 31.3921L103.589 30.736ZM102.841 18.24L103.5 18.2499L103.51 17.5647L102.825 17.5818L102.841 18.24ZM101.081 18.284H100.423V18.959L101.098 18.9422L101.081 18.284ZM101.081 11.904V11.2456H100.423V11.904H101.081ZM103.017 11.904V12.5624H103.658L103.676 11.9225L103.017 11.904ZM103.281 0.243997L103.267 -0.414217L102.63 -0.400151L102.623 0.23643L103.281 0.243997ZM111.245 0.0679996L111.903 0.10709L111.945 -0.605997L111.231 -0.590214L111.245 0.0679996ZM110.541 11.904L109.884 11.8649L109.843 12.5624H110.541V11.904ZM112.301 11.904H112.96V11.2456H112.301V11.904ZM112.301 17.932L112.329 18.5898L112.96 18.5635V17.932H112.301ZM110.189 18.02L110.162 17.3622L109.568 17.387L109.532 17.9808L110.189 18.02ZM109.793 24.664L109.136 24.6248L109.096 25.2983L109.77 25.322L109.793 24.664ZM112.301 24.752L112.278 25.41L112.842 25.4297L112.948 24.8763L112.301 24.752ZM112.521 23.608L112.479 22.951L111.971 22.9841L111.875 23.4837L112.521 23.608ZM117.94 23.2949C118.16 25.0263 117.931 27.2667 117.208 30.0421L118.483 30.3739C119.226 27.5173 119.496 25.0937 119.247 23.1291L117.94 23.2949ZM117.63 29.5858C116.937 29.8257 115.983 30.0096 114.748 30.1245L114.87 31.4355C116.158 31.3158 117.228 31.1183 118.061 30.8302L117.63 29.5858ZM114.748 30.1245C113.507 30.2399 112.266 30.2976 111.025 30.2976V31.6144C112.307 31.6144 113.589 31.5548 114.87 31.4355L114.748 30.1245ZM111.025 30.2976C109.799 30.2976 108.616 30.283 107.478 30.2538L107.445 31.5702C108.595 31.5996 109.788 31.6144 111.025 31.6144V30.2976ZM107.478 30.2538C106.336 30.2245 105.401 30.1953 104.672 30.1662L104.619 31.4818C105.357 31.5114 106.299 31.5408 107.445 31.5702L107.478 30.2538ZM104.7 30.1679L103.644 30.0799L103.535 31.3921L104.591 31.4801L104.7 30.1679ZM104.23 30.5852C103.664 28.1779 103.412 24.0841 103.5 18.2499L102.183 18.2301C102.095 24.0706 102.342 28.3074 102.949 30.8868L104.23 30.5852ZM102.825 17.5818L101.065 17.6258L101.098 18.9422L102.858 18.8982L102.825 17.5818ZM101.74 18.284V11.904H100.423V18.284H101.74ZM101.081 12.5624H103.017V11.2456H101.081V12.5624ZM103.676 11.9225C103.822 6.70044 103.91 2.80928 103.94 0.251564L102.623 0.23643C102.594 2.78272 102.506 6.66489 102.359 11.8855L103.676 11.9225ZM103.296 0.902211L111.26 0.726214L111.231 -0.590214L103.267 -0.414217L103.296 0.902211ZM110.588 0.028909L109.884 11.8649L111.199 11.9431L111.903 0.10709L110.588 0.028909ZM110.541 12.5624H112.301V11.2456H110.541V12.5624ZM111.643 11.904V17.932H112.96V11.904H111.643ZM112.274 17.2742L110.162 17.3622L110.217 18.6778L112.329 18.5898L112.274 17.2742ZM109.532 17.9808L109.136 24.6248L110.451 24.7032L110.847 18.0592L109.532 17.9808ZM109.77 25.322L112.278 25.41L112.325 24.094L109.817 24.006L109.77 25.322ZM112.948 24.8763L113.168 23.7323L111.875 23.4837L111.655 24.6277L112.948 24.8763ZM112.564 24.265L118.636 23.869L118.551 22.555L112.479 22.951L112.564 24.265ZM126.302 9.352L126.961 9.33981L126.949 8.70634L126.315 8.69375L126.302 9.352ZM126.698 30.736L126.69 31.3943L127.369 31.4029L127.357 30.7238L126.698 30.736ZM119.702 30.648L119.044 30.6494L119.045 31.2982L119.694 31.3063L119.702 30.648ZM119.658 9.22L119.671 8.56175L118.999 8.54839L119 9.22135L119.658 9.22ZM126.214 7.064L126.192 7.72198L126.763 7.74183L126.863 7.17841L126.214 7.064ZM119.878 6.844L119.221 6.87664L119.251 7.48098L119.856 7.50198L119.878 6.844ZM119.57 0.639997L119.404 0.00294256L118.886 0.138051L118.913 0.672642L119.57 0.639997ZM122.254 0.287999L122.221 -0.369512L122.22 -0.369465L122.254 0.287999ZM125.158 0.199998L125.183 -0.457926L125.171 -0.458377H125.158V0.199998ZM126.346 0.243997L127.001 0.176251L126.942 -0.392754L126.371 -0.413926L126.346 0.243997ZM125.644 9.36419L126.04 30.7482L127.357 30.7238L126.961 9.33981L125.644 9.36419ZM126.707 30.0777L119.711 29.9897L119.694 31.3063L126.69 31.3943L126.707 30.0777ZM120.361 30.6466L120.317 9.21865L119 9.22135L119.044 30.6494L120.361 30.6466ZM119.645 9.87824L126.289 10.0102L126.315 8.69375L119.671 8.56175L119.645 9.87824ZM126.237 6.40602L119.901 6.18602L119.856 7.50198L126.192 7.72198L126.237 6.40602ZM120.536 6.81135L120.228 0.607352L118.913 0.672642L119.221 6.87664L120.536 6.81135ZM119.737 1.27705C120.35 1.11691 121.196 1.00301 122.289 0.945464L122.22 -0.369465C121.084 -0.309675 120.14 -0.188915 119.404 0.00294256L119.737 1.27705ZM122.288 0.94551C123.425 0.887189 124.381 0.858373 125.158 0.858373V-0.458377C124.351 -0.458377 123.371 -0.428525 122.221 -0.369511L122.288 0.94551ZM125.134 0.857922L126.322 0.901921L126.371 -0.413926L125.183 -0.457926L125.134 0.857922ZM125.691 0.311743C125.951 2.81836 125.905 5.02855 125.566 6.94958L126.863 7.17841C127.228 5.11012 127.27 2.77363 127.001 0.176251L125.691 0.311743ZM146.771 15.512H146.113V15.5637L146.121 15.6147L146.771 15.512ZM147.079 17.668L146.426 17.755L146.428 17.7656L146.43 17.7762L147.079 17.668ZM147.607 21.936L146.952 22.0044L146.953 22.0152L147.607 21.936ZM147.915 26.424L148.48 26.7613L148.568 26.6139L148.573 26.4423L147.915 26.424ZM144.703 30.692L144.793 31.3442L145.017 31.3133L145.174 31.1516L144.703 30.692ZM131.855 30.956L131.482 31.4985L131.606 31.5841L131.756 31.6068L131.855 30.956ZM127.983 26.688L127.326 26.6477L127.313 26.8581L127.425 27.0369L127.983 26.688ZM128.995 13.576L128.481 13.1647L128.363 13.3123L128.341 13.5L128.995 13.576ZM129.611 12.784L129.089 12.3826V12.3826L129.611 12.784ZM130.535 11.508L129.992 11.135L130.535 11.508ZM131.239 10.54L131.176 9.88466L130.906 9.91062L130.733 10.1185L131.239 10.54ZM144.439 10.716L144.973 10.3313L144.811 10.1058L144.536 10.0648L144.439 10.716ZM145.979 13.356L145.387 13.6436L145.39 13.6504L145.393 13.6571L145.979 13.356ZM134.583 24.796H133.925V25.4682L134.597 25.4542L134.583 24.796ZM140.611 24.268L140.767 24.9076L141.28 24.7826L141.269 24.2551L140.611 24.268ZM140.171 17.536L140.821 17.434L140.75 16.978L140.297 16.8898L140.171 17.536ZM135.155 17.536L134.908 16.9259L134.542 17.0743L134.5 17.4671L135.155 17.536ZM134.759 21.892L135.416 21.94L135.416 21.9389L134.759 21.892ZM134.583 24.268L133.927 24.2175L133.925 24.2427V24.268H134.583ZM146.121 15.6147C146.208 16.1647 146.309 16.8777 146.426 17.755L147.732 17.581C147.614 16.6983 147.51 15.9739 147.421 15.4093L146.121 15.6147ZM146.43 17.7762C146.573 18.6349 146.747 20.0404 146.952 22.0044L148.262 21.8676C148.056 19.9009 147.879 18.4611 147.728 17.5598L146.43 17.7762ZM146.953 22.0152C147.187 23.9411 147.285 25.3988 147.257 26.4057L148.573 26.4423C148.604 25.3372 148.496 23.8029 148.261 21.8568L146.953 22.0152ZM147.35 26.0867C146.374 27.7224 145.334 29.1021 144.232 30.2324L145.174 31.1516C146.36 29.9352 147.461 28.4696 148.48 26.7613L147.35 26.0867ZM144.613 30.0398C139.545 30.7388 135.331 30.8202 131.954 30.3052L131.756 31.6068C135.302 32.1478 139.653 32.0532 144.793 31.3442L144.613 30.0398ZM132.228 30.4135C130.913 29.5093 129.68 28.1615 128.541 26.3391L127.425 27.0369C128.632 28.9692 129.981 30.4667 131.482 31.4985L132.228 30.4135ZM128.64 26.7283C129.021 20.5094 129.358 16.1549 129.649 13.652L128.341 13.5C128.045 16.0424 127.707 20.4293 127.326 26.6477L128.64 26.7283ZM129.509 13.9873C129.631 13.8351 129.84 13.5665 130.133 13.1854L129.089 12.3826C128.796 12.7641 128.594 13.0235 128.481 13.1647L129.509 13.9873ZM130.133 13.1854C130.434 12.7933 130.749 12.3583 131.077 11.881L129.992 11.135C129.675 11.5964 129.374 12.012 129.089 12.3826L130.133 13.1854ZM131.077 11.881C131.401 11.4111 131.62 11.1114 131.745 10.9615L130.733 10.1185C130.565 10.3206 130.315 10.6663 129.992 11.135L131.077 11.881ZM131.302 11.1953C136.13 10.73 140.475 10.79 144.342 11.3672L144.536 10.0648C140.542 9.46867 136.087 9.41131 131.176 9.88466L131.302 11.1953ZM143.905 11.1007C144.406 11.7967 144.9 12.6425 145.387 13.6436L146.571 13.0684C146.06 12.0161 145.528 11.102 144.973 10.3313L143.905 11.1007ZM145.393 13.6571C145.651 14.1572 145.836 14.5673 145.955 14.892C146.079 15.2303 146.113 15.4247 146.113 15.512H147.429C147.429 15.1886 147.331 14.8184 147.191 14.438C147.046 14.0441 146.835 13.5815 146.564 13.0549L145.393 13.6571ZM134.597 25.4542C137.416 25.3955 139.488 25.2195 140.767 24.9076L140.455 23.6284C139.328 23.9032 137.382 24.0792 134.569 24.1378L134.597 25.4542ZM141.269 24.2551C141.21 21.2561 141.063 18.9757 140.821 17.434L139.521 17.638C139.748 19.0883 139.894 21.2959 139.953 24.2809L141.269 24.2551ZM140.297 16.8898C138.013 16.445 136.18 16.4102 134.908 16.9259L135.402 18.1461C136.301 17.7818 137.811 17.747 140.045 18.1822L140.297 16.8898ZM134.5 17.4671C134.324 19.144 134.191 20.6037 134.102 21.8451L135.416 21.9389C135.503 20.7163 135.634 19.272 135.81 17.6049L134.5 17.4671ZM134.102 21.844C134.014 23.0469 133.956 23.8376 133.927 24.2175L135.239 24.3185C135.269 23.9357 135.328 23.1425 135.416 21.94L134.102 21.844ZM133.925 24.268V24.796H135.241V24.268H133.925ZM166.954 11.2L167.609 11.1354L167.572 10.7544L167.222 10.5986L166.954 11.2ZM166.998 30.956L166.976 31.614L167.596 31.6345L167.653 31.0169L166.998 30.956ZM160.354 30.736L159.696 30.7235L159.683 31.3725L160.332 31.394L160.354 30.736ZM160.618 16.788L161.276 16.8005L161.288 16.1862L160.676 16.1322L160.618 16.788ZM156.438 17.316L156.281 16.6767L155.771 16.802L155.78 17.3268L156.438 17.316ZM156.658 30.736L156.65 31.3943L157.327 31.4024L157.316 30.7252L156.658 30.736ZM149.266 30.648L148.608 30.6508L148.61 31.2986L149.258 31.3063L149.266 30.648ZM149.178 10.276L149.125 9.61973L148.517 9.66855L148.52 10.2788L149.178 10.276ZM156.306 9.704H156.964V8.99067L156.253 9.04773L156.306 9.704ZM156.306 10.672H155.648V11.5023L156.456 11.3131L156.306 10.672ZM166.299 11.2646C166.94 17.7637 166.955 24.307 166.342 30.8951L167.653 31.0169C168.273 24.3464 168.259 17.719 167.609 11.1354L166.299 11.2646ZM167.02 30.298L160.376 30.078L160.332 31.394L166.976 31.614L167.02 30.298ZM161.012 30.7485L161.276 16.8005L159.96 16.7755L159.696 30.7235L161.012 30.7485ZM160.676 16.1322C159.569 16.0345 158.092 16.2314 156.281 16.6767L156.595 17.9553C158.363 17.5206 159.672 17.3655 160.56 17.4438L160.676 16.1322ZM155.78 17.3268L156 30.7468L157.316 30.7252L157.096 17.3052L155.78 17.3268ZM156.666 30.0777L149.274 29.9897L149.258 31.3063L156.65 31.3943L156.666 30.0777ZM149.924 30.6452L149.836 10.2732L148.52 10.2788L148.608 30.6508L149.924 30.6452ZM149.231 10.9323L156.359 10.3603L156.253 9.04773L149.125 9.61973L149.231 10.9323ZM155.648 9.704V10.672H156.964V9.704H155.648ZM156.456 11.3131C160.495 10.3677 163.89 10.5557 166.686 11.8014L167.222 10.5986C164.092 9.20428 160.388 9.04035 156.156 10.0309L156.456 11.3131ZM187.373 22.112L187.993 21.8882L187.896 21.6214L187.636 21.5082L187.373 22.112ZM187.681 31.176L187.75 31.8308L188.238 31.7794L188.329 31.297L187.681 31.176ZM183.281 31.176L183.265 31.8342L183.281 31.176ZM178.705 31.044L178.734 30.3862L178.72 30.3856H178.705V31.044ZM173.909 30.868L173.878 31.5256L173.879 31.5257L173.909 30.868ZM168.893 30.648L168.238 30.5825L168.168 31.2818L168.871 31.306L168.893 30.648ZM169.553 24.048L169.668 23.3997L168.969 23.2762L168.898 23.9825L169.553 24.048ZM182.005 26.248L181.891 26.8963L182.258 25.6401L182.005 26.248ZM168.893 20.792L168.236 20.8285L168.259 21.2411L168.64 21.3999L168.893 20.792ZM168.937 17.536L168.283 17.4671L168.282 17.4756L168.281 17.4842L168.937 17.536ZM169.421 14.632L168.787 14.4569L168.785 14.4646L168.783 14.4723L169.421 14.632ZM170.081 12.344L169.46 12.1277L169.455 12.1399L169.451 12.1523L170.081 12.344ZM170.697 10.76L171.295 11.0359L171.3 11.0247L171.305 11.0132L170.697 10.76ZM170.917 10.232L170.858 9.57627L170.462 9.61185L170.31 9.97878L170.917 10.232ZM178.177 9.968L178.16 10.6261L178.16 10.6262L178.177 9.968ZM183.853 10.364L183.943 9.71174L183.941 9.71151L183.853 10.364ZM186.097 10.672L186.747 10.7818L186.86 10.1121L186.187 10.0197L186.097 10.672ZM185.085 16.656L184.979 17.3058L185.625 17.4112L185.734 16.7658L185.085 16.656ZM176.725 15.292L176.831 14.6422L176.23 14.5442L176.086 15.1357L176.725 15.292ZM176.241 17.272L175.602 17.1157L175.47 17.6546L175.979 17.8758L176.241 17.272ZM186.754 22.3358C187.581 24.6233 187.696 27.5167 187.034 31.055L188.329 31.297C189.016 27.6193 188.926 24.47 187.993 21.8882L186.754 22.3358ZM187.612 30.5212C187.108 30.5744 185.691 30.5769 183.298 30.5178L183.265 31.8342C185.623 31.8924 187.14 31.895 187.75 31.8308L187.612 30.5212ZM183.298 30.5178C180.92 30.4591 179.401 30.4153 178.734 30.3862L178.677 31.7018C179.359 31.7314 180.891 31.7756 183.265 31.8342L183.298 30.5178ZM178.705 30.3856C178.049 30.3856 176.468 30.3279 173.94 30.2103L173.879 31.5257C176.396 31.6428 178.012 31.7024 178.705 31.7024V30.3856ZM173.94 30.2104C171.448 30.093 169.771 30.0195 168.916 29.99L168.871 31.306C169.717 31.3352 171.384 31.4083 173.878 31.5256L173.94 30.2104ZM169.548 30.7135L170.208 24.1135L168.898 23.9825L168.238 30.5825L169.548 30.7135ZM169.439 24.6963L181.891 26.8963L182.12 25.5997L169.668 23.3997L169.439 24.6963ZM182.258 25.6401L169.146 20.1841L168.64 21.3999L181.752 26.8559L182.258 25.6401ZM169.551 20.7555C169.494 19.7305 169.508 18.6748 169.594 17.5878L168.281 17.4842C168.191 18.6266 168.176 19.7415 168.236 20.8285L169.551 20.7555ZM169.592 17.6049C169.707 16.5117 169.864 15.5754 170.06 14.7917L168.783 14.4723C168.568 15.3313 168.402 16.331 168.283 17.4671L169.592 17.6049ZM170.056 14.8071C170.29 13.9607 170.508 13.2037 170.711 12.5357L169.451 12.1523C169.244 12.8337 169.023 13.602 168.787 14.4569L170.056 14.8071ZM170.703 12.5603C170.935 11.894 171.132 11.389 171.295 11.0359L170.1 10.4841C169.911 10.8937 169.697 11.4447 169.46 12.1277L170.703 12.5603ZM171.305 11.0132L171.525 10.4852L170.31 9.97878L170.09 10.5068L171.305 11.0132ZM170.976 10.8877C173.566 10.655 175.96 10.5683 178.16 10.6261L178.195 9.30985C175.936 9.25041 173.49 9.33971 170.858 9.57627L170.976 10.8877ZM178.16 10.6262C180.405 10.6845 182.272 10.8154 183.766 11.0165L183.941 9.71151C182.384 9.50193 180.467 9.36887 178.194 9.30985L178.16 10.6262ZM183.764 11.0163L186.008 11.3243L186.187 10.0197L183.943 9.71174L183.764 11.0163ZM185.448 10.5622L184.436 16.5462L185.734 16.7658L186.747 10.7818L185.448 10.5622ZM185.191 16.0062L176.831 14.6422L176.619 15.9418L184.979 17.3058L185.191 16.0062ZM176.086 15.1357L175.602 17.1157L176.881 17.4283L177.365 15.4483L176.086 15.1357ZM175.979 17.8758L187.111 22.7158L187.636 21.5082L176.504 16.6682L175.979 17.8758Z" fill="#0E2E57"/>
</g>
<defs>
<filter id="filter0_d_40_55" x="0.781567" y="0.0679932" width="187.912" height="32.3384" filterUnits="userSpaceOnUse" color-interpolation-filters="sRGB">
<feFlood flood-opacity="0" result="BackgroundImageFix"/>
<feColorMatrix in="SourceAlpha" type="matrix" values="0 0 0 0 0 0 0 0 0 0 0 0 0 0 0 0 0 0 127 0" result="hardAlpha"/>
<feOffset dx="-0.658375" dy="0.658375"/>
<feComposite in2="hardAlpha" operator="out"/>
<feColorMatrix type="matrix" values="0 0 0 0 0.98 0 0 0 0 0 0 0 0 0 1 0 0 0 1 0"/>
<feBlend mode="normal" in2="BackgroundImageFix" result="effect1_dropShadow_40_55"/>
<feBlend mode="normal" in="SourceGraphic" in2="effect1_dropShadow_40_55" result="shape"/>
</filter>
</defs>
</svg>
