<svg width="77" height="54" viewBox="0 0 77 54" fill="none" xmlns="http://www.w3.org/2000/svg">
<g filter="url(#filter0_d_43_1637)">
<path d="M12.06 42.04L1.56 42.52L1.44 1.84C1.76 1.8 2.18 1.74 2.7 1.66C3.26 1.58 4.36 1.48 6 1.36C7.68 1.2 9.36 1.08 11.04 0.999997C12.72 0.919998 14.7 0.879999 16.98 0.879999C19.3 0.879999 21.5 0.939998 23.58 1.06L23.1 11.02L10.32 10.12L10.68 16.96L17.58 16.66V25.36L11.16 25.66L12.06 42.04ZM31.3777 35.02C30.8977 38.38 30.5177 41.16 30.2377 43.36L19.9177 42.94C20.2377 40.22 20.7577 36.94 21.4777 33.1C22.2377 29.22 22.9777 25.66 23.6977 22.42C24.4177 19.14 25.2377 15.44 26.1577 11.32C27.0777 7.16 27.7577 3.92 28.1977 1.6C28.3977 1.56 28.6577 1.52 28.9777 1.48C29.3377 1.44 30.0177 1.38 31.0177 1.3C32.0577 1.22 33.0577 1.16 34.0177 1.12C35.0177 1.08 36.1577 1.1 37.4377 1.18C38.7577 1.22 39.9377 1.32 40.9777 1.48L42.5377 8.56H42.4777C46.4377 26.76 48.4177 37.96 48.4177 42.16L38.0977 42.94C37.8977 41.22 37.5777 38.58 37.1377 35.02H31.3777ZM32.5777 26.32H36.0577C35.8977 24.76 35.6177 22.48 35.2177 19.48C34.8577 16.44 34.6177 14.44 34.4977 13.48C33.9377 16.8 33.2977 21.08 32.5777 26.32ZM54.5784 42.64C52.6184 41.28 50.8184 39.28 49.1784 36.64C49.6184 23.32 50.1584 13.34 50.7984 6.7C51.5984 4.66 52.5184 2.96 53.5584 1.6C60.1584 0.919998 66.1584 0.979999 71.5584 1.78C73.0784 3.94 74.0784 5.78 74.5584 7.3C75.9984 19.74 76.6184 29.44 76.4184 36.4C75.0184 38.76 73.5784 40.72 72.0984 42.28C71.3784 42.36 70.6584 42.44 69.9384 42.52L73.4784 49.12L64.2384 53.2L60.2184 43.06C58.1384 43.02 56.2584 42.88 54.5784 42.64ZM59.0784 11.08C58.2784 18.48 58.0184 25.82 58.2984 33.1C62.1384 33.02 64.8584 32.78 66.4584 32.38C66.4184 20.26 66.2384 13.16 65.9184 11.08C62.8384 10.48 60.5584 10.48 59.0784 11.08Z" fill="#FBFDFF"/>
<path d="M12.06 42.04L12.0901 42.6977L12.7538 42.6673L12.7174 42.0039L12.06 42.04ZM1.56 42.52L0.901628 42.5219L0.903655 43.2091L1.59007 43.1777L1.56 42.52ZM1.44 1.84L1.35834 1.18671L0.779909 1.25901L0.781628 1.84194L1.44 1.84ZM2.7 1.66L2.60688 1.0082L2.59989 1.00928L2.7 1.66ZM6 1.36L6.04804 2.01662L6.05524 2.01609L6.06242 2.01541L6 1.36ZM11.04 0.999997L11.0087 0.342367L11.0087 0.342368L11.04 0.999997ZM23.58 1.06L24.2376 1.09169L24.269 0.440277L23.6179 0.402714L23.58 1.06ZM23.1 11.02L23.0538 11.6767L23.7252 11.724L23.7576 11.0517L23.1 11.02ZM10.32 10.12L10.3663 9.46325L9.62339 9.41094L9.66254 10.1546L10.32 10.12ZM10.68 16.96L10.0225 16.9946L10.0568 17.6461L10.7086 17.6178L10.68 16.96ZM17.58 16.66H18.2384V15.9724L17.5514 16.0022L17.58 16.66ZM17.58 25.36L17.6107 26.0177L18.2384 25.9883V25.36H17.58ZM11.16 25.66L11.1293 25.0023L10.4662 25.0333L10.5026 25.6961L11.16 25.66ZM12.0299 41.3823L1.52993 41.8623L1.59007 43.1777L12.0901 42.6977L12.0299 41.3823ZM2.21837 42.5181L2.09837 1.83805L0.781628 1.84194L0.901628 42.5219L2.21837 42.5181ZM1.52166 2.49329C1.85042 2.45219 2.27727 2.39115 2.80011 2.31072L2.59989 1.00928C2.08273 1.08884 1.66958 1.1478 1.35834 1.18671L1.52166 2.49329ZM2.79311 2.31176C3.3271 2.23547 4.4048 2.13686 6.04804 2.01662L5.95196 0.70338C4.3152 0.823141 3.1929 0.924525 2.60689 1.00824L2.79311 2.31176ZM6.06242 2.01541C7.73211 1.85639 9.40174 1.73713 11.0713 1.65763L11.0087 0.342368C9.31826 0.422865 7.62789 0.543608 5.93758 0.704591L6.06242 2.01541ZM11.0713 1.65763C12.738 1.57826 14.7071 1.53837 16.98 1.53837V0.221624C14.693 0.221624 12.702 0.261733 11.0087 0.342367L11.0713 1.65763ZM16.98 1.53837C19.2887 1.53837 21.476 1.59808 23.5421 1.71728L23.6179 0.402714C21.524 0.281911 19.3113 0.221624 16.98 0.221624V1.53837ZM22.9224 1.0283L22.4424 10.9883L23.7576 11.0517L24.2376 1.09169L22.9224 1.0283ZM23.1463 10.3632L10.3663 9.46325L10.2738 10.7767L23.0538 11.6767L23.1463 10.3632ZM9.66254 10.1546L10.0225 16.9946L11.3375 16.9254L10.9775 10.0854L9.66254 10.1546ZM10.7086 17.6178L17.6086 17.3178L17.5514 16.0022L10.6514 16.3022L10.7086 17.6178ZM16.9216 16.66V25.36H18.2384V16.66H16.9216ZM17.5493 24.7023L11.1293 25.0023L11.1907 26.3177L17.6107 26.0177L17.5493 24.7023ZM10.5026 25.6961L11.4026 42.0761L12.7174 42.0039L11.8174 25.6239L10.5026 25.6961ZM31.3777 35.02V34.3616H30.8067L30.7259 34.9269L31.3777 35.02ZM30.2377 43.36L30.2109 44.0178L30.8145 44.0424L30.8908 43.4431L30.2377 43.36ZM19.9177 42.94L19.2638 42.8631L19.1807 43.5689L19.8909 43.5978L19.9177 42.94ZM21.4777 33.1L20.8315 32.9734L20.8306 32.9787L21.4777 33.1ZM23.6977 22.42L24.3404 22.5628L24.3407 22.5612L23.6977 22.42ZM26.1577 11.32L26.8002 11.4635L26.8005 11.4622L26.1577 11.32ZM28.1977 1.6L28.0685 0.954407L27.6335 1.04142L27.5508 1.47732L28.1977 1.6ZM28.9777 1.48L28.9049 0.825589L28.896 0.826707L28.9777 1.48ZM31.0177 1.3L30.9672 0.643558L30.9652 0.643719L31.0177 1.3ZM34.0177 1.12L33.9913 0.46215L33.9902 0.462195L34.0177 1.12ZM37.4377 1.18L37.3966 1.83709L37.4071 1.83775L37.4177 1.83807L37.4377 1.18ZM40.9777 1.48L41.6206 1.33833L41.5236 0.897862L41.0778 0.829279L40.9777 1.48ZM42.5377 8.56V9.21837H43.3569L43.1806 8.41833L42.5377 8.56ZM42.4777 8.56V7.90162H41.6606L41.8343 8.69998L42.4777 8.56ZM48.4177 42.16L48.4673 42.8165L49.076 42.7705V42.16H48.4177ZM38.0977 42.94L37.4437 43.016L37.5167 43.6442L38.1473 43.5965L38.0977 42.94ZM37.1377 35.02L37.7911 34.9392L37.7197 34.3616H37.1377V35.02ZM32.5777 26.32L31.9254 26.2304L31.8226 26.9784H32.5777V26.32ZM36.0577 26.32V26.9784H36.787L36.7126 26.2528L36.0577 26.32ZM35.2177 19.48L34.5638 19.5574L34.5651 19.567L35.2177 19.48ZM34.4977 13.48L35.1509 13.3983L33.8485 13.3705L34.4977 13.48ZM30.7259 34.9269C30.2456 38.2887 29.8651 41.0723 29.5846 43.2769L30.8908 43.4431C31.1702 41.2477 31.5497 38.4713 32.0294 35.1131L30.7259 34.9269ZM30.2644 42.7022L19.9444 42.2822L19.8909 43.5978L30.2109 44.0178L30.2644 42.7022ZM20.5715 43.0169C20.8892 40.3166 21.4065 37.0522 22.1248 33.2213L20.8306 32.9787C20.1089 36.8278 19.5861 40.1234 19.2638 42.8631L20.5715 43.0169ZM22.1238 33.2266C22.8829 29.351 23.6218 25.7965 24.3404 22.5628L23.055 22.2772C22.3336 25.5235 21.5924 29.089 20.8316 32.9734L22.1238 33.2266ZM24.3407 22.5612C25.0605 19.2821 25.8803 15.5829 26.8002 11.4635L25.5151 11.1765C24.595 15.2971 23.7748 18.9979 23.0546 22.2788L24.3407 22.5612ZM26.8005 11.4622C27.721 7.29994 28.4027 4.05239 28.8445 1.72267L27.5508 1.47732C27.1127 3.7876 26.4343 7.02006 25.5148 11.1778L26.8005 11.4622ZM28.3268 2.24559C28.5048 2.20999 28.7472 2.1723 29.0593 2.13329L28.896 0.826707C28.5681 0.867698 28.2905 0.910006 28.0685 0.954407L28.3268 2.24559ZM29.0504 2.13435C29.3988 2.09563 30.0691 2.03636 31.0702 1.95627L30.9652 0.643719C29.9662 0.723634 29.2765 0.784367 28.905 0.82565L29.0504 2.13435ZM31.0682 1.95643C32.1011 1.87698 33.0934 1.81746 34.0451 1.7778L33.9902 0.462195C33.0219 0.502541 32.0142 0.56302 30.9672 0.643561L31.0682 1.95643ZM34.044 1.77785C35.0163 1.73895 36.1331 1.75812 37.3966 1.83709L37.4787 0.522906C36.1822 0.44187 35.019 0.421042 33.9913 0.462151L34.044 1.77785ZM37.4177 1.83807C38.7173 1.87745 39.8698 1.97568 40.8775 2.13072L41.0778 0.829279C40.0055 0.66432 38.798 0.562544 37.4576 0.521926L37.4177 1.83807ZM40.3347 1.62167L41.8947 8.70167L43.1806 8.41833L41.6206 1.33833L40.3347 1.62167ZM42.5377 7.90162H42.4777V9.21837H42.5377V7.90162ZM41.8343 8.69998C43.8135 17.7961 45.2965 25.1367 46.2843 30.7246C47.2753 36.3299 47.7593 40.1258 47.7593 42.16H49.076C49.076 39.9942 48.57 36.0901 47.581 30.4954C46.5888 24.8833 45.1018 17.5239 43.121 8.42002L41.8343 8.69998ZM48.368 41.5035L38.048 42.2835L38.1473 43.5965L48.4673 42.8165L48.368 41.5035ZM38.7516 42.864C38.5513 41.1415 38.2311 38.4995 37.7911 34.9392L36.4843 35.1008C36.9242 38.6605 37.244 41.2985 37.4437 43.016L38.7516 42.864ZM37.1377 34.3616H31.3777V35.6784H37.1377V34.3616ZM32.5777 26.9784H36.0577V25.6616H32.5777V26.9784ZM36.7126 26.2528C36.5516 24.6827 36.2705 22.3947 35.8703 19.393L34.5651 19.567C34.9648 22.5653 35.2438 24.8373 35.4027 26.3872L36.7126 26.2528ZM35.8715 19.4026C35.5115 16.363 35.2713 14.3608 35.1509 13.3983L33.8444 13.5617C33.9641 14.5192 34.2038 16.517 34.5639 19.5574L35.8715 19.4026ZM33.8485 13.3705C33.2869 16.6997 32.6459 20.987 31.9254 26.2304L33.2299 26.4096C33.9494 21.173 34.5884 16.9003 35.1469 13.5895L33.8485 13.3705ZM54.5784 42.64L54.2031 43.1809L54.3311 43.2697L54.4853 43.2918L54.5784 42.64ZM49.1784 36.64L48.5204 36.6183L48.5138 36.8178L48.6192 36.9874L49.1784 36.64ZM50.7984 6.7L50.1855 6.45963L50.1519 6.54527L50.1431 6.63683L50.7984 6.7ZM53.5584 1.6L53.491 0.945089L53.2082 0.974226L53.0355 1.20007L53.5584 1.6ZM71.5584 1.78L72.0969 1.40111L71.9343 1.17012L71.6549 1.12873L71.5584 1.78ZM74.5584 7.3L75.2124 7.22429L75.2052 7.16177L75.1863 7.10174L74.5584 7.3ZM76.4184 36.4L76.9847 36.7359L77.0716 36.5893L77.0765 36.4189L76.4184 36.4ZM72.0984 42.28L72.1711 42.9343L72.4104 42.9078L72.5761 42.7331L72.0984 42.28ZM69.9384 42.52L69.8657 41.8657L68.898 41.9732L69.3583 42.8312L69.9384 42.52ZM73.4784 49.12L73.7444 49.7223L74.3946 49.4352L74.0586 48.8088L73.4784 49.12ZM64.2384 53.2L63.6264 53.4426L63.8785 54.0786L64.5044 53.8023L64.2384 53.2ZM60.2184 43.06L60.8305 42.8174L60.669 42.4102L60.2311 42.4017L60.2184 43.06ZM59.0784 11.08L58.8311 10.4699L58.4662 10.6178L58.4239 11.0092L59.0784 11.08ZM58.2984 33.1L57.6405 33.1253L57.6654 33.7717L58.3122 33.7582L58.2984 33.1ZM66.4584 32.38L66.6181 33.0187L67.1185 32.8936L67.1168 32.3778L66.4584 32.38ZM65.9184 11.08L66.5692 10.9799L66.4988 10.5223L66.0443 10.4338L65.9184 11.08ZM54.9538 42.0991C53.0864 40.8033 51.344 38.8783 49.7377 36.2926L48.6192 36.9874C50.2929 39.6817 52.1505 41.7567 54.2031 43.1809L54.9538 42.0991ZM49.8365 36.6617C50.2764 23.3448 50.8158 13.3817 51.4538 6.76316L50.1431 6.63683C49.501 13.2983 48.9605 23.2952 48.5204 36.6183L49.8365 36.6617ZM51.4114 6.94036C52.1949 4.94238 53.0874 3.29979 54.0814 1.99993L53.0355 1.20007C51.9495 2.6202 51.002 4.37762 50.1855 6.45963L51.4114 6.94036ZM53.6259 2.2549C60.1826 1.57937 66.1264 1.64081 71.462 2.43126L71.6549 1.12873C66.1905 0.319184 60.1343 0.260626 53.491 0.945089L53.6259 2.2549ZM71.02 2.15889C72.5231 4.29486 73.4799 6.07111 73.9306 7.49826L75.1863 7.10174C74.6769 5.48889 73.6338 3.58514 72.0969 1.40111L71.02 2.15889ZM73.9044 7.3757C75.3432 19.8049 75.959 29.4682 75.7603 36.3811L77.0765 36.4189C77.2779 29.4118 76.6537 19.6751 75.2124 7.22429L73.9044 7.3757ZM75.8522 36.0641C74.4708 38.3928 73.0592 40.3107 71.6208 41.8269L72.5761 42.7331C74.0977 41.1293 75.5661 39.1272 76.9847 36.7359L75.8522 36.0641ZM72.0257 41.6257C71.3057 41.7057 70.5857 41.7857 69.8657 41.8657L70.0111 43.1743C70.7311 43.0943 71.4511 43.0143 72.1711 42.9343L72.0257 41.6257ZM69.3583 42.8312L72.8983 49.4312L74.0586 48.8088L70.5186 42.2088L69.3583 42.8312ZM73.2125 48.5177L63.9725 52.5977L64.5044 53.8023L73.7444 49.7223L73.2125 48.5177ZM64.8505 52.9574L60.8305 42.8174L59.6064 43.3026L63.6264 53.4426L64.8505 52.9574ZM60.2311 42.4017C58.1723 42.3622 56.3197 42.2237 54.6715 41.9882L54.4853 43.2918C56.1971 43.5363 58.1046 43.6778 60.2058 43.7183L60.2311 42.4017ZM58.4239 11.0092C57.6205 18.4404 57.3593 25.8126 57.6405 33.1253L58.9563 33.0747C58.6776 25.8274 58.9364 18.5196 59.733 11.1508L58.4239 11.0092ZM58.3122 33.7582C62.1538 33.6782 64.9396 33.4384 66.6181 33.0187L66.2988 31.7413C64.7773 32.1216 62.123 32.3618 58.2847 32.4418L58.3122 33.7582ZM67.1168 32.3778C67.0968 26.3158 67.0418 21.5053 66.9516 17.9483C66.8619 14.409 66.7368 12.0694 66.5692 10.9799L65.2677 11.1801C65.4201 12.1706 65.545 14.421 65.6353 17.9817C65.7251 21.5247 65.7801 26.3242 65.8001 32.3822L67.1168 32.3778ZM66.0443 10.4338C62.9396 9.82895 60.4978 9.79417 58.8311 10.4699L59.3258 11.6901C60.6191 11.1658 62.7373 11.131 65.7925 11.7262L66.0443 10.4338Z" fill="#0E2E57"/>
</g>
<defs>
<filter id="filter0_d_43_1637" x="0.781567" y="0.580078" width="75.9367" height="53.2782" filterUnits="userSpaceOnUse" color-interpolation-filters="sRGB">
<feFlood flood-opacity="0" result="BackgroundImageFix"/>
<feColorMatrix in="SourceAlpha" type="matrix" values="0 0 0 0 0 0 0 0 0 0 0 0 0 0 0 0 0 0 127 0" result="hardAlpha"/>
<feOffset dx="-0.658375" dy="0.658375"/>
<feComposite in2="hardAlpha" operator="out"/>
<feColorMatrix type="matrix" values="0 0 0 0 0.98 0 0 0 0 0 0 0 0 0 1 0 0 0 1 0"/>
<feBlend mode="normal" in2="BackgroundImageFix" result="effect1_dropShadow_43_1637"/>
<feBlend mode="normal" in="SourceGraphic" in2="effect1_dropShadow_43_1637" result="shape"/>
</filter>
</defs>
</svg>
