<svg width="60" height="46" viewBox="0 0 60 46" fill="none" xmlns="http://www.w3.org/2000/svg">
<path d="M38.1808 0.554718C42.2943 1.30154 46.2049 2.56763 49.8848 4.26932C56.4155 14.0554 59.6437 25.0695 58.5038 37.7794C53.6253 41.4063 48.8639 43.633 44.186 45.127C43.1822 43.73 42.2865 42.2439 41.4804 40.7056C43.069 40.0566 44.6299 39.3001 46.0914 38.4117L46.739 38.018L46.1223 37.5776C45.6956 37.2728 45.3015 36.9695 44.9083 36.6368L44.6626 36.4289L44.3717 36.5664C34.8792 41.0515 24.4717 41.0526 14.8516 36.5653L14.5762 36.4369L14.3354 36.6221C14.1759 36.7448 14.0249 36.8652 13.8764 36.9836C13.622 37.1865 13.3746 37.3837 13.1032 37.5776L12.4865 38.018L13.1341 38.4117C14.5892 39.2961 16.1247 40.0796 17.7406 40.7142C16.9356 42.2495 16.0414 43.7326 15.0396 45.127C10.364 43.6333 5.63037 41.4067 0.722062 37.7788C-0.245455 26.8061 1.8251 15.6602 9.36999 4.2271C13.0232 2.54667 16.903 1.29535 20.9825 0.554711C21.4612 1.43232 21.9919 2.53264 22.3751 3.43595L22.527 3.794L22.9114 3.73486C27.3164 3.05716 31.7839 3.05693 36.2845 3.73509L36.6782 3.79442L36.8242 3.42393C37.1769 2.52843 37.7025 1.43198 38.1808 0.554718ZM13.9221 25.1464C13.9221 28.6961 16.4884 31.6915 19.7505 31.6915C23.0792 31.6915 25.5778 28.6606 25.5789 25.1488C25.6111 21.5958 23.074 18.6013 19.7505 18.6013C16.4226 18.6013 13.9221 21.6006 13.9221 25.1464ZM33.5843 25.1464C33.5843 28.6961 36.1506 31.6915 39.4127 31.6915C42.7415 31.6915 45.24 28.6605 45.2411 25.1486C45.2731 21.5957 42.7361 18.6013 39.4127 18.6013C36.0847 18.6013 33.5843 21.6006 33.5843 25.1464Z" fill="white" stroke="white"/>
</svg>
