<svg width="99" height="34" viewBox="0 0 99 34" fill="none" xmlns="http://www.w3.org/2000/svg">
<g filter="url(#filter0_d_31_14)">
<path d="M15.168 24.344L1.616 16.644C1.528 15.1773 1.54267 13.6667 1.66 12.112C1.80667 10.528 1.98267 9.14933 2.188 7.976C2.42267 6.80267 2.64267 5.732 2.848 4.764C3.08267 3.796 3.288 3.06267 3.464 2.564L3.728 1.816C6.04533 1.61067 8.36267 1.552 10.68 1.64C13.0267 1.728 15.0653 1.87467 16.796 2.08L19.436 2.388L18.6 8.68L9.712 8.9L9.096 12.508L20.756 18.536C21.636 21.9387 21.7387 26.192 21.064 31.296C19.4213 31.296 18.204 31.3107 17.412 31.34C16.62 31.34 15.3733 31.3107 13.672 31.252C11.9707 31.164 10.68 31.0907 9.8 31.032C8.94933 30.9733 7.61467 30.9 5.796 30.812C4.00667 30.6947 2.61333 30.6067 1.616 30.548L2.276 22.892L15.168 24.344ZM27.6173 8.284L21.8093 7.976L20.8852 1.904C21.0319 1.87466 21.2372 1.84533 21.5013 1.816C21.7946 1.78666 22.3813 1.74267 23.2613 1.684C24.1413 1.596 25.0213 1.52267 25.9013 1.464C26.7813 1.40533 27.8519 1.34667 29.1133 1.288C30.3746 1.2 31.5919 1.14133 32.7653 1.112C33.9386 1.08267 35.1706 1.08267 36.4613 1.112C37.7813 1.14133 38.9986 1.18533 40.1133 1.244L39.7613 8.548L34.1293 8.152L35.3613 31.296L27.6613 31.648L27.6173 8.284ZM44.2888 31.736C42.8514 30.7387 41.5314 29.272 40.3288 27.336C40.6514 17.8613 41.0474 10.6893 41.5168 5.82C42.0741 4.148 42.7928 2.74 43.6728 1.596C48.5421 1.12667 52.9421 1.18533 56.8728 1.772C57.8114 3.092 58.4714 4.26533 58.8528 5.292C59.9968 14.6787 60.4808 21.9827 60.3048 27.204C59.3368 28.876 58.2808 30.2987 57.1368 31.472C52.0328 32.176 47.7501 32.264 44.2888 31.736ZM47.5888 8.592C47.0021 14.0187 46.8114 19.4013 47.0168 24.74C49.8328 24.6813 51.8274 24.5053 53.0008 24.212C52.9714 15.324 52.8394 10.1173 52.6048 8.592C50.3461 8.152 48.6741 8.152 47.5888 8.592ZM73.7454 31.868L69.0814 19.548L70.2254 31.296L61.9974 31.956C61.7921 23.2147 61.9387 13.212 62.4374 1.948C64.8427 1.47866 67.4681 1.21466 70.3134 1.156C73.1881 1.068 75.7987 1.09733 78.1454 1.244C78.9961 2.50533 79.7587 6.50933 80.4334 13.256C80.4334 13.3733 80.4334 13.4613 80.4334 13.52C80.4627 13.5787 80.4774 13.6667 80.4774 13.784C80.4774 13.872 80.4921 13.9453 80.5214 14.004C79.0841 16.8787 78.2187 18.404 77.9254 18.58C77.3681 18.6387 76.6787 18.712 75.8574 18.8L80.5214 28.876L73.7454 31.868ZM68.6414 8.24V12.948L73.7014 12.684C73.7601 12.1267 73.7014 11.4373 73.5254 10.616C73.3787 9.76533 73.2174 9.076 73.0414 8.548L72.7774 7.712C71.3987 7.68267 70.0201 7.85867 68.6414 8.24ZM86.2971 32.88L86.2531 19.724C82.0878 7.96133 80.0638 2.00667 80.1811 1.86C81.4131 1.53733 82.4984 1.34667 83.4371 1.288C84.3758 1.2 85.4758 1.21467 86.7371 1.332L89.7291 10.616C90.1398 9.32533 90.5651 7.888 91.0051 6.304C91.4451 4.72 91.7678 3.47333 91.9731 2.564C92.2078 1.62533 92.3544 1.14133 92.4131 1.112C95.1998 1.34667 97.3411 1.75733 98.8371 2.344L93.2931 19.592L93.9971 32.968L86.2971 32.88Z" fill="#FBFDFF"/>
<path d="M15.168 24.344L15.0943 24.9982L15.4932 23.7716L15.168 24.344ZM1.616 16.644L0.958807 16.6834L0.9802 17.04L1.29076 17.2164L1.616 16.644ZM1.66 12.112L1.00433 12.0513L1.00349 12.0625L1.66 12.112ZM2.188 7.976L1.54241 7.84688L1.54085 7.85468L1.53948 7.86251L2.188 7.976ZM2.848 4.764L2.20816 4.60889L2.20592 4.6181L2.20396 4.62738L2.848 4.764ZM3.728 1.816L3.66989 1.16019L3.24809 1.19757L3.10716 1.59688L3.728 1.816ZM10.68 1.64L10.655 2.2979L10.6553 2.29791L10.68 1.64ZM16.796 2.08L16.7184 2.73379L16.7197 2.73394L16.796 2.08ZM19.436 2.388L20.0886 2.47471L20.1768 1.81158L19.5123 1.73406L19.436 2.388ZM18.6 8.68L18.6163 9.33817L19.1786 9.32425L19.2526 8.76671L18.6 8.68ZM9.712 8.9L9.69571 8.24183L9.15418 8.25523L9.06302 8.7892L9.712 8.9ZM9.096 12.508L8.44702 12.3972L8.36599 12.8718L8.79365 13.0928L9.096 12.508ZM20.756 18.536L21.3934 18.3712L21.3197 18.0863L21.0584 17.9512L20.756 18.536ZM21.064 31.296V31.9544H21.6411L21.7167 31.3823L21.064 31.296ZM17.412 31.34V31.9984H17.4242L17.4364 31.9979L17.412 31.34ZM13.672 31.252L13.638 31.9096L13.6493 31.91L13.672 31.252ZM9.8 31.032L9.7547 31.6888L9.75621 31.6889L9.8 31.032ZM5.796 30.812L5.75291 31.4691L5.76418 31.4696L5.796 30.812ZM1.616 30.548L0.960058 30.4915L0.90195 31.1655L1.57734 31.2052L1.616 30.548ZM2.276 22.892L2.34969 22.2378L1.6781 22.1621L1.62006 22.8355L2.276 22.892ZM15.4932 23.7716L1.94124 16.0716L1.29076 17.2164L14.8428 24.9164L15.4932 23.7716ZM2.27319 16.6046C2.18708 15.1693 2.20127 13.6884 2.31651 12.1615L1.00349 12.0625C0.884059 13.6449 0.868924 15.1854 0.958807 16.6834L2.27319 16.6046ZM2.31557 12.1727C2.4611 10.6009 2.63506 9.24066 2.83652 8.08949L1.53948 7.86251C1.33027 9.05801 1.15223 10.4551 1.00443 12.0513L2.31557 12.1727ZM2.83359 8.10512C3.06786 6.93379 3.28734 5.86567 3.49204 4.90061L2.20396 4.62738C1.998 5.59833 1.77748 6.67154 1.54241 7.84688L2.83359 8.10512ZM3.48784 4.91911C3.72098 3.95743 3.92011 3.24987 4.08484 2.78312L2.84316 2.34488C2.65589 2.87546 2.44436 3.63457 2.20816 4.60889L3.48784 4.91911ZM4.08484 2.78312L4.34884 2.03512L3.10716 1.59688L2.84316 2.34488L4.08484 2.78312ZM3.78611 2.4718C6.07591 2.26891 8.36549 2.21095 10.655 2.2979L10.705 0.982097C8.35985 0.893042 6.01476 0.95242 3.66989 1.16019L3.78611 2.4718ZM10.6553 2.29791C12.9899 2.38546 15.0102 2.53111 16.7184 2.73379L16.8736 1.42621C15.1205 1.21822 13.0634 1.07054 10.7047 0.982085L10.6553 2.29791ZM16.7197 2.73394L19.3597 3.04194L19.5123 1.73406L16.8723 1.42606L16.7197 2.73394ZM18.7834 2.30128L17.9474 8.59328L19.2526 8.76671L20.0886 2.47471L18.7834 2.30128ZM18.5837 8.02183L9.69571 8.24183L9.72829 9.55817L18.6163 9.33817L18.5837 8.02183ZM9.06302 8.7892L8.44702 12.3972L9.74498 12.6188L10.361 9.0108L9.06302 8.7892ZM8.79365 13.0928L20.4536 19.1208L21.0584 17.9512L9.39835 11.9232L8.79365 13.0928ZM20.1186 18.7008C20.97 21.9928 21.0796 26.154 20.4113 31.2097L21.7167 31.3823C22.3978 26.23 22.302 21.8845 21.3934 18.3712L20.1186 18.7008ZM21.064 30.6376C19.4199 30.6376 18.1924 30.6523 17.3876 30.6821L17.4364 31.9979C18.2156 31.9691 19.4228 31.9544 21.064 31.9544V30.6376ZM17.412 30.6816C16.6321 30.6816 15.395 30.6526 13.6947 30.594L13.6493 31.91C15.3517 31.9687 16.6079 31.9984 17.412 31.9984V30.6816ZM13.706 30.5945C12.0055 30.5065 10.7188 30.4334 9.84379 30.3751L9.75621 31.6889C10.6412 31.7479 11.9358 31.8215 13.638 31.9095L13.706 30.5945ZM9.8453 30.3752C8.98748 30.316 7.64714 30.2424 5.82782 30.1544L5.76418 31.4696C7.5822 31.5576 8.91119 31.6306 9.7547 31.6888L9.8453 30.3752ZM5.83908 30.155C4.04923 30.0377 2.65419 29.9496 1.65466 29.8908L1.57734 31.2052C2.57248 31.2638 3.9641 31.3517 5.75292 31.469L5.83908 30.155ZM2.27194 30.6045L2.93194 22.9485L1.62006 22.8355L0.960058 30.4915L2.27194 30.6045ZM2.20231 23.5462L15.0943 24.9982L15.2417 23.6898L2.34969 22.2378L2.20231 23.5462ZM27.6173 8.284L28.2756 8.28276L28.2745 7.65955L27.6521 7.62655L27.6173 8.284ZM21.8092 7.976L21.1584 8.07505L21.239 8.60506L21.7744 8.63345L21.8092 7.976ZM20.8853 1.904L20.7561 1.25841L20.1398 1.38168L20.2344 2.00305L20.8853 1.904ZM21.5012 1.816L21.4357 1.16085L21.4285 1.16165L21.5012 1.816ZM23.2612 1.684L23.305 2.34092L23.3159 2.34019L23.3268 2.33911L23.2612 1.684ZM25.9013 1.464L25.945 2.12092H25.945L25.9013 1.464ZM29.1133 1.288L29.1438 1.94566L29.1515 1.94531L29.1591 1.94478L29.1133 1.288ZM32.7653 1.112L32.7488 0.45383L32.7653 1.112ZM36.4613 1.112L36.4463 1.7702L36.4466 1.77021L36.4613 1.112ZM40.1133 1.244L40.7709 1.27569L40.8024 0.620983L40.1479 0.586532L40.1133 1.244ZM39.7612 8.548L39.7151 9.20475L40.3865 9.25196L40.4189 8.57969L39.7612 8.548ZM34.1292 8.152L34.1754 7.49524L33.4322 7.44299L33.4718 8.18699L34.1292 8.152ZM35.3613 31.296L35.3913 31.9537L36.054 31.9234L36.0187 31.261L35.3613 31.296ZM27.6613 31.648L27.0029 31.6492L27.0042 32.3371L27.6913 32.3057L27.6613 31.648ZM27.6521 7.62655L21.8441 7.31855L21.7744 8.63345L27.5824 8.94145L27.6521 7.62655ZM22.4601 7.87695L21.5361 1.80495L20.2344 2.00305L21.1584 8.07505L22.4601 7.87695ZM21.0144 2.54959C21.1334 2.52579 21.3168 2.49892 21.574 2.47035L21.4285 1.16165C21.1577 1.19174 20.9305 1.22354 20.7561 1.25841L21.0144 2.54959ZM21.5668 2.47111C21.8475 2.44304 22.4233 2.3997 23.305 2.34092L23.2175 1.02708C22.3392 1.08563 21.7417 1.13029 21.4357 1.16089L21.5668 2.47111ZM23.3268 2.33911C24.1996 2.25183 25.0723 2.1791 25.945 2.12092L25.8575 0.807083C24.9702 0.866234 24.0829 0.940171 23.1957 1.02889L23.3268 2.33911ZM25.945 2.12092C26.8192 2.06264 27.8852 2.0042 29.1438 1.94566L29.0827 0.630336C27.8186 0.689127 26.7433 0.748027 25.8575 0.807083L25.945 2.12092ZM29.1591 1.94478C30.4114 1.85741 31.6189 1.79924 32.7817 1.77017L32.7488 0.45383C31.5649 0.483426 30.3378 0.54259 29.0674 0.631221L29.1591 1.94478ZM32.7817 1.77017C33.9436 1.74112 35.1651 1.74109 36.4463 1.7702L36.4762 0.453794C35.1761 0.424247 33.9336 0.424211 32.7488 0.45383L32.7817 1.77017ZM36.4466 1.77021C37.7611 1.79942 38.9717 1.8432 40.0786 1.90146L40.1479 0.586532C39.0255 0.52746 37.8014 0.483242 36.4759 0.453787L36.4466 1.77021ZM39.4556 1.21231L39.1036 8.51631L40.4189 8.57969L40.7709 1.27569L39.4556 1.21231ZM39.8074 7.89124L34.1754 7.49524L34.0831 8.80875L39.7151 9.20475L39.8074 7.89124ZM33.4718 8.18699L34.7038 31.331L36.0187 31.261L34.7867 8.117L33.4718 8.18699ZM35.3312 30.6383L27.6312 30.9903L27.6913 32.3057L35.3913 31.9537L35.3312 30.6383ZM28.3196 31.6468L28.2756 8.28276L26.9589 8.28524L27.0029 31.6492L28.3196 31.6468ZM44.2888 31.736L43.9135 32.2769L44.0387 32.3638L44.1895 32.3868L44.2888 31.736ZM40.3288 27.336L39.6708 27.3136L39.664 27.5135L39.7695 27.6834L40.3288 27.336ZM41.5168 5.82L40.8922 5.6118L40.8686 5.68258L40.8614 5.75683L41.5168 5.82ZM43.6728 1.596L43.6096 0.94066L43.3252 0.968077L43.1509 1.19458L43.6728 1.596ZM56.8728 1.772L57.4093 1.39045L57.247 1.16218L56.97 1.12084L56.8728 1.772ZM58.8528 5.292L59.5063 5.21235L59.4969 5.13541L59.47 5.06276L58.8528 5.292ZM60.3048 27.204L60.8746 27.5339L60.9572 27.3911L60.9628 27.2262L60.3048 27.204ZM57.1368 31.472L57.2267 32.1242L57.4505 32.0933L57.6082 31.9316L57.1368 31.472ZM47.5888 8.592L47.3414 7.98186L46.9765 8.12979L46.9342 8.52124L47.5888 8.592ZM47.0168 24.74L46.3589 24.7653L46.3838 25.4117L47.0305 25.3982L47.0168 24.74ZM53.0008 24.212L53.1605 24.8507L53.6609 24.7256L53.6592 24.2098L53.0008 24.212ZM52.6048 8.592L53.2555 8.49189L53.1851 8.0343L52.7307 7.94577L52.6048 8.592ZM44.6641 31.1951C43.3194 30.262 42.057 28.8703 40.888 26.9886L39.7695 27.6834C41.0059 29.6737 42.3835 31.2153 43.9135 32.2769L44.6641 31.1951ZM40.9868 27.3584C41.3093 17.8873 41.7048 10.7317 42.1721 5.88316L40.8614 5.75683C40.3901 10.647 39.9936 17.8354 39.6708 27.3136L40.9868 27.3584ZM42.1414 6.0282C42.6804 4.41101 43.3681 3.07194 44.1946 1.99742L43.1509 1.19458C42.2175 2.40805 41.4678 3.88499 40.8922 5.6118L42.1414 6.0282ZM43.7359 2.25134C48.5636 1.78602 52.9085 1.84599 56.7756 2.42316L56.97 1.12084C52.9757 0.524675 48.5206 0.467312 43.6096 0.94066L43.7359 2.25134ZM56.3362 2.15354C57.2558 3.4467 57.8815 4.56777 58.2356 5.52124L59.47 5.06276C59.0614 3.96289 58.3671 2.7373 57.4093 1.39045L56.3362 2.15354ZM58.1992 5.37165C59.3419 14.7469 59.8211 22.0113 59.6468 27.1818L60.9628 27.2262C61.1405 21.954 60.6517 14.6104 59.5063 5.21235L58.1992 5.37165ZM59.735 26.8741C58.7896 28.5071 57.7653 29.8843 56.6654 31.0124L57.6082 31.9316C58.7963 30.7131 59.884 29.2449 60.8746 27.5339L59.735 26.8741ZM57.0468 30.8198C51.979 31.5188 47.7647 31.6002 44.3881 31.0852L44.1895 32.3868C47.7355 32.9278 52.0866 32.8332 57.2267 32.1242L57.0468 30.8198ZM46.9342 8.52124C46.3442 13.9791 46.1523 19.3939 46.3589 24.7653L47.6747 24.7147C47.4706 19.4088 47.66 14.0582 48.2433 8.66276L46.9342 8.52124ZM47.0305 25.3982C49.8482 25.3395 51.9086 25.1637 53.1605 24.8507L52.8411 23.5733C51.7463 23.847 49.8174 24.0231 47.0031 24.0818L47.0305 25.3982ZM53.6592 24.2098C53.6445 19.7638 53.6041 16.2347 53.5379 13.6243C53.4722 11.0317 53.3805 9.30408 53.2555 8.49189L51.9541 8.69211C52.0638 9.40525 52.1553 11.0436 52.2216 13.6577C52.2874 16.254 52.3278 19.7722 52.3424 24.2142L53.6592 24.2098ZM52.7307 7.94577C50.4473 7.50095 48.6135 7.46617 47.3414 7.98186L47.8361 9.20214C48.7348 8.83783 50.245 8.80305 52.4789 9.23823L52.7307 7.94577ZM73.7454 31.868L73.1297 32.1011L73.3757 32.7509L74.0113 32.4703L73.7454 31.868ZM69.0814 19.548L69.6971 19.3149L68.4261 19.6118L69.0814 19.548ZM70.2254 31.296L70.278 31.9523L70.9456 31.8987L70.8807 31.2322L70.2254 31.296ZM61.9974 31.956L61.3392 31.9715L61.3556 32.668L62.05 32.6123L61.9974 31.956ZM62.4374 1.948L62.3113 1.30181L61.8026 1.40107L61.7797 1.91888L62.4374 1.948ZM70.3134 1.156L70.327 1.81427L70.3335 1.81406L70.3134 1.156ZM78.1454 1.244L78.6912 0.875873L78.51 0.607125L78.1865 0.586905L78.1454 1.244ZM80.4334 13.256H81.0918V13.2232L81.0885 13.1905L80.4334 13.256ZM80.4334 13.52H79.775V13.6754L79.8445 13.8144L80.4334 13.52ZM80.5214 14.004L81.1103 14.2984L81.2575 14.004L81.1103 13.7096L80.5214 14.004ZM77.9254 18.58L77.9943 19.2348L78.1392 19.2195L78.2641 19.1446L77.9254 18.58ZM75.8574 18.8L75.7873 18.1454L74.8742 18.2432L75.2599 19.0766L75.8574 18.8ZM80.5214 28.876L80.7873 29.4783L81.4004 29.2076L81.1189 28.5994L80.5214 28.876ZM68.6414 8.24L68.4659 7.60545L67.983 7.73901V8.24H68.6414ZM68.6414 12.948H67.983V13.6416L68.6757 13.6055L68.6414 12.948ZM73.7014 12.684L73.7357 13.3415L74.2973 13.3122L74.3562 12.7529L73.7014 12.684ZM73.5254 10.616L72.8766 10.7279L72.8789 10.741L72.8816 10.7539L73.5254 10.616ZM73.0414 8.548L72.4135 8.74628L72.4168 8.75619L73.0414 8.548ZM72.7774 7.712L73.4052 7.51374L73.2631 7.06381L72.7914 7.05377L72.7774 7.712ZM74.3611 31.6349L69.6971 19.3149L68.4657 19.7811L73.1297 32.1011L74.3611 31.6349ZM68.4261 19.6118L69.5701 31.3598L70.8807 31.2322L69.7367 19.4842L68.4261 19.6118ZM70.1728 30.6397L61.9448 31.2997L62.05 32.6123L70.278 31.9523L70.1728 30.6397ZM62.6556 31.9405C62.4507 23.2176 62.597 13.2303 63.0951 1.97712L61.7797 1.91888C61.2805 13.1937 61.1334 23.2117 61.3392 31.9715L62.6556 31.9405ZM62.5635 2.59419C64.9264 2.13314 67.5135 1.87224 70.327 1.81423L70.2998 0.497764C67.4226 0.557087 64.7591 0.824193 62.3113 1.30181L62.5635 2.59419ZM70.3335 1.81406C73.1921 1.72656 75.7819 1.75594 78.1043 1.90109L78.1865 0.586905C75.8155 0.438721 73.184 0.409438 70.2933 0.497932L70.3335 1.81406ZM77.5996 1.61212C77.7576 1.84645 77.942 2.25951 78.1374 2.89713C78.3296 3.52437 78.5206 4.3287 78.7087 5.31619C79.0848 7.29076 79.4418 9.95667 79.7783 13.3215L81.0885 13.1905C80.7503 9.80867 80.3887 7.09924 80.0022 5.06981C79.8089 4.0553 79.6075 3.20046 79.3964 2.51137C79.1884 1.83266 78.9585 1.27221 78.6912 0.875873L77.5996 1.61212ZM79.775 13.256C79.775 13.2562 79.775 13.2565 79.775 13.2567C79.775 13.2569 79.775 13.2571 79.775 13.2574C79.775 13.2576 79.775 13.2578 79.775 13.2581C79.775 13.2583 79.775 13.2585 79.775 13.2587C79.775 13.259 79.775 13.2592 79.775 13.2594C79.775 13.2597 79.775 13.2599 79.775 13.2601C79.775 13.2603 79.775 13.2606 79.775 13.2608C79.775 13.261 79.775 13.2612 79.775 13.2615C79.775 13.2617 79.775 13.2619 79.775 13.2622C79.775 13.2624 79.775 13.2626 79.775 13.2628C79.775 13.2631 79.775 13.2633 79.775 13.2635C79.775 13.2637 79.775 13.264 79.775 13.2642C79.775 13.2644 79.775 13.2647 79.775 13.2649C79.775 13.2651 79.775 13.2653 79.775 13.2656C79.775 13.2658 79.775 13.266 79.775 13.2662C79.775 13.2665 79.775 13.2667 79.775 13.2669C79.775 13.2671 79.775 13.2674 79.775 13.2676C79.775 13.2678 79.775 13.268 79.775 13.2683C79.775 13.2685 79.775 13.2687 79.775 13.2689C79.775 13.2692 79.775 13.2694 79.775 13.2696C79.775 13.2698 79.775 13.2701 79.775 13.2703C79.775 13.2705 79.775 13.2707 79.775 13.271C79.775 13.2712 79.775 13.2714 79.775 13.2716C79.775 13.2719 79.775 13.2721 79.775 13.2723C79.775 13.2725 79.775 13.2728 79.775 13.273C79.775 13.2732 79.775 13.2734 79.775 13.2736C79.775 13.2739 79.775 13.2741 79.775 13.2743C79.775 13.2745 79.775 13.2748 79.775 13.275C79.775 13.2752 79.775 13.2754 79.775 13.2757C79.775 13.2759 79.775 13.2761 79.775 13.2763C79.775 13.2765 79.775 13.2768 79.775 13.277C79.775 13.2772 79.775 13.2774 79.775 13.2777C79.775 13.2779 79.775 13.2781 79.775 13.2783C79.775 13.2785 79.775 13.2788 79.775 13.279C79.775 13.2792 79.775 13.2794 79.775 13.2796C79.775 13.2799 79.775 13.2801 79.775 13.2803C79.775 13.2805 79.775 13.2808 79.775 13.281C79.775 13.2812 79.775 13.2814 79.775 13.2816C79.775 13.2819 79.775 13.2821 79.775 13.2823C79.775 13.2825 79.775 13.2827 79.775 13.283C79.775 13.2832 79.775 13.2834 79.775 13.2836C79.775 13.2838 79.775 13.2841 79.775 13.2843C79.775 13.2845 79.775 13.2847 79.775 13.2849C79.775 13.2852 79.775 13.2854 79.775 13.2856C79.775 13.2858 79.775 13.286 79.775 13.2863C79.775 13.2865 79.775 13.2867 79.775 13.2869C79.775 13.2871 79.775 13.2874 79.775 13.2876C79.775 13.2878 79.775 13.288 79.775 13.2882C79.775 13.2884 79.775 13.2887 79.775 13.2889C79.775 13.2891 79.775 13.2893 79.775 13.2895C79.775 13.2898 79.775 13.29 79.775 13.2902C79.775 13.2904 79.775 13.2906 79.775 13.2908C79.775 13.2911 79.775 13.2913 79.775 13.2915C79.775 13.2917 79.775 13.2919 79.775 13.2921C79.775 13.2924 79.775 13.2926 79.775 13.2928C79.775 13.293 79.775 13.2932 79.775 13.2934C79.775 13.2937 79.775 13.2939 79.775 13.2941C79.775 13.2943 79.775 13.2945 79.775 13.2947C79.775 13.295 79.775 13.2952 79.775 13.2954C79.775 13.2956 79.775 13.2958 79.775 13.296C79.775 13.2963 79.775 13.2965 79.775 13.2967C79.775 13.2969 79.775 13.2971 79.775 13.2973C79.775 13.2975 79.775 13.2978 79.775 13.298C79.775 13.2982 79.775 13.2984 79.775 13.2986C79.775 13.2988 79.775 13.2991 79.775 13.2993C79.775 13.2995 79.775 13.2997 79.775 13.2999C79.775 13.3001 79.775 13.3003 79.775 13.3006C79.775 13.3008 79.775 13.301 79.775 13.3012C79.775 13.3014 79.775 13.3016 79.775 13.3018C79.775 13.3021 79.775 13.3023 79.775 13.3025C79.775 13.3027 79.775 13.3029 79.775 13.3031C79.775 13.3033 79.775 13.3035 79.775 13.3038C79.775 13.304 79.775 13.3042 79.775 13.3044C79.775 13.3046 79.775 13.3048 79.775 13.305C79.775 13.3052 79.775 13.3055 79.775 13.3057C79.775 13.3059 79.775 13.3061 79.775 13.3063C79.775 13.3065 79.775 13.3067 79.775 13.3069C79.775 13.3072 79.775 13.3074 79.775 13.3076C79.775 13.3078 79.775 13.308 79.775 13.3082C79.775 13.3084 79.775 13.3086 79.775 13.3089C79.775 13.3091 79.775 13.3093 79.775 13.3095C79.775 13.3097 79.775 13.3099 79.775 13.3101C79.775 13.3103 79.775 13.3105 79.775 13.3107C79.775 13.311 79.775 13.3112 79.775 13.3114C79.775 13.3116 79.775 13.3118 79.775 13.312C79.775 13.3122 79.775 13.3124 79.775 13.3126C79.775 13.3129 79.775 13.3131 79.775 13.3133C79.775 13.3135 79.775 13.3137 79.775 13.3139C79.775 13.3141 79.775 13.3143 79.775 13.3145C79.775 13.3147 79.775 13.3149 79.775 13.3152C79.775 13.3154 79.775 13.3156 79.775 13.3158C79.775 13.316 79.775 13.3162 79.775 13.3164C79.775 13.3166 79.775 13.3168 79.775 13.317C79.775 13.3172 79.775 13.3174 79.775 13.3177C79.775 13.3179 79.775 13.3181 79.775 13.3183C79.775 13.3185 79.775 13.3187 79.775 13.3189C79.775 13.3191 79.775 13.3193 79.775 13.3195C79.775 13.3197 79.775 13.3199 79.775 13.3201C79.775 13.3204 79.775 13.3206 79.775 13.3208C79.775 13.321 79.775 13.3212 79.775 13.3214C79.775 13.3216 79.775 13.3218 79.775 13.322C79.775 13.3222 79.775 13.3224 79.775 13.3226C79.775 13.3228 79.775 13.323 79.775 13.3232C79.775 13.3235 79.775 13.3237 79.775 13.3239C79.775 13.3241 79.775 13.3243 79.775 13.3245C79.775 13.3247 79.775 13.3249 79.775 13.3251C79.775 13.3253 79.775 13.3255 79.775 13.3257C79.775 13.3259 79.775 13.3261 79.775 13.3263C79.775 13.3265 79.775 13.3267 79.775 13.3269C79.775 13.3272 79.775 13.3274 79.775 13.3276C79.775 13.3278 79.775 13.328 79.775 13.3282C79.775 13.3284 79.775 13.3286 79.775 13.3288C79.775 13.329 79.775 13.3292 79.775 13.3294C79.775 13.3296 79.775 13.3298 79.775 13.33C79.775 13.3302 79.775 13.3304 79.775 13.3306C79.775 13.3308 79.775 13.331 79.775 13.3312C79.775 13.3314 79.775 13.3316 79.775 13.3318C79.775 13.332 79.775 13.3322 79.775 13.3324C79.775 13.3327 79.775 13.3329 79.775 13.3331C79.775 13.3333 79.775 13.3335 79.775 13.3337C79.775 13.3339 79.775 13.3341 79.775 13.3343C79.775 13.3345 79.775 13.3347 79.775 13.3349C79.775 13.3351 79.775 13.3353 79.775 13.3355C79.775 13.3357 79.775 13.3359 79.775 13.3361C79.775 13.3363 79.775 13.3365 79.775 13.3367C79.775 13.3369 79.775 13.3371 79.775 13.3373C79.775 13.3375 79.775 13.3377 79.775 13.3379C79.775 13.3381 79.775 13.3383 79.775 13.3385C79.775 13.3387 79.775 13.3389 79.775 13.3391C79.775 13.3393 79.775 13.3395 79.775 13.3397C79.775 13.3399 79.775 13.3401 79.775 13.3403C79.775 13.3405 79.775 13.3407 79.775 13.3409C79.775 13.3411 79.775 13.3413 79.775 13.3415C79.775 13.3417 79.775 13.3419 79.775 13.3421C79.775 13.3423 79.775 13.3425 79.775 13.3427C79.775 13.3429 79.775 13.3431 79.775 13.3433C79.775 13.3435 79.775 13.3437 79.775 13.3439C79.775 13.3441 79.775 13.3443 79.775 13.3445C79.775 13.3447 79.775 13.3449 79.775 13.3451C79.775 13.3453 79.775 13.3455 79.775 13.3457C79.775 13.3459 79.775 13.3461 79.775 13.3463C79.775 13.3465 79.775 13.3467 79.775 13.3469C79.775 13.3471 79.775 13.3472 79.775 13.3474C79.775 13.3476 79.775 13.3478 79.775 13.348C79.775 13.3482 79.775 13.3484 79.775 13.3486C79.775 13.3488 79.775 13.349 79.775 13.3492C79.775 13.3494 79.775 13.3496 79.775 13.3498C79.775 13.35 79.775 13.3502 79.775 13.3504C79.775 13.3506 79.775 13.3508 79.775 13.351C79.775 13.3512 79.775 13.3514 79.775 13.3516C79.775 13.3518 79.775 13.352 79.775 13.3522C79.775 13.3524 79.775 13.3525 79.775 13.3527C79.775 13.3529 79.775 13.3531 79.775 13.3533C79.775 13.3535 79.775 13.3537 79.775 13.3539C79.775 13.3541 79.775 13.3543 79.775 13.3545C79.775 13.3547 79.775 13.3549 79.775 13.3551C79.775 13.3553 79.775 13.3555 79.775 13.3557C79.775 13.3559 79.775 13.356 79.775 13.3562C79.775 13.3564 79.775 13.3566 79.775 13.3568C79.775 13.357 79.775 13.3572 79.775 13.3574C79.775 13.3576 79.775 13.3578 79.775 13.358C79.775 13.3582 79.775 13.3584 79.775 13.3586C79.775 13.3588 79.775 13.3589 79.775 13.3591C79.775 13.3593 79.775 13.3595 79.775 13.3597C79.775 13.3599 79.775 13.3601 79.775 13.3603C79.775 13.3605 79.775 13.3607 79.775 13.3609C79.775 13.3611 79.775 13.3613 79.775 13.3614C79.775 13.3616 79.775 13.3618 79.775 13.362C79.775 13.3622 79.775 13.3624 79.775 13.3626C79.775 13.3628 79.775 13.363 79.775 13.3632C79.775 13.3634 79.775 13.3636 79.775 13.3637C79.775 13.3639 79.775 13.3641 79.775 13.3643C79.775 13.3645 79.775 13.3647 79.775 13.3649C79.775 13.3651 79.775 13.3653 79.775 13.3655C79.775 13.3657 79.775 13.3658 79.775 13.366C79.775 13.3662 79.775 13.3664 79.775 13.3666C79.775 13.3668 79.775 13.367 79.775 13.3672C79.775 13.3674 79.775 13.3675 79.775 13.3677C79.775 13.3679 79.775 13.3681 79.775 13.3683C79.775 13.3685 79.775 13.3687 79.775 13.3689C79.775 13.3691 79.775 13.3693 79.775 13.3694C79.775 13.3696 79.775 13.3698 79.775 13.37C79.775 13.3702 79.775 13.3704 79.775 13.3706C79.775 13.3708 79.775 13.3709 79.775 13.3711C79.775 13.3713 79.775 13.3715 79.775 13.3717C79.775 13.3719 79.775 13.3721 79.775 13.3723C79.775 13.3724 79.775 13.3726 79.775 13.3728C79.775 13.373 79.775 13.3732 79.775 13.3734C79.775 13.3736 79.775 13.3738 79.775 13.3739C79.775 13.3741 79.775 13.3743 79.775 13.3745C79.775 13.3747 79.775 13.3749 79.775 13.3751C79.775 13.3753 79.775 13.3754 79.775 13.3756C79.775 13.3758 79.775 13.376 79.775 13.3762C79.775 13.3764 79.775 13.3766 79.775 13.3767C79.775 13.3769 79.775 13.3771 79.775 13.3773C79.775 13.3775 79.775 13.3777 79.775 13.3779C79.775 13.378 79.775 13.3782 79.775 13.3784C79.775 13.3786 79.775 13.3788 79.775 13.379C79.775 13.3791 79.775 13.3793 79.775 13.3795C79.775 13.3797 79.775 13.3799 79.775 13.3801C79.775 13.3803 79.775 13.3804 79.775 13.3806C79.775 13.3808 79.775 13.381 79.775 13.3812C79.775 13.3814 79.775 13.3815 79.775 13.3817C79.775 13.3819 79.775 13.3821 79.775 13.3823C79.775 13.3825 79.775 13.3826 79.775 13.3828C79.775 13.383 79.775 13.3832 79.775 13.3834C79.775 13.3836 79.775 13.3837 79.775 13.3839C79.775 13.3841 79.775 13.3843 79.775 13.3845C79.775 13.3847 79.775 13.3848 79.775 13.385C79.775 13.3852 79.775 13.3854 79.775 13.3856C79.775 13.3858 79.775 13.3859 79.775 13.3861C79.775 13.3863 79.775 13.3865 79.775 13.3867C79.775 13.3868 79.775 13.387 79.775 13.3872C79.775 13.3874 79.775 13.3876 79.775 13.3878C79.775 13.3879 79.775 13.3881 79.775 13.3883C79.775 13.3885 79.775 13.3887 79.775 13.3888C79.775 13.389 79.775 13.3892 79.775 13.3894C79.775 13.3896 79.775 13.3897 79.775 13.3899C79.775 13.3901 79.775 13.3903 79.775 13.3905C79.775 13.3906 79.775 13.3908 79.775 13.391C79.775 13.3912 79.775 13.3914 79.775 13.3915C79.775 13.3917 79.775 13.3919 79.775 13.3921C79.775 13.3923 79.775 13.3924 79.775 13.3926C79.775 13.3928 79.775 13.393 79.775 13.3932C79.775 13.3933 79.775 13.3935 79.775 13.3937C79.775 13.3939 79.775 13.394 79.775 13.3942C79.775 13.3944 79.775 13.3946 79.775 13.3948C79.775 13.3949 79.775 13.3951 79.775 13.3953C79.775 13.3955 79.775 13.3957 79.775 13.3958C79.775 13.396 79.775 13.3962 79.775 13.3964C79.775 13.3965 79.775 13.3967 79.775 13.3969C79.775 13.3971 79.775 13.3973 79.775 13.3974C79.775 13.3976 79.775 13.3978 79.775 13.398C79.775 13.3981 79.775 13.3983 79.775 13.3985C79.775 13.3987 79.775 13.3988 79.775 13.399C79.775 13.3992 79.775 13.3994 79.775 13.3996C79.775 13.3997 79.775 13.3999 79.775 13.4001C79.775 13.4003 79.775 13.4004 79.775 13.4006C79.775 13.4008 79.775 13.401 79.775 13.4011C79.775 13.4013 79.775 13.4015 79.775 13.4017C79.775 13.4018 79.775 13.402 79.775 13.4022C79.775 13.4024 79.775 13.4025 79.775 13.4027C79.775 13.4029 79.775 13.4031 79.775 13.4032C79.775 13.4034 79.775 13.4036 79.775 13.4038C79.775 13.4039 79.775 13.4041 79.775 13.4043C79.775 13.4045 79.775 13.4046 79.775 13.4048C79.775 13.405 79.775 13.4052 79.775 13.4053C79.775 13.4055 79.775 13.4057 79.775 13.4059C79.775 13.406 79.775 13.4062 79.775 13.4064C79.775 13.4065 79.775 13.4067 79.775 13.4069C79.775 13.4071 79.775 13.4072 79.775 13.4074C79.775 13.4076 79.775 13.4078 79.775 13.4079C79.775 13.4081 79.775 13.4083 79.775 13.4084C79.775 13.4086 79.775 13.4088 79.775 13.409C79.775 13.4091 79.775 13.4093 79.775 13.4095C79.775 13.4097 79.775 13.4098 79.775 13.41C79.775 13.4102 79.775 13.4103 79.775 13.4105C79.775 13.4107 79.775 13.4109 79.775 13.411C79.775 13.4112 79.775 13.4114 79.775 13.4115C79.775 13.4117 79.775 13.4119 79.775 13.4121C79.775 13.4122 79.775 13.4124 79.775 13.4126C79.775 13.4127 79.775 13.4129 79.775 13.4131C79.775 13.4133 79.775 13.4134 79.775 13.4136C79.775 13.4138 79.775 13.4139 79.775 13.4141C79.775 13.4143 79.775 13.4144 79.775 13.4146C79.775 13.4148 79.775 13.415 79.775 13.4151C79.775 13.4153 79.775 13.4155 79.775 13.4156C79.775 13.4158 79.775 13.416 79.775 13.4161C79.775 13.4163 79.775 13.4165 79.775 13.4166C79.775 13.4168 79.775 13.417 79.775 13.4172C79.775 13.4173 79.775 13.4175 79.775 13.4177C79.775 13.4178 79.775 13.418 79.775 13.4182C79.775 13.4183 79.775 13.4185 79.775 13.4187C79.775 13.4188 79.775 13.419 79.775 13.4192C79.775 13.4193 79.775 13.4195 79.775 13.4197C79.775 13.4198 79.775 13.42 79.775 13.4202C79.775 13.4203 79.775 13.4205 79.775 13.4207C79.775 13.4208 79.775 13.421 79.775 13.4212C79.775 13.4213 79.775 13.4215 79.775 13.4217C79.775 13.4218 79.775 13.422 79.775 13.4222C79.775 13.4223 79.775 13.4225 79.775 13.4227C79.775 13.4228 79.775 13.423 79.775 13.4232C79.775 13.4233 79.775 13.4235 79.775 13.4237C79.775 13.4238 79.775 13.424 79.775 13.4242C79.775 13.4243 79.775 13.4245 79.775 13.4247C79.775 13.4248 79.775 13.425 79.775 13.4252C79.775 13.4253 79.775 13.4255 79.775 13.4257C79.775 13.4258 79.775 13.426 79.775 13.4262C79.775 13.4263 79.775 13.4265 79.775 13.4266C79.775 13.4268 79.775 13.427 79.775 13.4271C79.775 13.4273 79.775 13.4275 79.775 13.4276C79.775 13.4278 79.775 13.428 79.775 13.4281C79.775 13.4283 79.775 13.4285 79.775 13.4286C79.775 13.4288 79.775 13.4289 79.775 13.4291C79.775 13.4293 79.775 13.4294 79.775 13.4296C79.775 13.4298 79.775 13.4299 79.775 13.4301C79.775 13.4303 79.775 13.4304 79.775 13.4306C79.775 13.4307 79.775 13.4309 79.775 13.4311C79.775 13.4312 79.775 13.4314 79.775 13.4316C79.775 13.4317 79.775 13.4319 79.775 13.432C79.775 13.4322 79.775 13.4324 79.775 13.4325C79.775 13.4327 79.775 13.4328 79.775 13.433C79.775 13.4332 79.775 13.4333 79.775 13.4335C79.775 13.4337 79.775 13.4338 79.775 13.434C79.775 13.4341 79.775 13.4343 79.775 13.4345C79.775 13.4346 79.775 13.4348 79.775 13.4349C79.775 13.4351 79.775 13.4353 79.775 13.4354C79.775 13.4356 79.775 13.4357 79.775 13.4359C79.775 13.4361 79.775 13.4362 79.775 13.4364C79.775 13.4365 79.775 13.4367 79.775 13.4369C79.775 13.437 79.775 13.4372 79.775 13.4373C79.775 13.4375 79.775 13.4377 79.775 13.4378C79.775 13.438 79.775 13.4381 79.775 13.4383C79.775 13.4385 79.775 13.4386 79.775 13.4388C79.775 13.4389 79.775 13.4391 79.775 13.4393C79.775 13.4394 79.775 13.4396 79.775 13.4397C79.775 13.4399 79.775 13.44 79.775 13.4402C79.775 13.4404 79.775 13.4405 79.775 13.4407C79.775 13.4408 79.775 13.441 79.775 13.4412C79.775 13.4413 79.775 13.4415 79.775 13.4416C79.775 13.4418 79.775 13.4419 79.775 13.4421C79.775 13.4423 79.775 13.4424 79.775 13.4426C79.775 13.4427 79.775 13.4429 79.775 13.443C79.775 13.4432 79.775 13.4434 79.775 13.4435C79.775 13.4437 79.775 13.4438 79.775 13.444C79.775 13.4441 79.775 13.4443 79.775 13.4444C79.775 13.4446 79.775 13.4448 79.775 13.4449C79.775 13.4451 79.775 13.4452 79.775 13.4454C79.775 13.4455 79.775 13.4457 79.775 13.4459C79.775 13.446 79.775 13.4462 79.775 13.4463C79.775 13.4465 79.775 13.4466 79.775 13.4468C79.775 13.4469 79.775 13.4471 79.775 13.4472C79.775 13.4474 79.775 13.4476 79.775 13.4477C79.775 13.4479 79.775 13.448 79.775 13.4482C79.775 13.4483 79.775 13.4485 79.775 13.4486C79.775 13.4488 79.775 13.4489 79.775 13.4491C79.775 13.4493 79.775 13.4494 79.775 13.4496C79.775 13.4497 79.775 13.4499 79.775 13.45C79.775 13.4502 79.775 13.4503 79.775 13.4505C79.775 13.4506 79.775 13.4508 79.775 13.4509C79.775 13.4511 79.775 13.4512 79.775 13.4514C79.775 13.4516 79.775 13.4517 79.775 13.4519C79.775 13.452 79.775 13.4522 79.775 13.4523C79.775 13.4525 79.775 13.4526 79.775 13.4528C79.775 13.4529 79.775 13.4531 79.775 13.4532C79.775 13.4534 79.775 13.4535 79.775 13.4537C79.775 13.4538 79.775 13.454 79.775 13.4541C79.775 13.4543 79.775 13.4544 79.775 13.4546C79.775 13.4547 79.775 13.4549 79.775 13.455C79.775 13.4552 79.775 13.4554 79.775 13.4555C79.775 13.4557 79.775 13.4558 79.775 13.456C79.775 13.4561 79.775 13.4563 79.775 13.4564C79.775 13.4566 79.775 13.4567 79.775 13.4569C79.775 13.457 79.775 13.4572 79.775 13.4573C79.775 13.4575 79.775 13.4576 79.775 13.4578C79.775 13.4579 79.775 13.4581 79.775 13.4582C79.775 13.4584 79.775 13.4585 79.775 13.4587C79.775 13.4588 79.775 13.459 79.775 13.4591C79.775 13.4592 79.775 13.4594 79.775 13.4595C79.775 13.4597 79.775 13.4598 79.775 13.46C79.775 13.4601 79.775 13.4603 79.775 13.4604C79.775 13.4606 79.775 13.4607 79.775 13.4609C79.775 13.461 79.775 13.4612 79.775 13.4613C79.775 13.4615 79.775 13.4616 79.775 13.4618C79.775 13.4619 79.775 13.4621 79.775 13.4622C79.775 13.4624 79.775 13.4625 79.775 13.4627C79.775 13.4628 79.775 13.463 79.775 13.4631C79.775 13.4632 79.775 13.4634 79.775 13.4635C79.775 13.4637 79.775 13.4638 79.775 13.464C79.775 13.4641 79.775 13.4643 79.775 13.4644C79.775 13.4646 79.775 13.4647 79.775 13.4649C79.775 13.465 79.775 13.4651 79.775 13.4653C79.775 13.4654 79.775 13.4656 79.775 13.4657C79.775 13.4659 79.775 13.466 79.775 13.4662C79.775 13.4663 79.775 13.4665 79.775 13.4666C79.775 13.4668 79.775 13.4669 79.775 13.467C79.775 13.4672 79.775 13.4673 79.775 13.4675C79.775 13.4676 79.775 13.4678 79.775 13.4679C79.775 13.4681 79.775 13.4682 79.775 13.4683C79.775 13.4685 79.775 13.4686 79.775 13.4688C79.775 13.4689 79.775 13.4691 79.775 13.4692C79.775 13.4694 79.775 13.4695 79.775 13.4696C79.775 13.4698 79.775 13.4699 79.775 13.4701C79.775 13.4702 79.775 13.4704 79.775 13.4705C79.775 13.4706 79.775 13.4708 79.775 13.4709C79.775 13.4711 79.775 13.4712 79.775 13.4714C79.775 13.4715 79.775 13.4716 79.775 13.4718C79.775 13.4719 79.775 13.4721 79.775 13.4722C79.775 13.4724 79.775 13.4725 79.775 13.4726C79.775 13.4728 79.775 13.4729 79.775 13.4731C79.775 13.4732 79.775 13.4733 79.775 13.4735C79.775 13.4736 79.775 13.4738 79.775 13.4739C79.775 13.4741 79.775 13.4742 79.775 13.4743C79.775 13.4745 79.775 13.4746 79.775 13.4748C79.775 13.4749 79.775 13.475 79.775 13.4752C79.775 13.4753 79.775 13.4755 79.775 13.4756C79.775 13.4757 79.775 13.4759 79.775 13.476C79.775 13.4762 79.775 13.4763 79.775 13.4764C79.775 13.4766 79.775 13.4767 79.775 13.4769C79.775 13.477 79.775 13.4771 79.775 13.4773C79.775 13.4774 79.775 13.4776 79.775 13.4777C79.775 13.4778 79.775 13.478 79.775 13.4781C79.775 13.4783 79.775 13.4784 79.775 13.4785C79.775 13.4787 79.775 13.4788 79.775 13.479C79.775 13.4791 79.775 13.4792 79.775 13.4794C79.775 13.4795 79.775 13.4797 79.775 13.4798C79.775 13.4799 79.775 13.4801 79.775 13.4802C79.775 13.4803 79.775 13.4805 79.775 13.4806C79.775 13.4808 79.775 13.4809 79.775 13.481C79.775 13.4812 79.775 13.4813 79.775 13.4814C79.775 13.4816 79.775 13.4817 79.775 13.4819C79.775 13.482 79.775 13.4821 79.775 13.4823C79.775 13.4824 79.775 13.4825 79.775 13.4827C79.775 13.4828 79.775 13.483 79.775 13.4831C79.775 13.4832 79.775 13.4834 79.775 13.4835C79.775 13.4836 79.775 13.4838 79.775 13.4839C79.775 13.484 79.775 13.4842 79.775 13.4843C79.775 13.4844 79.775 13.4846 79.775 13.4847C79.775 13.4849 79.775 13.485 79.775 13.4851C79.775 13.4853 79.775 13.4854 79.775 13.4855C79.775 13.4857 79.775 13.4858 79.775 13.4859C79.775 13.4861 79.775 13.4862 79.775 13.4863C79.775 13.4865 79.775 13.4866 79.775 13.4867C79.775 13.4869 79.775 13.487 79.775 13.4871C79.775 13.4873 79.775 13.4874 79.775 13.4876C79.775 13.4877 79.775 13.4878 79.775 13.488C79.775 13.4881 79.775 13.4882 79.775 13.4884C79.775 13.4885 79.775 13.4886 79.775 13.4888C79.775 13.4889 79.775 13.489 79.775 13.4892C79.775 13.4893 79.775 13.4894 79.775 13.4896C79.775 13.4897 79.775 13.4898 79.775 13.49C79.775 13.4901 79.775 13.4902 79.775 13.4904C79.775 13.4905 79.775 13.4906 79.775 13.4907C79.775 13.4909 79.775 13.491 79.775 13.4911C79.775 13.4913 79.775 13.4914 79.775 13.4915C79.775 13.4917 79.775 13.4918 79.775 13.4919C79.775 13.4921 79.775 13.4922 79.775 13.4923C79.775 13.4925 79.775 13.4926 79.775 13.4927C79.775 13.4929 79.775 13.493 79.775 13.4931C79.775 13.4932 79.775 13.4934 79.775 13.4935C79.775 13.4936 79.775 13.4938 79.775 13.4939C79.775 13.494 79.775 13.4942 79.775 13.4943C79.775 13.4944 79.775 13.4946 79.775 13.4947C79.775 13.4948 79.775 13.4949 79.775 13.4951C79.775 13.4952 79.775 13.4953 79.775 13.4955C79.775 13.4956 79.775 13.4957 79.775 13.4958C79.775 13.496 79.775 13.4961 79.775 13.4962C79.775 13.4964 79.775 13.4965 79.775 13.4966C79.775 13.4968 79.775 13.4969 79.775 13.497C79.775 13.4971 79.775 13.4973 79.775 13.4974C79.775 13.4975 79.775 13.4977 79.775 13.4978C79.775 13.4979 79.775 13.498 79.775 13.4982C79.775 13.4983 79.775 13.4984 79.775 13.4985C79.775 13.4987 79.775 13.4988 79.775 13.4989C79.775 13.4991 79.775 13.4992 79.775 13.4993C79.775 13.4994 79.775 13.4996 79.775 13.4997C79.775 13.4998 79.775 13.5 79.775 13.5001C79.775 13.5002 79.775 13.5003 79.775 13.5005C79.775 13.5006 79.775 13.5007 79.775 13.5008C79.775 13.501 79.775 13.5011 79.775 13.5012C79.775 13.5013 79.775 13.5015 79.775 13.5016C79.775 13.5017 79.775 13.5018 79.775 13.502C79.775 13.5021 79.775 13.5022 79.775 13.5023C79.775 13.5025 79.775 13.5026 79.775 13.5027C79.775 13.5029 79.775 13.503 79.775 13.5031C79.775 13.5032 79.775 13.5034 79.775 13.5035C79.775 13.5036 79.775 13.5037 79.775 13.5039C79.775 13.504 79.775 13.5041 79.775 13.5042C79.775 13.5043 79.775 13.5045 79.775 13.5046C79.775 13.5047 79.775 13.5048 79.775 13.505C79.775 13.5051 79.775 13.5052 79.775 13.5053C79.775 13.5055 79.775 13.5056 79.775 13.5057C79.775 13.5058 79.775 13.506 79.775 13.5061C79.775 13.5062 79.775 13.5063 79.775 13.5065C79.775 13.5066 79.775 13.5067 79.775 13.5068C79.775 13.5069 79.775 13.5071 79.775 13.5072C79.775 13.5073 79.775 13.5074 79.775 13.5076C79.775 13.5077 79.775 13.5078 79.775 13.5079C79.775 13.508 79.775 13.5082 79.775 13.5083C79.775 13.5084 79.775 13.5085 79.775 13.5087C79.775 13.5088 79.775 13.5089 79.775 13.509C79.775 13.5091 79.775 13.5093 79.775 13.5094C79.775 13.5095 79.775 13.5096 79.775 13.5097C79.775 13.5099 79.775 13.51 79.775 13.5101C79.775 13.5102 79.775 13.5104 79.775 13.5105C79.775 13.5106 79.775 13.5107 79.775 13.5108C79.775 13.511 79.775 13.5111 79.775 13.5112C79.775 13.5113 79.775 13.5114 79.775 13.5116C79.775 13.5117 79.775 13.5118 79.775 13.5119C79.775 13.512 79.775 13.5122 79.775 13.5123C79.775 13.5124 79.775 13.5125 79.775 13.5126C79.775 13.5128 79.775 13.5129 79.775 13.513C79.775 13.5131 79.775 13.5132 79.775 13.5133C79.775 13.5135 79.775 13.5136 79.775 13.5137C79.775 13.5138 79.775 13.5139 79.775 13.5141C79.775 13.5142 79.775 13.5143 79.775 13.5144C79.775 13.5145 79.775 13.5146 79.775 13.5148C79.775 13.5149 79.775 13.515 79.775 13.5151C79.775 13.5152 79.775 13.5154 79.775 13.5155C79.775 13.5156 79.775 13.5157 79.775 13.5158C79.775 13.5159 79.775 13.5161 79.775 13.5162C79.775 13.5163 79.775 13.5164 79.775 13.5165C79.775 13.5166 79.775 13.5168 79.775 13.5169C79.775 13.517 79.775 13.5171 79.775 13.5172C79.775 13.5173 79.775 13.5175 79.775 13.5176C79.775 13.5177 79.775 13.5178 79.775 13.5179C79.775 13.518 79.775 13.5182 79.775 13.5183C79.775 13.5184 79.775 13.5185 79.775 13.5186C79.775 13.5187 79.775 13.5188 79.775 13.519C79.775 13.5191 79.775 13.5192 79.775 13.5193C79.775 13.5194 79.775 13.5195 79.775 13.5197C79.775 13.5198 79.775 13.5199 79.775 13.52H81.0918C81.0918 13.5199 81.0918 13.5198 81.0918 13.5197C81.0918 13.5195 81.0918 13.5194 81.0918 13.5193C81.0918 13.5192 81.0918 13.5191 81.0918 13.519C81.0918 13.5188 81.0918 13.5187 81.0918 13.5186C81.0918 13.5185 81.0918 13.5184 81.0918 13.5183C81.0918 13.5182 81.0918 13.518 81.0918 13.5179C81.0918 13.5178 81.0918 13.5177 81.0918 13.5176C81.0918 13.5175 81.0918 13.5173 81.0918 13.5172C81.0918 13.5171 81.0918 13.517 81.0918 13.5169C81.0918 13.5168 81.0918 13.5166 81.0918 13.5165C81.0918 13.5164 81.0918 13.5163 81.0918 13.5162C81.0918 13.5161 81.0918 13.5159 81.0918 13.5158C81.0918 13.5157 81.0918 13.5156 81.0918 13.5155C81.0918 13.5154 81.0918 13.5152 81.0918 13.5151C81.0918 13.515 81.0918 13.5149 81.0918 13.5148C81.0918 13.5146 81.0918 13.5145 81.0918 13.5144C81.0918 13.5143 81.0918 13.5142 81.0918 13.5141C81.0918 13.5139 81.0918 13.5138 81.0918 13.5137C81.0918 13.5136 81.0918 13.5135 81.0918 13.5133C81.0918 13.5132 81.0918 13.5131 81.0918 13.513C81.0918 13.5129 81.0918 13.5128 81.0918 13.5126C81.0918 13.5125 81.0918 13.5124 81.0918 13.5123C81.0918 13.5122 81.0918 13.512 81.0918 13.5119C81.0918 13.5118 81.0918 13.5117 81.0918 13.5116C81.0918 13.5114 81.0918 13.5113 81.0918 13.5112C81.0918 13.5111 81.0918 13.511 81.0918 13.5108C81.0918 13.5107 81.0918 13.5106 81.0918 13.5105C81.0918 13.5104 81.0918 13.5102 81.0918 13.5101C81.0918 13.51 81.0918 13.5099 81.0918 13.5097C81.0918 13.5096 81.0918 13.5095 81.0918 13.5094C81.0918 13.5093 81.0918 13.5091 81.0918 13.509C81.0918 13.5089 81.0918 13.5088 81.0918 13.5087C81.0918 13.5085 81.0918 13.5084 81.0918 13.5083C81.0918 13.5082 81.0918 13.508 81.0918 13.5079C81.0918 13.5078 81.0918 13.5077 81.0918 13.5076C81.0918 13.5074 81.0918 13.5073 81.0918 13.5072C81.0918 13.5071 81.0918 13.5069 81.0918 13.5068C81.0918 13.5067 81.0918 13.5066 81.0918 13.5065C81.0918 13.5063 81.0918 13.5062 81.0918 13.5061C81.0918 13.506 81.0918 13.5058 81.0918 13.5057C81.0918 13.5056 81.0918 13.5055 81.0918 13.5053C81.0918 13.5052 81.0918 13.5051 81.0918 13.505C81.0918 13.5048 81.0918 13.5047 81.0918 13.5046C81.0918 13.5045 81.0918 13.5043 81.0918 13.5042C81.0918 13.5041 81.0918 13.504 81.0918 13.5039C81.0918 13.5037 81.0918 13.5036 81.0918 13.5035C81.0918 13.5034 81.0918 13.5032 81.0918 13.5031C81.0918 13.503 81.0918 13.5029 81.0918 13.5027C81.0918 13.5026 81.0918 13.5025 81.0918 13.5023C81.0918 13.5022 81.0918 13.5021 81.0918 13.502C81.0918 13.5018 81.0918 13.5017 81.0918 13.5016C81.0918 13.5015 81.0918 13.5013 81.0918 13.5012C81.0918 13.5011 81.0918 13.501 81.0918 13.5008C81.0918 13.5007 81.0918 13.5006 81.0918 13.5005C81.0918 13.5003 81.0918 13.5002 81.0918 13.5001C81.0918 13.5 81.0918 13.4998 81.0918 13.4997C81.0918 13.4996 81.0918 13.4994 81.0918 13.4993C81.0918 13.4992 81.0918 13.4991 81.0918 13.4989C81.0918 13.4988 81.0918 13.4987 81.0918 13.4985C81.0918 13.4984 81.0918 13.4983 81.0918 13.4982C81.0918 13.498 81.0918 13.4979 81.0918 13.4978C81.0918 13.4977 81.0918 13.4975 81.0918 13.4974C81.0918 13.4973 81.0918 13.4971 81.0918 13.497C81.0918 13.4969 81.0918 13.4968 81.0918 13.4966C81.0918 13.4965 81.0918 13.4964 81.0918 13.4962C81.0918 13.4961 81.0918 13.496 81.0918 13.4958C81.0918 13.4957 81.0918 13.4956 81.0918 13.4955C81.0918 13.4953 81.0918 13.4952 81.0918 13.4951C81.0918 13.4949 81.0918 13.4948 81.0918 13.4947C81.0918 13.4946 81.0918 13.4944 81.0918 13.4943C81.0918 13.4942 81.0918 13.494 81.0918 13.4939C81.0918 13.4938 81.0918 13.4936 81.0918 13.4935C81.0918 13.4934 81.0918 13.4932 81.0918 13.4931C81.0918 13.493 81.0918 13.4929 81.0918 13.4927C81.0918 13.4926 81.0918 13.4925 81.0918 13.4923C81.0918 13.4922 81.0918 13.4921 81.0918 13.4919C81.0918 13.4918 81.0918 13.4917 81.0918 13.4915C81.0918 13.4914 81.0918 13.4913 81.0918 13.4911C81.0918 13.491 81.0918 13.4909 81.0918 13.4907C81.0918 13.4906 81.0918 13.4905 81.0918 13.4904C81.0918 13.4902 81.0918 13.4901 81.0918 13.49C81.0918 13.4898 81.0918 13.4897 81.0918 13.4896C81.0918 13.4894 81.0918 13.4893 81.0918 13.4892C81.0918 13.489 81.0918 13.4889 81.0918 13.4888C81.0918 13.4886 81.0918 13.4885 81.0918 13.4884C81.0918 13.4882 81.0918 13.4881 81.0918 13.488C81.0918 13.4878 81.0918 13.4877 81.0918 13.4876C81.0918 13.4874 81.0918 13.4873 81.0918 13.4871C81.0918 13.487 81.0918 13.4869 81.0918 13.4867C81.0918 13.4866 81.0918 13.4865 81.0918 13.4863C81.0918 13.4862 81.0918 13.4861 81.0918 13.4859C81.0918 13.4858 81.0918 13.4857 81.0918 13.4855C81.0918 13.4854 81.0918 13.4853 81.0918 13.4851C81.0918 13.485 81.0918 13.4849 81.0918 13.4847C81.0918 13.4846 81.0918 13.4844 81.0918 13.4843C81.0918 13.4842 81.0918 13.484 81.0918 13.4839C81.0918 13.4838 81.0918 13.4836 81.0918 13.4835C81.0918 13.4834 81.0918 13.4832 81.0918 13.4831C81.0918 13.483 81.0918 13.4828 81.0918 13.4827C81.0918 13.4825 81.0918 13.4824 81.0918 13.4823C81.0918 13.4821 81.0918 13.482 81.0918 13.4819C81.0918 13.4817 81.0918 13.4816 81.0918 13.4814C81.0918 13.4813 81.0918 13.4812 81.0918 13.481C81.0918 13.4809 81.0918 13.4808 81.0918 13.4806C81.0918 13.4805 81.0918 13.4803 81.0918 13.4802C81.0918 13.4801 81.0918 13.4799 81.0918 13.4798C81.0918 13.4797 81.0918 13.4795 81.0918 13.4794C81.0918 13.4792 81.0918 13.4791 81.0918 13.479C81.0918 13.4788 81.0918 13.4787 81.0918 13.4785C81.0918 13.4784 81.0918 13.4783 81.0918 13.4781C81.0918 13.478 81.0918 13.4778 81.0918 13.4777C81.0918 13.4776 81.0918 13.4774 81.0918 13.4773C81.0918 13.4771 81.0918 13.477 81.0918 13.4769C81.0918 13.4767 81.0918 13.4766 81.0918 13.4764C81.0918 13.4763 81.0918 13.4762 81.0918 13.476C81.0918 13.4759 81.0918 13.4757 81.0918 13.4756C81.0918 13.4755 81.0918 13.4753 81.0918 13.4752C81.0918 13.475 81.0918 13.4749 81.0918 13.4748C81.0918 13.4746 81.0918 13.4745 81.0918 13.4743C81.0918 13.4742 81.0918 13.4741 81.0918 13.4739C81.0918 13.4738 81.0918 13.4736 81.0918 13.4735C81.0918 13.4733 81.0918 13.4732 81.0918 13.4731C81.0918 13.4729 81.0918 13.4728 81.0918 13.4726C81.0918 13.4725 81.0918 13.4724 81.0918 13.4722C81.0918 13.4721 81.0918 13.4719 81.0918 13.4718C81.0918 13.4716 81.0918 13.4715 81.0918 13.4714C81.0918 13.4712 81.0918 13.4711 81.0918 13.4709C81.0918 13.4708 81.0918 13.4706 81.0918 13.4705C81.0918 13.4704 81.0918 13.4702 81.0918 13.4701C81.0918 13.4699 81.0918 13.4698 81.0918 13.4696C81.0918 13.4695 81.0918 13.4694 81.0918 13.4692C81.0918 13.4691 81.0918 13.4689 81.0918 13.4688C81.0918 13.4686 81.0918 13.4685 81.0918 13.4683C81.0918 13.4682 81.0918 13.4681 81.0918 13.4679C81.0918 13.4678 81.0918 13.4676 81.0918 13.4675C81.0918 13.4673 81.0918 13.4672 81.0918 13.467C81.0918 13.4669 81.0918 13.4668 81.0918 13.4666C81.0918 13.4665 81.0918 13.4663 81.0918 13.4662C81.0918 13.466 81.0918 13.4659 81.0918 13.4657C81.0918 13.4656 81.0918 13.4654 81.0918 13.4653C81.0918 13.4651 81.0918 13.465 81.0918 13.4649C81.0918 13.4647 81.0918 13.4646 81.0918 13.4644C81.0918 13.4643 81.0918 13.4641 81.0918 13.464C81.0918 13.4638 81.0918 13.4637 81.0918 13.4635C81.0918 13.4634 81.0918 13.4632 81.0918 13.4631C81.0918 13.463 81.0918 13.4628 81.0918 13.4627C81.0918 13.4625 81.0918 13.4624 81.0918 13.4622C81.0918 13.4621 81.0918 13.4619 81.0918 13.4618C81.0918 13.4616 81.0918 13.4615 81.0918 13.4613C81.0918 13.4612 81.0918 13.461 81.0918 13.4609C81.0918 13.4607 81.0918 13.4606 81.0918 13.4604C81.0918 13.4603 81.0918 13.4601 81.0918 13.46C81.0918 13.4598 81.0918 13.4597 81.0918 13.4595C81.0918 13.4594 81.0918 13.4592 81.0918 13.4591C81.0918 13.459 81.0918 13.4588 81.0918 13.4587C81.0918 13.4585 81.0918 13.4584 81.0918 13.4582C81.0918 13.4581 81.0918 13.4579 81.0918 13.4578C81.0918 13.4576 81.0918 13.4575 81.0918 13.4573C81.0918 13.4572 81.0918 13.457 81.0918 13.4569C81.0918 13.4567 81.0918 13.4566 81.0918 13.4564C81.0918 13.4563 81.0918 13.4561 81.0918 13.456C81.0918 13.4558 81.0918 13.4557 81.0918 13.4555C81.0918 13.4554 81.0918 13.4552 81.0918 13.455C81.0918 13.4549 81.0918 13.4547 81.0918 13.4546C81.0918 13.4544 81.0918 13.4543 81.0918 13.4541C81.0918 13.454 81.0918 13.4538 81.0918 13.4537C81.0918 13.4535 81.0918 13.4534 81.0918 13.4532C81.0918 13.4531 81.0918 13.4529 81.0918 13.4528C81.0918 13.4526 81.0918 13.4525 81.0918 13.4523C81.0918 13.4522 81.0918 13.452 81.0918 13.4519C81.0918 13.4517 81.0918 13.4516 81.0918 13.4514C81.0918 13.4512 81.0918 13.4511 81.0918 13.4509C81.0918 13.4508 81.0918 13.4506 81.0918 13.4505C81.0918 13.4503 81.0918 13.4502 81.0918 13.45C81.0918 13.4499 81.0918 13.4497 81.0918 13.4496C81.0918 13.4494 81.0918 13.4493 81.0918 13.4491C81.0918 13.4489 81.0918 13.4488 81.0918 13.4486C81.0918 13.4485 81.0918 13.4483 81.0918 13.4482C81.0918 13.448 81.0918 13.4479 81.0918 13.4477C81.0918 13.4476 81.0918 13.4474 81.0918 13.4472C81.0918 13.4471 81.0918 13.4469 81.0918 13.4468C81.0918 13.4466 81.0918 13.4465 81.0918 13.4463C81.0918 13.4462 81.0918 13.446 81.0918 13.4459C81.0918 13.4457 81.0918 13.4455 81.0918 13.4454C81.0918 13.4452 81.0918 13.4451 81.0918 13.4449C81.0918 13.4448 81.0918 13.4446 81.0918 13.4444C81.0918 13.4443 81.0918 13.4441 81.0918 13.444C81.0918 13.4438 81.0918 13.4437 81.0918 13.4435C81.0918 13.4434 81.0918 13.4432 81.0918 13.443C81.0918 13.4429 81.0918 13.4427 81.0918 13.4426C81.0918 13.4424 81.0918 13.4423 81.0918 13.4421C81.0918 13.4419 81.0918 13.4418 81.0918 13.4416C81.0918 13.4415 81.0918 13.4413 81.0918 13.4412C81.0918 13.441 81.0918 13.4408 81.0918 13.4407C81.0918 13.4405 81.0918 13.4404 81.0918 13.4402C81.0918 13.44 81.0918 13.4399 81.0918 13.4397C81.0918 13.4396 81.0918 13.4394 81.0918 13.4393C81.0918 13.4391 81.0918 13.4389 81.0918 13.4388C81.0918 13.4386 81.0918 13.4385 81.0918 13.4383C81.0918 13.4381 81.0918 13.438 81.0918 13.4378C81.0918 13.4377 81.0918 13.4375 81.0918 13.4373C81.0918 13.4372 81.0918 13.437 81.0918 13.4369C81.0918 13.4367 81.0918 13.4365 81.0918 13.4364C81.0918 13.4362 81.0918 13.4361 81.0918 13.4359C81.0918 13.4357 81.0918 13.4356 81.0918 13.4354C81.0918 13.4353 81.0918 13.4351 81.0918 13.4349C81.0918 13.4348 81.0918 13.4346 81.0918 13.4345C81.0918 13.4343 81.0918 13.4341 81.0918 13.434C81.0918 13.4338 81.0918 13.4337 81.0918 13.4335C81.0918 13.4333 81.0918 13.4332 81.0918 13.433C81.0918 13.4328 81.0918 13.4327 81.0918 13.4325C81.0918 13.4324 81.0918 13.4322 81.0918 13.432C81.0918 13.4319 81.0918 13.4317 81.0918 13.4316C81.0918 13.4314 81.0918 13.4312 81.0918 13.4311C81.0918 13.4309 81.0918 13.4307 81.0918 13.4306C81.0918 13.4304 81.0918 13.4303 81.0918 13.4301C81.0918 13.4299 81.0918 13.4298 81.0918 13.4296C81.0918 13.4294 81.0918 13.4293 81.0918 13.4291C81.0918 13.4289 81.0918 13.4288 81.0918 13.4286C81.0918 13.4285 81.0918 13.4283 81.0918 13.4281C81.0918 13.428 81.0918 13.4278 81.0918 13.4276C81.0918 13.4275 81.0918 13.4273 81.0918 13.4271C81.0918 13.427 81.0918 13.4268 81.0918 13.4266C81.0918 13.4265 81.0918 13.4263 81.0918 13.4262C81.0918 13.426 81.0918 13.4258 81.0918 13.4257C81.0918 13.4255 81.0918 13.4253 81.0918 13.4252C81.0918 13.425 81.0918 13.4248 81.0918 13.4247C81.0918 13.4245 81.0918 13.4243 81.0918 13.4242C81.0918 13.424 81.0918 13.4238 81.0918 13.4237C81.0918 13.4235 81.0918 13.4233 81.0918 13.4232C81.0918 13.423 81.0918 13.4228 81.0918 13.4227C81.0918 13.4225 81.0918 13.4223 81.0918 13.4222C81.0918 13.422 81.0918 13.4218 81.0918 13.4217C81.0918 13.4215 81.0918 13.4213 81.0918 13.4212C81.0918 13.421 81.0918 13.4208 81.0918 13.4207C81.0918 13.4205 81.0918 13.4203 81.0918 13.4202C81.0918 13.42 81.0918 13.4198 81.0918 13.4197C81.0918 13.4195 81.0918 13.4193 81.0918 13.4192C81.0918 13.419 81.0918 13.4188 81.0918 13.4187C81.0918 13.4185 81.0918 13.4183 81.0918 13.4182C81.0918 13.418 81.0918 13.4178 81.0918 13.4177C81.0918 13.4175 81.0918 13.4173 81.0918 13.4172C81.0918 13.417 81.0918 13.4168 81.0918 13.4166C81.0918 13.4165 81.0918 13.4163 81.0918 13.4161C81.0918 13.416 81.0918 13.4158 81.0918 13.4156C81.0918 13.4155 81.0918 13.4153 81.0918 13.4151C81.0918 13.415 81.0918 13.4148 81.0918 13.4146C81.0918 13.4144 81.0918 13.4143 81.0918 13.4141C81.0918 13.4139 81.0918 13.4138 81.0918 13.4136C81.0918 13.4134 81.0918 13.4133 81.0918 13.4131C81.0918 13.4129 81.0918 13.4127 81.0918 13.4126C81.0918 13.4124 81.0918 13.4122 81.0918 13.4121C81.0918 13.4119 81.0918 13.4117 81.0918 13.4115C81.0918 13.4114 81.0918 13.4112 81.0918 13.411C81.0918 13.4109 81.0918 13.4107 81.0918 13.4105C81.0918 13.4103 81.0918 13.4102 81.0918 13.41C81.0918 13.4098 81.0918 13.4097 81.0918 13.4095C81.0918 13.4093 81.0918 13.4091 81.0918 13.409C81.0918 13.4088 81.0918 13.4086 81.0918 13.4084C81.0918 13.4083 81.0918 13.4081 81.0918 13.4079C81.0918 13.4078 81.0918 13.4076 81.0918 13.4074C81.0918 13.4072 81.0918 13.4071 81.0918 13.4069C81.0918 13.4067 81.0918 13.4065 81.0918 13.4064C81.0918 13.4062 81.0918 13.406 81.0918 13.4059C81.0918 13.4057 81.0918 13.4055 81.0918 13.4053C81.0918 13.4052 81.0918 13.405 81.0918 13.4048C81.0918 13.4046 81.0918 13.4045 81.0918 13.4043C81.0918 13.4041 81.0918 13.4039 81.0918 13.4038C81.0918 13.4036 81.0918 13.4034 81.0918 13.4032C81.0918 13.4031 81.0918 13.4029 81.0918 13.4027C81.0918 13.4025 81.0918 13.4024 81.0918 13.4022C81.0918 13.402 81.0918 13.4018 81.0918 13.4017C81.0918 13.4015 81.0918 13.4013 81.0918 13.4011C81.0918 13.401 81.0918 13.4008 81.0918 13.4006C81.0918 13.4004 81.0918 13.4003 81.0918 13.4001C81.0918 13.3999 81.0918 13.3997 81.0918 13.3996C81.0918 13.3994 81.0918 13.3992 81.0918 13.399C81.0918 13.3988 81.0918 13.3987 81.0918 13.3985C81.0918 13.3983 81.0918 13.3981 81.0918 13.398C81.0918 13.3978 81.0918 13.3976 81.0918 13.3974C81.0918 13.3973 81.0918 13.3971 81.0918 13.3969C81.0918 13.3967 81.0918 13.3965 81.0918 13.3964C81.0918 13.3962 81.0918 13.396 81.0918 13.3958C81.0918 13.3957 81.0918 13.3955 81.0918 13.3953C81.0918 13.3951 81.0918 13.3949 81.0918 13.3948C81.0918 13.3946 81.0918 13.3944 81.0918 13.3942C81.0918 13.394 81.0918 13.3939 81.0918 13.3937C81.0918 13.3935 81.0918 13.3933 81.0918 13.3932C81.0918 13.393 81.0918 13.3928 81.0918 13.3926C81.0918 13.3924 81.0918 13.3923 81.0918 13.3921C81.0918 13.3919 81.0918 13.3917 81.0918 13.3915C81.0918 13.3914 81.0918 13.3912 81.0918 13.391C81.0918 13.3908 81.0918 13.3906 81.0918 13.3905C81.0918 13.3903 81.0918 13.3901 81.0918 13.3899C81.0918 13.3897 81.0918 13.3896 81.0918 13.3894C81.0918 13.3892 81.0918 13.389 81.0918 13.3888C81.0918 13.3887 81.0918 13.3885 81.0918 13.3883C81.0918 13.3881 81.0918 13.3879 81.0918 13.3878C81.0918 13.3876 81.0918 13.3874 81.0918 13.3872C81.0918 13.387 81.0918 13.3868 81.0918 13.3867C81.0918 13.3865 81.0918 13.3863 81.0918 13.3861C81.0918 13.3859 81.0918 13.3858 81.0918 13.3856C81.0918 13.3854 81.0918 13.3852 81.0918 13.385C81.0918 13.3848 81.0918 13.3847 81.0918 13.3845C81.0918 13.3843 81.0918 13.3841 81.0918 13.3839C81.0918 13.3837 81.0918 13.3836 81.0918 13.3834C81.0918 13.3832 81.0918 13.383 81.0918 13.3828C81.0918 13.3826 81.0918 13.3825 81.0918 13.3823C81.0918 13.3821 81.0918 13.3819 81.0918 13.3817C81.0918 13.3815 81.0918 13.3814 81.0918 13.3812C81.0918 13.381 81.0918 13.3808 81.0918 13.3806C81.0918 13.3804 81.0918 13.3803 81.0918 13.3801C81.0918 13.3799 81.0918 13.3797 81.0918 13.3795C81.0918 13.3793 81.0918 13.3791 81.0918 13.379C81.0918 13.3788 81.0918 13.3786 81.0918 13.3784C81.0918 13.3782 81.0918 13.378 81.0918 13.3779C81.0918 13.3777 81.0918 13.3775 81.0918 13.3773C81.0918 13.3771 81.0918 13.3769 81.0918 13.3767C81.0918 13.3766 81.0918 13.3764 81.0918 13.3762C81.0918 13.376 81.0918 13.3758 81.0918 13.3756C81.0918 13.3754 81.0918 13.3753 81.0918 13.3751C81.0918 13.3749 81.0918 13.3747 81.0918 13.3745C81.0918 13.3743 81.0918 13.3741 81.0918 13.3739C81.0918 13.3738 81.0918 13.3736 81.0918 13.3734C81.0918 13.3732 81.0918 13.373 81.0918 13.3728C81.0918 13.3726 81.0918 13.3724 81.0918 13.3723C81.0918 13.3721 81.0918 13.3719 81.0918 13.3717C81.0918 13.3715 81.0918 13.3713 81.0918 13.3711C81.0918 13.3709 81.0918 13.3708 81.0918 13.3706C81.0918 13.3704 81.0918 13.3702 81.0918 13.37C81.0918 13.3698 81.0918 13.3696 81.0918 13.3694C81.0918 13.3693 81.0918 13.3691 81.0918 13.3689C81.0918 13.3687 81.0918 13.3685 81.0918 13.3683C81.0918 13.3681 81.0918 13.3679 81.0918 13.3677C81.0918 13.3675 81.0918 13.3674 81.0918 13.3672C81.0918 13.367 81.0918 13.3668 81.0918 13.3666C81.0918 13.3664 81.0918 13.3662 81.0918 13.366C81.0918 13.3658 81.0918 13.3657 81.0918 13.3655C81.0918 13.3653 81.0918 13.3651 81.0918 13.3649C81.0918 13.3647 81.0918 13.3645 81.0918 13.3643C81.0918 13.3641 81.0918 13.3639 81.0918 13.3637C81.0918 13.3636 81.0918 13.3634 81.0918 13.3632C81.0918 13.363 81.0918 13.3628 81.0918 13.3626C81.0918 13.3624 81.0918 13.3622 81.0918 13.362C81.0918 13.3618 81.0918 13.3616 81.0918 13.3614C81.0918 13.3613 81.0918 13.3611 81.0918 13.3609C81.0918 13.3607 81.0918 13.3605 81.0918 13.3603C81.0918 13.3601 81.0918 13.3599 81.0918 13.3597C81.0918 13.3595 81.0918 13.3593 81.0918 13.3591C81.0918 13.3589 81.0918 13.3588 81.0918 13.3586C81.0918 13.3584 81.0918 13.3582 81.0918 13.358C81.0918 13.3578 81.0918 13.3576 81.0918 13.3574C81.0918 13.3572 81.0918 13.357 81.0918 13.3568C81.0918 13.3566 81.0918 13.3564 81.0918 13.3562C81.0918 13.356 81.0918 13.3559 81.0918 13.3557C81.0918 13.3555 81.0918 13.3553 81.0918 13.3551C81.0918 13.3549 81.0918 13.3547 81.0918 13.3545C81.0918 13.3543 81.0918 13.3541 81.0918 13.3539C81.0918 13.3537 81.0918 13.3535 81.0918 13.3533C81.0918 13.3531 81.0918 13.3529 81.0918 13.3527C81.0918 13.3525 81.0918 13.3524 81.0918 13.3522C81.0918 13.352 81.0918 13.3518 81.0918 13.3516C81.0918 13.3514 81.0918 13.3512 81.0918 13.351C81.0918 13.3508 81.0918 13.3506 81.0918 13.3504C81.0918 13.3502 81.0918 13.35 81.0918 13.3498C81.0918 13.3496 81.0918 13.3494 81.0918 13.3492C81.0918 13.349 81.0918 13.3488 81.0918 13.3486C81.0918 13.3484 81.0918 13.3482 81.0918 13.348C81.0918 13.3478 81.0918 13.3476 81.0918 13.3474C81.0918 13.3472 81.0918 13.3471 81.0918 13.3469C81.0918 13.3467 81.0918 13.3465 81.0918 13.3463C81.0918 13.3461 81.0918 13.3459 81.0918 13.3457C81.0918 13.3455 81.0918 13.3453 81.0918 13.3451C81.0918 13.3449 81.0918 13.3447 81.0918 13.3445C81.0918 13.3443 81.0918 13.3441 81.0918 13.3439C81.0918 13.3437 81.0918 13.3435 81.0918 13.3433C81.0918 13.3431 81.0918 13.3429 81.0918 13.3427C81.0918 13.3425 81.0918 13.3423 81.0918 13.3421C81.0918 13.3419 81.0918 13.3417 81.0918 13.3415C81.0918 13.3413 81.0918 13.3411 81.0918 13.3409C81.0918 13.3407 81.0918 13.3405 81.0918 13.3403C81.0918 13.3401 81.0918 13.3399 81.0918 13.3397C81.0918 13.3395 81.0918 13.3393 81.0918 13.3391C81.0918 13.3389 81.0918 13.3387 81.0918 13.3385C81.0918 13.3383 81.0918 13.3381 81.0918 13.3379C81.0918 13.3377 81.0918 13.3375 81.0918 13.3373C81.0918 13.3371 81.0918 13.3369 81.0918 13.3367C81.0918 13.3365 81.0918 13.3363 81.0918 13.3361C81.0918 13.3359 81.0918 13.3357 81.0918 13.3355C81.0918 13.3353 81.0918 13.3351 81.0918 13.3349C81.0918 13.3347 81.0918 13.3345 81.0918 13.3343C81.0918 13.3341 81.0918 13.3339 81.0918 13.3337C81.0918 13.3335 81.0918 13.3333 81.0918 13.3331C81.0918 13.3329 81.0918 13.3327 81.0918 13.3324C81.0918 13.3322 81.0918 13.332 81.0918 13.3318C81.0918 13.3316 81.0918 13.3314 81.0918 13.3312C81.0918 13.331 81.0918 13.3308 81.0918 13.3306C81.0918 13.3304 81.0918 13.3302 81.0918 13.33C81.0918 13.3298 81.0918 13.3296 81.0918 13.3294C81.0918 13.3292 81.0918 13.329 81.0918 13.3288C81.0918 13.3286 81.0918 13.3284 81.0918 13.3282C81.0918 13.328 81.0918 13.3278 81.0918 13.3276C81.0918 13.3274 81.0918 13.3272 81.0918 13.3269C81.0918 13.3267 81.0918 13.3265 81.0918 13.3263C81.0918 13.3261 81.0918 13.3259 81.0918 13.3257C81.0918 13.3255 81.0918 13.3253 81.0918 13.3251C81.0918 13.3249 81.0918 13.3247 81.0918 13.3245C81.0918 13.3243 81.0918 13.3241 81.0918 13.3239C81.0918 13.3237 81.0918 13.3235 81.0918 13.3232C81.0918 13.323 81.0918 13.3228 81.0918 13.3226C81.0918 13.3224 81.0918 13.3222 81.0918 13.322C81.0918 13.3218 81.0918 13.3216 81.0918 13.3214C81.0918 13.3212 81.0918 13.321 81.0918 13.3208C81.0918 13.3206 81.0918 13.3204 81.0918 13.3201C81.0918 13.3199 81.0918 13.3197 81.0918 13.3195C81.0918 13.3193 81.0918 13.3191 81.0918 13.3189C81.0918 13.3187 81.0918 13.3185 81.0918 13.3183C81.0918 13.3181 81.0918 13.3179 81.0918 13.3177C81.0918 13.3174 81.0918 13.3172 81.0918 13.317C81.0918 13.3168 81.0918 13.3166 81.0918 13.3164C81.0918 13.3162 81.0918 13.316 81.0918 13.3158C81.0918 13.3156 81.0918 13.3154 81.0918 13.3152C81.0918 13.3149 81.0918 13.3147 81.0918 13.3145C81.0918 13.3143 81.0918 13.3141 81.0918 13.3139C81.0918 13.3137 81.0918 13.3135 81.0918 13.3133C81.0918 13.3131 81.0918 13.3129 81.0918 13.3126C81.0918 13.3124 81.0918 13.3122 81.0918 13.312C81.0918 13.3118 81.0918 13.3116 81.0918 13.3114C81.0918 13.3112 81.0918 13.311 81.0918 13.3107C81.0918 13.3105 81.0918 13.3103 81.0918 13.3101C81.0918 13.3099 81.0918 13.3097 81.0918 13.3095C81.0918 13.3093 81.0918 13.3091 81.0918 13.3089C81.0918 13.3086 81.0918 13.3084 81.0918 13.3082C81.0918 13.308 81.0918 13.3078 81.0918 13.3076C81.0918 13.3074 81.0918 13.3072 81.0918 13.3069C81.0918 13.3067 81.0918 13.3065 81.0918 13.3063C81.0918 13.3061 81.0918 13.3059 81.0918 13.3057C81.0918 13.3055 81.0918 13.3052 81.0918 13.305C81.0918 13.3048 81.0918 13.3046 81.0918 13.3044C81.0918 13.3042 81.0918 13.304 81.0918 13.3038C81.0918 13.3035 81.0918 13.3033 81.0918 13.3031C81.0918 13.3029 81.0918 13.3027 81.0918 13.3025C81.0918 13.3023 81.0918 13.3021 81.0918 13.3018C81.0918 13.3016 81.0918 13.3014 81.0918 13.3012C81.0918 13.301 81.0918 13.3008 81.0918 13.3006C81.0918 13.3003 81.0918 13.3001 81.0918 13.2999C81.0918 13.2997 81.0918 13.2995 81.0918 13.2993C81.0918 13.2991 81.0918 13.2988 81.0918 13.2986C81.0918 13.2984 81.0918 13.2982 81.0918 13.298C81.0918 13.2978 81.0918 13.2975 81.0918 13.2973C81.0918 13.2971 81.0918 13.2969 81.0918 13.2967C81.0918 13.2965 81.0918 13.2963 81.0918 13.296C81.0918 13.2958 81.0918 13.2956 81.0918 13.2954C81.0918 13.2952 81.0918 13.295 81.0918 13.2947C81.0918 13.2945 81.0918 13.2943 81.0918 13.2941C81.0918 13.2939 81.0918 13.2937 81.0918 13.2934C81.0918 13.2932 81.0918 13.293 81.0918 13.2928C81.0918 13.2926 81.0918 13.2924 81.0918 13.2921C81.0918 13.2919 81.0918 13.2917 81.0918 13.2915C81.0918 13.2913 81.0918 13.2911 81.0918 13.2908C81.0918 13.2906 81.0918 13.2904 81.0918 13.2902C81.0918 13.29 81.0918 13.2898 81.0918 13.2895C81.0918 13.2893 81.0918 13.2891 81.0918 13.2889C81.0918 13.2887 81.0918 13.2884 81.0918 13.2882C81.0918 13.288 81.0918 13.2878 81.0918 13.2876C81.0918 13.2874 81.0918 13.2871 81.0918 13.2869C81.0918 13.2867 81.0918 13.2865 81.0918 13.2863C81.0918 13.286 81.0918 13.2858 81.0918 13.2856C81.0918 13.2854 81.0918 13.2852 81.0918 13.2849C81.0918 13.2847 81.0918 13.2845 81.0918 13.2843C81.0918 13.2841 81.0918 13.2838 81.0918 13.2836C81.0918 13.2834 81.0918 13.2832 81.0918 13.283C81.0918 13.2827 81.0918 13.2825 81.0918 13.2823C81.0918 13.2821 81.0918 13.2819 81.0918 13.2816C81.0918 13.2814 81.0918 13.2812 81.0918 13.281C81.0918 13.2808 81.0918 13.2805 81.0918 13.2803C81.0918 13.2801 81.0918 13.2799 81.0918 13.2796C81.0918 13.2794 81.0918 13.2792 81.0918 13.279C81.0918 13.2788 81.0918 13.2785 81.0918 13.2783C81.0918 13.2781 81.0918 13.2779 81.0918 13.2777C81.0918 13.2774 81.0918 13.2772 81.0918 13.277C81.0918 13.2768 81.0918 13.2765 81.0918 13.2763C81.0918 13.2761 81.0918 13.2759 81.0918 13.2757C81.0918 13.2754 81.0918 13.2752 81.0918 13.275C81.0918 13.2748 81.0918 13.2745 81.0918 13.2743C81.0918 13.2741 81.0918 13.2739 81.0918 13.2736C81.0918 13.2734 81.0918 13.2732 81.0918 13.273C81.0918 13.2728 81.0918 13.2725 81.0918 13.2723C81.0918 13.2721 81.0918 13.2719 81.0918 13.2716C81.0918 13.2714 81.0918 13.2712 81.0918 13.271C81.0918 13.2707 81.0918 13.2705 81.0918 13.2703C81.0918 13.2701 81.0918 13.2698 81.0918 13.2696C81.0918 13.2694 81.0918 13.2692 81.0918 13.2689C81.0918 13.2687 81.0918 13.2685 81.0918 13.2683C81.0918 13.268 81.0918 13.2678 81.0918 13.2676C81.0918 13.2674 81.0918 13.2671 81.0918 13.2669C81.0918 13.2667 81.0918 13.2665 81.0918 13.2662C81.0918 13.266 81.0918 13.2658 81.0918 13.2656C81.0918 13.2653 81.0918 13.2651 81.0918 13.2649C81.0918 13.2647 81.0918 13.2644 81.0918 13.2642C81.0918 13.264 81.0918 13.2637 81.0918 13.2635C81.0918 13.2633 81.0918 13.2631 81.0918 13.2628C81.0918 13.2626 81.0918 13.2624 81.0918 13.2622C81.0918 13.2619 81.0918 13.2617 81.0918 13.2615C81.0918 13.2612 81.0918 13.261 81.0918 13.2608C81.0918 13.2606 81.0918 13.2603 81.0918 13.2601C81.0918 13.2599 81.0918 13.2597 81.0918 13.2594C81.0918 13.2592 81.0918 13.259 81.0918 13.2587C81.0918 13.2585 81.0918 13.2583 81.0918 13.2581C81.0918 13.2578 81.0918 13.2576 81.0918 13.2574C81.0918 13.2571 81.0918 13.2569 81.0918 13.2567C81.0918 13.2565 81.0918 13.2562 81.0918 13.256H79.775ZM79.8445 13.8144C79.8324 13.7902 79.8257 13.7707 79.8221 13.7587C79.8184 13.7465 79.8172 13.7392 79.817 13.7382C79.8168 13.7371 79.8174 13.7402 79.818 13.7484C79.8185 13.7565 79.819 13.7682 79.819 13.784H81.1358C81.1358 13.633 81.1204 13.4218 81.0223 13.2256L79.8445 13.8144ZM79.819 13.784C79.819 13.9409 79.8446 14.1226 79.9325 14.2984L81.1103 13.7096C81.1395 13.7681 81.1358 13.8031 81.1358 13.784H79.819ZM79.9325 13.7096C79.2155 15.1436 78.6459 16.2315 78.2218 16.9791C78.0091 17.354 77.8386 17.6333 77.7085 17.8244C77.6432 17.9203 77.5943 17.9847 77.5606 18.0244C77.5165 18.0762 77.5277 18.0509 77.5867 18.0154L78.2641 19.1446C78.3965 19.0651 78.4988 18.9537 78.5639 18.8771C78.6392 18.7885 78.7173 18.6823 78.7968 18.5656C78.9564 18.3313 79.1471 18.0166 79.3671 17.6289C79.8082 16.8512 80.3899 15.7391 81.1103 14.2984L79.9325 13.7096ZM77.8565 17.9252C77.2986 17.984 76.6088 18.0573 75.7873 18.1454L75.9275 19.4546C76.7486 19.3667 77.4375 19.2934 77.9943 19.2348L77.8565 17.9252ZM75.2599 19.0766L79.9239 29.1526L81.1189 28.5994L76.4549 18.5234L75.2599 19.0766ZM80.2555 28.2737L73.4795 31.2657L74.0113 32.4703L80.7873 29.4783L80.2555 28.2737ZM67.983 8.24V12.948H69.2998V8.24H67.983ZM68.6757 13.6055L73.7357 13.3415L73.6671 12.0265L68.6071 12.2905L68.6757 13.6055ZM74.3562 12.7529C74.4248 12.1012 74.3532 11.3369 74.1692 10.478L72.8816 10.7539C73.0496 11.5377 73.0954 12.1521 73.0466 12.6151L74.3562 12.7529ZM74.1742 10.5041C74.0246 9.6365 73.8565 8.91143 73.666 8.3398L72.4168 8.75619C72.5783 9.24057 72.7329 9.89417 72.8766 10.7279L74.1742 10.5041ZM73.6692 8.34974L73.4052 7.51374L72.1496 7.91025L72.4136 8.74625L73.6692 8.34974ZM72.7914 7.05377C71.3464 7.02303 69.9039 7.2077 68.4659 7.60545L68.8169 8.87455C70.1362 8.50964 71.4511 8.3423 72.7634 8.37022L72.7914 7.05377ZM86.2971 32.88L85.6387 32.8822L85.6409 33.5309L86.2896 33.5383L86.2971 32.88ZM86.2531 19.724L86.9115 19.7218L86.9111 19.6098L86.8737 19.5042L86.2531 19.724ZM80.1811 1.86L80.0143 1.2231L79.8033 1.27837L79.667 1.44872L80.1811 1.86ZM83.4371 1.288L83.4782 1.94509L83.4884 1.94445L83.4986 1.9435L83.4371 1.288ZM86.7371 1.332L87.3637 1.13005L87.2305 0.716681L86.7981 0.676454L86.7371 1.332ZM89.7291 10.616L89.1025 10.8179L89.7331 12.7748L90.3565 10.8156L89.7291 10.616ZM91.0051 6.304L90.3707 6.12779V6.12779L91.0051 6.304ZM91.9731 2.564L91.3344 2.40432L91.3326 2.41163L91.3309 2.41898L91.9731 2.564ZM92.4131 1.112L92.4683 0.455946L92.2841 0.440428L92.1187 0.523129L92.4131 1.112ZM98.8371 2.344L99.4639 2.54547L99.6531 1.95681L99.0775 1.73107L98.8371 2.344ZM93.2931 19.592L92.6663 19.3905L92.6293 19.5057L92.6356 19.6266L93.2931 19.592ZM93.9971 32.968L93.9896 33.6263L94.6915 33.6344L94.6546 32.9334L93.9971 32.968ZM86.9555 32.8778L86.9115 19.7218L85.5947 19.7262L85.6387 32.8822L86.9555 32.8778ZM86.8737 19.5042C84.7913 13.6235 83.2451 9.19737 82.2344 6.22412C81.7289 4.7367 81.3588 3.61727 81.123 2.86262C81.0046 2.48387 80.9227 2.20517 80.8744 2.0207C80.8497 1.92627 80.8376 1.87045 80.833 1.84379C80.8303 1.8281 80.8335 1.84088 80.8344 1.86946C80.8348 1.88299 80.8356 1.92086 80.8279 1.9711C80.8228 2.00432 80.8015 2.13836 80.6952 2.27128L79.667 1.44872C79.557 1.58621 79.5331 1.72767 79.5264 1.77115C79.5171 1.83165 79.5174 1.88261 79.5183 1.91207C79.5203 1.9725 79.5287 2.02848 79.5354 2.06733C79.5496 2.14975 79.5729 2.24839 79.6005 2.35379C79.6568 2.569 79.7462 2.87146 79.8662 3.25537C80.107 4.02606 80.4813 5.15797 80.9877 6.64788C82.0011 9.6293 83.5496 14.0618 85.6325 19.9438L86.8737 19.5042ZM80.3479 2.49689C81.5521 2.18149 82.5939 2.00036 83.4782 1.94509L83.396 0.630907C82.403 0.69297 81.274 0.893169 80.0143 1.2231L80.3479 2.49689ZM83.4986 1.9435C84.3854 1.86036 85.4426 1.8728 86.6761 1.98754L86.7981 0.676454C85.5089 0.556533 84.3662 0.539636 83.3756 0.632499L83.4986 1.9435ZM86.1105 1.53395L89.1025 10.8179L90.3557 10.414L87.3637 1.13005L86.1105 1.53395ZM90.3565 10.8156C90.7701 9.51577 91.1977 8.07047 91.6395 6.48021L90.3707 6.12779C89.9325 7.70553 89.5095 9.1349 89.1017 10.4164L90.3565 10.8156ZM91.6395 6.48021C92.0805 4.89238 92.4065 3.63379 92.6153 2.70901L91.3309 2.41898C91.129 3.31287 90.8097 4.54762 90.3707 6.12779L91.6395 6.48021ZM92.6118 2.72368C92.7284 2.25722 92.8206 1.91411 92.8892 1.68793C92.924 1.57286 92.9488 1.50154 92.9639 1.46376C92.9721 1.44318 92.9711 1.44886 92.9604 1.46779C92.9552 1.47704 92.9397 1.50375 92.913 1.53676C92.8936 1.56082 92.8269 1.64116 92.7075 1.70087L92.1187 0.523129C91.9919 0.5865 91.9173 0.674062 91.8891 0.708891C91.8537 0.752678 91.8288 0.793708 91.8135 0.820837C91.7827 0.875515 91.7587 0.931155 91.7413 0.974734C91.7051 1.06529 91.6675 1.17914 91.629 1.30607C91.5509 1.56388 91.4524 1.93211 91.3344 2.40432L92.6118 2.72368ZM92.3578 1.76805C95.1206 2.0007 97.1882 2.40455 98.5967 2.95693L99.0775 1.73107C97.494 1.11012 95.279 0.692631 92.4683 0.455946L92.3578 1.76805ZM98.2103 2.14253L92.6663 19.3905L93.9199 19.7935L99.4639 2.54547L98.2103 2.14253ZM92.6356 19.6266L93.3396 33.0026L94.6546 32.9334L93.9506 19.5574L92.6356 19.6266ZM94.0046 32.3097L86.3046 32.2217L86.2896 33.5383L93.9896 33.6263L94.0046 32.3097Z" fill="#0E2E57"/>
</g>
<defs>
<filter id="filter0_d_31_14" x="0.825512" y="0.891968" width="98.0114" height="32.7344" filterUnits="userSpaceOnUse" color-interpolation-filters="sRGB">
<feFlood flood-opacity="0" result="BackgroundImageFix"/>
<feColorMatrix in="SourceAlpha" type="matrix" values="0 0 0 0 0 0 0 0 0 0 0 0 0 0 0 0 0 0 127 0" result="hardAlpha"/>
<feOffset dx="-0.658375" dy="0.658375"/>
<feComposite in2="hardAlpha" operator="out"/>
<feColorMatrix type="matrix" values="0 0 0 0 0.98 0 0 0 0 0 0 0 0 0 1 0 0 0 1 0"/>
<feBlend mode="normal" in2="BackgroundImageFix" result="effect1_dropShadow_31_14"/>
<feBlend mode="normal" in="SourceGraphic" in2="effect1_dropShadow_31_14" result="shape"/>
</filter>
</defs>
</svg>
