<svg width="328" height="57" viewBox="0 0 328 57" fill="none" xmlns="http://www.w3.org/2000/svg">
<g filter="url(#filter0_d_65_61)">
<path d="M27.52 41.94C26.32 42.02 24.74 42.08 22.78 42.12C20.82 42.2 17.62 42.16 13.18 42C8.74 41.88 5.24 41.5 2.68 40.86C1.96 27.26 2.18 13.98 3.34 1.02C3.78 0.979999 4.38 0.919998 5.14 0.839997C5.94 0.759998 7.4 0.639998 9.52 0.479998C11.68 0.319998 13.7 0.219998 15.58 0.179998C17.46 0.099997 19.46 0.099997 21.58 0.179998C23.74 0.219998 25.46 0.359997 26.74 0.599997C26.86 0.999999 27 1.56 27.16 2.28C27.36 3 27.58 4.32 27.82 6.24C28.06 8.12 28.1 9.84 27.94 11.4L18.4 12.48L17.92 8.4C15.24 8.68 13.24 9.08 11.92 9.6C11.92 19.4 12.32 27.08 13.12 32.64H20.38L20.8 28.5L29.68 28.92C29.68 29.12 29.68 29.42 29.68 29.82C29.72 30.18 29.72 30.9 29.68 31.98C29.64 33.06 29.56 34.1 29.44 35.1C29.32 36.1 29.08 37.24 28.72 38.52C28.4 39.8 28 40.94 27.52 41.94ZM56.1653 20.88C56.2853 21.64 56.4253 22.62 56.5853 23.82C56.7853 25.02 57.0253 26.96 57.3053 29.64C57.6253 32.28 57.7653 34.32 57.7253 35.76C56.3653 38.04 54.9053 39.98 53.3453 41.58C46.3853 42.54 40.5453 42.66 35.8253 41.94C33.9053 40.62 32.1453 38.68 30.5453 36.12C31.0653 27.64 31.5253 21.68 31.9253 18.24C32.0853 18.04 32.3653 17.68 32.7653 17.16C33.1653 16.64 33.5853 16.06 34.0253 15.42C34.4653 14.78 34.7853 14.34 34.9853 14.1C41.6253 13.46 47.6253 13.54 52.9853 14.34C53.7053 15.34 54.4053 16.54 55.0853 17.94C55.8053 19.34 56.1653 20.32 56.1653 20.88ZM39.5453 33.54C43.3853 33.46 46.1253 33.22 47.7653 32.82C47.6853 28.74 47.4853 25.68 47.1653 23.64C44.0853 23.04 41.8053 23.04 40.3253 23.64C40.0853 25.92 39.9053 27.9 39.7853 29.58C39.6653 31.22 39.5853 32.3 39.5453 32.82V33.54ZM97.6075 15C98.3675 23.48 98.3875 32.46 97.6675 41.94L88.6075 41.64L88.9675 22.62C87.6075 22.5 85.7675 22.72 83.4475 23.28L83.9875 41.94L74.2675 41.64L74.6275 22.62C73.2675 22.5 71.4075 22.74 69.0475 23.34L69.4675 41.64L59.8675 41.52C59.3075 31.92 59.2675 22.66 59.7475 13.74L68.8675 13.56V14.22C73.8675 13.1 78.2475 13.2 82.0075 14.52C88.0475 12.88 93.2475 13.04 97.6075 15ZM109.64 12.48L110.18 41.64L100.64 41.52L100.58 12.3L109.64 12.48ZM109.52 9.36L100.88 9.06L100.46 0.599997C101.38 0.359997 102.6 0.199998 104.12 0.119999C105.68 0.0399978 107 -2.86102e-06 108.08 -2.86102e-06L109.7 0.0599964C110.06 3.54 110 6.64 109.52 9.36ZM136.832 15C137.712 23.92 137.732 32.9 136.892 41.94L127.832 41.64L128.192 22.62C126.832 22.5 124.932 22.74 122.492 23.34L122.792 41.64L112.712 41.52L112.592 13.74L122.312 12.96V14.28C127.952 12.96 132.792 13.2 136.832 15ZM165.097 13.68C165.057 14 165.057 15.02 165.097 16.74C165.137 18.46 165.117 21.04 165.037 24.48C164.957 27.88 164.837 31.34 164.677 34.86C164.557 38.34 164.317 42 163.957 45.84C163.637 49.72 163.217 52.92 162.697 55.44C161.617 55.48 160.217 55.5 158.497 55.5C156.777 55.54 154.017 55.46 150.217 55.26C146.457 55.1 143.617 54.78 141.697 54.3C141.577 51.1 141.837 48.44 142.477 46.32L155.197 46.02L155.737 35.94C154.657 36.26 153.497 36.52 152.257 36.72C151.057 36.92 149.977 37.06 149.017 37.14C148.057 37.18 147.177 37.22 146.377 37.26C145.617 37.26 145.017 37.24 144.577 37.2H143.977C142.097 36.08 140.517 34.46 139.237 32.34C139.357 27.86 139.497 24.08 139.657 21C139.857 17.88 140.017 15.88 140.137 15L140.317 13.68C140.437 13.68 140.597 13.66 140.797 13.62C141.037 13.54 141.517 13.46 142.237 13.38C142.997 13.26 143.757 13.18 144.517 13.14C145.277 13.06 146.197 13.02 147.277 13.02C148.357 12.98 149.397 13 150.397 13.08C151.397 13.16 152.477 13.32 153.637 13.56C154.837 13.8 155.937 14.14 156.937 14.58L156.997 13.38L165.097 13.68ZM156.277 26.76L156.457 23.16L147.757 22.62L148.177 27.6L156.277 26.76ZM208.563 29.88C209.763 33.2 209.903 37.32 208.983 42.24C208.223 42.32 206.223 42.32 202.983 42.24C199.743 42.16 197.663 42.1 196.743 42.06C195.823 42.06 193.643 41.98 190.203 41.82C186.803 41.66 184.523 41.56 183.363 41.52L184.263 32.52L201.243 35.52L183.363 28.08C183.283 26.64 183.303 25.16 183.423 23.64C183.583 22.12 183.803 20.8 184.083 19.68C184.403 18.52 184.703 17.48 184.983 16.56C185.303 15.64 185.583 14.92 185.823 14.4L186.123 13.68C189.683 13.36 192.983 13.24 196.023 13.32C199.103 13.4 201.683 13.58 203.763 13.86L206.823 14.28L205.443 22.44L194.043 20.58L193.383 23.28L208.563 29.88ZM236.107 20.88C236.227 21.64 236.367 22.62 236.527 23.82C236.727 25.02 236.967 26.96 237.247 29.64C237.567 32.28 237.707 34.32 237.667 35.76C236.307 38.04 234.847 39.98 233.287 41.58C226.327 42.54 220.487 42.66 215.767 41.94C213.847 40.62 212.087 38.68 210.487 36.12C211.007 27.64 211.467 21.68 211.867 18.24C212.027 18.04 212.307 17.68 212.707 17.16C213.107 16.64 213.527 16.06 213.967 15.42C214.407 14.78 214.727 14.34 214.927 14.1C221.567 13.46 227.567 13.54 232.927 14.34C233.647 15.34 234.347 16.54 235.027 17.94C235.747 19.34 236.107 20.32 236.107 20.88ZM219.487 33.54C223.327 33.46 226.067 33.22 227.707 32.82C227.627 28.74 227.427 25.68 227.107 23.64C224.027 23.04 221.747 23.04 220.267 23.64C220.027 25.92 219.847 27.9 219.727 29.58C219.607 31.22 219.527 32.3 219.487 32.82V33.54ZM264.349 20.88C264.469 21.64 264.609 22.62 264.769 23.82C264.969 25.02 265.209 26.96 265.489 29.64C265.809 32.28 265.949 34.32 265.909 35.76C264.549 38.04 263.089 39.98 261.529 41.58C254.569 42.54 248.729 42.66 244.009 41.94C242.089 40.62 240.329 38.68 238.729 36.12C239.249 27.64 239.709 21.68 240.109 18.24C240.269 18.04 240.549 17.68 240.949 17.16C241.349 16.64 241.769 16.06 242.209 15.42C242.649 14.78 242.969 14.34 243.169 14.1C249.809 13.46 255.809 13.54 261.169 14.34C261.889 15.34 262.589 16.54 263.269 17.94C263.989 19.34 264.349 20.32 264.349 20.88ZM247.729 33.54C251.569 33.46 254.309 33.22 255.949 32.82C255.869 28.74 255.669 25.68 255.349 23.64C252.269 23.04 249.989 23.04 248.509 23.64C248.269 25.92 248.089 27.9 247.969 29.58C247.849 31.22 247.769 32.3 247.729 32.82V33.54ZM291.871 15C292.751 23.92 292.771 32.9 291.931 41.94L282.871 41.64L283.231 22.62C281.871 22.5 279.971 22.74 277.531 23.34L277.831 41.64L267.751 41.52L267.631 13.74L277.351 12.96V14.28C282.991 12.96 287.831 13.2 291.871 15ZM303.696 33L304.116 41.4C303.196 41.64 301.976 41.82 300.456 41.94C298.936 42.02 297.636 42.04 296.556 42H294.936C294.536 38.48 294.596 35.38 295.116 32.7L303.696 33ZM315.18 33L315.6 41.4C314.68 41.64 313.46 41.82 311.94 41.94C310.42 42.02 309.12 42.04 308.04 42H306.42C306.02 38.48 306.08 35.38 306.6 32.7L315.18 33ZM326.665 33L327.085 41.4C326.165 41.64 324.945 41.82 323.425 41.94C321.905 42.02 320.605 42.04 319.525 42H317.905C317.505 38.48 317.565 35.38 318.085 32.7L326.665 33Z" fill="#9265A9"/>
<path d="M27.52 41.94L27.5638 42.5969L27.9472 42.5714L28.1135 42.2249L27.52 41.94ZM22.78 42.12L22.7666 41.4616L22.7532 41.4622L22.78 42.12ZM13.18 42L13.2037 41.342L13.1978 41.3419L13.18 42ZM2.68 40.86L2.02255 40.8948L2.04827 41.3807L2.52032 41.4987L2.68 40.86ZM3.34 1.02L3.28039 0.364327L2.73323 0.414069L2.68425 0.961304L3.34 1.02ZM5.14 0.839997L5.07449 0.184881L5.07108 0.18524L5.14 0.839997ZM9.52 0.479998L9.47136 -0.176579L9.47045 -0.17651L9.52 0.479998ZM15.58 0.179998L15.594 0.838373L15.608 0.837778L15.58 0.179998ZM21.58 0.179998L21.5552 0.838026L21.5678 0.83826L21.58 0.179998ZM26.74 0.599997L27.3706 0.410815L27.2554 0.0267863L26.8613 -0.0471017L26.74 0.599997ZM27.16 2.28L26.5173 2.42282L26.521 2.43962L26.5256 2.45621L27.16 2.28ZM27.82 6.24L27.1667 6.32166L27.1669 6.32337L27.82 6.24ZM27.94 11.4L28.0141 12.0542L28.5408 11.9946L28.5949 11.4672L27.94 11.4ZM18.4 12.48L17.7461 12.5569L17.8227 13.2079L18.4741 13.1342L18.4 12.48ZM17.92 8.4L18.5739 8.32307L18.4979 7.67766L17.8516 7.74519L17.92 8.4ZM11.92 9.6L11.6787 8.98744L11.2616 9.15174V9.6H11.92ZM13.12 32.64L12.4683 32.7338L12.5496 33.2984H13.12V32.64ZM20.38 32.64V33.2984H20.975L21.035 32.7065L20.38 32.64ZM20.8 28.5L20.8311 27.8424L20.208 27.8129L20.145 28.4335L20.8 28.5ZM29.68 28.92H30.3384V28.292L29.7111 28.2624L29.68 28.92ZM29.68 29.82H29.0216V29.8565L29.0257 29.8927L29.68 29.82ZM29.68 31.98L29.0221 31.9556L29.68 31.98ZM29.44 35.1L30.0937 35.1784V35.1784L29.44 35.1ZM28.72 38.52L28.0862 38.3417L28.0836 38.351L28.0813 38.3603L28.72 38.52ZM27.4762 41.2831C26.2906 41.3621 24.7219 41.4219 22.7666 41.4618L22.7934 42.7782C24.7581 42.7381 26.3494 42.6779 27.5638 42.5969L27.4762 41.2831ZM22.7532 41.4622C20.8205 41.5411 17.6425 41.502 13.2037 41.3421L13.1563 42.6579C17.5975 42.818 20.8195 42.8589 22.8069 42.7778L22.7532 41.4622ZM13.1978 41.3419C8.77794 41.2224 5.33241 40.8445 2.83968 40.2213L2.52032 41.4987C5.14759 42.1555 8.70206 42.5376 13.1622 42.6581L13.1978 41.3419ZM3.33745 40.8252C2.61903 27.2549 2.83866 14.0062 3.99575 1.07869L2.68425 0.961304C1.52134 13.9538 1.30097 27.2651 2.02255 40.8948L3.33745 40.8252ZM3.39961 1.67567C3.84415 1.63526 4.4477 1.57488 5.20892 1.49475L5.07108 0.18524C4.3123 0.265113 3.71585 0.324741 3.28039 0.364327L3.39961 1.67567ZM5.20551 1.4951C5.99648 1.41601 7.44898 1.29655 9.56955 1.13651L9.47045 -0.17651C7.35102 -0.016552 5.88352 0.103988 5.07449 0.18489L5.20551 1.4951ZM9.56864 1.13657C11.7188 0.977303 13.7271 0.877944 15.594 0.838224L15.566 -0.478227C13.6729 -0.437948 11.6412 -0.337307 9.47136 -0.176578L9.56864 1.13657ZM15.608 0.837778C17.4683 0.758612 19.4506 0.758486 21.5552 0.837905L21.6048 -0.477908C19.4694 -0.558492 17.4517 -0.558618 15.552 -0.477781L15.608 0.837778ZM21.5678 0.83826C23.7117 0.877961 25.3904 1.01679 26.6187 1.2471L26.8613 -0.0471017C25.5296 -0.296798 23.7683 -0.437965 21.5922 -0.478264L21.5678 0.83826ZM26.1094 0.789178C26.2226 1.16657 26.3586 1.70857 26.5173 2.42282L27.8027 2.13717C27.6414 1.41143 27.4974 0.833428 27.3706 0.410815L26.1094 0.789178ZM26.5256 2.45621C26.7111 3.12374 26.9264 4.39893 27.1667 6.32166L28.4733 6.15834C28.2336 4.24106 28.0089 2.87626 27.7944 2.10379L26.5256 2.45621ZM27.1669 6.32337C27.4018 8.1634 27.439 9.83202 27.2851 11.3328L28.5949 11.4672C28.761 9.84798 28.7182 8.0766 28.4731 6.15663L27.1669 6.32337ZM27.8659 10.7458L18.3259 11.8258L18.4741 13.1342L28.0141 12.0542L27.8659 10.7458ZM19.0539 12.4031L18.5739 8.32307L17.2661 8.47692L17.7461 12.5569L19.0539 12.4031ZM17.8516 7.74519C15.1553 8.02689 13.0836 8.434 11.6787 8.98744L12.1613 10.2126C13.3964 9.726 15.3247 9.33311 17.9884 9.05481L17.8516 7.74519ZM11.2616 9.6C11.2616 19.412 11.6618 27.1281 12.4683 32.7338L13.7717 32.5462C12.9782 27.0319 12.5784 19.388 12.5784 9.6H11.2616ZM13.12 33.2984H20.38V31.9816H13.12V33.2984ZM21.035 32.7065L21.455 28.5665L20.145 28.4335L19.725 32.5735L21.035 32.7065ZM20.7689 29.1576L29.6489 29.5776L29.7111 28.2624L20.8311 27.8424L20.7689 29.1576ZM29.0216 28.92C29.0216 28.9204 29.0216 28.9208 29.0216 28.9212C29.0216 28.9216 29.0216 28.922 29.0216 28.9223C29.0216 28.9227 29.0216 28.9231 29.0216 28.9235C29.0216 28.9239 29.0216 28.9243 29.0216 28.9247C29.0216 28.9251 29.0216 28.9255 29.0216 28.9259C29.0216 28.9263 29.0216 28.9267 29.0216 28.9271C29.0216 28.9275 29.0216 28.9279 29.0216 28.9283C29.0216 28.9287 29.0216 28.9291 29.0216 28.9294C29.0216 28.9298 29.0216 28.9302 29.0216 28.9306C29.0216 28.931 29.0216 28.9314 29.0216 28.9318C29.0216 28.9322 29.0216 28.9326 29.0216 28.933C29.0216 28.9334 29.0216 28.9338 29.0216 28.9342C29.0216 28.9346 29.0216 28.935 29.0216 28.9354C29.0216 28.9358 29.0216 28.9362 29.0216 28.9366C29.0216 28.937 29.0216 28.9374 29.0216 28.9378C29.0216 28.9382 29.0216 28.9386 29.0216 28.939C29.0216 28.9394 29.0216 28.9398 29.0216 28.9403C29.0216 28.9407 29.0216 28.9411 29.0216 28.9415C29.0216 28.9419 29.0216 28.9423 29.0216 28.9427C29.0216 28.9431 29.0216 28.9435 29.0216 28.9439C29.0216 28.9443 29.0216 28.9447 29.0216 28.9451C29.0216 28.9455 29.0216 28.9459 29.0216 28.9463C29.0216 28.9467 29.0216 28.9471 29.0216 28.9476C29.0216 28.948 29.0216 28.9484 29.0216 28.9488C29.0216 28.9492 29.0216 28.9496 29.0216 28.95C29.0216 28.9504 29.0216 28.9508 29.0216 28.9512C29.0216 28.9517 29.0216 28.9521 29.0216 28.9525C29.0216 28.9529 29.0216 28.9533 29.0216 28.9537C29.0216 28.9541 29.0216 28.9545 29.0216 28.9549C29.0216 28.9554 29.0216 28.9558 29.0216 28.9562C29.0216 28.9566 29.0216 28.957 29.0216 28.9574C29.0216 28.9578 29.0216 28.9583 29.0216 28.9587C29.0216 28.9591 29.0216 28.9595 29.0216 28.9599C29.0216 28.9603 29.0216 28.9607 29.0216 28.9612C29.0216 28.9616 29.0216 28.962 29.0216 28.9624C29.0216 28.9628 29.0216 28.9633 29.0216 28.9637C29.0216 28.9641 29.0216 28.9645 29.0216 28.9649C29.0216 28.9653 29.0216 28.9658 29.0216 28.9662C29.0216 28.9666 29.0216 28.967 29.0216 28.9674C29.0216 28.9679 29.0216 28.9683 29.0216 28.9687C29.0216 28.9691 29.0216 28.9695 29.0216 28.97C29.0216 28.9704 29.0216 28.9708 29.0216 28.9712C29.0216 28.9717 29.0216 28.9721 29.0216 28.9725C29.0216 28.9729 29.0216 28.9734 29.0216 28.9738C29.0216 28.9742 29.0216 28.9746 29.0216 28.9751C29.0216 28.9755 29.0216 28.9759 29.0216 28.9763C29.0216 28.9768 29.0216 28.9772 29.0216 28.9776C29.0216 28.978 29.0216 28.9785 29.0216 28.9789C29.0216 28.9793 29.0216 28.9797 29.0216 28.9802C29.0216 28.9806 29.0216 28.981 29.0216 28.9815C29.0216 28.9819 29.0216 28.9823 29.0216 28.9827C29.0216 28.9832 29.0216 28.9836 29.0216 28.984C29.0216 28.9845 29.0216 28.9849 29.0216 28.9853C29.0216 28.9858 29.0216 28.9862 29.0216 28.9866C29.0216 28.987 29.0216 28.9875 29.0216 28.9879C29.0216 28.9883 29.0216 28.9888 29.0216 28.9892C29.0216 28.9896 29.0216 28.9901 29.0216 28.9905C29.0216 28.9909 29.0216 28.9914 29.0216 28.9918C29.0216 28.9923 29.0216 28.9927 29.0216 28.9931C29.0216 28.9936 29.0216 28.994 29.0216 28.9944C29.0216 28.9949 29.0216 28.9953 29.0216 28.9957C29.0216 28.9962 29.0216 28.9966 29.0216 28.9971C29.0216 28.9975 29.0216 28.9979 29.0216 28.9984C29.0216 28.9988 29.0216 28.9992 29.0216 28.9997C29.0216 29.0001 29.0216 29.0006 29.0216 29.001C29.0216 29.0014 29.0216 29.0019 29.0216 29.0023C29.0216 29.0028 29.0216 29.0032 29.0216 29.0037C29.0216 29.0041 29.0216 29.0045 29.0216 29.005C29.0216 29.0054 29.0216 29.0059 29.0216 29.0063C29.0216 29.0068 29.0216 29.0072 29.0216 29.0076C29.0216 29.0081 29.0216 29.0085 29.0216 29.009C29.0216 29.0094 29.0216 29.0099 29.0216 29.0103C29.0216 29.0108 29.0216 29.0112 29.0216 29.0116C29.0216 29.0121 29.0216 29.0125 29.0216 29.013C29.0216 29.0134 29.0216 29.0139 29.0216 29.0143C29.0216 29.0148 29.0216 29.0152 29.0216 29.0157C29.0216 29.0161 29.0216 29.0166 29.0216 29.017C29.0216 29.0175 29.0216 29.0179 29.0216 29.0184C29.0216 29.0188 29.0216 29.0193 29.0216 29.0197C29.0216 29.0202 29.0216 29.0206 29.0216 29.0211C29.0216 29.0215 29.0216 29.022 29.0216 29.0224C29.0216 29.0229 29.0216 29.0233 29.0216 29.0238C29.0216 29.0242 29.0216 29.0247 29.0216 29.0252C29.0216 29.0256 29.0216 29.0261 29.0216 29.0265C29.0216 29.027 29.0216 29.0274 29.0216 29.0279C29.0216 29.0283 29.0216 29.0288 29.0216 29.0292C29.0216 29.0297 29.0216 29.0302 29.0216 29.0306C29.0216 29.0311 29.0216 29.0315 29.0216 29.032C29.0216 29.0324 29.0216 29.0329 29.0216 29.0334C29.0216 29.0338 29.0216 29.0343 29.0216 29.0347C29.0216 29.0352 29.0216 29.0357 29.0216 29.0361C29.0216 29.0366 29.0216 29.037 29.0216 29.0375C29.0216 29.038 29.0216 29.0384 29.0216 29.0389C29.0216 29.0393 29.0216 29.0398 29.0216 29.0403C29.0216 29.0407 29.0216 29.0412 29.0216 29.0417C29.0216 29.0421 29.0216 29.0426 29.0216 29.043C29.0216 29.0435 29.0216 29.044 29.0216 29.0444C29.0216 29.0449 29.0216 29.0454 29.0216 29.0458C29.0216 29.0463 29.0216 29.0468 29.0216 29.0472C29.0216 29.0477 29.0216 29.0482 29.0216 29.0486C29.0216 29.0491 29.0216 29.0496 29.0216 29.05C29.0216 29.0505 29.0216 29.051 29.0216 29.0514C29.0216 29.0519 29.0216 29.0524 29.0216 29.0528C29.0216 29.0533 29.0216 29.0538 29.0216 29.0543C29.0216 29.0547 29.0216 29.0552 29.0216 29.0557C29.0216 29.0561 29.0216 29.0566 29.0216 29.0571C29.0216 29.0575 29.0216 29.058 29.0216 29.0585C29.0216 29.059 29.0216 29.0594 29.0216 29.0599C29.0216 29.0604 29.0216 29.0609 29.0216 29.0613C29.0216 29.0618 29.0216 29.0623 29.0216 29.0628C29.0216 29.0632 29.0216 29.0637 29.0216 29.0642C29.0216 29.0647 29.0216 29.0651 29.0216 29.0656C29.0216 29.0661 29.0216 29.0666 29.0216 29.067C29.0216 29.0675 29.0216 29.068 29.0216 29.0685C29.0216 29.0689 29.0216 29.0694 29.0216 29.0699C29.0216 29.0704 29.0216 29.0709 29.0216 29.0713C29.0216 29.0718 29.0216 29.0723 29.0216 29.0728C29.0216 29.0733 29.0216 29.0737 29.0216 29.0742C29.0216 29.0747 29.0216 29.0752 29.0216 29.0757C29.0216 29.0761 29.0216 29.0766 29.0216 29.0771C29.0216 29.0776 29.0216 29.0781 29.0216 29.0786C29.0216 29.079 29.0216 29.0795 29.0216 29.08C29.0216 29.0805 29.0216 29.081 29.0216 29.0815C29.0216 29.0819 29.0216 29.0824 29.0216 29.0829C29.0216 29.0834 29.0216 29.0839 29.0216 29.0844C29.0216 29.0849 29.0216 29.0853 29.0216 29.0858C29.0216 29.0863 29.0216 29.0868 29.0216 29.0873C29.0216 29.0878 29.0216 29.0883 29.0216 29.0887C29.0216 29.0892 29.0216 29.0897 29.0216 29.0902C29.0216 29.0907 29.0216 29.0912 29.0216 29.0917C29.0216 29.0922 29.0216 29.0927 29.0216 29.0932C29.0216 29.0936 29.0216 29.0941 29.0216 29.0946C29.0216 29.0951 29.0216 29.0956 29.0216 29.0961C29.0216 29.0966 29.0216 29.0971 29.0216 29.0976C29.0216 29.0981 29.0216 29.0986 29.0216 29.0991C29.0216 29.0996 29.0216 29.1 29.0216 29.1005C29.0216 29.101 29.0216 29.1015 29.0216 29.102C29.0216 29.1025 29.0216 29.103 29.0216 29.1035C29.0216 29.104 29.0216 29.1045 29.0216 29.105C29.0216 29.1055 29.0216 29.106 29.0216 29.1065C29.0216 29.107 29.0216 29.1075 29.0216 29.108C29.0216 29.1085 29.0216 29.109 29.0216 29.1095C29.0216 29.11 29.0216 29.1105 29.0216 29.111C29.0216 29.1115 29.0216 29.112 29.0216 29.1125C29.0216 29.113 29.0216 29.1135 29.0216 29.114C29.0216 29.1145 29.0216 29.115 29.0216 29.1155C29.0216 29.116 29.0216 29.1165 29.0216 29.117C29.0216 29.1175 29.0216 29.118 29.0216 29.1185C29.0216 29.119 29.0216 29.1195 29.0216 29.12C29.0216 29.1205 29.0216 29.121 29.0216 29.1215C29.0216 29.122 29.0216 29.1225 29.0216 29.123C29.0216 29.1236 29.0216 29.1241 29.0216 29.1246C29.0216 29.1251 29.0216 29.1256 29.0216 29.1261C29.0216 29.1266 29.0216 29.1271 29.0216 29.1276C29.0216 29.1281 29.0216 29.1286 29.0216 29.1291C29.0216 29.1296 29.0216 29.1302 29.0216 29.1307C29.0216 29.1312 29.0216 29.1317 29.0216 29.1322C29.0216 29.1327 29.0216 29.1332 29.0216 29.1337C29.0216 29.1342 29.0216 29.1347 29.0216 29.1353C29.0216 29.1358 29.0216 29.1363 29.0216 29.1368C29.0216 29.1373 29.0216 29.1378 29.0216 29.1383C29.0216 29.1388 29.0216 29.1394 29.0216 29.1399C29.0216 29.1404 29.0216 29.1409 29.0216 29.1414C29.0216 29.1419 29.0216 29.1425 29.0216 29.143C29.0216 29.1435 29.0216 29.144 29.0216 29.1445C29.0216 29.145 29.0216 29.1455 29.0216 29.1461C29.0216 29.1466 29.0216 29.1471 29.0216 29.1476C29.0216 29.1481 29.0216 29.1487 29.0216 29.1492C29.0216 29.1497 29.0216 29.1502 29.0216 29.1507C29.0216 29.1513 29.0216 29.1518 29.0216 29.1523C29.0216 29.1528 29.0216 29.1533 29.0216 29.1539C29.0216 29.1544 29.0216 29.1549 29.0216 29.1554C29.0216 29.1559 29.0216 29.1565 29.0216 29.157C29.0216 29.1575 29.0216 29.158 29.0216 29.1586C29.0216 29.1591 29.0216 29.1596 29.0216 29.1601C29.0216 29.1606 29.0216 29.1612 29.0216 29.1617C29.0216 29.1622 29.0216 29.1628 29.0216 29.1633C29.0216 29.1638 29.0216 29.1643 29.0216 29.1649C29.0216 29.1654 29.0216 29.1659 29.0216 29.1664C29.0216 29.167 29.0216 29.1675 29.0216 29.168C29.0216 29.1685 29.0216 29.1691 29.0216 29.1696C29.0216 29.1701 29.0216 29.1707 29.0216 29.1712C29.0216 29.1717 29.0216 29.1722 29.0216 29.1728C29.0216 29.1733 29.0216 29.1738 29.0216 29.1744C29.0216 29.1749 29.0216 29.1754 29.0216 29.176C29.0216 29.1765 29.0216 29.177 29.0216 29.1776C29.0216 29.1781 29.0216 29.1786 29.0216 29.1792C29.0216 29.1797 29.0216 29.1802 29.0216 29.1808C29.0216 29.1813 29.0216 29.1818 29.0216 29.1824C29.0216 29.1829 29.0216 29.1834 29.0216 29.184C29.0216 29.1845 29.0216 29.185 29.0216 29.1856C29.0216 29.1861 29.0216 29.1866 29.0216 29.1872C29.0216 29.1877 29.0216 29.1883 29.0216 29.1888C29.0216 29.1893 29.0216 29.1899 29.0216 29.1904C29.0216 29.191 29.0216 29.1915 29.0216 29.192C29.0216 29.1926 29.0216 29.1931 29.0216 29.1936C29.0216 29.1942 29.0216 29.1947 29.0216 29.1953C29.0216 29.1958 29.0216 29.1964 29.0216 29.1969C29.0216 29.1974 29.0216 29.198 29.0216 29.1985C29.0216 29.1991 29.0216 29.1996 29.0216 29.2001C29.0216 29.2007 29.0216 29.2012 29.0216 29.2018C29.0216 29.2023 29.0216 29.2029 29.0216 29.2034C29.0216 29.204 29.0216 29.2045 29.0216 29.2051C29.0216 29.2056 29.0216 29.2061 29.0216 29.2067C29.0216 29.2072 29.0216 29.2078 29.0216 29.2083C29.0216 29.2089 29.0216 29.2094 29.0216 29.21C29.0216 29.2105 29.0216 29.2111 29.0216 29.2116C29.0216 29.2122 29.0216 29.2127 29.0216 29.2133C29.0216 29.2138 29.0216 29.2144 29.0216 29.2149C29.0216 29.2155 29.0216 29.216 29.0216 29.2166C29.0216 29.2171 29.0216 29.2177 29.0216 29.2182C29.0216 29.2188 29.0216 29.2193 29.0216 29.2199C29.0216 29.2204 29.0216 29.221 29.0216 29.2215C29.0216 29.2221 29.0216 29.2226 29.0216 29.2232C29.0216 29.2237 29.0216 29.2243 29.0216 29.2249C29.0216 29.2254 29.0216 29.226 29.0216 29.2265C29.0216 29.2271 29.0216 29.2276 29.0216 29.2282C29.0216 29.2287 29.0216 29.2293 29.0216 29.2299C29.0216 29.2304 29.0216 29.231 29.0216 29.2315C29.0216 29.2321 29.0216 29.2326 29.0216 29.2332C29.0216 29.2338 29.0216 29.2343 29.0216 29.2349C29.0216 29.2354 29.0216 29.236 29.0216 29.2366C29.0216 29.2371 29.0216 29.2377 29.0216 29.2382C29.0216 29.2388 29.0216 29.2394 29.0216 29.2399C29.0216 29.2405 29.0216 29.241 29.0216 29.2416C29.0216 29.2422 29.0216 29.2427 29.0216 29.2433C29.0216 29.2439 29.0216 29.2444 29.0216 29.245C29.0216 29.2455 29.0216 29.2461 29.0216 29.2467C29.0216 29.2472 29.0216 29.2478 29.0216 29.2484C29.0216 29.2489 29.0216 29.2495 29.0216 29.2501C29.0216 29.2506 29.0216 29.2512 29.0216 29.2518C29.0216 29.2523 29.0216 29.2529 29.0216 29.2535C29.0216 29.254 29.0216 29.2546 29.0216 29.2552C29.0216 29.2557 29.0216 29.2563 29.0216 29.2569C29.0216 29.2575 29.0216 29.258 29.0216 29.2586C29.0216 29.2592 29.0216 29.2597 29.0216 29.2603C29.0216 29.2609 29.0216 29.2614 29.0216 29.262C29.0216 29.2626 29.0216 29.2632 29.0216 29.2637C29.0216 29.2643 29.0216 29.2649 29.0216 29.2654C29.0216 29.266 29.0216 29.2666 29.0216 29.2672C29.0216 29.2677 29.0216 29.2683 29.0216 29.2689C29.0216 29.2695 29.0216 29.27 29.0216 29.2706C29.0216 29.2712 29.0216 29.2718 29.0216 29.2723C29.0216 29.2729 29.0216 29.2735 29.0216 29.2741C29.0216 29.2746 29.0216 29.2752 29.0216 29.2758C29.0216 29.2764 29.0216 29.277 29.0216 29.2775C29.0216 29.2781 29.0216 29.2787 29.0216 29.2793C29.0216 29.2799 29.0216 29.2804 29.0216 29.281C29.0216 29.2816 29.0216 29.2822 29.0216 29.2827C29.0216 29.2833 29.0216 29.2839 29.0216 29.2845C29.0216 29.2851 29.0216 29.2857 29.0216 29.2862C29.0216 29.2868 29.0216 29.2874 29.0216 29.288C29.0216 29.2886 29.0216 29.2892 29.0216 29.2897C29.0216 29.2903 29.0216 29.2909 29.0216 29.2915C29.0216 29.2921 29.0216 29.2927 29.0216 29.2932C29.0216 29.2938 29.0216 29.2944 29.0216 29.295C29.0216 29.2956 29.0216 29.2962 29.0216 29.2968C29.0216 29.2973 29.0216 29.2979 29.0216 29.2985C29.0216 29.2991 29.0216 29.2997 29.0216 29.3003C29.0216 29.3009 29.0216 29.3015 29.0216 29.302C29.0216 29.3026 29.0216 29.3032 29.0216 29.3038C29.0216 29.3044 29.0216 29.305 29.0216 29.3056C29.0216 29.3062 29.0216 29.3068 29.0216 29.3074C29.0216 29.308 29.0216 29.3085 29.0216 29.3091C29.0216 29.3097 29.0216 29.3103 29.0216 29.3109C29.0216 29.3115 29.0216 29.3121 29.0216 29.3127C29.0216 29.3133 29.0216 29.3139 29.0216 29.3145C29.0216 29.3151 29.0216 29.3157 29.0216 29.3163C29.0216 29.3169 29.0216 29.3174 29.0216 29.318C29.0216 29.3186 29.0216 29.3192 29.0216 29.3198C29.0216 29.3204 29.0216 29.321 29.0216 29.3216C29.0216 29.3222 29.0216 29.3228 29.0216 29.3234C29.0216 29.324 29.0216 29.3246 29.0216 29.3252C29.0216 29.3258 29.0216 29.3264 29.0216 29.327C29.0216 29.3276 29.0216 29.3282 29.0216 29.3288C29.0216 29.3294 29.0216 29.33 29.0216 29.3306C29.0216 29.3312 29.0216 29.3318 29.0216 29.3324C29.0216 29.333 29.0216 29.3336 29.0216 29.3342C29.0216 29.3348 29.0216 29.3354 29.0216 29.336C29.0216 29.3366 29.0216 29.3372 29.0216 29.3378C29.0216 29.3385 29.0216 29.3391 29.0216 29.3397C29.0216 29.3403 29.0216 29.3409 29.0216 29.3415C29.0216 29.3421 29.0216 29.3427 29.0216 29.3433C29.0216 29.3439 29.0216 29.3445 29.0216 29.3451C29.0216 29.3457 29.0216 29.3463 29.0216 29.3469C29.0216 29.3475 29.0216 29.3482 29.0216 29.3488C29.0216 29.3494 29.0216 29.35 29.0216 29.3506C29.0216 29.3512 29.0216 29.3518 29.0216 29.3524C29.0216 29.353 29.0216 29.3536 29.0216 29.3543C29.0216 29.3549 29.0216 29.3555 29.0216 29.3561C29.0216 29.3567 29.0216 29.3573 29.0216 29.3579C29.0216 29.3585 29.0216 29.3591 29.0216 29.3598C29.0216 29.3604 29.0216 29.361 29.0216 29.3616C29.0216 29.3622 29.0216 29.3628 29.0216 29.3634C29.0216 29.3641 29.0216 29.3647 29.0216 29.3653C29.0216 29.3659 29.0216 29.3665 29.0216 29.3671C29.0216 29.3678 29.0216 29.3684 29.0216 29.369C29.0216 29.3696 29.0216 29.3702 29.0216 29.3708C29.0216 29.3715 29.0216 29.3721 29.0216 29.3727C29.0216 29.3733 29.0216 29.3739 29.0216 29.3746C29.0216 29.3752 29.0216 29.3758 29.0216 29.3764C29.0216 29.377 29.0216 29.3777 29.0216 29.3783C29.0216 29.3789 29.0216 29.3795 29.0216 29.3801C29.0216 29.3808 29.0216 29.3814 29.0216 29.382C29.0216 29.3826 29.0216 29.3833 29.0216 29.3839C29.0216 29.3845 29.0216 29.3851 29.0216 29.3857C29.0216 29.3864 29.0216 29.387 29.0216 29.3876C29.0216 29.3882 29.0216 29.3889 29.0216 29.3895C29.0216 29.3901 29.0216 29.3908 29.0216 29.3914C29.0216 29.392 29.0216 29.3926 29.0216 29.3933C29.0216 29.3939 29.0216 29.3945 29.0216 29.3951C29.0216 29.3958 29.0216 29.3964 29.0216 29.397C29.0216 29.3977 29.0216 29.3983 29.0216 29.3989C29.0216 29.3995 29.0216 29.4002 29.0216 29.4008C29.0216 29.4014 29.0216 29.4021 29.0216 29.4027C29.0216 29.4033 29.0216 29.404 29.0216 29.4046C29.0216 29.4052 29.0216 29.4059 29.0216 29.4065C29.0216 29.4071 29.0216 29.4077 29.0216 29.4084C29.0216 29.409 29.0216 29.4096 29.0216 29.4103C29.0216 29.4109 29.0216 29.4116 29.0216 29.4122C29.0216 29.4128 29.0216 29.4135 29.0216 29.4141C29.0216 29.4147 29.0216 29.4154 29.0216 29.416C29.0216 29.4166 29.0216 29.4173 29.0216 29.4179C29.0216 29.4185 29.0216 29.4192 29.0216 29.4198C29.0216 29.4205 29.0216 29.4211 29.0216 29.4217C29.0216 29.4224 29.0216 29.423 29.0216 29.4237C29.0216 29.4243 29.0216 29.4249 29.0216 29.4256C29.0216 29.4262 29.0216 29.4269 29.0216 29.4275C29.0216 29.4281 29.0216 29.4288 29.0216 29.4294C29.0216 29.4301 29.0216 29.4307 29.0216 29.4313C29.0216 29.432 29.0216 29.4326 29.0216 29.4333C29.0216 29.4339 29.0216 29.4346 29.0216 29.4352C29.0216 29.4358 29.0216 29.4365 29.0216 29.4371C29.0216 29.4378 29.0216 29.4384 29.0216 29.4391C29.0216 29.4397 29.0216 29.4404 29.0216 29.441C29.0216 29.4417 29.0216 29.4423 29.0216 29.4429C29.0216 29.4436 29.0216 29.4442 29.0216 29.4449C29.0216 29.4455 29.0216 29.4462 29.0216 29.4468C29.0216 29.4475 29.0216 29.4481 29.0216 29.4488C29.0216 29.4494 29.0216 29.4501 29.0216 29.4507C29.0216 29.4514 29.0216 29.452 29.0216 29.4527C29.0216 29.4533 29.0216 29.454 29.0216 29.4546C29.0216 29.4553 29.0216 29.4559 29.0216 29.4566C29.0216 29.4572 29.0216 29.4579 29.0216 29.4585C29.0216 29.4592 29.0216 29.4599 29.0216 29.4605C29.0216 29.4612 29.0216 29.4618 29.0216 29.4625C29.0216 29.4631 29.0216 29.4638 29.0216 29.4644C29.0216 29.4651 29.0216 29.4657 29.0216 29.4664C29.0216 29.4671 29.0216 29.4677 29.0216 29.4684C29.0216 29.469 29.0216 29.4697 29.0216 29.4703C29.0216 29.471 29.0216 29.4717 29.0216 29.4723C29.0216 29.473 29.0216 29.4736 29.0216 29.4743C29.0216 29.475 29.0216 29.4756 29.0216 29.4763C29.0216 29.4769 29.0216 29.4776 29.0216 29.4783C29.0216 29.4789 29.0216 29.4796 29.0216 29.4802C29.0216 29.4809 29.0216 29.4816 29.0216 29.4822C29.0216 29.4829 29.0216 29.4836 29.0216 29.4842C29.0216 29.4849 29.0216 29.4855 29.0216 29.4862C29.0216 29.4869 29.0216 29.4875 29.0216 29.4882C29.0216 29.4889 29.0216 29.4895 29.0216 29.4902C29.0216 29.4909 29.0216 29.4915 29.0216 29.4922C29.0216 29.4929 29.0216 29.4935 29.0216 29.4942C29.0216 29.4949 29.0216 29.4955 29.0216 29.4962C29.0216 29.4969 29.0216 29.4975 29.0216 29.4982C29.0216 29.4989 29.0216 29.4995 29.0216 29.5002C29.0216 29.5009 29.0216 29.5015 29.0216 29.5022C29.0216 29.5029 29.0216 29.5035 29.0216 29.5042C29.0216 29.5049 29.0216 29.5056 29.0216 29.5062C29.0216 29.5069 29.0216 29.5076 29.0216 29.5082C29.0216 29.5089 29.0216 29.5096 29.0216 29.5103C29.0216 29.5109 29.0216 29.5116 29.0216 29.5123C29.0216 29.513 29.0216 29.5136 29.0216 29.5143C29.0216 29.515 29.0216 29.5157 29.0216 29.5163C29.0216 29.517 29.0216 29.5177 29.0216 29.5184C29.0216 29.519 29.0216 29.5197 29.0216 29.5204C29.0216 29.5211 29.0216 29.5217 29.0216 29.5224C29.0216 29.5231 29.0216 29.5238 29.0216 29.5244C29.0216 29.5251 29.0216 29.5258 29.0216 29.5265C29.0216 29.5272 29.0216 29.5278 29.0216 29.5285C29.0216 29.5292 29.0216 29.5299 29.0216 29.5306C29.0216 29.5312 29.0216 29.5319 29.0216 29.5326C29.0216 29.5333 29.0216 29.534 29.0216 29.5347C29.0216 29.5353 29.0216 29.536 29.0216 29.5367C29.0216 29.5374 29.0216 29.5381 29.0216 29.5387C29.0216 29.5394 29.0216 29.5401 29.0216 29.5408C29.0216 29.5415 29.0216 29.5422 29.0216 29.5429C29.0216 29.5435 29.0216 29.5442 29.0216 29.5449C29.0216 29.5456 29.0216 29.5463 29.0216 29.547C29.0216 29.5477 29.0216 29.5483 29.0216 29.549C29.0216 29.5497 29.0216 29.5504 29.0216 29.5511C29.0216 29.5518 29.0216 29.5525 29.0216 29.5532C29.0216 29.5538 29.0216 29.5545 29.0216 29.5552C29.0216 29.5559 29.0216 29.5566 29.0216 29.5573C29.0216 29.558 29.0216 29.5587 29.0216 29.5594C29.0216 29.5601 29.0216 29.5608 29.0216 29.5614C29.0216 29.5621 29.0216 29.5628 29.0216 29.5635C29.0216 29.5642 29.0216 29.5649 29.0216 29.5656C29.0216 29.5663 29.0216 29.567 29.0216 29.5677C29.0216 29.5684 29.0216 29.5691 29.0216 29.5698C29.0216 29.5705 29.0216 29.5712 29.0216 29.5719C29.0216 29.5726 29.0216 29.5732 29.0216 29.5739C29.0216 29.5746 29.0216 29.5753 29.0216 29.576C29.0216 29.5767 29.0216 29.5774 29.0216 29.5781C29.0216 29.5788 29.0216 29.5795 29.0216 29.5802C29.0216 29.5809 29.0216 29.5816 29.0216 29.5823C29.0216 29.583 29.0216 29.5837 29.0216 29.5844C29.0216 29.5851 29.0216 29.5858 29.0216 29.5865C29.0216 29.5872 29.0216 29.5879 29.0216 29.5886C29.0216 29.5893 29.0216 29.59 29.0216 29.5907C29.0216 29.5914 29.0216 29.5921 29.0216 29.5928C29.0216 29.5935 29.0216 29.5942 29.0216 29.595C29.0216 29.5957 29.0216 29.5964 29.0216 29.5971C29.0216 29.5978 29.0216 29.5985 29.0216 29.5992C29.0216 29.5999 29.0216 29.6006 29.0216 29.6013C29.0216 29.602 29.0216 29.6027 29.0216 29.6034C29.0216 29.6041 29.0216 29.6048 29.0216 29.6055C29.0216 29.6063 29.0216 29.607 29.0216 29.6077C29.0216 29.6084 29.0216 29.6091 29.0216 29.6098C29.0216 29.6105 29.0216 29.6112 29.0216 29.6119C29.0216 29.6126 29.0216 29.6133 29.0216 29.6141C29.0216 29.6148 29.0216 29.6155 29.0216 29.6162C29.0216 29.6169 29.0216 29.6176 29.0216 29.6183C29.0216 29.619 29.0216 29.6198 29.0216 29.6205C29.0216 29.6212 29.0216 29.6219 29.0216 29.6226C29.0216 29.6233 29.0216 29.624 29.0216 29.6248C29.0216 29.6255 29.0216 29.6262 29.0216 29.6269C29.0216 29.6276 29.0216 29.6283 29.0216 29.629C29.0216 29.6298 29.0216 29.6305 29.0216 29.6312C29.0216 29.6319 29.0216 29.6326 29.0216 29.6334C29.0216 29.6341 29.0216 29.6348 29.0216 29.6355C29.0216 29.6362 29.0216 29.6369 29.0216 29.6377C29.0216 29.6384 29.0216 29.6391 29.0216 29.6398C29.0216 29.6405 29.0216 29.6413 29.0216 29.642C29.0216 29.6427 29.0216 29.6434 29.0216 29.6441C29.0216 29.6449 29.0216 29.6456 29.0216 29.6463C29.0216 29.647 29.0216 29.6478 29.0216 29.6485C29.0216 29.6492 29.0216 29.6499 29.0216 29.6507C29.0216 29.6514 29.0216 29.6521 29.0216 29.6528C29.0216 29.6536 29.0216 29.6543 29.0216 29.655C29.0216 29.6557 29.0216 29.6565 29.0216 29.6572C29.0216 29.6579 29.0216 29.6586 29.0216 29.6594C29.0216 29.6601 29.0216 29.6608 29.0216 29.6615C29.0216 29.6623 29.0216 29.663 29.0216 29.6637C29.0216 29.6645 29.0216 29.6652 29.0216 29.6659C29.0216 29.6666 29.0216 29.6674 29.0216 29.6681C29.0216 29.6688 29.0216 29.6696 29.0216 29.6703C29.0216 29.671 29.0216 29.6718 29.0216 29.6725C29.0216 29.6732 29.0216 29.674 29.0216 29.6747C29.0216 29.6754 29.0216 29.6762 29.0216 29.6769C29.0216 29.6776 29.0216 29.6784 29.0216 29.6791C29.0216 29.6798 29.0216 29.6806 29.0216 29.6813C29.0216 29.682 29.0216 29.6828 29.0216 29.6835C29.0216 29.6842 29.0216 29.685 29.0216 29.6857C29.0216 29.6864 29.0216 29.6872 29.0216 29.6879C29.0216 29.6886 29.0216 29.6894 29.0216 29.6901C29.0216 29.6909 29.0216 29.6916 29.0216 29.6923C29.0216 29.6931 29.0216 29.6938 29.0216 29.6946C29.0216 29.6953 29.0216 29.696 29.0216 29.6968C29.0216 29.6975 29.0216 29.6983 29.0216 29.699C29.0216 29.6997 29.0216 29.7005 29.0216 29.7012C29.0216 29.702 29.0216 29.7027 29.0216 29.7034C29.0216 29.7042 29.0216 29.7049 29.0216 29.7057C29.0216 29.7064 29.0216 29.7072 29.0216 29.7079C29.0216 29.7086 29.0216 29.7094 29.0216 29.7101C29.0216 29.7109 29.0216 29.7116 29.0216 29.7124C29.0216 29.7131 29.0216 29.7139 29.0216 29.7146C29.0216 29.7154 29.0216 29.7161 29.0216 29.7168C29.0216 29.7176 29.0216 29.7183 29.0216 29.7191C29.0216 29.7198 29.0216 29.7206 29.0216 29.7213C29.0216 29.7221 29.0216 29.7228 29.0216 29.7236C29.0216 29.7243 29.0216 29.7251 29.0216 29.7258C29.0216 29.7266 29.0216 29.7273 29.0216 29.7281C29.0216 29.7288 29.0216 29.7296 29.0216 29.7303C29.0216 29.7311 29.0216 29.7318 29.0216 29.7326C29.0216 29.7333 29.0216 29.7341 29.0216 29.7348C29.0216 29.7356 29.0216 29.7364 29.0216 29.7371C29.0216 29.7379 29.0216 29.7386 29.0216 29.7394C29.0216 29.7401 29.0216 29.7409 29.0216 29.7416C29.0216 29.7424 29.0216 29.7431 29.0216 29.7439C29.0216 29.7447 29.0216 29.7454 29.0216 29.7462C29.0216 29.7469 29.0216 29.7477 29.0216 29.7484C29.0216 29.7492 29.0216 29.75 29.0216 29.7507C29.0216 29.7515 29.0216 29.7522 29.0216 29.753C29.0216 29.7538 29.0216 29.7545 29.0216 29.7553C29.0216 29.756 29.0216 29.7568 29.0216 29.7576C29.0216 29.7583 29.0216 29.7591 29.0216 29.7598C29.0216 29.7606 29.0216 29.7614 29.0216 29.7621C29.0216 29.7629 29.0216 29.7636 29.0216 29.7644C29.0216 29.7652 29.0216 29.7659 29.0216 29.7667C29.0216 29.7675 29.0216 29.7682 29.0216 29.769C29.0216 29.7698 29.0216 29.7705 29.0216 29.7713C29.0216 29.772 29.0216 29.7728 29.0216 29.7736C29.0216 29.7743 29.0216 29.7751 29.0216 29.7759C29.0216 29.7766 29.0216 29.7774 29.0216 29.7782C29.0216 29.7789 29.0216 29.7797 29.0216 29.7805C29.0216 29.7813 29.0216 29.782 29.0216 29.7828C29.0216 29.7836 29.0216 29.7843 29.0216 29.7851C29.0216 29.7859 29.0216 29.7866 29.0216 29.7874C29.0216 29.7882 29.0216 29.789 29.0216 29.7897C29.0216 29.7905 29.0216 29.7913 29.0216 29.792C29.0216 29.7928 29.0216 29.7936 29.0216 29.7944C29.0216 29.7951 29.0216 29.7959 29.0216 29.7967C29.0216 29.7975 29.0216 29.7982 29.0216 29.799C29.0216 29.7998 29.0216 29.8005 29.0216 29.8013C29.0216 29.8021 29.0216 29.8029 29.0216 29.8036C29.0216 29.8044 29.0216 29.8052 29.0216 29.806C29.0216 29.8068 29.0216 29.8075 29.0216 29.8083C29.0216 29.8091 29.0216 29.8099 29.0216 29.8106C29.0216 29.8114 29.0216 29.8122 29.0216 29.813C29.0216 29.8138 29.0216 29.8145 29.0216 29.8153C29.0216 29.8161 29.0216 29.8169 29.0216 29.8177C29.0216 29.8184 29.0216 29.8192 29.0216 29.82H30.3384C30.3384 29.8192 30.3384 29.8184 30.3384 29.8177C30.3384 29.8169 30.3384 29.8161 30.3384 29.8153C30.3384 29.8145 30.3384 29.8138 30.3384 29.813C30.3384 29.8122 30.3384 29.8114 30.3384 29.8106C30.3384 29.8099 30.3384 29.8091 30.3384 29.8083C30.3384 29.8075 30.3384 29.8068 30.3384 29.806C30.3384 29.8052 30.3384 29.8044 30.3384 29.8036C30.3384 29.8029 30.3384 29.8021 30.3384 29.8013C30.3384 29.8005 30.3384 29.7998 30.3384 29.799C30.3384 29.7982 30.3384 29.7975 30.3384 29.7967C30.3384 29.7959 30.3384 29.7951 30.3384 29.7944C30.3384 29.7936 30.3384 29.7928 30.3384 29.792C30.3384 29.7913 30.3384 29.7905 30.3384 29.7897C30.3384 29.789 30.3384 29.7882 30.3384 29.7874C30.3384 29.7866 30.3384 29.7859 30.3384 29.7851C30.3384 29.7843 30.3384 29.7836 30.3384 29.7828C30.3384 29.782 30.3384 29.7813 30.3384 29.7805C30.3384 29.7797 30.3384 29.7789 30.3384 29.7782C30.3384 29.7774 30.3384 29.7766 30.3384 29.7759C30.3384 29.7751 30.3384 29.7743 30.3384 29.7736C30.3384 29.7728 30.3384 29.772 30.3384 29.7713C30.3384 29.7705 30.3384 29.7698 30.3384 29.769C30.3384 29.7682 30.3384 29.7675 30.3384 29.7667C30.3384 29.7659 30.3384 29.7652 30.3384 29.7644C30.3384 29.7636 30.3384 29.7629 30.3384 29.7621C30.3384 29.7614 30.3384 29.7606 30.3384 29.7598C30.3384 29.7591 30.3384 29.7583 30.3384 29.7576C30.3384 29.7568 30.3384 29.756 30.3384 29.7553C30.3384 29.7545 30.3384 29.7538 30.3384 29.753C30.3384 29.7522 30.3384 29.7515 30.3384 29.7507C30.3384 29.75 30.3384 29.7492 30.3384 29.7484C30.3384 29.7477 30.3384 29.7469 30.3384 29.7462C30.3384 29.7454 30.3384 29.7447 30.3384 29.7439C30.3384 29.7431 30.3384 29.7424 30.3384 29.7416C30.3384 29.7409 30.3384 29.7401 30.3384 29.7394C30.3384 29.7386 30.3384 29.7379 30.3384 29.7371C30.3384 29.7364 30.3384 29.7356 30.3384 29.7348C30.3384 29.7341 30.3384 29.7333 30.3384 29.7326C30.3384 29.7318 30.3384 29.7311 30.3384 29.7303C30.3384 29.7296 30.3384 29.7288 30.3384 29.7281C30.3384 29.7273 30.3384 29.7266 30.3384 29.7258C30.3384 29.7251 30.3384 29.7243 30.3384 29.7236C30.3384 29.7228 30.3384 29.7221 30.3384 29.7213C30.3384 29.7206 30.3384 29.7198 30.3384 29.7191C30.3384 29.7183 30.3384 29.7176 30.3384 29.7168C30.3384 29.7161 30.3384 29.7154 30.3384 29.7146C30.3384 29.7139 30.3384 29.7131 30.3384 29.7124C30.3384 29.7116 30.3384 29.7109 30.3384 29.7101C30.3384 29.7094 30.3384 29.7086 30.3384 29.7079C30.3384 29.7072 30.3384 29.7064 30.3384 29.7057C30.3384 29.7049 30.3384 29.7042 30.3384 29.7034C30.3384 29.7027 30.3384 29.702 30.3384 29.7012C30.3384 29.7005 30.3384 29.6997 30.3384 29.699C30.3384 29.6983 30.3384 29.6975 30.3384 29.6968C30.3384 29.696 30.3384 29.6953 30.3384 29.6946C30.3384 29.6938 30.3384 29.6931 30.3384 29.6923C30.3384 29.6916 30.3384 29.6909 30.3384 29.6901C30.3384 29.6894 30.3384 29.6886 30.3384 29.6879C30.3384 29.6872 30.3384 29.6864 30.3384 29.6857C30.3384 29.685 30.3384 29.6842 30.3384 29.6835C30.3384 29.6828 30.3384 29.682 30.3384 29.6813C30.3384 29.6806 30.3384 29.6798 30.3384 29.6791C30.3384 29.6784 30.3384 29.6776 30.3384 29.6769C30.3384 29.6762 30.3384 29.6754 30.3384 29.6747C30.3384 29.674 30.3384 29.6732 30.3384 29.6725C30.3384 29.6718 30.3384 29.671 30.3384 29.6703C30.3384 29.6696 30.3384 29.6688 30.3384 29.6681C30.3384 29.6674 30.3384 29.6666 30.3384 29.6659C30.3384 29.6652 30.3384 29.6645 30.3384 29.6637C30.3384 29.663 30.3384 29.6623 30.3384 29.6615C30.3384 29.6608 30.3384 29.6601 30.3384 29.6594C30.3384 29.6586 30.3384 29.6579 30.3384 29.6572C30.3384 29.6565 30.3384 29.6557 30.3384 29.655C30.3384 29.6543 30.3384 29.6536 30.3384 29.6528C30.3384 29.6521 30.3384 29.6514 30.3384 29.6507C30.3384 29.6499 30.3384 29.6492 30.3384 29.6485C30.3384 29.6478 30.3384 29.647 30.3384 29.6463C30.3384 29.6456 30.3384 29.6449 30.3384 29.6441C30.3384 29.6434 30.3384 29.6427 30.3384 29.642C30.3384 29.6413 30.3384 29.6405 30.3384 29.6398C30.3384 29.6391 30.3384 29.6384 30.3384 29.6377C30.3384 29.6369 30.3384 29.6362 30.3384 29.6355C30.3384 29.6348 30.3384 29.6341 30.3384 29.6334C30.3384 29.6326 30.3384 29.6319 30.3384 29.6312C30.3384 29.6305 30.3384 29.6298 30.3384 29.629C30.3384 29.6283 30.3384 29.6276 30.3384 29.6269C30.3384 29.6262 30.3384 29.6255 30.3384 29.6248C30.3384 29.624 30.3384 29.6233 30.3384 29.6226C30.3384 29.6219 30.3384 29.6212 30.3384 29.6205C30.3384 29.6198 30.3384 29.619 30.3384 29.6183C30.3384 29.6176 30.3384 29.6169 30.3384 29.6162C30.3384 29.6155 30.3384 29.6148 30.3384 29.6141C30.3384 29.6133 30.3384 29.6126 30.3384 29.6119C30.3384 29.6112 30.3384 29.6105 30.3384 29.6098C30.3384 29.6091 30.3384 29.6084 30.3384 29.6077C30.3384 29.607 30.3384 29.6063 30.3384 29.6055C30.3384 29.6048 30.3384 29.6041 30.3384 29.6034C30.3384 29.6027 30.3384 29.602 30.3384 29.6013C30.3384 29.6006 30.3384 29.5999 30.3384 29.5992C30.3384 29.5985 30.3384 29.5978 30.3384 29.5971C30.3384 29.5964 30.3384 29.5957 30.3384 29.595C30.3384 29.5942 30.3384 29.5935 30.3384 29.5928C30.3384 29.5921 30.3384 29.5914 30.3384 29.5907C30.3384 29.59 30.3384 29.5893 30.3384 29.5886C30.3384 29.5879 30.3384 29.5872 30.3384 29.5865C30.3384 29.5858 30.3384 29.5851 30.3384 29.5844C30.3384 29.5837 30.3384 29.583 30.3384 29.5823C30.3384 29.5816 30.3384 29.5809 30.3384 29.5802C30.3384 29.5795 30.3384 29.5788 30.3384 29.5781C30.3384 29.5774 30.3384 29.5767 30.3384 29.576C30.3384 29.5753 30.3384 29.5746 30.3384 29.5739C30.3384 29.5732 30.3384 29.5726 30.3384 29.5719C30.3384 29.5712 30.3384 29.5705 30.3384 29.5698C30.3384 29.5691 30.3384 29.5684 30.3384 29.5677C30.3384 29.567 30.3384 29.5663 30.3384 29.5656C30.3384 29.5649 30.3384 29.5642 30.3384 29.5635C30.3384 29.5628 30.3384 29.5621 30.3384 29.5614C30.3384 29.5608 30.3384 29.5601 30.3384 29.5594C30.3384 29.5587 30.3384 29.558 30.3384 29.5573C30.3384 29.5566 30.3384 29.5559 30.3384 29.5552C30.3384 29.5545 30.3384 29.5538 30.3384 29.5532C30.3384 29.5525 30.3384 29.5518 30.3384 29.5511C30.3384 29.5504 30.3384 29.5497 30.3384 29.549C30.3384 29.5483 30.3384 29.5477 30.3384 29.547C30.3384 29.5463 30.3384 29.5456 30.3384 29.5449C30.3384 29.5442 30.3384 29.5435 30.3384 29.5429C30.3384 29.5422 30.3384 29.5415 30.3384 29.5408C30.3384 29.5401 30.3384 29.5394 30.3384 29.5387C30.3384 29.5381 30.3384 29.5374 30.3384 29.5367C30.3384 29.536 30.3384 29.5353 30.3384 29.5347C30.3384 29.534 30.3384 29.5333 30.3384 29.5326C30.3384 29.5319 30.3384 29.5312 30.3384 29.5306C30.3384 29.5299 30.3384 29.5292 30.3384 29.5285C30.3384 29.5278 30.3384 29.5272 30.3384 29.5265C30.3384 29.5258 30.3384 29.5251 30.3384 29.5244C30.3384 29.5238 30.3384 29.5231 30.3384 29.5224C30.3384 29.5217 30.3384 29.5211 30.3384 29.5204C30.3384 29.5197 30.3384 29.519 30.3384 29.5184C30.3384 29.5177 30.3384 29.517 30.3384 29.5163C30.3384 29.5157 30.3384 29.515 30.3384 29.5143C30.3384 29.5136 30.3384 29.513 30.3384 29.5123C30.3384 29.5116 30.3384 29.5109 30.3384 29.5103C30.3384 29.5096 30.3384 29.5089 30.3384 29.5082C30.3384 29.5076 30.3384 29.5069 30.3384 29.5062C30.3384 29.5056 30.3384 29.5049 30.3384 29.5042C30.3384 29.5035 30.3384 29.5029 30.3384 29.5022C30.3384 29.5015 30.3384 29.5009 30.3384 29.5002C30.3384 29.4995 30.3384 29.4989 30.3384 29.4982C30.3384 29.4975 30.3384 29.4969 30.3384 29.4962C30.3384 29.4955 30.3384 29.4949 30.3384 29.4942C30.3384 29.4935 30.3384 29.4929 30.3384 29.4922C30.3384 29.4915 30.3384 29.4909 30.3384 29.4902C30.3384 29.4895 30.3384 29.4889 30.3384 29.4882C30.3384 29.4875 30.3384 29.4869 30.3384 29.4862C30.3384 29.4855 30.3384 29.4849 30.3384 29.4842C30.3384 29.4836 30.3384 29.4829 30.3384 29.4822C30.3384 29.4816 30.3384 29.4809 30.3384 29.4802C30.3384 29.4796 30.3384 29.4789 30.3384 29.4783C30.3384 29.4776 30.3384 29.4769 30.3384 29.4763C30.3384 29.4756 30.3384 29.475 30.3384 29.4743C30.3384 29.4736 30.3384 29.473 30.3384 29.4723C30.3384 29.4717 30.3384 29.471 30.3384 29.4703C30.3384 29.4697 30.3384 29.469 30.3384 29.4684C30.3384 29.4677 30.3384 29.4671 30.3384 29.4664C30.3384 29.4657 30.3384 29.4651 30.3384 29.4644C30.3384 29.4638 30.3384 29.4631 30.3384 29.4625C30.3384 29.4618 30.3384 29.4612 30.3384 29.4605C30.3384 29.4599 30.3384 29.4592 30.3384 29.4585C30.3384 29.4579 30.3384 29.4572 30.3384 29.4566C30.3384 29.4559 30.3384 29.4553 30.3384 29.4546C30.3384 29.454 30.3384 29.4533 30.3384 29.4527C30.3384 29.452 30.3384 29.4514 30.3384 29.4507C30.3384 29.4501 30.3384 29.4494 30.3384 29.4488C30.3384 29.4481 30.3384 29.4475 30.3384 29.4468C30.3384 29.4462 30.3384 29.4455 30.3384 29.4449C30.3384 29.4442 30.3384 29.4436 30.3384 29.4429C30.3384 29.4423 30.3384 29.4417 30.3384 29.441C30.3384 29.4404 30.3384 29.4397 30.3384 29.4391C30.3384 29.4384 30.3384 29.4378 30.3384 29.4371C30.3384 29.4365 30.3384 29.4358 30.3384 29.4352C30.3384 29.4346 30.3384 29.4339 30.3384 29.4333C30.3384 29.4326 30.3384 29.432 30.3384 29.4313C30.3384 29.4307 30.3384 29.4301 30.3384 29.4294C30.3384 29.4288 30.3384 29.4281 30.3384 29.4275C30.3384 29.4269 30.3384 29.4262 30.3384 29.4256C30.3384 29.4249 30.3384 29.4243 30.3384 29.4237C30.3384 29.423 30.3384 29.4224 30.3384 29.4217C30.3384 29.4211 30.3384 29.4205 30.3384 29.4198C30.3384 29.4192 30.3384 29.4185 30.3384 29.4179C30.3384 29.4173 30.3384 29.4166 30.3384 29.416C30.3384 29.4154 30.3384 29.4147 30.3384 29.4141C30.3384 29.4135 30.3384 29.4128 30.3384 29.4122C30.3384 29.4116 30.3384 29.4109 30.3384 29.4103C30.3384 29.4096 30.3384 29.409 30.3384 29.4084C30.3384 29.4077 30.3384 29.4071 30.3384 29.4065C30.3384 29.4059 30.3384 29.4052 30.3384 29.4046C30.3384 29.404 30.3384 29.4033 30.3384 29.4027C30.3384 29.4021 30.3384 29.4014 30.3384 29.4008C30.3384 29.4002 30.3384 29.3995 30.3384 29.3989C30.3384 29.3983 30.3384 29.3977 30.3384 29.397C30.3384 29.3964 30.3384 29.3958 30.3384 29.3951C30.3384 29.3945 30.3384 29.3939 30.3384 29.3933C30.3384 29.3926 30.3384 29.392 30.3384 29.3914C30.3384 29.3908 30.3384 29.3901 30.3384 29.3895C30.3384 29.3889 30.3384 29.3882 30.3384 29.3876C30.3384 29.387 30.3384 29.3864 30.3384 29.3857C30.3384 29.3851 30.3384 29.3845 30.3384 29.3839C30.3384 29.3833 30.3384 29.3826 30.3384 29.382C30.3384 29.3814 30.3384 29.3808 30.3384 29.3801C30.3384 29.3795 30.3384 29.3789 30.3384 29.3783C30.3384 29.3777 30.3384 29.377 30.3384 29.3764C30.3384 29.3758 30.3384 29.3752 30.3384 29.3746C30.3384 29.3739 30.3384 29.3733 30.3384 29.3727C30.3384 29.3721 30.3384 29.3715 30.3384 29.3708C30.3384 29.3702 30.3384 29.3696 30.3384 29.369C30.3384 29.3684 30.3384 29.3678 30.3384 29.3671C30.3384 29.3665 30.3384 29.3659 30.3384 29.3653C30.3384 29.3647 30.3384 29.3641 30.3384 29.3634C30.3384 29.3628 30.3384 29.3622 30.3384 29.3616C30.3384 29.361 30.3384 29.3604 30.3384 29.3598C30.3384 29.3591 30.3384 29.3585 30.3384 29.3579C30.3384 29.3573 30.3384 29.3567 30.3384 29.3561C30.3384 29.3555 30.3384 29.3549 30.3384 29.3543C30.3384 29.3536 30.3384 29.353 30.3384 29.3524C30.3384 29.3518 30.3384 29.3512 30.3384 29.3506C30.3384 29.35 30.3384 29.3494 30.3384 29.3488C30.3384 29.3482 30.3384 29.3475 30.3384 29.3469C30.3384 29.3463 30.3384 29.3457 30.3384 29.3451C30.3384 29.3445 30.3384 29.3439 30.3384 29.3433C30.3384 29.3427 30.3384 29.3421 30.3384 29.3415C30.3384 29.3409 30.3384 29.3403 30.3384 29.3397C30.3384 29.3391 30.3384 29.3385 30.3384 29.3378C30.3384 29.3372 30.3384 29.3366 30.3384 29.336C30.3384 29.3354 30.3384 29.3348 30.3384 29.3342C30.3384 29.3336 30.3384 29.333 30.3384 29.3324C30.3384 29.3318 30.3384 29.3312 30.3384 29.3306C30.3384 29.33 30.3384 29.3294 30.3384 29.3288C30.3384 29.3282 30.3384 29.3276 30.3384 29.327C30.3384 29.3264 30.3384 29.3258 30.3384 29.3252C30.3384 29.3246 30.3384 29.324 30.3384 29.3234C30.3384 29.3228 30.3384 29.3222 30.3384 29.3216C30.3384 29.321 30.3384 29.3204 30.3384 29.3198C30.3384 29.3192 30.3384 29.3186 30.3384 29.318C30.3384 29.3174 30.3384 29.3169 30.3384 29.3163C30.3384 29.3157 30.3384 29.3151 30.3384 29.3145C30.3384 29.3139 30.3384 29.3133 30.3384 29.3127C30.3384 29.3121 30.3384 29.3115 30.3384 29.3109C30.3384 29.3103 30.3384 29.3097 30.3384 29.3091C30.3384 29.3085 30.3384 29.308 30.3384 29.3074C30.3384 29.3068 30.3384 29.3062 30.3384 29.3056C30.3384 29.305 30.3384 29.3044 30.3384 29.3038C30.3384 29.3032 30.3384 29.3026 30.3384 29.302C30.3384 29.3015 30.3384 29.3009 30.3384 29.3003C30.3384 29.2997 30.3384 29.2991 30.3384 29.2985C30.3384 29.2979 30.3384 29.2973 30.3384 29.2968C30.3384 29.2962 30.3384 29.2956 30.3384 29.295C30.3384 29.2944 30.3384 29.2938 30.3384 29.2932C30.3384 29.2927 30.3384 29.2921 30.3384 29.2915C30.3384 29.2909 30.3384 29.2903 30.3384 29.2897C30.3384 29.2892 30.3384 29.2886 30.3384 29.288C30.3384 29.2874 30.3384 29.2868 30.3384 29.2862C30.3384 29.2857 30.3384 29.2851 30.3384 29.2845C30.3384 29.2839 30.3384 29.2833 30.3384 29.2827C30.3384 29.2822 30.3384 29.2816 30.3384 29.281C30.3384 29.2804 30.3384 29.2799 30.3384 29.2793C30.3384 29.2787 30.3384 29.2781 30.3384 29.2775C30.3384 29.277 30.3384 29.2764 30.3384 29.2758C30.3384 29.2752 30.3384 29.2746 30.3384 29.2741C30.3384 29.2735 30.3384 29.2729 30.3384 29.2723C30.3384 29.2718 30.3384 29.2712 30.3384 29.2706C30.3384 29.27 30.3384 29.2695 30.3384 29.2689C30.3384 29.2683 30.3384 29.2677 30.3384 29.2672C30.3384 29.2666 30.3384 29.266 30.3384 29.2654C30.3384 29.2649 30.3384 29.2643 30.3384 29.2637C30.3384 29.2632 30.3384 29.2626 30.3384 29.262C30.3384 29.2614 30.3384 29.2609 30.3384 29.2603C30.3384 29.2597 30.3384 29.2592 30.3384 29.2586C30.3384 29.258 30.3384 29.2575 30.3384 29.2569C30.3384 29.2563 30.3384 29.2557 30.3384 29.2552C30.3384 29.2546 30.3384 29.254 30.3384 29.2535C30.3384 29.2529 30.3384 29.2523 30.3384 29.2518C30.3384 29.2512 30.3384 29.2506 30.3384 29.2501C30.3384 29.2495 30.3384 29.2489 30.3384 29.2484C30.3384 29.2478 30.3384 29.2472 30.3384 29.2467C30.3384 29.2461 30.3384 29.2455 30.3384 29.245C30.3384 29.2444 30.3384 29.2439 30.3384 29.2433C30.3384 29.2427 30.3384 29.2422 30.3384 29.2416C30.3384 29.241 30.3384 29.2405 30.3384 29.2399C30.3384 29.2394 30.3384 29.2388 30.3384 29.2382C30.3384 29.2377 30.3384 29.2371 30.3384 29.2366C30.3384 29.236 30.3384 29.2354 30.3384 29.2349C30.3384 29.2343 30.3384 29.2338 30.3384 29.2332C30.3384 29.2326 30.3384 29.2321 30.3384 29.2315C30.3384 29.231 30.3384 29.2304 30.3384 29.2299C30.3384 29.2293 30.3384 29.2287 30.3384 29.2282C30.3384 29.2276 30.3384 29.2271 30.3384 29.2265C30.3384 29.226 30.3384 29.2254 30.3384 29.2249C30.3384 29.2243 30.3384 29.2237 30.3384 29.2232C30.3384 29.2226 30.3384 29.2221 30.3384 29.2215C30.3384 29.221 30.3384 29.2204 30.3384 29.2199C30.3384 29.2193 30.3384 29.2188 30.3384 29.2182C30.3384 29.2177 30.3384 29.2171 30.3384 29.2166C30.3384 29.216 30.3384 29.2155 30.3384 29.2149C30.3384 29.2144 30.3384 29.2138 30.3384 29.2133C30.3384 29.2127 30.3384 29.2122 30.3384 29.2116C30.3384 29.2111 30.3384 29.2105 30.3384 29.21C30.3384 29.2094 30.3384 29.2089 30.3384 29.2083C30.3384 29.2078 30.3384 29.2072 30.3384 29.2067C30.3384 29.2061 30.3384 29.2056 30.3384 29.2051C30.3384 29.2045 30.3384 29.204 30.3384 29.2034C30.3384 29.2029 30.3384 29.2023 30.3384 29.2018C30.3384 29.2012 30.3384 29.2007 30.3384 29.2001C30.3384 29.1996 30.3384 29.1991 30.3384 29.1985C30.3384 29.198 30.3384 29.1974 30.3384 29.1969C30.3384 29.1964 30.3384 29.1958 30.3384 29.1953C30.3384 29.1947 30.3384 29.1942 30.3384 29.1936C30.3384 29.1931 30.3384 29.1926 30.3384 29.192C30.3384 29.1915 30.3384 29.191 30.3384 29.1904C30.3384 29.1899 30.3384 29.1893 30.3384 29.1888C30.3384 29.1883 30.3384 29.1877 30.3384 29.1872C30.3384 29.1866 30.3384 29.1861 30.3384 29.1856C30.3384 29.185 30.3384 29.1845 30.3384 29.184C30.3384 29.1834 30.3384 29.1829 30.3384 29.1824C30.3384 29.1818 30.3384 29.1813 30.3384 29.1808C30.3384 29.1802 30.3384 29.1797 30.3384 29.1792C30.3384 29.1786 30.3384 29.1781 30.3384 29.1776C30.3384 29.177 30.3384 29.1765 30.3384 29.176C30.3384 29.1754 30.3384 29.1749 30.3384 29.1744C30.3384 29.1738 30.3384 29.1733 30.3384 29.1728C30.3384 29.1722 30.3384 29.1717 30.3384 29.1712C30.3384 29.1707 30.3384 29.1701 30.3384 29.1696C30.3384 29.1691 30.3384 29.1685 30.3384 29.168C30.3384 29.1675 30.3384 29.167 30.3384 29.1664C30.3384 29.1659 30.3384 29.1654 30.3384 29.1649C30.3384 29.1643 30.3384 29.1638 30.3384 29.1633C30.3384 29.1628 30.3384 29.1622 30.3384 29.1617C30.3384 29.1612 30.3384 29.1606 30.3384 29.1601C30.3384 29.1596 30.3384 29.1591 30.3384 29.1586C30.3384 29.158 30.3384 29.1575 30.3384 29.157C30.3384 29.1565 30.3384 29.1559 30.3384 29.1554C30.3384 29.1549 30.3384 29.1544 30.3384 29.1539C30.3384 29.1533 30.3384 29.1528 30.3384 29.1523C30.3384 29.1518 30.3384 29.1513 30.3384 29.1507C30.3384 29.1502 30.3384 29.1497 30.3384 29.1492C30.3384 29.1487 30.3384 29.1481 30.3384 29.1476C30.3384 29.1471 30.3384 29.1466 30.3384 29.1461C30.3384 29.1455 30.3384 29.145 30.3384 29.1445C30.3384 29.144 30.3384 29.1435 30.3384 29.143C30.3384 29.1425 30.3384 29.1419 30.3384 29.1414C30.3384 29.1409 30.3384 29.1404 30.3384 29.1399C30.3384 29.1394 30.3384 29.1388 30.3384 29.1383C30.3384 29.1378 30.3384 29.1373 30.3384 29.1368C30.3384 29.1363 30.3384 29.1358 30.3384 29.1353C30.3384 29.1347 30.3384 29.1342 30.3384 29.1337C30.3384 29.1332 30.3384 29.1327 30.3384 29.1322C30.3384 29.1317 30.3384 29.1312 30.3384 29.1307C30.3384 29.1302 30.3384 29.1296 30.3384 29.1291C30.3384 29.1286 30.3384 29.1281 30.3384 29.1276C30.3384 29.1271 30.3384 29.1266 30.3384 29.1261C30.3384 29.1256 30.3384 29.1251 30.3384 29.1246C30.3384 29.1241 30.3384 29.1236 30.3384 29.123C30.3384 29.1225 30.3384 29.122 30.3384 29.1215C30.3384 29.121 30.3384 29.1205 30.3384 29.12C30.3384 29.1195 30.3384 29.119 30.3384 29.1185C30.3384 29.118 30.3384 29.1175 30.3384 29.117C30.3384 29.1165 30.3384 29.116 30.3384 29.1155C30.3384 29.115 30.3384 29.1145 30.3384 29.114C30.3384 29.1135 30.3384 29.113 30.3384 29.1125C30.3384 29.112 30.3384 29.1115 30.3384 29.111C30.3384 29.1105 30.3384 29.11 30.3384 29.1095C30.3384 29.109 30.3384 29.1085 30.3384 29.108C30.3384 29.1075 30.3384 29.107 30.3384 29.1065C30.3384 29.106 30.3384 29.1055 30.3384 29.105C30.3384 29.1045 30.3384 29.104 30.3384 29.1035C30.3384 29.103 30.3384 29.1025 30.3384 29.102C30.3384 29.1015 30.3384 29.101 30.3384 29.1005C30.3384 29.1 30.3384 29.0996 30.3384 29.0991C30.3384 29.0986 30.3384 29.0981 30.3384 29.0976C30.3384 29.0971 30.3384 29.0966 30.3384 29.0961C30.3384 29.0956 30.3384 29.0951 30.3384 29.0946C30.3384 29.0941 30.3384 29.0936 30.3384 29.0932C30.3384 29.0927 30.3384 29.0922 30.3384 29.0917C30.3384 29.0912 30.3384 29.0907 30.3384 29.0902C30.3384 29.0897 30.3384 29.0892 30.3384 29.0887C30.3384 29.0883 30.3384 29.0878 30.3384 29.0873C30.3384 29.0868 30.3384 29.0863 30.3384 29.0858C30.3384 29.0853 30.3384 29.0849 30.3384 29.0844C30.3384 29.0839 30.3384 29.0834 30.3384 29.0829C30.3384 29.0824 30.3384 29.0819 30.3384 29.0815C30.3384 29.081 30.3384 29.0805 30.3384 29.08C30.3384 29.0795 30.3384 29.079 30.3384 29.0786C30.3384 29.0781 30.3384 29.0776 30.3384 29.0771C30.3384 29.0766 30.3384 29.0761 30.3384 29.0757C30.3384 29.0752 30.3384 29.0747 30.3384 29.0742C30.3384 29.0737 30.3384 29.0733 30.3384 29.0728C30.3384 29.0723 30.3384 29.0718 30.3384 29.0713C30.3384 29.0709 30.3384 29.0704 30.3384 29.0699C30.3384 29.0694 30.3384 29.0689 30.3384 29.0685C30.3384 29.068 30.3384 29.0675 30.3384 29.067C30.3384 29.0666 30.3384 29.0661 30.3384 29.0656C30.3384 29.0651 30.3384 29.0647 30.3384 29.0642C30.3384 29.0637 30.3384 29.0632 30.3384 29.0628C30.3384 29.0623 30.3384 29.0618 30.3384 29.0613C30.3384 29.0609 30.3384 29.0604 30.3384 29.0599C30.3384 29.0594 30.3384 29.059 30.3384 29.0585C30.3384 29.058 30.3384 29.0575 30.3384 29.0571C30.3384 29.0566 30.3384 29.0561 30.3384 29.0557C30.3384 29.0552 30.3384 29.0547 30.3384 29.0543C30.3384 29.0538 30.3384 29.0533 30.3384 29.0528C30.3384 29.0524 30.3384 29.0519 30.3384 29.0514C30.3384 29.051 30.3384 29.0505 30.3384 29.05C30.3384 29.0496 30.3384 29.0491 30.3384 29.0486C30.3384 29.0482 30.3384 29.0477 30.3384 29.0472C30.3384 29.0468 30.3384 29.0463 30.3384 29.0458C30.3384 29.0454 30.3384 29.0449 30.3384 29.0444C30.3384 29.044 30.3384 29.0435 30.3384 29.043C30.3384 29.0426 30.3384 29.0421 30.3384 29.0417C30.3384 29.0412 30.3384 29.0407 30.3384 29.0403C30.3384 29.0398 30.3384 29.0393 30.3384 29.0389C30.3384 29.0384 30.3384 29.038 30.3384 29.0375C30.3384 29.037 30.3384 29.0366 30.3384 29.0361C30.3384 29.0357 30.3384 29.0352 30.3384 29.0347C30.3384 29.0343 30.3384 29.0338 30.3384 29.0334C30.3384 29.0329 30.3384 29.0324 30.3384 29.032C30.3384 29.0315 30.3384 29.0311 30.3384 29.0306C30.3384 29.0302 30.3384 29.0297 30.3384 29.0292C30.3384 29.0288 30.3384 29.0283 30.3384 29.0279C30.3384 29.0274 30.3384 29.027 30.3384 29.0265C30.3384 29.0261 30.3384 29.0256 30.3384 29.0252C30.3384 29.0247 30.3384 29.0242 30.3384 29.0238C30.3384 29.0233 30.3384 29.0229 30.3384 29.0224C30.3384 29.022 30.3384 29.0215 30.3384 29.0211C30.3384 29.0206 30.3384 29.0202 30.3384 29.0197C30.3384 29.0193 30.3384 29.0188 30.3384 29.0184C30.3384 29.0179 30.3384 29.0175 30.3384 29.017C30.3384 29.0166 30.3384 29.0161 30.3384 29.0157C30.3384 29.0152 30.3384 29.0148 30.3384 29.0143C30.3384 29.0139 30.3384 29.0134 30.3384 29.013C30.3384 29.0125 30.3384 29.0121 30.3384 29.0116C30.3384 29.0112 30.3384 29.0108 30.3384 29.0103C30.3384 29.0099 30.3384 29.0094 30.3384 29.009C30.3384 29.0085 30.3384 29.0081 30.3384 29.0076C30.3384 29.0072 30.3384 29.0068 30.3384 29.0063C30.3384 29.0059 30.3384 29.0054 30.3384 29.005C30.3384 29.0045 30.3384 29.0041 30.3384 29.0037C30.3384 29.0032 30.3384 29.0028 30.3384 29.0023C30.3384 29.0019 30.3384 29.0014 30.3384 29.001C30.3384 29.0006 30.3384 29.0001 30.3384 28.9997C30.3384 28.9992 30.3384 28.9988 30.3384 28.9984C30.3384 28.9979 30.3384 28.9975 30.3384 28.9971C30.3384 28.9966 30.3384 28.9962 30.3384 28.9957C30.3384 28.9953 30.3384 28.9949 30.3384 28.9944C30.3384 28.994 30.3384 28.9936 30.3384 28.9931C30.3384 28.9927 30.3384 28.9923 30.3384 28.9918C30.3384 28.9914 30.3384 28.9909 30.3384 28.9905C30.3384 28.9901 30.3384 28.9896 30.3384 28.9892C30.3384 28.9888 30.3384 28.9883 30.3384 28.9879C30.3384 28.9875 30.3384 28.987 30.3384 28.9866C30.3384 28.9862 30.3384 28.9858 30.3384 28.9853C30.3384 28.9849 30.3384 28.9845 30.3384 28.984C30.3384 28.9836 30.3384 28.9832 30.3384 28.9827C30.3384 28.9823 30.3384 28.9819 30.3384 28.9815C30.3384 28.981 30.3384 28.9806 30.3384 28.9802C30.3384 28.9797 30.3384 28.9793 30.3384 28.9789C30.3384 28.9785 30.3384 28.978 30.3384 28.9776C30.3384 28.9772 30.3384 28.9768 30.3384 28.9763C30.3384 28.9759 30.3384 28.9755 30.3384 28.9751C30.3384 28.9746 30.3384 28.9742 30.3384 28.9738C30.3384 28.9734 30.3384 28.9729 30.3384 28.9725C30.3384 28.9721 30.3384 28.9717 30.3384 28.9712C30.3384 28.9708 30.3384 28.9704 30.3384 28.97C30.3384 28.9695 30.3384 28.9691 30.3384 28.9687C30.3384 28.9683 30.3384 28.9679 30.3384 28.9674C30.3384 28.967 30.3384 28.9666 30.3384 28.9662C30.3384 28.9658 30.3384 28.9653 30.3384 28.9649C30.3384 28.9645 30.3384 28.9641 30.3384 28.9637C30.3384 28.9633 30.3384 28.9628 30.3384 28.9624C30.3384 28.962 30.3384 28.9616 30.3384 28.9612C30.3384 28.9607 30.3384 28.9603 30.3384 28.9599C30.3384 28.9595 30.3384 28.9591 30.3384 28.9587C30.3384 28.9583 30.3384 28.9578 30.3384 28.9574C30.3384 28.957 30.3384 28.9566 30.3384 28.9562C30.3384 28.9558 30.3384 28.9554 30.3384 28.9549C30.3384 28.9545 30.3384 28.9541 30.3384 28.9537C30.3384 28.9533 30.3384 28.9529 30.3384 28.9525C30.3384 28.9521 30.3384 28.9517 30.3384 28.9512C30.3384 28.9508 30.3384 28.9504 30.3384 28.95C30.3384 28.9496 30.3384 28.9492 30.3384 28.9488C30.3384 28.9484 30.3384 28.948 30.3384 28.9476C30.3384 28.9471 30.3384 28.9467 30.3384 28.9463C30.3384 28.9459 30.3384 28.9455 30.3384 28.9451C30.3384 28.9447 30.3384 28.9443 30.3384 28.9439C30.3384 28.9435 30.3384 28.9431 30.3384 28.9427C30.3384 28.9423 30.3384 28.9419 30.3384 28.9415C30.3384 28.9411 30.3384 28.9407 30.3384 28.9403C30.3384 28.9398 30.3384 28.9394 30.3384 28.939C30.3384 28.9386 30.3384 28.9382 30.3384 28.9378C30.3384 28.9374 30.3384 28.937 30.3384 28.9366C30.3384 28.9362 30.3384 28.9358 30.3384 28.9354C30.3384 28.935 30.3384 28.9346 30.3384 28.9342C30.3384 28.9338 30.3384 28.9334 30.3384 28.933C30.3384 28.9326 30.3384 28.9322 30.3384 28.9318C30.3384 28.9314 30.3384 28.931 30.3384 28.9306C30.3384 28.9302 30.3384 28.9298 30.3384 28.9294C30.3384 28.9291 30.3384 28.9287 30.3384 28.9283C30.3384 28.9279 30.3384 28.9275 30.3384 28.9271C30.3384 28.9267 30.3384 28.9263 30.3384 28.9259C30.3384 28.9255 30.3384 28.9251 30.3384 28.9247C30.3384 28.9243 30.3384 28.9239 30.3384 28.9235C30.3384 28.9231 30.3384 28.9227 30.3384 28.9223C30.3384 28.922 30.3384 28.9216 30.3384 28.9212C30.3384 28.9208 30.3384 28.9204 30.3384 28.92H29.0216ZM29.0257 29.8927C29.0594 30.1963 29.0624 30.8676 29.0221 31.9556L30.3379 32.0044C30.3776 30.9324 30.3806 30.1637 30.3343 29.7473L29.0257 29.8927ZM29.0221 31.9556C28.9827 33.0189 28.904 34.0408 28.7863 35.0216L30.0937 35.1784C30.216 34.1592 30.2973 33.1011 30.3379 32.0044L29.0221 31.9556ZM28.7863 35.0216C28.6714 35.9791 28.4397 37.0848 28.0862 38.3417L29.3538 38.6983C29.7203 37.3952 29.9686 36.2209 30.0937 35.1784L28.7863 35.0216ZM28.0813 38.3603C27.7701 39.605 27.384 40.7019 26.9265 41.6551L28.1135 42.2249C28.616 41.1781 29.0299 39.995 29.3587 38.6797L28.0813 38.3603ZM56.1653 20.88H55.5069V20.9317L55.515 20.9827L56.1653 20.88ZM56.5853 23.82L55.9327 23.907L55.9341 23.9177L55.9359 23.9282L56.5853 23.82ZM57.3053 29.64L56.6504 29.7084L56.6517 29.7192L57.3053 29.64ZM57.7253 35.76L58.2907 36.0973L58.3787 35.9499L58.3834 35.7783L57.7253 35.76ZM53.3453 41.58L53.4353 42.2322L53.659 42.2013L53.8167 42.0396L53.3453 41.58ZM35.8253 41.94L35.4523 42.4825L35.5768 42.5681L35.726 42.5908L35.8253 41.94ZM30.5453 36.12L29.8882 36.0797L29.8753 36.2901L29.987 36.4689L30.5453 36.12ZM31.9253 18.24L31.4112 17.8287L31.2932 17.9763L31.2713 18.164L31.9253 18.24ZM32.7653 17.16L32.2435 16.7586L32.7653 17.16ZM34.9853 14.1L34.9221 13.4447L34.6528 13.4706L34.4795 13.6785L34.9853 14.1ZM52.9853 14.34L53.5196 13.9553L53.3573 13.7298L53.0825 13.6888L52.9853 14.34ZM55.0853 17.94L54.4931 18.2276L54.4964 18.2344L54.4998 18.2411L55.0853 17.94ZM39.5453 33.54H38.8869V34.2122L39.559 34.1982L39.5453 33.54ZM47.7653 32.82L47.9213 33.4596L48.4339 33.3346L48.4236 32.8071L47.7653 32.82ZM47.1653 23.64L47.8157 23.538L47.7442 23.082L47.2912 22.9938L47.1653 23.64ZM40.3253 23.64L40.078 23.0299L39.7119 23.1783L39.6706 23.5711L40.3253 23.64ZM39.7853 29.58L40.4419 29.628L40.442 29.6269L39.7853 29.58ZM39.5453 32.82L38.8889 32.7695L38.8869 32.7947V32.82H39.5453ZM55.515 20.9827C55.6338 21.7354 55.7731 22.7097 55.9327 23.907L57.2379 23.733C57.0776 22.5303 56.9368 21.5446 56.8156 20.7773L55.515 20.9827ZM55.9359 23.9282C56.1323 25.1069 56.3706 27.0298 56.6505 29.7084L57.9601 29.5716C57.68 26.8902 57.4383 24.9331 57.2347 23.7118L55.9359 23.9282ZM56.6517 29.7192C56.9705 32.3491 57.1058 34.3508 57.0672 35.7417L58.3834 35.7783C58.4248 34.2892 58.2801 32.2109 57.9589 29.5608L56.6517 29.7192ZM57.1599 35.4227C55.8215 37.6664 54.3919 39.5635 52.8739 41.1204L53.8167 42.0396C55.4187 40.3965 56.9091 38.4136 58.2907 36.0973L57.1599 35.4227ZM53.2554 40.9278C46.3315 41.8828 40.5599 41.9962 35.9246 41.2892L35.726 42.5908C40.5307 43.3238 46.4391 43.1972 53.4353 42.2322L53.2554 40.9278ZM36.1983 41.3975C34.3712 40.1413 32.6693 38.2762 31.1036 35.7711L29.987 36.4689C31.6213 39.0838 33.4394 41.0987 35.4523 42.4825L36.1983 41.3975ZM31.2025 36.1603C31.7225 27.6801 32.1816 21.7363 32.5793 18.316L31.2713 18.164C30.869 21.6237 30.4082 27.5999 29.8882 36.0797L31.2025 36.1603ZM32.4394 18.6513C32.6038 18.4458 32.8873 18.0812 33.2872 17.5614L32.2435 16.7586C31.8433 17.2788 31.5668 17.6342 31.4112 17.8287L32.4394 18.6513ZM33.2872 17.5614C33.6955 17.0306 34.1224 16.441 34.5678 15.793L33.4828 15.047C33.0483 15.679 32.6352 16.2494 32.2435 16.7586L33.2872 17.5614ZM34.5678 15.793C35.0083 15.1524 35.3128 14.7354 35.4911 14.5215L34.4795 13.6785C34.2578 13.9446 33.9224 14.4076 33.4828 15.047L34.5678 15.793ZM35.0485 14.7553C41.6468 14.1194 47.5917 14.2007 52.8881 14.9912L53.0825 13.6888C47.6589 12.8793 41.6038 12.8006 34.9221 13.4447L35.0485 14.7553ZM52.451 14.7247C53.1441 15.6873 53.8255 16.8532 54.4931 18.2276L55.6775 17.6524C54.9851 16.2268 54.2665 14.9927 53.5196 13.9553L52.451 14.7247ZM54.4998 18.2411C54.853 18.9278 55.11 19.4966 55.2773 19.952C55.4496 20.4209 55.5069 20.718 55.5069 20.88H56.8237C56.8237 20.482 56.7011 20.0091 56.5133 19.498C56.3206 18.9734 56.0376 18.3522 55.6708 17.6389L54.4998 18.2411ZM39.559 34.1982C43.402 34.1182 46.2052 33.8782 47.9213 33.4596L47.6093 32.1804C46.0454 32.5618 43.3686 32.8018 39.5316 32.8818L39.559 34.1982ZM48.4236 32.8071C48.3434 28.7201 48.1429 25.6237 47.8157 23.538L46.5149 23.742C46.8277 25.7363 47.0272 28.7599 47.1071 32.8329L48.4236 32.8071ZM47.2912 22.9938C44.1865 22.389 41.7447 22.3542 40.078 23.0299L40.5727 24.2501C41.866 23.7258 43.9842 23.691 47.0394 24.2862L47.2912 22.9938ZM39.6706 23.5711C39.43 25.856 39.2493 27.8437 39.1286 29.5331L40.442 29.6269C40.5613 27.9563 40.7406 25.984 40.9801 23.7089L39.6706 23.5711ZM39.1287 29.532C39.0087 31.1722 38.9288 32.2509 38.8889 32.7695L40.2017 32.8705C40.2419 32.3491 40.3219 31.2678 40.4419 29.628L39.1287 29.532ZM38.8869 32.82V33.54H40.2037V32.82H38.8869ZM97.6075 15L98.2632 14.9412L98.2289 14.5575L97.8774 14.3995L97.6075 15ZM97.6675 41.94L97.6457 42.598L98.2762 42.6189L98.324 41.9899L97.6675 41.94ZM88.6075 41.64L87.9492 41.6275L87.937 42.2765L88.5857 42.298L88.6075 41.64ZM88.9675 22.62L89.6258 22.6325L89.6374 22.0182L89.0254 21.9642L88.9675 22.62ZM83.4475 23.28L83.293 22.64L82.774 22.7653L82.7894 23.299L83.4475 23.28ZM83.9875 41.94L83.9672 42.5981L84.6658 42.6196L84.6456 41.921L83.9875 41.94ZM74.2675 41.64L73.6092 41.6275L73.5969 42.278L74.2472 42.2981L74.2675 41.64ZM74.6275 22.62L75.2858 22.6325L75.2974 22.0182L74.6854 21.9642L74.6275 22.62ZM69.0475 23.34L68.8853 22.7019L68.3773 22.8311L68.3893 23.3551L69.0475 23.34ZM69.4675 41.64L69.4593 42.2983L70.1413 42.3069L70.1257 41.6249L69.4675 41.64ZM59.8675 41.52L59.2102 41.5583L59.246 42.1707L59.8593 42.1783L59.8675 41.52ZM59.7475 13.74L59.7345 13.0818L59.1229 13.0938L59.0901 13.7046L59.7475 13.74ZM68.8675 13.56H69.5259V12.8885L68.8545 12.9018L68.8675 13.56ZM68.8675 14.22H68.2091V15.0422L69.0114 14.8625L68.8675 14.22ZM82.0075 14.52L81.7894 15.1412L81.9825 15.209L82.18 15.1554L82.0075 14.52ZM96.9518 15.0588C97.7082 23.4987 97.7286 32.4422 97.011 41.8901L98.324 41.9899C99.0464 32.4778 99.0268 23.4613 98.2632 14.9412L96.9518 15.0588ZM97.6893 41.282L88.6293 40.982L88.5857 42.298L97.6457 42.598L97.6893 41.282ZM89.2658 41.6525L89.6258 22.6325L88.3092 22.6075L87.9492 41.6275L89.2658 41.6525ZM89.0254 21.9642C87.5601 21.8349 85.6387 22.0738 83.293 22.64L83.602 23.92C85.8963 23.3662 87.6549 23.1651 88.9096 23.2758L89.0254 21.9642ZM82.7894 23.299L83.3294 41.959L84.6456 41.921L84.1056 23.261L82.7894 23.299ZM84.0078 41.2819L74.2878 40.9819L74.2472 42.2981L83.9672 42.5981L84.0078 41.2819ZM74.9258 41.6525L75.2858 22.6325L73.9692 22.6075L73.6092 41.6275L74.9258 41.6525ZM74.6854 21.9642C73.2151 21.8344 71.27 22.0956 68.8853 22.7019L69.2097 23.9781C71.545 23.3844 73.3199 23.1656 74.5696 23.2758L74.6854 21.9642ZM68.3893 23.3551L68.8093 41.6551L70.1257 41.6249L69.7057 23.3249L68.3893 23.3551ZM69.4757 40.9817L59.8757 40.8617L59.8593 42.1783L69.4593 42.2983L69.4757 40.9817ZM60.5248 41.4817C59.9661 31.9044 59.9263 22.669 60.4049 13.7754L59.0901 13.7046C58.6087 22.651 58.6489 31.9356 59.2102 41.5583L60.5248 41.4817ZM59.7605 14.3982L68.8805 14.2182L68.8545 12.9018L59.7345 13.0818L59.7605 14.3982ZM68.2091 13.56V14.22H69.5259V13.56H68.2091ZM69.0114 14.8625C73.925 13.7618 78.1746 13.8722 81.7894 15.1412L82.2256 13.8988C78.3204 12.5278 73.81 12.4382 68.7236 13.5775L69.0114 14.8625ZM82.18 15.1554C88.1189 13.5428 93.1546 13.7201 97.3376 15.6005L97.8774 14.3995C93.3404 12.3599 87.9761 12.2172 81.835 13.8846L82.18 15.1554ZM109.64 12.48L110.299 12.4678L110.287 11.8343L109.653 11.8218L109.64 12.48ZM110.18 41.64L110.172 42.2983L110.851 42.3069L110.839 41.6278L110.18 41.64ZM100.64 41.52L99.9819 41.5214L99.9833 42.1702L100.632 42.1783L100.64 41.52ZM100.58 12.3L100.593 11.6418L99.9206 11.6284L99.9219 12.3013L100.58 12.3ZM109.52 9.36L109.497 10.018L110.069 10.0378L110.169 9.47441L109.52 9.36ZM100.88 9.06L100.223 9.09264L100.253 9.69698L100.857 9.71798L100.88 9.06ZM100.46 0.599997L100.294 -0.0370584L99.7762 0.0980501L99.8027 0.632642L100.46 0.599997ZM104.12 0.119999L104.087 -0.537512L104.086 -0.537466L104.12 0.119999ZM108.08 -2.86102e-06L108.105 -0.657927L108.092 -0.658378H108.08V-2.86102e-06ZM109.7 0.0599964L110.355 -0.0077498L110.296 -0.576755L109.725 -0.597927L109.7 0.0599964ZM108.982 12.4922L109.522 41.6522L110.839 41.6278L110.299 12.4678L108.982 12.4922ZM110.189 40.9817L100.649 40.8617L100.632 42.1783L110.172 42.2983L110.189 40.9817ZM101.299 41.5186L101.239 12.2986L99.9219 12.3013L99.9819 41.5214L101.299 41.5186ZM100.567 12.9582L109.627 13.1382L109.653 11.8218L100.593 11.6418L100.567 12.9582ZM109.543 8.70202L100.903 8.40202L100.857 9.71798L109.497 10.018L109.543 8.70202ZM101.538 9.02735L101.118 0.567352L99.8027 0.632642L100.223 9.09264L101.538 9.02735ZM100.627 1.23705C101.486 1.01291 102.656 0.856339 104.155 0.777464L104.086 -0.537466C102.544 -0.456342 101.275 -0.292916 100.294 -0.0370584L100.627 1.23705ZM104.154 0.77751C105.707 0.697855 107.015 0.658372 108.08 0.658372V-0.658378C106.985 -0.658378 105.653 -0.617859 104.087 -0.537512L104.154 0.77751ZM108.056 0.657921L109.676 0.71792L109.725 -0.597927L108.105 -0.657927L108.056 0.657921ZM109.045 0.127743C109.401 3.56236 109.339 6.59921 108.872 9.24558L110.169 9.47441C110.662 6.68078 110.72 3.51763 110.355 -0.0077498L109.045 0.127743ZM136.832 15L137.487 14.9354L137.45 14.5544L137.1 14.3986L136.832 15ZM136.892 41.94L136.87 42.598L137.49 42.6185L137.548 42.0009L136.892 41.94ZM127.832 41.64L127.174 41.6275L127.161 42.2765L127.81 42.298L127.832 41.64ZM128.192 22.62L128.85 22.6325L128.862 22.0182L128.25 21.9642L128.192 22.62ZM122.492 23.34L122.335 22.7007L121.825 22.826L121.834 23.3508L122.492 23.34ZM122.792 41.64L122.784 42.2983L123.461 42.3064L123.45 41.6292L122.792 41.64ZM112.712 41.52L112.054 41.5228L112.056 42.1706L112.704 42.1783L112.712 41.52ZM112.592 13.74L112.539 13.0837L111.931 13.1326L111.934 13.7428L112.592 13.74ZM122.312 12.96H122.97V12.2467L122.259 12.3037L122.312 12.96ZM122.312 14.28H121.654V15.1103L122.462 14.9211L122.312 14.28ZM136.177 15.0646C137.053 23.9424 137.073 32.8803 136.236 41.8791L137.548 42.0009C138.391 32.9197 138.371 23.8976 137.487 14.9354L136.177 15.0646ZM136.914 41.282L127.854 40.982L127.81 42.298L136.87 42.598L136.914 41.282ZM128.49 41.6525L128.85 22.6325L127.534 22.6075L127.174 41.6275L128.49 41.6525ZM128.25 21.9642C126.781 21.8345 124.796 22.0954 122.335 22.7007L122.649 23.9793C125.068 23.3846 126.883 23.1655 128.134 23.2758L128.25 21.9642ZM121.834 23.3508L122.134 41.6508L123.45 41.6292L123.15 23.3292L121.834 23.3508ZM122.8 40.9817L112.72 40.8617L112.704 42.1783L122.784 42.2983L122.8 40.9817ZM113.37 41.5172L113.25 13.7372L111.934 13.7428L112.054 41.5228L113.37 41.5172ZM112.645 14.3963L122.365 13.6163L122.259 12.3037L112.539 13.0837L112.645 14.3963ZM121.654 12.96V14.28H122.97V12.96H121.654ZM122.462 14.9211C128.006 13.6236 132.691 13.8757 136.564 15.6014L137.1 14.3986C132.893 12.5243 127.899 12.2963 122.162 13.6389L122.462 14.9211ZM165.097 13.68L165.75 13.7617L165.839 13.0487L165.121 13.0221L165.097 13.68ZM165.097 16.74L164.439 16.7553L165.097 16.74ZM165.037 24.48L165.695 24.4955V24.4953L165.037 24.48ZM164.677 34.86L164.019 34.8301L164.019 34.8373L164.677 34.86ZM163.957 45.84L163.301 45.7785L163.301 45.7859L163.957 45.84ZM162.697 55.44L162.721 56.0979L163.237 56.0788L163.342 55.5731L162.697 55.44ZM158.497 55.5V54.8416H158.489L158.481 54.8418L158.497 55.5ZM150.217 55.26L150.251 54.6025L150.245 54.6022L150.217 55.26ZM141.697 54.3L141.039 54.3247L141.057 54.8188L141.537 54.9387L141.697 54.3ZM142.477 46.32L142.461 45.6618L141.984 45.6731L141.846 46.1297L142.477 46.32ZM155.197 46.02L155.212 46.6782L155.822 46.6638L155.854 46.0552L155.197 46.02ZM155.737 35.94L156.394 35.9752L156.444 35.0438L155.55 35.3088L155.737 35.94ZM152.257 36.72L152.152 36.07L152.148 36.0706L152.257 36.72ZM149.017 37.14L149.044 37.7978L149.058 37.7972L149.071 37.7961L149.017 37.14ZM146.377 37.26V37.9184H146.393L146.41 37.9176L146.377 37.26ZM144.577 37.2L144.636 36.5443L144.607 36.5416H144.577V37.2ZM143.977 37.2L143.64 37.7656L143.795 37.8584H143.977V37.2ZM139.237 32.34L138.579 32.3224L138.573 32.5152L138.673 32.6803L139.237 32.34ZM139.657 21L139 20.9579L138.999 20.9658L139.657 21ZM140.137 15L140.789 15.089L140.137 15ZM140.317 13.68V13.0216H139.742L139.664 13.591L140.317 13.68ZM140.797 13.62L140.926 14.2656L140.966 14.2575L141.005 14.2446L140.797 13.62ZM142.237 13.38L142.309 14.0343L142.324 14.0327L142.339 14.0303L142.237 13.38ZM144.517 13.14L144.551 13.7975L144.569 13.7966L144.586 13.7948L144.517 13.14ZM147.277 13.02V13.6784H147.289L147.301 13.6779L147.277 13.02ZM153.637 13.56L153.503 14.2047L153.508 14.2056L153.637 13.56ZM156.937 14.58L156.672 15.1826L157.547 15.5676L157.594 14.6129L156.937 14.58ZM156.997 13.38L157.021 12.7221L156.372 12.698L156.339 13.3471L156.997 13.38ZM156.277 26.76L156.345 27.4149L156.906 27.3566L156.934 26.7929L156.277 26.76ZM156.457 23.16L157.114 23.1929L157.147 22.5432L156.498 22.5029L156.457 23.16ZM147.757 22.62L147.798 21.9629L147.037 21.9157L147.101 22.6753L147.757 22.62ZM148.177 27.6L147.521 27.6553L147.577 28.3241L148.245 28.2549L148.177 27.6ZM164.443 13.5983C164.396 13.9795 164.399 15.0626 164.439 16.7553L165.755 16.7247C165.714 14.9774 165.718 14.0205 165.75 13.7617L164.443 13.5983ZM164.439 16.7553C164.478 18.4594 164.458 21.027 164.379 24.4647L165.695 24.4953C165.775 21.053 165.795 18.4606 165.755 16.7247L164.439 16.7553ZM164.379 24.4645C164.299 27.8595 164.179 31.3147 164.019 34.8301L165.334 34.8899C165.495 31.3653 165.615 27.9005 165.695 24.4955L164.379 24.4645ZM164.019 34.8373C163.899 38.3031 163.66 41.9501 163.301 45.7785L164.612 45.9015C164.973 42.0499 165.214 38.3769 165.335 34.8827L164.019 34.8373ZM163.301 45.7859C162.982 49.6513 162.565 52.8226 162.052 55.3069L163.342 55.5731C163.869 53.0174 164.292 49.7887 164.613 45.8941L163.301 45.7859ZM162.672 54.7821C161.604 54.8217 160.213 54.8416 158.497 54.8416V56.1584C160.221 56.1584 161.63 56.1383 162.721 56.0979L162.672 54.7821ZM158.481 54.8418C156.788 54.8812 154.05 54.8024 150.251 54.6025L150.182 55.9175C153.984 56.1176 156.765 56.1988 158.512 56.1582L158.481 54.8418ZM150.245 54.6022C146.497 54.4427 143.71 54.1248 141.856 53.6613L141.537 54.9387C143.523 55.4352 146.416 55.7573 150.189 55.9178L150.245 54.6022ZM142.355 54.2753C142.236 51.1185 142.495 48.5371 143.107 46.5103L141.846 46.1297C141.178 48.3429 140.917 51.0815 141.039 54.3247L142.355 54.2753ZM142.492 46.9782L155.212 46.6782L155.181 45.3618L142.461 45.6618L142.492 46.9782ZM155.854 46.0552L156.394 35.9752L155.079 35.9048L154.539 45.9848L155.854 46.0552ZM155.55 35.3088C154.5 35.6199 153.367 35.874 152.152 36.07L152.362 37.37C153.626 37.166 154.814 36.9001 155.924 36.5712L155.55 35.3088ZM152.148 36.0706C150.962 36.2684 149.9 36.4057 148.962 36.4839L149.071 37.7961C150.053 37.7143 151.152 37.5716 152.365 37.3694L152.148 36.0706ZM148.989 36.4822C148.028 36.5223 147.146 36.5623 146.344 36.6024L146.41 37.9176C147.207 37.8777 148.086 37.8377 149.044 37.7978L148.989 36.4822ZM146.377 36.6016C145.625 36.6016 145.047 36.5817 144.636 36.5443L144.517 37.8557C144.986 37.8983 145.609 37.9184 146.377 37.9184V36.6016ZM144.577 36.5416H143.977V37.8584H144.577V36.5416ZM144.314 36.6344C142.538 35.5767 141.032 34.0395 139.8 31.9997L138.673 32.6803C140.002 34.8805 141.655 36.5833 143.64 37.7656L144.314 36.6344ZM139.895 32.3576C140.015 27.8809 140.155 24.1068 140.314 21.0342L138.999 20.9658C138.839 24.0532 138.699 27.8391 138.579 32.3224L139.895 32.3576ZM140.314 21.0421C140.514 17.9154 140.673 15.9409 140.789 15.089L139.484 14.911C139.361 15.8191 139.199 17.8446 139 20.9579L140.314 21.0421ZM140.789 15.089L140.969 13.769L139.664 13.591L139.484 14.911L140.789 15.089ZM140.317 14.3384C140.5 14.3384 140.708 14.3091 140.926 14.2656L140.668 12.9744C140.485 13.0109 140.374 13.0216 140.317 13.0216V14.3384ZM141.005 14.2446C141.168 14.1901 141.58 14.1154 142.309 14.0343L142.164 12.7257C141.453 12.8046 140.905 12.8899 140.589 12.9954L141.005 14.2446ZM142.339 14.0303C143.077 13.9138 143.814 13.8363 144.551 13.7975L144.482 12.4825C143.699 12.5237 142.916 12.6062 142.134 12.7297L142.339 14.0303ZM144.586 13.7948C145.316 13.7179 146.211 13.6784 147.277 13.6784V12.3616C146.182 12.3616 145.238 12.4021 144.448 12.4852L144.586 13.7948ZM147.301 13.6779C148.357 13.6388 149.372 13.6585 150.344 13.7363L150.449 12.4237C149.422 12.3415 148.356 12.3212 147.252 12.3621L147.301 13.6779ZM150.344 13.7363C151.313 13.8138 152.365 13.9693 153.503 14.2047L153.77 12.9153C152.588 12.6707 151.481 12.5062 150.449 12.4237L150.344 13.7363ZM153.508 14.2056C154.666 14.4373 155.72 14.764 156.672 15.1826L157.202 13.9774C156.153 13.516 155.007 13.1627 153.766 12.9144L153.508 14.2056ZM157.594 14.6129L157.654 13.4129L156.339 13.3471L156.279 14.5471L157.594 14.6129ZM156.972 14.0379L165.072 14.3379L165.121 13.0221L157.021 12.7221L156.972 14.0379ZM156.934 26.7929L157.114 23.1929L155.799 23.1271L155.619 26.7271L156.934 26.7929ZM156.498 22.5029L147.798 21.9629L147.716 23.2771L156.416 23.8171L156.498 22.5029ZM147.101 22.6753L147.521 27.6553L148.833 27.5447L148.413 22.5647L147.101 22.6753ZM148.245 28.2549L156.345 27.4149L156.209 26.1051L148.109 26.9451L148.245 28.2549ZM208.563 29.88L209.183 29.6562L209.086 29.3894L208.826 29.2762L208.563 29.88ZM208.983 42.24L209.052 42.8948L209.54 42.8434L209.631 42.361L208.983 42.24ZM202.983 42.24L202.967 42.8982L202.983 42.24ZM196.743 42.06L196.772 41.4022L196.758 41.4016H196.743V42.06ZM190.203 41.82L190.172 42.4776L190.173 42.4777L190.203 41.82ZM183.363 41.52L182.708 41.4545L182.638 42.1538L183.341 42.178L183.363 41.52ZM184.263 32.52L184.378 31.8717L183.679 31.7482L183.608 32.4545L184.263 32.52ZM201.243 35.52L201.129 36.1683L201.496 34.9121L201.243 35.52ZM183.363 28.08L182.706 28.1165L182.729 28.5291L183.111 28.6879L183.363 28.08ZM183.423 23.64L182.769 23.5711L182.768 23.5796L182.767 23.5882L183.423 23.64ZM184.083 19.68L183.449 19.5049L183.447 19.5126L183.445 19.5203L184.083 19.68ZM184.983 16.56L184.362 16.3437L184.357 16.3559L184.354 16.3683L184.983 16.56ZM185.823 14.4L186.421 14.6759L186.426 14.6647L186.431 14.6532L185.823 14.4ZM186.123 13.68L186.064 13.0243L185.669 13.0599L185.516 13.4268L186.123 13.68ZM196.023 13.32L196.006 13.9781L196.006 13.9782L196.023 13.32ZM203.763 13.86L203.853 13.2077L203.851 13.2075L203.763 13.86ZM206.823 14.28L207.473 14.3898L207.586 13.7201L206.913 13.6277L206.823 14.28ZM205.443 22.44L205.337 23.0898L205.983 23.1952L206.093 22.5498L205.443 22.44ZM194.043 20.58L194.149 19.9302L193.548 19.8322L193.404 20.4237L194.043 20.58ZM193.383 23.28L192.744 23.1237L192.612 23.6626L193.121 23.8838L193.383 23.28ZM207.944 30.1038C209.091 33.2767 209.243 37.2687 208.336 42.119L209.631 42.361C210.564 37.3713 210.436 33.1233 209.183 29.6562L207.944 30.1038ZM208.915 41.5852C208.207 41.6597 206.257 41.6623 203 41.5818L202.967 42.8982C206.189 42.9777 208.24 42.9803 209.052 42.8948L208.915 41.5852ZM203 41.5818C199.758 41.5018 197.685 41.4419 196.772 41.4022L196.715 42.7178C197.642 42.7581 199.729 42.8182 202.967 42.8982L203 41.5818ZM196.743 41.4016C195.842 41.4016 193.679 41.3226 190.234 41.1623L190.173 42.4777C193.608 42.6374 195.805 42.7184 196.743 42.7184V41.4016ZM190.234 41.1624C186.835 41.0024 184.551 40.9022 183.386 40.862L183.341 42.178C184.496 42.2178 186.772 42.3176 190.172 42.4776L190.234 41.1624ZM184.019 41.5855L184.919 32.5855L183.608 32.4545L182.708 41.4545L184.019 41.5855ZM184.149 33.1683L201.129 36.1683L201.358 34.8717L184.378 31.8717L184.149 33.1683ZM201.496 34.9121L183.616 27.4721L183.111 28.6879L200.991 36.1278L201.496 34.9121ZM184.021 28.0435C183.943 26.6345 183.962 25.1841 184.08 23.6918L182.767 23.5882C182.645 25.1359 182.624 26.6455 182.706 28.1165L184.021 28.0435ZM184.078 23.7089C184.236 22.2104 184.452 20.9221 184.722 19.8397L183.445 19.5203C183.155 20.6779 182.931 22.0296 182.769 23.5711L184.078 23.7089ZM184.718 19.8551C185.037 18.6993 185.335 17.665 185.613 16.7517L184.354 16.3683C184.072 17.295 183.77 18.3407 183.449 19.5049L184.718 19.8551ZM185.605 16.7763C185.922 15.8646 186.194 15.1676 186.421 14.6759L185.226 14.1241C184.973 14.6724 184.685 15.4154 184.362 16.3437L185.605 16.7763ZM186.431 14.6532L186.731 13.9332L185.516 13.4268L185.216 14.1468L186.431 14.6532ZM186.182 14.3357C189.721 14.0176 192.996 13.8989 196.006 13.9781L196.041 12.6619C192.971 12.5811 189.646 12.7024 186.064 13.0243L186.182 14.3357ZM196.006 13.9782C199.073 14.0578 201.627 14.2367 203.676 14.5125L203.851 13.2075C201.74 12.9233 199.134 12.7422 196.041 12.6618L196.006 13.9782ZM203.674 14.5123L206.734 14.9323L206.913 13.6277L203.853 13.2077L203.674 14.5123ZM206.174 14.1702L204.794 22.3302L206.093 22.5498L207.473 14.3898L206.174 14.1702ZM205.549 21.7902L194.149 19.9302L193.937 21.2298L205.337 23.0898L205.549 21.7902ZM193.404 20.4237L192.744 23.1237L194.023 23.4363L194.683 20.7363L193.404 20.4237ZM193.121 23.8838L208.301 30.4838L208.826 29.2762L193.646 22.6762L193.121 23.8838ZM236.107 20.88H235.448V20.9317L235.456 20.9827L236.107 20.88ZM236.527 23.82L235.874 23.907L235.876 23.9177L235.877 23.9282L236.527 23.82ZM237.247 29.64L236.592 29.7084L236.593 29.7192L237.247 29.64ZM237.667 35.76L238.232 36.0973L238.32 35.9499L238.325 35.7783L237.667 35.76ZM233.287 41.58L233.377 42.2322L233.6 42.2013L233.758 42.0396L233.287 41.58ZM215.767 41.94L215.394 42.4825L215.518 42.5681L215.667 42.5908L215.767 41.94ZM210.487 36.12L209.83 36.0797L209.817 36.2901L209.928 36.4689L210.487 36.12ZM211.867 18.24L211.353 17.8287L211.235 17.9763L211.213 18.164L211.867 18.24ZM212.707 17.16L212.185 16.7586L212.707 17.16ZM214.927 14.1L214.864 13.4447L214.594 13.4706L214.421 13.6785L214.927 14.1ZM232.927 14.34L233.461 13.9553L233.299 13.7298L233.024 13.6888L232.927 14.34ZM235.027 17.94L234.435 18.2276L234.438 18.2344L234.441 18.2411L235.027 17.94ZM219.487 33.54H218.828V34.2122L219.5 34.1982L219.487 33.54ZM227.707 32.82L227.863 33.4596L228.375 33.3346L228.365 32.8071L227.707 32.82ZM227.107 23.64L227.757 23.538L227.686 23.082L227.233 22.9938L227.107 23.64ZM220.267 23.64L220.019 23.0299L219.653 23.1783L219.612 23.5711L220.267 23.64ZM219.727 29.58L220.383 29.628L220.383 29.6269L219.727 29.58ZM219.487 32.82L218.83 32.7695L218.828 32.7947V32.82H219.487ZM235.456 20.9827C235.575 21.7354 235.714 22.7097 235.874 23.907L237.179 23.733C237.019 22.5303 236.878 21.5446 236.757 20.7773L235.456 20.9827ZM235.877 23.9282C236.074 25.1069 236.312 27.0298 236.592 29.7084L237.902 29.5716C237.621 26.8902 237.38 24.9331 237.176 23.7118L235.877 23.9282ZM236.593 29.7192C236.912 32.3491 237.047 34.3508 237.009 35.7417L238.325 35.7783C238.366 34.2892 238.222 32.2109 237.9 29.5608L236.593 29.7192ZM237.101 35.4227C235.763 37.6664 234.333 39.5635 232.815 41.1204L233.758 42.0396C235.36 40.3965 236.85 38.4136 238.232 36.0973L237.101 35.4227ZM233.197 40.9278C226.273 41.8828 220.501 41.9962 215.866 41.2892L215.667 42.5908C220.472 43.3238 226.381 43.1972 233.377 42.2322L233.197 40.9278ZM216.14 41.3975C214.313 40.1413 212.611 38.2762 211.045 35.7711L209.928 36.4689C211.563 39.0838 213.381 41.0987 215.394 42.4825L216.14 41.3975ZM211.144 36.1603C211.664 27.6801 212.123 21.7363 212.521 18.316L211.213 18.164C210.81 21.6237 210.35 27.5999 209.83 36.0797L211.144 36.1603ZM212.381 18.6513C212.545 18.4458 212.829 18.0812 213.229 17.5614L212.185 16.7586C211.785 17.2788 211.508 17.6342 211.353 17.8287L212.381 18.6513ZM213.229 17.5614C213.637 17.0306 214.064 16.441 214.509 15.793L213.424 15.047C212.99 15.679 212.577 16.2494 212.185 16.7586L213.229 17.5614ZM214.509 15.793C214.95 15.1524 215.254 14.7354 215.432 14.5215L214.421 13.6785C214.199 13.9446 213.864 14.4076 213.424 15.047L214.509 15.793ZM214.99 14.7553C221.588 14.1194 227.533 14.2007 232.83 14.9912L233.024 13.6888C227.6 12.8793 221.545 12.8006 214.864 13.4447L214.99 14.7553ZM232.392 14.7247C233.086 15.6873 233.767 16.8532 234.435 18.2276L235.619 17.6524C234.927 16.2268 234.208 14.9927 233.461 13.9553L232.392 14.7247ZM234.441 18.2411C234.794 18.9278 235.051 19.4966 235.219 19.952C235.391 20.4209 235.448 20.718 235.448 20.88H236.765C236.765 20.482 236.642 20.0091 236.455 19.498C236.262 18.9734 235.979 18.3522 235.612 17.6389L234.441 18.2411ZM219.5 34.1982C223.343 34.1182 226.147 33.8782 227.863 33.4596L227.551 32.1804C225.987 32.5618 223.31 32.8018 219.473 32.8818L219.5 34.1982ZM228.365 32.8071C228.285 28.7201 228.084 25.6237 227.757 23.538L226.456 23.742C226.769 25.7363 226.969 28.7599 227.048 32.8329L228.365 32.8071ZM227.233 22.9938C224.128 22.389 221.686 22.3542 220.019 23.0299L220.514 24.2501C221.807 23.7258 223.926 23.691 226.981 24.2862L227.233 22.9938ZM219.612 23.5711C219.371 25.856 219.191 27.8437 219.07 29.5331L220.383 29.6269C220.503 27.9563 220.682 25.984 220.921 23.7089L219.612 23.5711ZM219.07 29.532C218.95 31.1722 218.87 32.2509 218.83 32.7695L220.143 32.8705C220.183 32.3491 220.263 31.2678 220.383 29.628L219.07 29.532ZM218.828 32.82V33.54H220.145V32.82H218.828ZM264.349 20.88H263.691V20.9317L263.699 20.9827L264.349 20.88ZM264.769 23.82L264.116 23.907L264.118 23.9177L264.119 23.9282L264.769 23.82ZM265.489 29.64L264.834 29.7084L264.835 29.7192L265.489 29.64ZM265.909 35.76L266.474 36.0973L266.562 35.9499L266.567 35.7783L265.909 35.76ZM261.529 41.58L261.619 42.2322L261.843 42.2013L262 42.0396L261.529 41.58ZM244.009 41.94L243.636 42.4825L243.76 42.5681L243.91 42.5908L244.009 41.94ZM238.729 36.12L238.072 36.0797L238.059 36.2901L238.171 36.4689L238.729 36.12ZM240.109 18.24L239.595 17.8287L239.477 17.9763L239.455 18.164L240.109 18.24ZM240.949 17.16L240.427 16.7586L240.949 17.16ZM243.169 14.1L243.106 13.4447L242.836 13.4706L242.663 13.6785L243.169 14.1ZM261.169 14.34L261.703 13.9553L261.541 13.7298L261.266 13.6888L261.169 14.34ZM263.269 17.94L262.677 18.2276L262.68 18.2344L262.683 18.2411L263.269 17.94ZM247.729 33.54H247.071V34.2122L247.743 34.1982L247.729 33.54ZM255.949 32.82L256.105 33.4596L256.617 33.3346L256.607 32.8071L255.949 32.82ZM255.349 23.64L255.999 23.538L255.928 23.082L255.475 22.9938L255.349 23.64ZM248.509 23.64L248.262 23.0299L247.895 23.1783L247.854 23.5711L248.509 23.64ZM247.969 29.58L248.626 29.628L248.626 29.6269L247.969 29.58ZM247.729 32.82L247.072 32.7695L247.071 32.7947V32.82H247.729ZM263.699 20.9827C263.817 21.7354 263.957 22.7097 264.116 23.907L265.422 23.733C265.261 22.5303 265.12 21.5446 264.999 20.7773L263.699 20.9827ZM264.119 23.9282C264.316 25.1069 264.554 27.0298 264.834 29.7084L266.144 29.5716C265.864 26.8902 265.622 24.9331 265.418 23.7118L264.119 23.9282ZM264.835 29.7192C265.154 32.3491 265.289 34.3508 265.251 35.7417L266.567 35.7783C266.608 34.2892 266.464 32.2109 266.142 29.5608L264.835 29.7192ZM265.343 35.4227C264.005 37.6664 262.576 39.5635 261.058 41.1204L262 42.0396C263.602 40.3965 265.093 38.4136 266.474 36.0973L265.343 35.4227ZM261.439 40.9278C254.515 41.8828 248.744 41.9962 244.108 41.2892L243.91 42.5908C248.714 43.3238 254.623 43.1972 261.619 42.2322L261.439 40.9278ZM244.382 41.3975C242.555 40.1413 240.853 38.2762 239.287 35.7711L238.171 36.4689C239.805 39.0838 241.623 41.0987 243.636 42.4825L244.382 41.3975ZM239.386 36.1603C239.906 27.6801 240.365 21.7363 240.763 18.316L239.455 18.164C239.053 21.6237 238.592 27.5999 238.072 36.0797L239.386 36.1603ZM240.623 18.6513C240.787 18.4458 241.071 18.0812 241.471 17.5614L240.427 16.7586C240.027 17.2788 239.75 17.6342 239.595 17.8287L240.623 18.6513ZM241.471 17.5614C241.879 17.0306 242.306 16.441 242.751 15.793L241.666 15.047C241.232 15.679 240.819 16.2494 240.427 16.7586L241.471 17.5614ZM242.751 15.793C243.192 15.1524 243.496 14.7354 243.675 14.5215L242.663 13.6785C242.441 13.9446 242.106 14.4076 241.666 15.047L242.751 15.793ZM243.232 14.7553C249.83 14.1194 255.775 14.2007 261.072 14.9912L261.266 13.6888C255.842 12.8793 249.787 12.8006 243.106 13.4447L243.232 14.7553ZM260.635 14.7247C261.328 15.6873 262.009 16.8532 262.677 18.2276L263.861 17.6524C263.169 16.2268 262.45 14.9927 261.703 13.9553L260.635 14.7247ZM262.683 18.2411C263.037 18.9278 263.294 19.4966 263.461 19.952C263.633 20.4209 263.691 20.718 263.691 20.88H265.007C265.007 20.482 264.885 20.0091 264.697 19.498C264.504 18.9734 264.221 18.3522 263.854 17.6389L262.683 18.2411ZM247.743 34.1982C251.586 34.1182 254.389 33.8782 256.105 33.4596L255.793 32.1804C254.229 32.5618 251.552 32.8018 247.715 32.8818L247.743 34.1982ZM256.607 32.8071C256.527 28.7201 256.327 25.6237 255.999 23.538L254.698 23.742C255.011 25.7363 255.211 28.7599 255.291 32.8329L256.607 32.8071ZM255.475 22.9938C252.37 22.389 249.928 22.3542 248.262 23.0299L248.756 24.2501C250.05 23.7258 252.168 23.691 255.223 24.2862L255.475 22.9938ZM247.854 23.5711C247.614 25.856 247.433 27.8437 247.312 29.5331L248.626 29.6269C248.745 27.9563 248.924 25.984 249.164 23.7089L247.854 23.5711ZM247.312 29.532C247.192 31.1722 247.112 32.2509 247.072 32.7695L248.385 32.8705C248.425 32.3491 248.506 31.2678 248.626 29.628L247.312 29.532ZM247.071 32.82V33.54H248.387V32.82H247.071ZM291.871 15L292.526 14.9354L292.489 14.5544L292.139 14.3986L291.871 15ZM291.931 41.94L291.909 42.598L292.529 42.6185L292.587 42.0009L291.931 41.94ZM282.871 41.64L282.213 41.6275L282.201 42.2765L282.849 42.298L282.871 41.64ZM283.231 22.62L283.889 22.6325L283.901 22.0182L283.289 21.9642L283.231 22.62ZM277.531 23.34L277.374 22.7007L276.864 22.826L276.873 23.3508L277.531 23.34ZM277.831 41.64L277.823 42.2983L278.5 42.3064L278.489 41.6292L277.831 41.64ZM267.751 41.52L267.093 41.5228L267.096 42.1706L267.743 42.1783L267.751 41.52ZM267.631 13.74L267.578 13.0837L266.97 13.1326L266.973 13.7428L267.631 13.74ZM277.351 12.96H278.009V12.2467L277.298 12.3037L277.351 12.96ZM277.351 14.28H276.693V15.1103L277.501 14.9211L277.351 14.28ZM291.216 15.0646C292.092 23.9424 292.112 32.8803 291.276 41.8791L292.587 42.0009C293.43 32.9197 293.41 23.8976 292.526 14.9354L291.216 15.0646ZM291.953 41.282L282.893 40.982L282.849 42.298L291.909 42.598L291.953 41.282ZM283.529 41.6525L283.889 22.6325L282.573 22.6075L282.213 41.6275L283.529 41.6525ZM283.289 21.9642C281.82 21.8345 279.836 22.0954 277.374 22.7007L277.688 23.9793C280.107 23.3846 281.922 23.1655 283.173 23.2758L283.289 21.9642ZM276.873 23.3508L277.173 41.6508L278.489 41.6292L278.189 23.3292L276.873 23.3508ZM277.839 40.9817L267.759 40.8617L267.743 42.1783L277.823 42.2983L277.839 40.9817ZM268.409 41.5172L268.289 13.7372L266.973 13.7428L267.093 41.5228L268.409 41.5172ZM267.684 14.3963L277.404 13.6163L277.298 12.3037L267.578 13.0837L267.684 14.3963ZM276.693 12.96V14.28H278.009V12.96H276.693ZM277.501 14.9211C283.045 13.6236 287.73 13.8757 291.603 15.6014L292.139 14.3986C287.932 12.5243 282.938 12.2963 277.201 13.6389L277.501 14.9211ZM303.696 33L304.353 32.9671L304.323 32.3632L303.719 32.342L303.696 33ZM304.116 41.4L304.282 42.0371L304.8 41.9019L304.773 41.3671L304.116 41.4ZM300.456 41.94L300.49 42.5975L300.499 42.597L300.508 42.5963L300.456 41.94ZM296.556 42L296.58 41.3421L296.568 41.3416H296.556V42ZM294.936 42L294.282 42.0743L294.348 42.6584H294.936V42ZM295.116 32.7L295.139 32.042L294.577 32.0224L294.469 32.5746L295.116 32.7ZM303.038 33.0329L303.458 41.4329L304.773 41.3671L304.353 32.9671L303.038 33.0329ZM303.95 40.7629C303.083 40.9891 301.905 41.1651 300.404 41.2837L300.508 42.5963C302.046 42.4749 303.309 42.2909 304.282 42.0371L303.95 40.7629ZM300.421 41.2825C298.914 41.3619 297.634 41.3811 296.58 41.3421L296.531 42.6579C297.637 42.6989 298.958 42.6781 300.49 42.5975L300.421 41.2825ZM296.556 41.3416H294.936V42.6584H296.556V41.3416ZM295.59 41.9257C295.195 38.4536 295.258 35.4234 295.762 32.8254L294.469 32.5746C293.934 35.3366 293.876 38.5064 294.282 42.0743L295.59 41.9257ZM295.093 33.358L303.673 33.658L303.719 32.342L295.139 32.042L295.093 33.358ZM315.18 33L315.838 32.9671L315.808 32.3632L315.203 32.342L315.18 33ZM315.6 41.4L315.766 42.0371L316.284 41.9019L316.258 41.3671L315.6 41.4ZM311.94 41.94L311.975 42.5975L311.983 42.597L311.992 42.5963L311.94 41.94ZM308.04 42L308.065 41.3421L308.052 41.3416H308.04V42ZM306.42 42L305.766 42.0743L305.832 42.6584H306.42V42ZM306.6 32.7L306.623 32.042L306.061 32.0224L305.954 32.5746L306.6 32.7ZM314.523 33.0329L314.943 41.4329L316.258 41.3671L315.838 32.9671L314.523 33.0329ZM315.434 40.7629C314.567 40.9891 313.39 41.1651 311.888 41.2837L311.992 42.5963C313.53 42.4749 314.793 42.2909 315.766 42.0371L315.434 40.7629ZM311.906 41.2825C310.398 41.3619 309.119 41.3811 308.065 41.3421L308.016 42.6579C309.122 42.6989 310.442 42.6781 311.975 42.5975L311.906 41.2825ZM308.04 41.3416H306.42V42.6584H308.04V41.3416ZM307.074 41.9257C306.68 38.4536 306.742 35.4234 307.246 32.8254L305.954 32.5746C305.418 35.3366 305.361 38.5064 305.766 42.0743L307.074 41.9257ZM306.577 33.358L315.157 33.658L315.203 32.342L306.623 32.042L306.577 33.358ZM326.665 33L327.322 32.9671L327.292 32.3632L326.688 32.342L326.665 33ZM327.085 41.4L327.251 42.0371L327.769 41.9019L327.742 41.3671L327.085 41.4ZM323.425 41.94L323.459 42.5975L323.468 42.597L323.476 42.5963L323.425 41.94ZM319.525 42L319.549 41.3421L319.537 41.3416H319.525V42ZM317.905 42L317.25 42.0743L317.317 42.6584H317.905V42ZM318.085 32.7L318.108 32.042L317.545 32.0224L317.438 32.5746L318.085 32.7ZM326.007 33.0329L326.427 41.4329L327.742 41.3671L327.322 32.9671L326.007 33.0329ZM326.918 40.7629C326.051 40.9891 324.874 41.1651 323.373 41.2837L323.476 42.5963C325.015 42.4749 326.278 42.2909 327.251 42.0371L326.918 40.7629ZM323.39 41.2825C321.882 41.3619 320.603 41.3811 319.549 41.3421L319.5 42.6579C320.606 42.6989 321.927 42.6781 323.459 42.5975L323.39 41.2825ZM319.525 41.3416H317.905V42.6584H319.525V41.3416ZM318.559 41.9257C318.164 38.4536 318.227 35.4234 318.731 32.8254L317.438 32.5746C316.902 35.3366 316.845 38.5064 317.25 42.0743L318.559 41.9257ZM318.062 33.358L326.642 33.658L326.688 32.342L318.108 32.042L318.062 33.358Z" fill="#0E2E57"/>
</g>
<defs>
<filter id="filter0_d_65_61" x="0.941723" y="0" width="326.143" height="56.2184" filterUnits="userSpaceOnUse" color-interpolation-filters="sRGB">
<feFlood flood-opacity="0" result="BackgroundImageFix"/>
<feColorMatrix in="SourceAlpha" type="matrix" values="0 0 0 0 0 0 0 0 0 0 0 0 0 0 0 0 0 0 127 0" result="hardAlpha"/>
<feOffset dx="-0.658375" dy="0.658375"/>
<feComposite in2="hardAlpha" operator="out"/>
<feColorMatrix type="matrix" values="0 0 0 0 0.98 0 0 0 0 0 0 0 0 0 1 0 0 0 1 0"/>
<feBlend mode="normal" in2="BackgroundImageFix" result="effect1_dropShadow_65_61"/>
<feBlend mode="normal" in="SourceGraphic" in2="effect1_dropShadow_65_61" result="shape"/>
</filter>
</defs>
</svg>
