<svg width="223" height="57" viewBox="0 0 223 57" fill="none" xmlns="http://www.w3.org/2000/svg">
<g filter="url(#filter0_d_42_128)">
<path d="M17.46 42.82L11.1 26.02L12.66 42.04L1.44 42.94C1.16 31.02 1.36 17.38 2.04 2.02C5.32 1.38 8.9 1.02 12.78 0.939998C16.7 0.819997 20.26 0.859997 23.46 1.06C24.62 2.78 25.66 8.24 26.58 17.44C26.58 17.6 26.58 17.72 26.58 17.8C26.62 17.88 26.64 18 26.64 18.16C26.64 18.28 26.66 18.38 26.7 18.46C24.74 22.38 23.56 24.46 23.16 24.7C22.4 24.78 21.46 24.88 20.34 25L26.7 38.74L17.46 42.82ZM10.5 10.6V17.02L17.4 16.66C17.48 15.9 17.4 14.96 17.16 13.84C16.96 12.68 16.74 11.74 16.5 11.02L16.14 9.88C14.26 9.84 12.38 10.08 10.5 10.6ZM53.4075 21.88C53.5275 22.64 53.6675 23.62 53.8275 24.82C54.0275 26.02 54.2675 27.96 54.5475 30.64C54.8675 33.28 55.0075 35.32 54.9675 36.76C53.6075 39.04 52.1475 40.98 50.5875 42.58C43.6275 43.54 37.7875 43.66 33.0675 42.94C31.1475 41.62 29.3875 39.68 27.7875 37.12C28.3075 28.64 28.7675 22.68 29.1675 19.24C29.3275 19.04 29.6075 18.68 30.0075 18.16C30.4075 17.64 30.8275 17.06 31.2675 16.42C31.7075 15.78 32.0275 15.34 32.2275 15.1C38.8675 14.46 44.8675 14.54 50.2275 15.34C50.9475 16.34 51.6475 17.54 52.3275 18.94C53.0475 20.34 53.4075 21.32 53.4075 21.88ZM36.7875 34.54C40.6275 34.46 43.3675 34.22 45.0075 33.82C44.9275 29.74 44.7275 26.68 44.4075 24.64C41.3275 24.04 39.0475 24.04 37.5675 24.64C37.3275 26.92 37.1475 28.9 37.0275 30.58C36.9075 32.22 36.8275 33.3 36.7875 33.82V34.54ZM82.1897 15.1C83.4697 24.82 84.2497 33.86 84.5297 42.22L73.4897 42.94V41.2L60.5297 43.12C59.4097 42.36 58.2697 41.42 57.1097 40.3C56.8297 38.3 56.6297 36.08 56.5097 33.64C56.4297 31.2 56.4097 28.96 56.4497 26.92C56.5297 24.88 56.6097 22.98 56.6897 21.22C56.8097 19.46 56.9097 18.08 56.9897 17.08L57.1697 15.58C58.1297 15.18 59.2297 14.9 60.4697 14.74C61.7497 14.54 62.9497 14.46 64.0697 14.5C65.1897 14.54 66.2297 14.6 67.1897 14.68C68.1497 14.76 68.9097 14.86 69.4697 14.98L70.3097 15.16L73.2497 15.76V15.1H82.1897ZM66.8297 32.68H73.3697L73.3097 25.66L66.2897 24.52L66.8297 32.68ZM112.555 1.84C112.755 5.96 112.855 11.08 112.855 17.2C112.855 23.28 112.775 29.08 112.615 34.6L112.435 42.94C110.075 43.06 106.915 43.12 102.955 43.12C99.0353 43.12 95.6953 43.1 92.9353 43.06L88.7953 42.94L86.1553 39.7C86.0353 38.7 85.9753 37.58 85.9753 36.34C85.9753 35.06 85.9953 33.8 86.0353 32.56C86.1153 31.28 86.1953 30 86.2753 28.72C86.3553 27.44 86.4353 26.26 86.5153 25.18C86.6353 24.06 86.7353 23.08 86.8153 22.24C86.9353 21.36 87.0153 20.68 87.0553 20.2L87.1753 19.48C91.1753 19.08 96.2953 19.38 102.535 20.38L103.675 1.18C106.275 0.939999 109.235 1.16 112.555 1.84ZM101.635 35.38L101.995 28.66C101.595 28.58 101.155 28.52 100.675 28.48C100.195 28.4 99.7353 28.34 99.2953 28.3C98.8553 28.26 98.4153 28.22 97.9753 28.18C97.5353 28.14 97.1353 28.12 96.7753 28.12C96.4153 28.08 96.0753 28.06 95.7553 28.06C95.4753 28.02 95.2753 27.98 95.1553 27.94H94.9153C94.7953 28.82 94.7353 29.8 94.7353 30.88C94.7753 31.96 94.8353 32.94 94.9153 33.82L95.0353 35.2L101.635 35.38ZM143.45 42.04L132.23 42.94C132.11 41.18 131.97 38.84 131.81 35.92C131.69 32.96 131.67 27.84 131.75 20.56C131.83 13.28 132.19 7.1 132.83 2.02C135.67 0.979997 138.81 0.779998 142.25 1.42L148.61 21.04L151.97 1.84C152.13 1.8 152.35 1.76 152.63 1.72C152.91 1.64 153.47 1.54 154.31 1.42C155.19 1.26 156.03 1.14 156.83 1.06C157.67 0.979997 158.61 0.959998 159.65 0.999997C160.73 0.999997 161.71 1.06 162.59 1.18C163.23 1.26 163.81 1.4 164.33 1.6C164.41 19.56 164.81 33.04 165.53 42.04L156.05 42.82L155.57 24.94L153.29 38.74H146.09L142.67 26.56C142.87 33.08 143.13 38.24 143.45 42.04ZM193.166 15.1C194.446 24.82 195.226 33.86 195.506 42.22L184.466 42.94V41.2L171.506 43.12C170.386 42.36 169.246 41.42 168.086 40.3C167.806 38.3 167.606 36.08 167.486 33.64C167.406 31.2 167.386 28.96 167.426 26.92C167.506 24.88 167.586 22.98 167.666 21.22C167.786 19.46 167.886 18.08 167.966 17.08L168.146 15.58C169.106 15.18 170.206 14.9 171.446 14.74C172.726 14.54 173.926 14.46 175.046 14.5C176.166 14.54 177.206 14.6 178.166 14.68C179.126 14.76 179.886 14.86 180.446 14.98L181.286 15.16L184.226 15.76V15.1H193.166ZM177.806 32.68H184.346L184.286 25.66L177.266 24.52L177.806 32.68ZM220.292 14.56C220.452 15.08 220.652 15.82 220.892 16.78C221.132 17.74 221.412 19.62 221.732 22.42C222.092 25.18 222.192 27.84 222.032 30.4C221.152 33.64 220.452 35.88 219.932 37.12C216.332 37.56 212.252 37.5 207.692 36.94L208.712 56.32H197.312L197.612 14.8L206.492 14.56L206.552 15.64C210.592 14.72 215.172 14.36 220.292 14.56ZM207.212 28.78L213.452 29.02L212.912 23.62L207.032 24.76L207.212 28.78Z" fill="#FBFDFF"/>
<path d="M17.46 42.82L16.8443 43.0531L17.0903 43.703L17.7259 43.4223L17.46 42.82ZM11.1 26.02L11.7157 25.7869L10.4447 26.0838L11.1 26.02ZM12.66 42.04L12.7126 42.6963L13.3802 42.6427L13.3153 41.9762L12.66 42.04ZM1.44 42.94L0.781807 42.9555L0.798168 43.652L1.49264 43.5963L1.44 42.94ZM2.04 2.02L1.91391 1.37381L1.40519 1.47307L1.38227 1.99088L2.04 2.02ZM12.78 0.939998L12.7936 1.59827L12.8001 1.59806L12.78 0.939998ZM23.46 1.06L24.0058 0.691872L23.8246 0.423124L23.5011 0.402904L23.46 1.06ZM26.58 17.44H27.2384V17.4072L27.2351 17.3745L26.58 17.44ZM26.58 17.8H25.9216V17.9554L25.9911 18.0944L26.58 17.8ZM26.7 18.46L27.2889 18.7544L27.4361 18.46L27.2889 18.1656L26.7 18.46ZM23.16 24.7L23.2289 25.3548L23.3738 25.3395L23.4987 25.2646L23.16 24.7ZM20.34 25L20.2699 24.3454L19.3568 24.4432L19.7425 25.2766L20.34 25ZM26.7 38.74L26.9659 39.3423L27.579 39.0716L27.2975 38.4634L26.7 38.74ZM10.5 10.6L10.3245 9.96545L9.84163 10.099V10.6H10.5ZM10.5 17.02H9.84163V17.7136L10.5343 17.6775L10.5 17.02ZM17.4 16.66L17.4343 17.3175L17.9959 17.2882L18.0548 16.7289L17.4 16.66ZM17.16 13.84L16.5112 13.9519L16.5135 13.965L16.5162 13.9779L17.16 13.84ZM16.5 11.02L15.8721 11.2183L15.8754 11.2282L16.5 11.02ZM16.14 9.88L16.7678 9.68174L16.6257 9.23181L16.154 9.22177L16.14 9.88ZM18.0757 42.5869L11.7157 25.7869L10.4843 26.2531L16.8443 43.0531L18.0757 42.5869ZM10.4447 26.0838L12.0047 42.1038L13.3153 41.9762L11.7553 25.9562L10.4447 26.0838ZM12.6074 41.3837L1.38736 42.2837L1.49264 43.5963L12.7126 42.6963L12.6074 41.3837ZM2.09819 42.9245C1.81863 31.0229 2.01821 17.3983 2.69773 2.04912L1.38227 1.99088C0.701789 17.3617 0.501375 31.0171 0.781807 42.9555L2.09819 42.9245ZM2.16609 2.66619C5.40364 2.03447 8.94547 1.67757 12.7936 1.59823L12.7664 0.281763C8.85453 0.36242 5.23636 0.725526 1.91391 1.37381L2.16609 2.66619ZM12.8001 1.59806C16.704 1.47856 20.2432 1.51861 23.4189 1.71709L23.5011 0.402904C20.2768 0.201387 16.696 0.161438 12.7599 0.281931L12.8001 1.59806ZM22.9142 1.42812C23.1495 1.77712 23.4093 2.36717 23.678 3.24413C23.9435 4.1107 24.2058 5.2167 24.4633 6.56819C24.978 9.27075 25.4657 12.914 25.9249 17.5055L27.2351 17.3745C26.7743 12.766 26.282 9.07924 25.7567 6.32181C25.4942 4.9433 25.2215 3.78679 24.937 2.85837C24.6557 1.94032 24.3505 1.20287 24.0058 0.691872L22.9142 1.42812ZM25.9216 17.44C25.9216 17.4403 25.9216 17.4406 25.9216 17.4409C25.9216 17.4412 25.9216 17.4416 25.9216 17.4419C25.9216 17.4422 25.9216 17.4425 25.9216 17.4428C25.9216 17.4431 25.9216 17.4434 25.9216 17.4437C25.9216 17.4441 25.9216 17.4444 25.9216 17.4447C25.9216 17.445 25.9216 17.4453 25.9216 17.4456C25.9216 17.4459 25.9216 17.4462 25.9216 17.4465C25.9216 17.4468 25.9216 17.4472 25.9216 17.4475C25.9216 17.4478 25.9216 17.4481 25.9216 17.4484C25.9216 17.4487 25.9216 17.449 25.9216 17.4493C25.9216 17.4496 25.9216 17.4499 25.9216 17.4503C25.9216 17.4506 25.9216 17.4509 25.9216 17.4512C25.9216 17.4515 25.9216 17.4518 25.9216 17.4521C25.9216 17.4524 25.9216 17.4527 25.9216 17.453C25.9216 17.4533 25.9216 17.4536 25.9216 17.454C25.9216 17.4543 25.9216 17.4546 25.9216 17.4549C25.9216 17.4552 25.9216 17.4555 25.9216 17.4558C25.9216 17.4561 25.9216 17.4564 25.9216 17.4567C25.9216 17.457 25.9216 17.4573 25.9216 17.4576C25.9216 17.458 25.9216 17.4583 25.9216 17.4586C25.9216 17.4589 25.9216 17.4592 25.9216 17.4595C25.9216 17.4598 25.9216 17.4601 25.9216 17.4604C25.9216 17.4607 25.9216 17.461 25.9216 17.4613C25.9216 17.4616 25.9216 17.4619 25.9216 17.4622C25.9216 17.4625 25.9216 17.4628 25.9216 17.4632C25.9216 17.4635 25.9216 17.4638 25.9216 17.4641C25.9216 17.4644 25.9216 17.4647 25.9216 17.465C25.9216 17.4653 25.9216 17.4656 25.9216 17.4659C25.9216 17.4662 25.9216 17.4665 25.9216 17.4668C25.9216 17.4671 25.9216 17.4674 25.9216 17.4677C25.9216 17.468 25.9216 17.4683 25.9216 17.4686C25.9216 17.4689 25.9216 17.4692 25.9216 17.4695C25.9216 17.4698 25.9216 17.4701 25.9216 17.4704C25.9216 17.4707 25.9216 17.471 25.9216 17.4713C25.9216 17.4716 25.9216 17.4719 25.9216 17.4722C25.9216 17.4726 25.9216 17.4729 25.9216 17.4732C25.9216 17.4735 25.9216 17.4738 25.9216 17.4741C25.9216 17.4744 25.9216 17.4747 25.9216 17.475C25.9216 17.4753 25.9216 17.4756 25.9216 17.4759C25.9216 17.4762 25.9216 17.4765 25.9216 17.4768C25.9216 17.4771 25.9216 17.4774 25.9216 17.4777C25.9216 17.478 25.9216 17.4783 25.9216 17.4786C25.9216 17.4789 25.9216 17.4792 25.9216 17.4795C25.9216 17.4798 25.9216 17.4801 25.9216 17.4804C25.9216 17.4807 25.9216 17.481 25.9216 17.4813C25.9216 17.4816 25.9216 17.4819 25.9216 17.4822C25.9216 17.4825 25.9216 17.4828 25.9216 17.483C25.9216 17.4833 25.9216 17.4836 25.9216 17.4839C25.9216 17.4842 25.9216 17.4845 25.9216 17.4848C25.9216 17.4851 25.9216 17.4854 25.9216 17.4857C25.9216 17.486 25.9216 17.4863 25.9216 17.4866C25.9216 17.4869 25.9216 17.4872 25.9216 17.4875C25.9216 17.4878 25.9216 17.4881 25.9216 17.4884C25.9216 17.4887 25.9216 17.489 25.9216 17.4893C25.9216 17.4896 25.9216 17.4899 25.9216 17.4902C25.9216 17.4905 25.9216 17.4908 25.9216 17.4911C25.9216 17.4914 25.9216 17.4917 25.9216 17.4919C25.9216 17.4922 25.9216 17.4925 25.9216 17.4928C25.9216 17.4931 25.9216 17.4934 25.9216 17.4937C25.9216 17.494 25.9216 17.4943 25.9216 17.4946C25.9216 17.4949 25.9216 17.4952 25.9216 17.4955C25.9216 17.4958 25.9216 17.4961 25.9216 17.4964C25.9216 17.4967 25.9216 17.497 25.9216 17.4972C25.9216 17.4975 25.9216 17.4978 25.9216 17.4981C25.9216 17.4984 25.9216 17.4987 25.9216 17.499C25.9216 17.4993 25.9216 17.4996 25.9216 17.4999C25.9216 17.5002 25.9216 17.5005 25.9216 17.5008C25.9216 17.501 25.9216 17.5013 25.9216 17.5016C25.9216 17.5019 25.9216 17.5022 25.9216 17.5025C25.9216 17.5028 25.9216 17.5031 25.9216 17.5034C25.9216 17.5037 25.9216 17.504 25.9216 17.5043C25.9216 17.5045 25.9216 17.5048 25.9216 17.5051C25.9216 17.5054 25.9216 17.5057 25.9216 17.506C25.9216 17.5063 25.9216 17.5066 25.9216 17.5069C25.9216 17.5072 25.9216 17.5074 25.9216 17.5077C25.9216 17.508 25.9216 17.5083 25.9216 17.5086C25.9216 17.5089 25.9216 17.5092 25.9216 17.5095C25.9216 17.5098 25.9216 17.51 25.9216 17.5103C25.9216 17.5106 25.9216 17.5109 25.9216 17.5112C25.9216 17.5115 25.9216 17.5118 25.9216 17.5121C25.9216 17.5124 25.9216 17.5126 25.9216 17.5129C25.9216 17.5132 25.9216 17.5135 25.9216 17.5138C25.9216 17.5141 25.9216 17.5144 25.9216 17.5147C25.9216 17.5149 25.9216 17.5152 25.9216 17.5155C25.9216 17.5158 25.9216 17.5161 25.9216 17.5164C25.9216 17.5167 25.9216 17.517 25.9216 17.5172C25.9216 17.5175 25.9216 17.5178 25.9216 17.5181C25.9216 17.5184 25.9216 17.5187 25.9216 17.519C25.9216 17.5192 25.9216 17.5195 25.9216 17.5198C25.9216 17.5201 25.9216 17.5204 25.9216 17.5207C25.9216 17.521 25.9216 17.5212 25.9216 17.5215C25.9216 17.5218 25.9216 17.5221 25.9216 17.5224C25.9216 17.5227 25.9216 17.5229 25.9216 17.5232C25.9216 17.5235 25.9216 17.5238 25.9216 17.5241C25.9216 17.5244 25.9216 17.5246 25.9216 17.5249C25.9216 17.5252 25.9216 17.5255 25.9216 17.5258C25.9216 17.5261 25.9216 17.5263 25.9216 17.5266C25.9216 17.5269 25.9216 17.5272 25.9216 17.5275C25.9216 17.5278 25.9216 17.528 25.9216 17.5283C25.9216 17.5286 25.9216 17.5289 25.9216 17.5292C25.9216 17.5295 25.9216 17.5297 25.9216 17.53C25.9216 17.5303 25.9216 17.5306 25.9216 17.5309C25.9216 17.5311 25.9216 17.5314 25.9216 17.5317C25.9216 17.532 25.9216 17.5323 25.9216 17.5325C25.9216 17.5328 25.9216 17.5331 25.9216 17.5334C25.9216 17.5337 25.9216 17.534 25.9216 17.5342C25.9216 17.5345 25.9216 17.5348 25.9216 17.5351C25.9216 17.5354 25.9216 17.5356 25.9216 17.5359C25.9216 17.5362 25.9216 17.5365 25.9216 17.5367C25.9216 17.537 25.9216 17.5373 25.9216 17.5376C25.9216 17.5379 25.9216 17.5381 25.9216 17.5384C25.9216 17.5387 25.9216 17.539 25.9216 17.5393C25.9216 17.5395 25.9216 17.5398 25.9216 17.5401C25.9216 17.5404 25.9216 17.5406 25.9216 17.5409C25.9216 17.5412 25.9216 17.5415 25.9216 17.5418C25.9216 17.542 25.9216 17.5423 25.9216 17.5426C25.9216 17.5429 25.9216 17.5431 25.9216 17.5434C25.9216 17.5437 25.9216 17.544 25.9216 17.5443C25.9216 17.5445 25.9216 17.5448 25.9216 17.5451C25.9216 17.5454 25.9216 17.5456 25.9216 17.5459C25.9216 17.5462 25.9216 17.5465 25.9216 17.5467C25.9216 17.547 25.9216 17.5473 25.9216 17.5476C25.9216 17.5478 25.9216 17.5481 25.9216 17.5484C25.9216 17.5487 25.9216 17.5489 25.9216 17.5492C25.9216 17.5495 25.9216 17.5498 25.9216 17.55C25.9216 17.5503 25.9216 17.5506 25.9216 17.5509C25.9216 17.5511 25.9216 17.5514 25.9216 17.5517C25.9216 17.552 25.9216 17.5522 25.9216 17.5525C25.9216 17.5528 25.9216 17.553 25.9216 17.5533C25.9216 17.5536 25.9216 17.5539 25.9216 17.5541C25.9216 17.5544 25.9216 17.5547 25.9216 17.555C25.9216 17.5552 25.9216 17.5555 25.9216 17.5558C25.9216 17.556 25.9216 17.5563 25.9216 17.5566C25.9216 17.5569 25.9216 17.5571 25.9216 17.5574C25.9216 17.5577 25.9216 17.5579 25.9216 17.5582C25.9216 17.5585 25.9216 17.5588 25.9216 17.559C25.9216 17.5593 25.9216 17.5596 25.9216 17.5598C25.9216 17.5601 25.9216 17.5604 25.9216 17.5607C25.9216 17.5609 25.9216 17.5612 25.9216 17.5615C25.9216 17.5617 25.9216 17.562 25.9216 17.5623C25.9216 17.5625 25.9216 17.5628 25.9216 17.5631C25.9216 17.5634 25.9216 17.5636 25.9216 17.5639C25.9216 17.5642 25.9216 17.5644 25.9216 17.5647C25.9216 17.565 25.9216 17.5652 25.9216 17.5655C25.9216 17.5658 25.9216 17.566 25.9216 17.5663C25.9216 17.5666 25.9216 17.5668 25.9216 17.5671C25.9216 17.5674 25.9216 17.5677 25.9216 17.5679C25.9216 17.5682 25.9216 17.5685 25.9216 17.5687C25.9216 17.569 25.9216 17.5693 25.9216 17.5695C25.9216 17.5698 25.9216 17.5701 25.9216 17.5703C25.9216 17.5706 25.9216 17.5709 25.9216 17.5711C25.9216 17.5714 25.9216 17.5717 25.9216 17.5719C25.9216 17.5722 25.9216 17.5725 25.9216 17.5727C25.9216 17.573 25.9216 17.5733 25.9216 17.5735C25.9216 17.5738 25.9216 17.574 25.9216 17.5743C25.9216 17.5746 25.9216 17.5748 25.9216 17.5751C25.9216 17.5754 25.9216 17.5756 25.9216 17.5759C25.9216 17.5762 25.9216 17.5764 25.9216 17.5767C25.9216 17.577 25.9216 17.5772 25.9216 17.5775C25.9216 17.5778 25.9216 17.578 25.9216 17.5783C25.9216 17.5785 25.9216 17.5788 25.9216 17.5791C25.9216 17.5793 25.9216 17.5796 25.9216 17.5799C25.9216 17.5801 25.9216 17.5804 25.9216 17.5806C25.9216 17.5809 25.9216 17.5812 25.9216 17.5814C25.9216 17.5817 25.9216 17.582 25.9216 17.5822C25.9216 17.5825 25.9216 17.5827 25.9216 17.583C25.9216 17.5833 25.9216 17.5835 25.9216 17.5838C25.9216 17.5841 25.9216 17.5843 25.9216 17.5846C25.9216 17.5848 25.9216 17.5851 25.9216 17.5854C25.9216 17.5856 25.9216 17.5859 25.9216 17.5861C25.9216 17.5864 25.9216 17.5867 25.9216 17.5869C25.9216 17.5872 25.9216 17.5874 25.9216 17.5877C25.9216 17.588 25.9216 17.5882 25.9216 17.5885C25.9216 17.5887 25.9216 17.589 25.9216 17.5893C25.9216 17.5895 25.9216 17.5898 25.9216 17.59C25.9216 17.5903 25.9216 17.5906 25.9216 17.5908C25.9216 17.5911 25.9216 17.5913 25.9216 17.5916C25.9216 17.5919 25.9216 17.5921 25.9216 17.5924C25.9216 17.5926 25.9216 17.5929 25.9216 17.5931C25.9216 17.5934 25.9216 17.5937 25.9216 17.5939C25.9216 17.5942 25.9216 17.5944 25.9216 17.5947C25.9216 17.5949 25.9216 17.5952 25.9216 17.5955C25.9216 17.5957 25.9216 17.596 25.9216 17.5962C25.9216 17.5965 25.9216 17.5967 25.9216 17.597C25.9216 17.5973 25.9216 17.5975 25.9216 17.5978C25.9216 17.598 25.9216 17.5983 25.9216 17.5985C25.9216 17.5988 25.9216 17.599 25.9216 17.5993C25.9216 17.5996 25.9216 17.5998 25.9216 17.6001C25.9216 17.6003 25.9216 17.6006 25.9216 17.6008C25.9216 17.6011 25.9216 17.6013 25.9216 17.6016C25.9216 17.6019 25.9216 17.6021 25.9216 17.6024C25.9216 17.6026 25.9216 17.6029 25.9216 17.6031C25.9216 17.6034 25.9216 17.6036 25.9216 17.6039C25.9216 17.6041 25.9216 17.6044 25.9216 17.6046C25.9216 17.6049 25.9216 17.6052 25.9216 17.6054C25.9216 17.6057 25.9216 17.6059 25.9216 17.6062C25.9216 17.6064 25.9216 17.6067 25.9216 17.6069C25.9216 17.6072 25.9216 17.6074 25.9216 17.6077C25.9216 17.6079 25.9216 17.6082 25.9216 17.6084C25.9216 17.6087 25.9216 17.6089 25.9216 17.6092C25.9216 17.6094 25.9216 17.6097 25.9216 17.6099C25.9216 17.6102 25.9216 17.6104 25.9216 17.6107C25.9216 17.6109 25.9216 17.6112 25.9216 17.6114C25.9216 17.6117 25.9216 17.6119 25.9216 17.6122C25.9216 17.6124 25.9216 17.6127 25.9216 17.6129C25.9216 17.6132 25.9216 17.6134 25.9216 17.6137C25.9216 17.6139 25.9216 17.6142 25.9216 17.6144C25.9216 17.6147 25.9216 17.6149 25.9216 17.6152C25.9216 17.6154 25.9216 17.6157 25.9216 17.6159C25.9216 17.6162 25.9216 17.6164 25.9216 17.6167C25.9216 17.6169 25.9216 17.6172 25.9216 17.6174C25.9216 17.6177 25.9216 17.6179 25.9216 17.6182C25.9216 17.6184 25.9216 17.6187 25.9216 17.6189C25.9216 17.6192 25.9216 17.6194 25.9216 17.6197C25.9216 17.6199 25.9216 17.6202 25.9216 17.6204C25.9216 17.6206 25.9216 17.6209 25.9216 17.6211C25.9216 17.6214 25.9216 17.6216 25.9216 17.6219C25.9216 17.6221 25.9216 17.6224 25.9216 17.6226C25.9216 17.6229 25.9216 17.6231 25.9216 17.6234C25.9216 17.6236 25.9216 17.6238 25.9216 17.6241C25.9216 17.6243 25.9216 17.6246 25.9216 17.6248C25.9216 17.6251 25.9216 17.6253 25.9216 17.6256C25.9216 17.6258 25.9216 17.6261 25.9216 17.6263C25.9216 17.6265 25.9216 17.6268 25.9216 17.627C25.9216 17.6273 25.9216 17.6275 25.9216 17.6278C25.9216 17.628 25.9216 17.6283 25.9216 17.6285C25.9216 17.6287 25.9216 17.629 25.9216 17.6292C25.9216 17.6295 25.9216 17.6297 25.9216 17.63C25.9216 17.6302 25.9216 17.6304 25.9216 17.6307C25.9216 17.6309 25.9216 17.6312 25.9216 17.6314C25.9216 17.6317 25.9216 17.6319 25.9216 17.6321C25.9216 17.6324 25.9216 17.6326 25.9216 17.6329C25.9216 17.6331 25.9216 17.6333 25.9216 17.6336C25.9216 17.6338 25.9216 17.6341 25.9216 17.6343C25.9216 17.6346 25.9216 17.6348 25.9216 17.635C25.9216 17.6353 25.9216 17.6355 25.9216 17.6358C25.9216 17.636 25.9216 17.6362 25.9216 17.6365C25.9216 17.6367 25.9216 17.637 25.9216 17.6372C25.9216 17.6374 25.9216 17.6377 25.9216 17.6379C25.9216 17.6382 25.9216 17.6384 25.9216 17.6386C25.9216 17.6389 25.9216 17.6391 25.9216 17.6393C25.9216 17.6396 25.9216 17.6398 25.9216 17.6401C25.9216 17.6403 25.9216 17.6405 25.9216 17.6408C25.9216 17.641 25.9216 17.6413 25.9216 17.6415C25.9216 17.6417 25.9216 17.642 25.9216 17.6422C25.9216 17.6424 25.9216 17.6427 25.9216 17.6429C25.9216 17.6432 25.9216 17.6434 25.9216 17.6436C25.9216 17.6439 25.9216 17.6441 25.9216 17.6443C25.9216 17.6446 25.9216 17.6448 25.9216 17.6451C25.9216 17.6453 25.9216 17.6455 25.9216 17.6458C25.9216 17.646 25.9216 17.6462 25.9216 17.6465C25.9216 17.6467 25.9216 17.6469 25.9216 17.6472C25.9216 17.6474 25.9216 17.6476 25.9216 17.6479C25.9216 17.6481 25.9216 17.6484 25.9216 17.6486C25.9216 17.6488 25.9216 17.6491 25.9216 17.6493C25.9216 17.6495 25.9216 17.6498 25.9216 17.65C25.9216 17.6502 25.9216 17.6505 25.9216 17.6507C25.9216 17.6509 25.9216 17.6512 25.9216 17.6514C25.9216 17.6516 25.9216 17.6519 25.9216 17.6521C25.9216 17.6523 25.9216 17.6526 25.9216 17.6528C25.9216 17.653 25.9216 17.6533 25.9216 17.6535C25.9216 17.6537 25.9216 17.654 25.9216 17.6542C25.9216 17.6544 25.9216 17.6547 25.9216 17.6549C25.9216 17.6551 25.9216 17.6554 25.9216 17.6556C25.9216 17.6558 25.9216 17.6561 25.9216 17.6563C25.9216 17.6565 25.9216 17.6568 25.9216 17.657C25.9216 17.6572 25.9216 17.6574 25.9216 17.6577C25.9216 17.6579 25.9216 17.6581 25.9216 17.6584C25.9216 17.6586 25.9216 17.6588 25.9216 17.6591C25.9216 17.6593 25.9216 17.6595 25.9216 17.6598C25.9216 17.66 25.9216 17.6602 25.9216 17.6604C25.9216 17.6607 25.9216 17.6609 25.9216 17.6611C25.9216 17.6614 25.9216 17.6616 25.9216 17.6618C25.9216 17.662 25.9216 17.6623 25.9216 17.6625C25.9216 17.6627 25.9216 17.663 25.9216 17.6632C25.9216 17.6634 25.9216 17.6637 25.9216 17.6639C25.9216 17.6641 25.9216 17.6643 25.9216 17.6646C25.9216 17.6648 25.9216 17.665 25.9216 17.6652C25.9216 17.6655 25.9216 17.6657 25.9216 17.6659C25.9216 17.6662 25.9216 17.6664 25.9216 17.6666C25.9216 17.6668 25.9216 17.6671 25.9216 17.6673C25.9216 17.6675 25.9216 17.6677 25.9216 17.668C25.9216 17.6682 25.9216 17.6684 25.9216 17.6686C25.9216 17.6689 25.9216 17.6691 25.9216 17.6693C25.9216 17.6696 25.9216 17.6698 25.9216 17.67C25.9216 17.6702 25.9216 17.6705 25.9216 17.6707C25.9216 17.6709 25.9216 17.6711 25.9216 17.6714C25.9216 17.6716 25.9216 17.6718 25.9216 17.672C25.9216 17.6723 25.9216 17.6725 25.9216 17.6727C25.9216 17.6729 25.9216 17.6732 25.9216 17.6734C25.9216 17.6736 25.9216 17.6738 25.9216 17.674C25.9216 17.6743 25.9216 17.6745 25.9216 17.6747C25.9216 17.6749 25.9216 17.6752 25.9216 17.6754C25.9216 17.6756 25.9216 17.6758 25.9216 17.6761C25.9216 17.6763 25.9216 17.6765 25.9216 17.6767C25.9216 17.6769 25.9216 17.6772 25.9216 17.6774C25.9216 17.6776 25.9216 17.6778 25.9216 17.6781C25.9216 17.6783 25.9216 17.6785 25.9216 17.6787C25.9216 17.6789 25.9216 17.6792 25.9216 17.6794C25.9216 17.6796 25.9216 17.6798 25.9216 17.68C25.9216 17.6803 25.9216 17.6805 25.9216 17.6807C25.9216 17.6809 25.9216 17.6812 25.9216 17.6814C25.9216 17.6816 25.9216 17.6818 25.9216 17.682C25.9216 17.6823 25.9216 17.6825 25.9216 17.6827C25.9216 17.6829 25.9216 17.6831 25.9216 17.6834C25.9216 17.6836 25.9216 17.6838 25.9216 17.684C25.9216 17.6842 25.9216 17.6844 25.9216 17.6847C25.9216 17.6849 25.9216 17.6851 25.9216 17.6853C25.9216 17.6855 25.9216 17.6858 25.9216 17.686C25.9216 17.6862 25.9216 17.6864 25.9216 17.6866C25.9216 17.6869 25.9216 17.6871 25.9216 17.6873C25.9216 17.6875 25.9216 17.6877 25.9216 17.6879C25.9216 17.6882 25.9216 17.6884 25.9216 17.6886C25.9216 17.6888 25.9216 17.689 25.9216 17.6892C25.9216 17.6895 25.9216 17.6897 25.9216 17.6899C25.9216 17.6901 25.9216 17.6903 25.9216 17.6905C25.9216 17.6908 25.9216 17.691 25.9216 17.6912C25.9216 17.6914 25.9216 17.6916 25.9216 17.6918C25.9216 17.692 25.9216 17.6923 25.9216 17.6925C25.9216 17.6927 25.9216 17.6929 25.9216 17.6931C25.9216 17.6933 25.9216 17.6936 25.9216 17.6938C25.9216 17.694 25.9216 17.6942 25.9216 17.6944C25.9216 17.6946 25.9216 17.6948 25.9216 17.6951C25.9216 17.6953 25.9216 17.6955 25.9216 17.6957C25.9216 17.6959 25.9216 17.6961 25.9216 17.6963C25.9216 17.6965 25.9216 17.6968 25.9216 17.697C25.9216 17.6972 25.9216 17.6974 25.9216 17.6976C25.9216 17.6978 25.9216 17.698 25.9216 17.6982C25.9216 17.6985 25.9216 17.6987 25.9216 17.6989C25.9216 17.6991 25.9216 17.6993 25.9216 17.6995C25.9216 17.6997 25.9216 17.6999 25.9216 17.7002C25.9216 17.7004 25.9216 17.7006 25.9216 17.7008C25.9216 17.701 25.9216 17.7012 25.9216 17.7014C25.9216 17.7016 25.9216 17.7018 25.9216 17.7021C25.9216 17.7023 25.9216 17.7025 25.9216 17.7027C25.9216 17.7029 25.9216 17.7031 25.9216 17.7033C25.9216 17.7035 25.9216 17.7037 25.9216 17.7039C25.9216 17.7042 25.9216 17.7044 25.9216 17.7046C25.9216 17.7048 25.9216 17.705 25.9216 17.7052C25.9216 17.7054 25.9216 17.7056 25.9216 17.7058C25.9216 17.706 25.9216 17.7062 25.9216 17.7065C25.9216 17.7067 25.9216 17.7069 25.9216 17.7071C25.9216 17.7073 25.9216 17.7075 25.9216 17.7077C25.9216 17.7079 25.9216 17.7081 25.9216 17.7083C25.9216 17.7085 25.9216 17.7087 25.9216 17.709C25.9216 17.7092 25.9216 17.7094 25.9216 17.7096C25.9216 17.7098 25.9216 17.71 25.9216 17.7102C25.9216 17.7104 25.9216 17.7106 25.9216 17.7108C25.9216 17.711 25.9216 17.7112 25.9216 17.7114C25.9216 17.7116 25.9216 17.7118 25.9216 17.712C25.9216 17.7123 25.9216 17.7125 25.9216 17.7127C25.9216 17.7129 25.9216 17.7131 25.9216 17.7133C25.9216 17.7135 25.9216 17.7137 25.9216 17.7139C25.9216 17.7141 25.9216 17.7143 25.9216 17.7145C25.9216 17.7147 25.9216 17.7149 25.9216 17.7151C25.9216 17.7153 25.9216 17.7155 25.9216 17.7157C25.9216 17.7159 25.9216 17.7161 25.9216 17.7163C25.9216 17.7165 25.9216 17.7168 25.9216 17.717C25.9216 17.7172 25.9216 17.7174 25.9216 17.7176C25.9216 17.7178 25.9216 17.718 25.9216 17.7182C25.9216 17.7184 25.9216 17.7186 25.9216 17.7188C25.9216 17.719 25.9216 17.7192 25.9216 17.7194C25.9216 17.7196 25.9216 17.7198 25.9216 17.72C25.9216 17.7202 25.9216 17.7204 25.9216 17.7206C25.9216 17.7208 25.9216 17.721 25.9216 17.7212C25.9216 17.7214 25.9216 17.7216 25.9216 17.7218C25.9216 17.722 25.9216 17.7222 25.9216 17.7224C25.9216 17.7226 25.9216 17.7228 25.9216 17.723C25.9216 17.7232 25.9216 17.7234 25.9216 17.7236C25.9216 17.7238 25.9216 17.724 25.9216 17.7242C25.9216 17.7244 25.9216 17.7246 25.9216 17.7248C25.9216 17.725 25.9216 17.7252 25.9216 17.7254C25.9216 17.7256 25.9216 17.7258 25.9216 17.726C25.9216 17.7262 25.9216 17.7264 25.9216 17.7266C25.9216 17.7268 25.9216 17.727 25.9216 17.7272C25.9216 17.7274 25.9216 17.7276 25.9216 17.7278C25.9216 17.728 25.9216 17.7282 25.9216 17.7284C25.9216 17.7286 25.9216 17.7288 25.9216 17.729C25.9216 17.7292 25.9216 17.7294 25.9216 17.7296C25.9216 17.7298 25.9216 17.73 25.9216 17.7301C25.9216 17.7303 25.9216 17.7305 25.9216 17.7307C25.9216 17.7309 25.9216 17.7311 25.9216 17.7313C25.9216 17.7315 25.9216 17.7317 25.9216 17.7319C25.9216 17.7321 25.9216 17.7323 25.9216 17.7325C25.9216 17.7327 25.9216 17.7329 25.9216 17.7331C25.9216 17.7333 25.9216 17.7335 25.9216 17.7337C25.9216 17.7339 25.9216 17.7341 25.9216 17.7343C25.9216 17.7344 25.9216 17.7346 25.9216 17.7348C25.9216 17.735 25.9216 17.7352 25.9216 17.7354C25.9216 17.7356 25.9216 17.7358 25.9216 17.736C25.9216 17.7362 25.9216 17.7364 25.9216 17.7366C25.9216 17.7368 25.9216 17.737 25.9216 17.7372C25.9216 17.7374 25.9216 17.7375 25.9216 17.7377C25.9216 17.7379 25.9216 17.7381 25.9216 17.7383C25.9216 17.7385 25.9216 17.7387 25.9216 17.7389C25.9216 17.7391 25.9216 17.7393 25.9216 17.7395C25.9216 17.7397 25.9216 17.7398 25.9216 17.74C25.9216 17.7402 25.9216 17.7404 25.9216 17.7406C25.9216 17.7408 25.9216 17.741 25.9216 17.7412C25.9216 17.7414 25.9216 17.7416 25.9216 17.7418C25.9216 17.7419 25.9216 17.7421 25.9216 17.7423C25.9216 17.7425 25.9216 17.7427 25.9216 17.7429C25.9216 17.7431 25.9216 17.7433 25.9216 17.7435C25.9216 17.7437 25.9216 17.7438 25.9216 17.744C25.9216 17.7442 25.9216 17.7444 25.9216 17.7446C25.9216 17.7448 25.9216 17.745 25.9216 17.7452C25.9216 17.7454 25.9216 17.7455 25.9216 17.7457C25.9216 17.7459 25.9216 17.7461 25.9216 17.7463C25.9216 17.7465 25.9216 17.7467 25.9216 17.7469C25.9216 17.747 25.9216 17.7472 25.9216 17.7474C25.9216 17.7476 25.9216 17.7478 25.9216 17.748C25.9216 17.7482 25.9216 17.7484 25.9216 17.7485C25.9216 17.7487 25.9216 17.7489 25.9216 17.7491C25.9216 17.7493 25.9216 17.7495 25.9216 17.7497C25.9216 17.7499 25.9216 17.75 25.9216 17.7502C25.9216 17.7504 25.9216 17.7506 25.9216 17.7508C25.9216 17.751 25.9216 17.7512 25.9216 17.7513C25.9216 17.7515 25.9216 17.7517 25.9216 17.7519C25.9216 17.7521 25.9216 17.7523 25.9216 17.7524C25.9216 17.7526 25.9216 17.7528 25.9216 17.753C25.9216 17.7532 25.9216 17.7534 25.9216 17.7536C25.9216 17.7537 25.9216 17.7539 25.9216 17.7541C25.9216 17.7543 25.9216 17.7545 25.9216 17.7547C25.9216 17.7548 25.9216 17.755 25.9216 17.7552C25.9216 17.7554 25.9216 17.7556 25.9216 17.7558C25.9216 17.7559 25.9216 17.7561 25.9216 17.7563C25.9216 17.7565 25.9216 17.7567 25.9216 17.7568C25.9216 17.757 25.9216 17.7572 25.9216 17.7574C25.9216 17.7576 25.9216 17.7578 25.9216 17.7579C25.9216 17.7581 25.9216 17.7583 25.9216 17.7585C25.9216 17.7587 25.9216 17.7588 25.9216 17.759C25.9216 17.7592 25.9216 17.7594 25.9216 17.7596C25.9216 17.7598 25.9216 17.7599 25.9216 17.7601C25.9216 17.7603 25.9216 17.7605 25.9216 17.7607C25.9216 17.7608 25.9216 17.761 25.9216 17.7612C25.9216 17.7614 25.9216 17.7616 25.9216 17.7617C25.9216 17.7619 25.9216 17.7621 25.9216 17.7623C25.9216 17.7624 25.9216 17.7626 25.9216 17.7628C25.9216 17.763 25.9216 17.7632 25.9216 17.7633C25.9216 17.7635 25.9216 17.7637 25.9216 17.7639C25.9216 17.7641 25.9216 17.7642 25.9216 17.7644C25.9216 17.7646 25.9216 17.7648 25.9216 17.7649C25.9216 17.7651 25.9216 17.7653 25.9216 17.7655C25.9216 17.7657 25.9216 17.7658 25.9216 17.766C25.9216 17.7662 25.9216 17.7664 25.9216 17.7665C25.9216 17.7667 25.9216 17.7669 25.9216 17.7671C25.9216 17.7672 25.9216 17.7674 25.9216 17.7676C25.9216 17.7678 25.9216 17.7679 25.9216 17.7681C25.9216 17.7683 25.9216 17.7685 25.9216 17.7687C25.9216 17.7688 25.9216 17.769 25.9216 17.7692C25.9216 17.7694 25.9216 17.7695 25.9216 17.7697C25.9216 17.7699 25.9216 17.7701 25.9216 17.7702C25.9216 17.7704 25.9216 17.7706 25.9216 17.7708C25.9216 17.7709 25.9216 17.7711 25.9216 17.7713C25.9216 17.7714 25.9216 17.7716 25.9216 17.7718C25.9216 17.772 25.9216 17.7721 25.9216 17.7723C25.9216 17.7725 25.9216 17.7727 25.9216 17.7728C25.9216 17.773 25.9216 17.7732 25.9216 17.7734C25.9216 17.7735 25.9216 17.7737 25.9216 17.7739C25.9216 17.774 25.9216 17.7742 25.9216 17.7744C25.9216 17.7746 25.9216 17.7747 25.9216 17.7749C25.9216 17.7751 25.9216 17.7752 25.9216 17.7754C25.9216 17.7756 25.9216 17.7758 25.9216 17.7759C25.9216 17.7761 25.9216 17.7763 25.9216 17.7764C25.9216 17.7766 25.9216 17.7768 25.9216 17.777C25.9216 17.7771 25.9216 17.7773 25.9216 17.7775C25.9216 17.7776 25.9216 17.7778 25.9216 17.778C25.9216 17.7781 25.9216 17.7783 25.9216 17.7785C25.9216 17.7787 25.9216 17.7788 25.9216 17.779C25.9216 17.7792 25.9216 17.7793 25.9216 17.7795C25.9216 17.7797 25.9216 17.7798 25.9216 17.78C25.9216 17.7802 25.9216 17.7803 25.9216 17.7805C25.9216 17.7807 25.9216 17.7809 25.9216 17.781C25.9216 17.7812 25.9216 17.7814 25.9216 17.7815C25.9216 17.7817 25.9216 17.7819 25.9216 17.782C25.9216 17.7822 25.9216 17.7824 25.9216 17.7825C25.9216 17.7827 25.9216 17.7829 25.9216 17.783C25.9216 17.7832 25.9216 17.7834 25.9216 17.7835C25.9216 17.7837 25.9216 17.7839 25.9216 17.784C25.9216 17.7842 25.9216 17.7844 25.9216 17.7845C25.9216 17.7847 25.9216 17.7849 25.9216 17.785C25.9216 17.7852 25.9216 17.7854 25.9216 17.7855C25.9216 17.7857 25.9216 17.7859 25.9216 17.786C25.9216 17.7862 25.9216 17.7864 25.9216 17.7865C25.9216 17.7867 25.9216 17.7868 25.9216 17.787C25.9216 17.7872 25.9216 17.7873 25.9216 17.7875C25.9216 17.7877 25.9216 17.7878 25.9216 17.788C25.9216 17.7882 25.9216 17.7883 25.9216 17.7885C25.9216 17.7886 25.9216 17.7888 25.9216 17.789C25.9216 17.7891 25.9216 17.7893 25.9216 17.7895C25.9216 17.7896 25.9216 17.7898 25.9216 17.79C25.9216 17.7901 25.9216 17.7903 25.9216 17.7904C25.9216 17.7906 25.9216 17.7908 25.9216 17.7909C25.9216 17.7911 25.9216 17.7913 25.9216 17.7914C25.9216 17.7916 25.9216 17.7917 25.9216 17.7919C25.9216 17.7921 25.9216 17.7922 25.9216 17.7924C25.9216 17.7925 25.9216 17.7927 25.9216 17.7929C25.9216 17.793 25.9216 17.7932 25.9216 17.7933C25.9216 17.7935 25.9216 17.7937 25.9216 17.7938C25.9216 17.794 25.9216 17.7941 25.9216 17.7943C25.9216 17.7945 25.9216 17.7946 25.9216 17.7948C25.9216 17.7949 25.9216 17.7951 25.9216 17.7953C25.9216 17.7954 25.9216 17.7956 25.9216 17.7957C25.9216 17.7959 25.9216 17.7961 25.9216 17.7962C25.9216 17.7964 25.9216 17.7965 25.9216 17.7967C25.9216 17.7969 25.9216 17.797 25.9216 17.7972C25.9216 17.7973 25.9216 17.7975 25.9216 17.7976C25.9216 17.7978 25.9216 17.798 25.9216 17.7981C25.9216 17.7983 25.9216 17.7984 25.9216 17.7986C25.9216 17.7987 25.9216 17.7989 25.9216 17.7991C25.9216 17.7992 25.9216 17.7994 25.9216 17.7995C25.9216 17.7997 25.9216 17.7998 25.9216 17.8H27.2384C27.2384 17.7998 27.2384 17.7997 27.2384 17.7995C27.2384 17.7994 27.2384 17.7992 27.2384 17.7991C27.2384 17.7989 27.2384 17.7987 27.2384 17.7986C27.2384 17.7984 27.2384 17.7983 27.2384 17.7981C27.2384 17.798 27.2384 17.7978 27.2384 17.7976C27.2384 17.7975 27.2384 17.7973 27.2384 17.7972C27.2384 17.797 27.2384 17.7969 27.2384 17.7967C27.2384 17.7965 27.2384 17.7964 27.2384 17.7962C27.2384 17.7961 27.2384 17.7959 27.2384 17.7957C27.2384 17.7956 27.2384 17.7954 27.2384 17.7953C27.2384 17.7951 27.2384 17.7949 27.2384 17.7948C27.2384 17.7946 27.2384 17.7945 27.2384 17.7943C27.2384 17.7941 27.2384 17.794 27.2384 17.7938C27.2384 17.7937 27.2384 17.7935 27.2384 17.7933C27.2384 17.7932 27.2384 17.793 27.2384 17.7929C27.2384 17.7927 27.2384 17.7925 27.2384 17.7924C27.2384 17.7922 27.2384 17.7921 27.2384 17.7919C27.2384 17.7917 27.2384 17.7916 27.2384 17.7914C27.2384 17.7913 27.2384 17.7911 27.2384 17.7909C27.2384 17.7908 27.2384 17.7906 27.2384 17.7904C27.2384 17.7903 27.2384 17.7901 27.2384 17.79C27.2384 17.7898 27.2384 17.7896 27.2384 17.7895C27.2384 17.7893 27.2384 17.7891 27.2384 17.789C27.2384 17.7888 27.2384 17.7886 27.2384 17.7885C27.2384 17.7883 27.2384 17.7882 27.2384 17.788C27.2384 17.7878 27.2384 17.7877 27.2384 17.7875C27.2384 17.7873 27.2384 17.7872 27.2384 17.787C27.2384 17.7868 27.2384 17.7867 27.2384 17.7865C27.2384 17.7864 27.2384 17.7862 27.2384 17.786C27.2384 17.7859 27.2384 17.7857 27.2384 17.7855C27.2384 17.7854 27.2384 17.7852 27.2384 17.785C27.2384 17.7849 27.2384 17.7847 27.2384 17.7845C27.2384 17.7844 27.2384 17.7842 27.2384 17.784C27.2384 17.7839 27.2384 17.7837 27.2384 17.7835C27.2384 17.7834 27.2384 17.7832 27.2384 17.783C27.2384 17.7829 27.2384 17.7827 27.2384 17.7825C27.2384 17.7824 27.2384 17.7822 27.2384 17.782C27.2384 17.7819 27.2384 17.7817 27.2384 17.7815C27.2384 17.7814 27.2384 17.7812 27.2384 17.781C27.2384 17.7809 27.2384 17.7807 27.2384 17.7805C27.2384 17.7803 27.2384 17.7802 27.2384 17.78C27.2384 17.7798 27.2384 17.7797 27.2384 17.7795C27.2384 17.7793 27.2384 17.7792 27.2384 17.779C27.2384 17.7788 27.2384 17.7787 27.2384 17.7785C27.2384 17.7783 27.2384 17.7781 27.2384 17.778C27.2384 17.7778 27.2384 17.7776 27.2384 17.7775C27.2384 17.7773 27.2384 17.7771 27.2384 17.777C27.2384 17.7768 27.2384 17.7766 27.2384 17.7764C27.2384 17.7763 27.2384 17.7761 27.2384 17.7759C27.2384 17.7758 27.2384 17.7756 27.2384 17.7754C27.2384 17.7752 27.2384 17.7751 27.2384 17.7749C27.2384 17.7747 27.2384 17.7746 27.2384 17.7744C27.2384 17.7742 27.2384 17.774 27.2384 17.7739C27.2384 17.7737 27.2384 17.7735 27.2384 17.7734C27.2384 17.7732 27.2384 17.773 27.2384 17.7728C27.2384 17.7727 27.2384 17.7725 27.2384 17.7723C27.2384 17.7721 27.2384 17.772 27.2384 17.7718C27.2384 17.7716 27.2384 17.7714 27.2384 17.7713C27.2384 17.7711 27.2384 17.7709 27.2384 17.7708C27.2384 17.7706 27.2384 17.7704 27.2384 17.7702C27.2384 17.7701 27.2384 17.7699 27.2384 17.7697C27.2384 17.7695 27.2384 17.7694 27.2384 17.7692C27.2384 17.769 27.2384 17.7688 27.2384 17.7687C27.2384 17.7685 27.2384 17.7683 27.2384 17.7681C27.2384 17.7679 27.2384 17.7678 27.2384 17.7676C27.2384 17.7674 27.2384 17.7672 27.2384 17.7671C27.2384 17.7669 27.2384 17.7667 27.2384 17.7665C27.2384 17.7664 27.2384 17.7662 27.2384 17.766C27.2384 17.7658 27.2384 17.7657 27.2384 17.7655C27.2384 17.7653 27.2384 17.7651 27.2384 17.7649C27.2384 17.7648 27.2384 17.7646 27.2384 17.7644C27.2384 17.7642 27.2384 17.7641 27.2384 17.7639C27.2384 17.7637 27.2384 17.7635 27.2384 17.7633C27.2384 17.7632 27.2384 17.763 27.2384 17.7628C27.2384 17.7626 27.2384 17.7624 27.2384 17.7623C27.2384 17.7621 27.2384 17.7619 27.2384 17.7617C27.2384 17.7616 27.2384 17.7614 27.2384 17.7612C27.2384 17.761 27.2384 17.7608 27.2384 17.7607C27.2384 17.7605 27.2384 17.7603 27.2384 17.7601C27.2384 17.7599 27.2384 17.7598 27.2384 17.7596C27.2384 17.7594 27.2384 17.7592 27.2384 17.759C27.2384 17.7588 27.2384 17.7587 27.2384 17.7585C27.2384 17.7583 27.2384 17.7581 27.2384 17.7579C27.2384 17.7578 27.2384 17.7576 27.2384 17.7574C27.2384 17.7572 27.2384 17.757 27.2384 17.7568C27.2384 17.7567 27.2384 17.7565 27.2384 17.7563C27.2384 17.7561 27.2384 17.7559 27.2384 17.7558C27.2384 17.7556 27.2384 17.7554 27.2384 17.7552C27.2384 17.755 27.2384 17.7548 27.2384 17.7547C27.2384 17.7545 27.2384 17.7543 27.2384 17.7541C27.2384 17.7539 27.2384 17.7537 27.2384 17.7536C27.2384 17.7534 27.2384 17.7532 27.2384 17.753C27.2384 17.7528 27.2384 17.7526 27.2384 17.7524C27.2384 17.7523 27.2384 17.7521 27.2384 17.7519C27.2384 17.7517 27.2384 17.7515 27.2384 17.7513C27.2384 17.7512 27.2384 17.751 27.2384 17.7508C27.2384 17.7506 27.2384 17.7504 27.2384 17.7502C27.2384 17.75 27.2384 17.7499 27.2384 17.7497C27.2384 17.7495 27.2384 17.7493 27.2384 17.7491C27.2384 17.7489 27.2384 17.7487 27.2384 17.7485C27.2384 17.7484 27.2384 17.7482 27.2384 17.748C27.2384 17.7478 27.2384 17.7476 27.2384 17.7474C27.2384 17.7472 27.2384 17.747 27.2384 17.7469C27.2384 17.7467 27.2384 17.7465 27.2384 17.7463C27.2384 17.7461 27.2384 17.7459 27.2384 17.7457C27.2384 17.7455 27.2384 17.7454 27.2384 17.7452C27.2384 17.745 27.2384 17.7448 27.2384 17.7446C27.2384 17.7444 27.2384 17.7442 27.2384 17.744C27.2384 17.7438 27.2384 17.7437 27.2384 17.7435C27.2384 17.7433 27.2384 17.7431 27.2384 17.7429C27.2384 17.7427 27.2384 17.7425 27.2384 17.7423C27.2384 17.7421 27.2384 17.7419 27.2384 17.7418C27.2384 17.7416 27.2384 17.7414 27.2384 17.7412C27.2384 17.741 27.2384 17.7408 27.2384 17.7406C27.2384 17.7404 27.2384 17.7402 27.2384 17.74C27.2384 17.7398 27.2384 17.7397 27.2384 17.7395C27.2384 17.7393 27.2384 17.7391 27.2384 17.7389C27.2384 17.7387 27.2384 17.7385 27.2384 17.7383C27.2384 17.7381 27.2384 17.7379 27.2384 17.7377C27.2384 17.7375 27.2384 17.7374 27.2384 17.7372C27.2384 17.737 27.2384 17.7368 27.2384 17.7366C27.2384 17.7364 27.2384 17.7362 27.2384 17.736C27.2384 17.7358 27.2384 17.7356 27.2384 17.7354C27.2384 17.7352 27.2384 17.735 27.2384 17.7348C27.2384 17.7346 27.2384 17.7344 27.2384 17.7343C27.2384 17.7341 27.2384 17.7339 27.2384 17.7337C27.2384 17.7335 27.2384 17.7333 27.2384 17.7331C27.2384 17.7329 27.2384 17.7327 27.2384 17.7325C27.2384 17.7323 27.2384 17.7321 27.2384 17.7319C27.2384 17.7317 27.2384 17.7315 27.2384 17.7313C27.2384 17.7311 27.2384 17.7309 27.2384 17.7307C27.2384 17.7305 27.2384 17.7303 27.2384 17.7301C27.2384 17.73 27.2384 17.7298 27.2384 17.7296C27.2384 17.7294 27.2384 17.7292 27.2384 17.729C27.2384 17.7288 27.2384 17.7286 27.2384 17.7284C27.2384 17.7282 27.2384 17.728 27.2384 17.7278C27.2384 17.7276 27.2384 17.7274 27.2384 17.7272C27.2384 17.727 27.2384 17.7268 27.2384 17.7266C27.2384 17.7264 27.2384 17.7262 27.2384 17.726C27.2384 17.7258 27.2384 17.7256 27.2384 17.7254C27.2384 17.7252 27.2384 17.725 27.2384 17.7248C27.2384 17.7246 27.2384 17.7244 27.2384 17.7242C27.2384 17.724 27.2384 17.7238 27.2384 17.7236C27.2384 17.7234 27.2384 17.7232 27.2384 17.723C27.2384 17.7228 27.2384 17.7226 27.2384 17.7224C27.2384 17.7222 27.2384 17.722 27.2384 17.7218C27.2384 17.7216 27.2384 17.7214 27.2384 17.7212C27.2384 17.721 27.2384 17.7208 27.2384 17.7206C27.2384 17.7204 27.2384 17.7202 27.2384 17.72C27.2384 17.7198 27.2384 17.7196 27.2384 17.7194C27.2384 17.7192 27.2384 17.719 27.2384 17.7188C27.2384 17.7186 27.2384 17.7184 27.2384 17.7182C27.2384 17.718 27.2384 17.7178 27.2384 17.7176C27.2384 17.7174 27.2384 17.7172 27.2384 17.717C27.2384 17.7168 27.2384 17.7165 27.2384 17.7163C27.2384 17.7161 27.2384 17.7159 27.2384 17.7157C27.2384 17.7155 27.2384 17.7153 27.2384 17.7151C27.2384 17.7149 27.2384 17.7147 27.2384 17.7145C27.2384 17.7143 27.2384 17.7141 27.2384 17.7139C27.2384 17.7137 27.2384 17.7135 27.2384 17.7133C27.2384 17.7131 27.2384 17.7129 27.2384 17.7127C27.2384 17.7125 27.2384 17.7123 27.2384 17.712C27.2384 17.7118 27.2384 17.7116 27.2384 17.7114C27.2384 17.7112 27.2384 17.711 27.2384 17.7108C27.2384 17.7106 27.2384 17.7104 27.2384 17.7102C27.2384 17.71 27.2384 17.7098 27.2384 17.7096C27.2384 17.7094 27.2384 17.7092 27.2384 17.709C27.2384 17.7087 27.2384 17.7085 27.2384 17.7083C27.2384 17.7081 27.2384 17.7079 27.2384 17.7077C27.2384 17.7075 27.2384 17.7073 27.2384 17.7071C27.2384 17.7069 27.2384 17.7067 27.2384 17.7065C27.2384 17.7062 27.2384 17.706 27.2384 17.7058C27.2384 17.7056 27.2384 17.7054 27.2384 17.7052C27.2384 17.705 27.2384 17.7048 27.2384 17.7046C27.2384 17.7044 27.2384 17.7042 27.2384 17.7039C27.2384 17.7037 27.2384 17.7035 27.2384 17.7033C27.2384 17.7031 27.2384 17.7029 27.2384 17.7027C27.2384 17.7025 27.2384 17.7023 27.2384 17.7021C27.2384 17.7018 27.2384 17.7016 27.2384 17.7014C27.2384 17.7012 27.2384 17.701 27.2384 17.7008C27.2384 17.7006 27.2384 17.7004 27.2384 17.7002C27.2384 17.6999 27.2384 17.6997 27.2384 17.6995C27.2384 17.6993 27.2384 17.6991 27.2384 17.6989C27.2384 17.6987 27.2384 17.6985 27.2384 17.6982C27.2384 17.698 27.2384 17.6978 27.2384 17.6976C27.2384 17.6974 27.2384 17.6972 27.2384 17.697C27.2384 17.6968 27.2384 17.6965 27.2384 17.6963C27.2384 17.6961 27.2384 17.6959 27.2384 17.6957C27.2384 17.6955 27.2384 17.6953 27.2384 17.6951C27.2384 17.6948 27.2384 17.6946 27.2384 17.6944C27.2384 17.6942 27.2384 17.694 27.2384 17.6938C27.2384 17.6936 27.2384 17.6933 27.2384 17.6931C27.2384 17.6929 27.2384 17.6927 27.2384 17.6925C27.2384 17.6923 27.2384 17.692 27.2384 17.6918C27.2384 17.6916 27.2384 17.6914 27.2384 17.6912C27.2384 17.691 27.2384 17.6908 27.2384 17.6905C27.2384 17.6903 27.2384 17.6901 27.2384 17.6899C27.2384 17.6897 27.2384 17.6895 27.2384 17.6892C27.2384 17.689 27.2384 17.6888 27.2384 17.6886C27.2384 17.6884 27.2384 17.6882 27.2384 17.6879C27.2384 17.6877 27.2384 17.6875 27.2384 17.6873C27.2384 17.6871 27.2384 17.6869 27.2384 17.6866C27.2384 17.6864 27.2384 17.6862 27.2384 17.686C27.2384 17.6858 27.2384 17.6855 27.2384 17.6853C27.2384 17.6851 27.2384 17.6849 27.2384 17.6847C27.2384 17.6844 27.2384 17.6842 27.2384 17.684C27.2384 17.6838 27.2384 17.6836 27.2384 17.6834C27.2384 17.6831 27.2384 17.6829 27.2384 17.6827C27.2384 17.6825 27.2384 17.6823 27.2384 17.682C27.2384 17.6818 27.2384 17.6816 27.2384 17.6814C27.2384 17.6812 27.2384 17.6809 27.2384 17.6807C27.2384 17.6805 27.2384 17.6803 27.2384 17.68C27.2384 17.6798 27.2384 17.6796 27.2384 17.6794C27.2384 17.6792 27.2384 17.6789 27.2384 17.6787C27.2384 17.6785 27.2384 17.6783 27.2384 17.6781C27.2384 17.6778 27.2384 17.6776 27.2384 17.6774C27.2384 17.6772 27.2384 17.6769 27.2384 17.6767C27.2384 17.6765 27.2384 17.6763 27.2384 17.6761C27.2384 17.6758 27.2384 17.6756 27.2384 17.6754C27.2384 17.6752 27.2384 17.6749 27.2384 17.6747C27.2384 17.6745 27.2384 17.6743 27.2384 17.674C27.2384 17.6738 27.2384 17.6736 27.2384 17.6734C27.2384 17.6732 27.2384 17.6729 27.2384 17.6727C27.2384 17.6725 27.2384 17.6723 27.2384 17.672C27.2384 17.6718 27.2384 17.6716 27.2384 17.6714C27.2384 17.6711 27.2384 17.6709 27.2384 17.6707C27.2384 17.6705 27.2384 17.6702 27.2384 17.67C27.2384 17.6698 27.2384 17.6696 27.2384 17.6693C27.2384 17.6691 27.2384 17.6689 27.2384 17.6686C27.2384 17.6684 27.2384 17.6682 27.2384 17.668C27.2384 17.6677 27.2384 17.6675 27.2384 17.6673C27.2384 17.6671 27.2384 17.6668 27.2384 17.6666C27.2384 17.6664 27.2384 17.6662 27.2384 17.6659C27.2384 17.6657 27.2384 17.6655 27.2384 17.6652C27.2384 17.665 27.2384 17.6648 27.2384 17.6646C27.2384 17.6643 27.2384 17.6641 27.2384 17.6639C27.2384 17.6637 27.2384 17.6634 27.2384 17.6632C27.2384 17.663 27.2384 17.6627 27.2384 17.6625C27.2384 17.6623 27.2384 17.662 27.2384 17.6618C27.2384 17.6616 27.2384 17.6614 27.2384 17.6611C27.2384 17.6609 27.2384 17.6607 27.2384 17.6604C27.2384 17.6602 27.2384 17.66 27.2384 17.6598C27.2384 17.6595 27.2384 17.6593 27.2384 17.6591C27.2384 17.6588 27.2384 17.6586 27.2384 17.6584C27.2384 17.6581 27.2384 17.6579 27.2384 17.6577C27.2384 17.6574 27.2384 17.6572 27.2384 17.657C27.2384 17.6568 27.2384 17.6565 27.2384 17.6563C27.2384 17.6561 27.2384 17.6558 27.2384 17.6556C27.2384 17.6554 27.2384 17.6551 27.2384 17.6549C27.2384 17.6547 27.2384 17.6544 27.2384 17.6542C27.2384 17.654 27.2384 17.6537 27.2384 17.6535C27.2384 17.6533 27.2384 17.653 27.2384 17.6528C27.2384 17.6526 27.2384 17.6523 27.2384 17.6521C27.2384 17.6519 27.2384 17.6516 27.2384 17.6514C27.2384 17.6512 27.2384 17.6509 27.2384 17.6507C27.2384 17.6505 27.2384 17.6502 27.2384 17.65C27.2384 17.6498 27.2384 17.6495 27.2384 17.6493C27.2384 17.6491 27.2384 17.6488 27.2384 17.6486C27.2384 17.6484 27.2384 17.6481 27.2384 17.6479C27.2384 17.6476 27.2384 17.6474 27.2384 17.6472C27.2384 17.6469 27.2384 17.6467 27.2384 17.6465C27.2384 17.6462 27.2384 17.646 27.2384 17.6458C27.2384 17.6455 27.2384 17.6453 27.2384 17.6451C27.2384 17.6448 27.2384 17.6446 27.2384 17.6443C27.2384 17.6441 27.2384 17.6439 27.2384 17.6436C27.2384 17.6434 27.2384 17.6432 27.2384 17.6429C27.2384 17.6427 27.2384 17.6424 27.2384 17.6422C27.2384 17.642 27.2384 17.6417 27.2384 17.6415C27.2384 17.6413 27.2384 17.641 27.2384 17.6408C27.2384 17.6405 27.2384 17.6403 27.2384 17.6401C27.2384 17.6398 27.2384 17.6396 27.2384 17.6393C27.2384 17.6391 27.2384 17.6389 27.2384 17.6386C27.2384 17.6384 27.2384 17.6382 27.2384 17.6379C27.2384 17.6377 27.2384 17.6374 27.2384 17.6372C27.2384 17.637 27.2384 17.6367 27.2384 17.6365C27.2384 17.6362 27.2384 17.636 27.2384 17.6358C27.2384 17.6355 27.2384 17.6353 27.2384 17.635C27.2384 17.6348 27.2384 17.6346 27.2384 17.6343C27.2384 17.6341 27.2384 17.6338 27.2384 17.6336C27.2384 17.6333 27.2384 17.6331 27.2384 17.6329C27.2384 17.6326 27.2384 17.6324 27.2384 17.6321C27.2384 17.6319 27.2384 17.6317 27.2384 17.6314C27.2384 17.6312 27.2384 17.6309 27.2384 17.6307C27.2384 17.6304 27.2384 17.6302 27.2384 17.63C27.2384 17.6297 27.2384 17.6295 27.2384 17.6292C27.2384 17.629 27.2384 17.6287 27.2384 17.6285C27.2384 17.6283 27.2384 17.628 27.2384 17.6278C27.2384 17.6275 27.2384 17.6273 27.2384 17.627C27.2384 17.6268 27.2384 17.6265 27.2384 17.6263C27.2384 17.6261 27.2384 17.6258 27.2384 17.6256C27.2384 17.6253 27.2384 17.6251 27.2384 17.6248C27.2384 17.6246 27.2384 17.6243 27.2384 17.6241C27.2384 17.6238 27.2384 17.6236 27.2384 17.6234C27.2384 17.6231 27.2384 17.6229 27.2384 17.6226C27.2384 17.6224 27.2384 17.6221 27.2384 17.6219C27.2384 17.6216 27.2384 17.6214 27.2384 17.6211C27.2384 17.6209 27.2384 17.6206 27.2384 17.6204C27.2384 17.6202 27.2384 17.6199 27.2384 17.6197C27.2384 17.6194 27.2384 17.6192 27.2384 17.6189C27.2384 17.6187 27.2384 17.6184 27.2384 17.6182C27.2384 17.6179 27.2384 17.6177 27.2384 17.6174C27.2384 17.6172 27.2384 17.6169 27.2384 17.6167C27.2384 17.6164 27.2384 17.6162 27.2384 17.6159C27.2384 17.6157 27.2384 17.6154 27.2384 17.6152C27.2384 17.6149 27.2384 17.6147 27.2384 17.6144C27.2384 17.6142 27.2384 17.6139 27.2384 17.6137C27.2384 17.6134 27.2384 17.6132 27.2384 17.6129C27.2384 17.6127 27.2384 17.6124 27.2384 17.6122C27.2384 17.6119 27.2384 17.6117 27.2384 17.6114C27.2384 17.6112 27.2384 17.6109 27.2384 17.6107C27.2384 17.6104 27.2384 17.6102 27.2384 17.6099C27.2384 17.6097 27.2384 17.6094 27.2384 17.6092C27.2384 17.6089 27.2384 17.6087 27.2384 17.6084C27.2384 17.6082 27.2384 17.6079 27.2384 17.6077C27.2384 17.6074 27.2384 17.6072 27.2384 17.6069C27.2384 17.6067 27.2384 17.6064 27.2384 17.6062C27.2384 17.6059 27.2384 17.6057 27.2384 17.6054C27.2384 17.6052 27.2384 17.6049 27.2384 17.6046C27.2384 17.6044 27.2384 17.6041 27.2384 17.6039C27.2384 17.6036 27.2384 17.6034 27.2384 17.6031C27.2384 17.6029 27.2384 17.6026 27.2384 17.6024C27.2384 17.6021 27.2384 17.6019 27.2384 17.6016C27.2384 17.6013 27.2384 17.6011 27.2384 17.6008C27.2384 17.6006 27.2384 17.6003 27.2384 17.6001C27.2384 17.5998 27.2384 17.5996 27.2384 17.5993C27.2384 17.599 27.2384 17.5988 27.2384 17.5985C27.2384 17.5983 27.2384 17.598 27.2384 17.5978C27.2384 17.5975 27.2384 17.5973 27.2384 17.597C27.2384 17.5967 27.2384 17.5965 27.2384 17.5962C27.2384 17.596 27.2384 17.5957 27.2384 17.5955C27.2384 17.5952 27.2384 17.5949 27.2384 17.5947C27.2384 17.5944 27.2384 17.5942 27.2384 17.5939C27.2384 17.5937 27.2384 17.5934 27.2384 17.5931C27.2384 17.5929 27.2384 17.5926 27.2384 17.5924C27.2384 17.5921 27.2384 17.5919 27.2384 17.5916C27.2384 17.5913 27.2384 17.5911 27.2384 17.5908C27.2384 17.5906 27.2384 17.5903 27.2384 17.59C27.2384 17.5898 27.2384 17.5895 27.2384 17.5893C27.2384 17.589 27.2384 17.5887 27.2384 17.5885C27.2384 17.5882 27.2384 17.588 27.2384 17.5877C27.2384 17.5874 27.2384 17.5872 27.2384 17.5869C27.2384 17.5867 27.2384 17.5864 27.2384 17.5861C27.2384 17.5859 27.2384 17.5856 27.2384 17.5854C27.2384 17.5851 27.2384 17.5848 27.2384 17.5846C27.2384 17.5843 27.2384 17.5841 27.2384 17.5838C27.2384 17.5835 27.2384 17.5833 27.2384 17.583C27.2384 17.5827 27.2384 17.5825 27.2384 17.5822C27.2384 17.582 27.2384 17.5817 27.2384 17.5814C27.2384 17.5812 27.2384 17.5809 27.2384 17.5806C27.2384 17.5804 27.2384 17.5801 27.2384 17.5799C27.2384 17.5796 27.2384 17.5793 27.2384 17.5791C27.2384 17.5788 27.2384 17.5785 27.2384 17.5783C27.2384 17.578 27.2384 17.5778 27.2384 17.5775C27.2384 17.5772 27.2384 17.577 27.2384 17.5767C27.2384 17.5764 27.2384 17.5762 27.2384 17.5759C27.2384 17.5756 27.2384 17.5754 27.2384 17.5751C27.2384 17.5748 27.2384 17.5746 27.2384 17.5743C27.2384 17.574 27.2384 17.5738 27.2384 17.5735C27.2384 17.5733 27.2384 17.573 27.2384 17.5727C27.2384 17.5725 27.2384 17.5722 27.2384 17.5719C27.2384 17.5717 27.2384 17.5714 27.2384 17.5711C27.2384 17.5709 27.2384 17.5706 27.2384 17.5703C27.2384 17.5701 27.2384 17.5698 27.2384 17.5695C27.2384 17.5693 27.2384 17.569 27.2384 17.5687C27.2384 17.5685 27.2384 17.5682 27.2384 17.5679C27.2384 17.5677 27.2384 17.5674 27.2384 17.5671C27.2384 17.5668 27.2384 17.5666 27.2384 17.5663C27.2384 17.566 27.2384 17.5658 27.2384 17.5655C27.2384 17.5652 27.2384 17.565 27.2384 17.5647C27.2384 17.5644 27.2384 17.5642 27.2384 17.5639C27.2384 17.5636 27.2384 17.5634 27.2384 17.5631C27.2384 17.5628 27.2384 17.5625 27.2384 17.5623C27.2384 17.562 27.2384 17.5617 27.2384 17.5615C27.2384 17.5612 27.2384 17.5609 27.2384 17.5607C27.2384 17.5604 27.2384 17.5601 27.2384 17.5598C27.2384 17.5596 27.2384 17.5593 27.2384 17.559C27.2384 17.5588 27.2384 17.5585 27.2384 17.5582C27.2384 17.5579 27.2384 17.5577 27.2384 17.5574C27.2384 17.5571 27.2384 17.5569 27.2384 17.5566C27.2384 17.5563 27.2384 17.556 27.2384 17.5558C27.2384 17.5555 27.2384 17.5552 27.2384 17.555C27.2384 17.5547 27.2384 17.5544 27.2384 17.5541C27.2384 17.5539 27.2384 17.5536 27.2384 17.5533C27.2384 17.553 27.2384 17.5528 27.2384 17.5525C27.2384 17.5522 27.2384 17.552 27.2384 17.5517C27.2384 17.5514 27.2384 17.5511 27.2384 17.5509C27.2384 17.5506 27.2384 17.5503 27.2384 17.55C27.2384 17.5498 27.2384 17.5495 27.2384 17.5492C27.2384 17.5489 27.2384 17.5487 27.2384 17.5484C27.2384 17.5481 27.2384 17.5478 27.2384 17.5476C27.2384 17.5473 27.2384 17.547 27.2384 17.5467C27.2384 17.5465 27.2384 17.5462 27.2384 17.5459C27.2384 17.5456 27.2384 17.5454 27.2384 17.5451C27.2384 17.5448 27.2384 17.5445 27.2384 17.5443C27.2384 17.544 27.2384 17.5437 27.2384 17.5434C27.2384 17.5431 27.2384 17.5429 27.2384 17.5426C27.2384 17.5423 27.2384 17.542 27.2384 17.5418C27.2384 17.5415 27.2384 17.5412 27.2384 17.5409C27.2384 17.5406 27.2384 17.5404 27.2384 17.5401C27.2384 17.5398 27.2384 17.5395 27.2384 17.5393C27.2384 17.539 27.2384 17.5387 27.2384 17.5384C27.2384 17.5381 27.2384 17.5379 27.2384 17.5376C27.2384 17.5373 27.2384 17.537 27.2384 17.5367C27.2384 17.5365 27.2384 17.5362 27.2384 17.5359C27.2384 17.5356 27.2384 17.5354 27.2384 17.5351C27.2384 17.5348 27.2384 17.5345 27.2384 17.5342C27.2384 17.534 27.2384 17.5337 27.2384 17.5334C27.2384 17.5331 27.2384 17.5328 27.2384 17.5325C27.2384 17.5323 27.2384 17.532 27.2384 17.5317C27.2384 17.5314 27.2384 17.5311 27.2384 17.5309C27.2384 17.5306 27.2384 17.5303 27.2384 17.53C27.2384 17.5297 27.2384 17.5295 27.2384 17.5292C27.2384 17.5289 27.2384 17.5286 27.2384 17.5283C27.2384 17.528 27.2384 17.5278 27.2384 17.5275C27.2384 17.5272 27.2384 17.5269 27.2384 17.5266C27.2384 17.5263 27.2384 17.5261 27.2384 17.5258C27.2384 17.5255 27.2384 17.5252 27.2384 17.5249C27.2384 17.5246 27.2384 17.5244 27.2384 17.5241C27.2384 17.5238 27.2384 17.5235 27.2384 17.5232C27.2384 17.5229 27.2384 17.5227 27.2384 17.5224C27.2384 17.5221 27.2384 17.5218 27.2384 17.5215C27.2384 17.5212 27.2384 17.521 27.2384 17.5207C27.2384 17.5204 27.2384 17.5201 27.2384 17.5198C27.2384 17.5195 27.2384 17.5192 27.2384 17.519C27.2384 17.5187 27.2384 17.5184 27.2384 17.5181C27.2384 17.5178 27.2384 17.5175 27.2384 17.5172C27.2384 17.517 27.2384 17.5167 27.2384 17.5164C27.2384 17.5161 27.2384 17.5158 27.2384 17.5155C27.2384 17.5152 27.2384 17.5149 27.2384 17.5147C27.2384 17.5144 27.2384 17.5141 27.2384 17.5138C27.2384 17.5135 27.2384 17.5132 27.2384 17.5129C27.2384 17.5126 27.2384 17.5124 27.2384 17.5121C27.2384 17.5118 27.2384 17.5115 27.2384 17.5112C27.2384 17.5109 27.2384 17.5106 27.2384 17.5103C27.2384 17.51 27.2384 17.5098 27.2384 17.5095C27.2384 17.5092 27.2384 17.5089 27.2384 17.5086C27.2384 17.5083 27.2384 17.508 27.2384 17.5077C27.2384 17.5074 27.2384 17.5072 27.2384 17.5069C27.2384 17.5066 27.2384 17.5063 27.2384 17.506C27.2384 17.5057 27.2384 17.5054 27.2384 17.5051C27.2384 17.5048 27.2384 17.5045 27.2384 17.5043C27.2384 17.504 27.2384 17.5037 27.2384 17.5034C27.2384 17.5031 27.2384 17.5028 27.2384 17.5025C27.2384 17.5022 27.2384 17.5019 27.2384 17.5016C27.2384 17.5013 27.2384 17.501 27.2384 17.5008C27.2384 17.5005 27.2384 17.5002 27.2384 17.4999C27.2384 17.4996 27.2384 17.4993 27.2384 17.499C27.2384 17.4987 27.2384 17.4984 27.2384 17.4981C27.2384 17.4978 27.2384 17.4975 27.2384 17.4972C27.2384 17.497 27.2384 17.4967 27.2384 17.4964C27.2384 17.4961 27.2384 17.4958 27.2384 17.4955C27.2384 17.4952 27.2384 17.4949 27.2384 17.4946C27.2384 17.4943 27.2384 17.494 27.2384 17.4937C27.2384 17.4934 27.2384 17.4931 27.2384 17.4928C27.2384 17.4925 27.2384 17.4922 27.2384 17.4919C27.2384 17.4917 27.2384 17.4914 27.2384 17.4911C27.2384 17.4908 27.2384 17.4905 27.2384 17.4902C27.2384 17.4899 27.2384 17.4896 27.2384 17.4893C27.2384 17.489 27.2384 17.4887 27.2384 17.4884C27.2384 17.4881 27.2384 17.4878 27.2384 17.4875C27.2384 17.4872 27.2384 17.4869 27.2384 17.4866C27.2384 17.4863 27.2384 17.486 27.2384 17.4857C27.2384 17.4854 27.2384 17.4851 27.2384 17.4848C27.2384 17.4845 27.2384 17.4842 27.2384 17.4839C27.2384 17.4836 27.2384 17.4833 27.2384 17.483C27.2384 17.4828 27.2384 17.4825 27.2384 17.4822C27.2384 17.4819 27.2384 17.4816 27.2384 17.4813C27.2384 17.481 27.2384 17.4807 27.2384 17.4804C27.2384 17.4801 27.2384 17.4798 27.2384 17.4795C27.2384 17.4792 27.2384 17.4789 27.2384 17.4786C27.2384 17.4783 27.2384 17.478 27.2384 17.4777C27.2384 17.4774 27.2384 17.4771 27.2384 17.4768C27.2384 17.4765 27.2384 17.4762 27.2384 17.4759C27.2384 17.4756 27.2384 17.4753 27.2384 17.475C27.2384 17.4747 27.2384 17.4744 27.2384 17.4741C27.2384 17.4738 27.2384 17.4735 27.2384 17.4732C27.2384 17.4729 27.2384 17.4726 27.2384 17.4722C27.2384 17.4719 27.2384 17.4716 27.2384 17.4713C27.2384 17.471 27.2384 17.4707 27.2384 17.4704C27.2384 17.4701 27.2384 17.4698 27.2384 17.4695C27.2384 17.4692 27.2384 17.4689 27.2384 17.4686C27.2384 17.4683 27.2384 17.468 27.2384 17.4677C27.2384 17.4674 27.2384 17.4671 27.2384 17.4668C27.2384 17.4665 27.2384 17.4662 27.2384 17.4659C27.2384 17.4656 27.2384 17.4653 27.2384 17.465C27.2384 17.4647 27.2384 17.4644 27.2384 17.4641C27.2384 17.4638 27.2384 17.4635 27.2384 17.4632C27.2384 17.4628 27.2384 17.4625 27.2384 17.4622C27.2384 17.4619 27.2384 17.4616 27.2384 17.4613C27.2384 17.461 27.2384 17.4607 27.2384 17.4604C27.2384 17.4601 27.2384 17.4598 27.2384 17.4595C27.2384 17.4592 27.2384 17.4589 27.2384 17.4586C27.2384 17.4583 27.2384 17.458 27.2384 17.4576C27.2384 17.4573 27.2384 17.457 27.2384 17.4567C27.2384 17.4564 27.2384 17.4561 27.2384 17.4558C27.2384 17.4555 27.2384 17.4552 27.2384 17.4549C27.2384 17.4546 27.2384 17.4543 27.2384 17.454C27.2384 17.4536 27.2384 17.4533 27.2384 17.453C27.2384 17.4527 27.2384 17.4524 27.2384 17.4521C27.2384 17.4518 27.2384 17.4515 27.2384 17.4512C27.2384 17.4509 27.2384 17.4506 27.2384 17.4503C27.2384 17.4499 27.2384 17.4496 27.2384 17.4493C27.2384 17.449 27.2384 17.4487 27.2384 17.4484C27.2384 17.4481 27.2384 17.4478 27.2384 17.4475C27.2384 17.4472 27.2384 17.4468 27.2384 17.4465C27.2384 17.4462 27.2384 17.4459 27.2384 17.4456C27.2384 17.4453 27.2384 17.445 27.2384 17.4447C27.2384 17.4444 27.2384 17.4441 27.2384 17.4437C27.2384 17.4434 27.2384 17.4431 27.2384 17.4428C27.2384 17.4425 27.2384 17.4422 27.2384 17.4419C27.2384 17.4416 27.2384 17.4412 27.2384 17.4409C27.2384 17.4406 27.2384 17.4403 27.2384 17.44H25.9216ZM25.9911 18.0944C25.9817 18.0756 25.9773 18.0621 25.9756 18.0567C25.974 18.0512 25.9744 18.0512 25.9756 18.0582C25.9781 18.0733 25.9816 18.1057 25.9816 18.16H27.2984C27.2984 17.9664 27.2777 17.7231 27.1689 17.5056L25.9911 18.0944ZM25.9816 18.16C25.9816 18.3489 26.0126 18.5573 26.1111 18.7544L27.2889 18.1656C27.2984 18.1846 27.3007 18.1964 27.3006 18.1959C27.3004 18.1951 27.2984 18.184 27.2984 18.16H25.9816ZM26.1111 18.1656C25.1328 20.1222 24.3538 21.6102 23.7724 22.6351C23.481 23.1487 23.2449 23.536 23.0621 23.8044C22.9704 23.939 22.8985 24.0344 22.8449 24.0974C22.7811 24.1725 22.7756 24.1629 22.8213 24.1354L23.4987 25.2646C23.6444 25.1771 23.7633 25.05 23.8482 24.9501C23.9434 24.8381 24.0446 24.701 24.1504 24.5456C24.3626 24.234 24.619 23.8113 24.9176 23.2849C25.5162 22.2298 26.3072 20.7178 27.2889 18.7544L26.1111 18.1656ZM23.0911 24.0452C22.3305 24.1253 21.3901 24.2253 20.2699 24.3454L20.4101 25.6546C21.5299 25.5347 22.4695 25.4347 23.2289 25.3548L23.0911 24.0452ZM19.7425 25.2766L26.1025 39.0166L27.2975 38.4634L20.9375 24.7234L19.7425 25.2766ZM26.4341 38.1377L17.1941 42.2177L17.7259 43.4223L26.9659 39.3423L26.4341 38.1377ZM9.84163 10.6V17.02H11.1584V10.6H9.84163ZM10.5343 17.6775L17.4343 17.3175L17.3657 16.0025L10.4657 16.3625L10.5343 17.6775ZM18.0548 16.7289C18.1447 15.8745 18.0518 14.8596 17.8038 13.702L16.5162 13.9779C16.7482 15.0604 16.8153 15.9255 16.7452 16.5911L18.0548 16.7289ZM17.8088 13.7281C17.6059 12.5512 17.3791 11.5754 17.1246 10.8118L15.8754 11.2282C16.1009 11.9046 16.3141 12.8088 16.5112 13.9519L17.8088 13.7281ZM17.1278 10.8217L16.7678 9.68174L15.5122 10.0783L15.8722 11.2183L17.1278 10.8217ZM16.154 9.22177C14.2077 9.18036 12.2639 9.42903 10.3245 9.96545L10.6755 11.2345C12.4961 10.731 14.3123 10.4996 16.126 10.5382L16.154 9.22177ZM53.4075 21.88H52.7491V21.9317L52.7572 21.9827L53.4075 21.88ZM53.8275 24.82L53.1749 24.907L53.1763 24.9177L53.1781 24.9282L53.8275 24.82ZM54.5475 30.64L53.8926 30.7084L53.8939 30.7192L54.5475 30.64ZM54.9675 36.76L55.5329 37.0973L55.6209 36.9499L55.6256 36.7783L54.9675 36.76ZM50.5875 42.58L50.6775 43.2322L50.9012 43.2013L51.0589 43.0396L50.5875 42.58ZM33.0675 42.94L32.6945 43.4825L32.8189 43.5681L32.9682 43.5908L33.0675 42.94ZM27.7875 37.12L27.1304 37.0797L27.1175 37.2901L27.2292 37.4689L27.7875 37.12ZM29.1675 19.24L28.6534 18.8287L28.5354 18.9763L28.5135 19.164L29.1675 19.24ZM30.0075 18.16L29.4857 17.7586L30.0075 18.16ZM32.2275 15.1L32.1643 14.4447L31.895 14.4706L31.7217 14.6785L32.2275 15.1ZM50.2275 15.34L50.7618 14.9553L50.5995 14.7298L50.3247 14.6888L50.2275 15.34ZM52.3275 18.94L51.7353 19.2276L51.7386 19.2344L51.742 19.2411L52.3275 18.94ZM36.7875 34.54H36.1291V35.2122L36.8012 35.1982L36.7875 34.54ZM45.0075 33.82L45.1635 34.4596L45.6761 34.3346L45.6657 33.8071L45.0075 33.82ZM44.4075 24.64L45.0579 24.538L44.9864 24.082L44.5334 23.9938L44.4075 24.64ZM37.5675 24.64L37.3201 24.0299L36.9541 24.1783L36.9127 24.5711L37.5675 24.64ZM37.0275 30.58L37.6841 30.628L37.6842 30.6269L37.0275 30.58ZM36.7875 33.82L36.1311 33.7695L36.1291 33.7947V33.82H36.7875ZM52.7572 21.9827C52.876 22.7354 53.0153 23.7097 53.1749 24.907L54.4801 24.733C54.3197 23.5303 54.179 22.5446 54.0578 21.7773L52.7572 21.9827ZM53.1781 24.9282C53.3745 26.1069 53.6128 28.0298 53.8927 30.7084L55.2023 30.5716C54.9222 27.8902 54.6805 25.9331 54.4769 24.7118L53.1781 24.9282ZM53.8939 30.7192C54.2127 33.3491 54.348 35.3508 54.3094 36.7417L55.6256 36.7783C55.667 35.2892 55.5223 33.2109 55.2011 30.5608L53.8939 30.7192ZM54.4021 36.4227C53.0637 38.6664 51.6341 40.5635 50.1161 42.1204L51.0589 43.0396C52.6609 41.3965 54.1513 39.4136 55.5329 37.0973L54.4021 36.4227ZM50.4975 41.9278C43.5737 42.8828 37.8021 42.9962 33.1668 42.2892L32.9682 43.5908C37.7729 44.3238 43.6813 44.1972 50.6775 43.2322L50.4975 41.9278ZM33.4405 42.3975C31.6134 41.1413 29.9115 39.2762 28.3458 36.7711L27.2292 37.4689C28.8635 40.0838 30.6816 42.0987 32.6945 43.4825L33.4405 42.3975ZM28.4446 37.1603C28.9647 28.6801 29.4238 22.7363 29.8215 19.316L28.5135 19.164C28.1112 22.6237 27.6503 28.5999 27.1304 37.0797L28.4446 37.1603ZM29.6816 19.6513C29.846 19.4458 30.1295 19.0812 30.5293 18.5614L29.4857 17.7586C29.0855 18.2788 28.809 18.6342 28.6534 18.8287L29.6816 19.6513ZM30.5293 18.5614C30.9376 18.0306 31.3646 17.441 31.81 16.793L30.725 16.047C30.2904 16.679 29.8774 17.2494 29.4857 17.7586L30.5293 18.5614ZM31.81 16.793C32.2504 16.1524 32.555 15.7354 32.7333 15.5215L31.7217 14.6785C31.5 14.9446 31.1646 15.4076 30.725 16.047L31.81 16.793ZM32.2907 15.7553C38.889 15.1194 44.8339 15.2007 50.1303 15.9912L50.3247 14.6888C44.9011 13.8793 38.846 13.8006 32.1643 14.4447L32.2907 15.7553ZM49.6932 15.7247C50.3863 16.6873 51.0677 17.8532 51.7353 19.2276L52.9197 18.6524C52.2273 17.2268 51.5087 15.9927 50.7618 14.9553L49.6932 15.7247ZM51.742 19.2411C52.0952 19.9278 52.3522 20.4966 52.5195 20.952C52.6918 21.4209 52.7491 21.718 52.7491 21.88H54.0659C54.0659 21.482 53.9432 21.0091 53.7555 20.498C53.5628 19.9734 53.2798 19.3522 52.913 18.6389L51.742 19.2411ZM36.8012 35.1982C40.6442 35.1182 43.4474 34.8782 45.1635 34.4596L44.8515 33.1804C43.2876 33.5618 40.6108 33.8018 36.7738 33.8818L36.8012 35.1982ZM45.6657 33.8071C45.5856 29.7201 45.3851 26.6237 45.0579 24.538L43.7571 24.742C44.0699 26.7363 44.2694 29.7599 44.3493 33.8329L45.6657 33.8071ZM44.5334 23.9938C41.4286 23.389 38.9868 23.3542 37.3201 24.0299L37.8149 25.2501C39.1082 24.7258 41.2264 24.691 44.2816 25.2862L44.5334 23.9938ZM36.9127 24.5711C36.6722 26.856 36.4915 28.8437 36.3708 30.5331L37.6842 30.6269C37.8035 28.9563 37.9828 26.984 38.2223 24.7089L36.9127 24.5711ZM36.3709 30.532C36.2509 32.1722 36.171 33.2509 36.1311 33.7695L37.4439 33.8705C37.484 33.3491 37.5641 32.2678 37.6841 30.628L36.3709 30.532ZM36.1291 33.82V34.54H37.4459V33.82H36.1291ZM82.1897 15.1L82.8424 15.014L82.767 14.4416H82.1897V15.1ZM84.5297 42.22L84.5725 42.877L85.209 42.8355L85.1877 42.198L84.5297 42.22ZM73.4897 42.94H72.8313V43.6427L73.5325 43.597L73.4897 42.94ZM73.4897 41.2H74.1481V40.4369L73.3932 40.5487L73.4897 41.2ZM60.5297 43.12L60.16 43.6648L60.3723 43.8089L60.6262 43.7713L60.5297 43.12ZM57.1097 40.3L56.4577 40.3913L56.4891 40.616L56.6524 40.7736L57.1097 40.3ZM56.5097 33.64L55.8516 33.6616L55.8521 33.6723L56.5097 33.64ZM56.4497 26.92L55.7917 26.8942L55.7914 26.9071L56.4497 26.92ZM56.6897 21.22L56.0328 21.1752L56.0323 21.1827L56.032 21.1901L56.6897 21.22ZM56.9897 17.08L56.336 17.0016L56.3344 17.0145L56.3334 17.0275L56.9897 17.08ZM57.1697 15.58L56.9165 14.9723L56.5618 15.1201L56.516 15.5016L57.1697 15.58ZM60.4697 14.74L60.5539 15.393L60.5626 15.3918L60.5713 15.3905L60.4697 14.74ZM64.0697 14.5L64.0932 13.842L64.0697 14.5ZM69.4697 14.98L69.3317 15.6238L69.4697 14.98ZM70.3097 15.16L70.1717 15.8038L70.178 15.8051L70.3097 15.16ZM73.2497 15.76L73.118 16.4051L73.9081 16.5663V15.76H73.2497ZM73.2497 15.1V14.4416H72.5913V15.1H73.2497ZM66.8297 32.68L66.1728 32.7235L66.2134 33.3384H66.8297V32.68ZM73.3697 32.68V33.3384H74.0337L74.028 32.6744L73.3697 32.68ZM73.3097 25.66L73.968 25.6544L73.9633 25.0991L73.4152 25.0101L73.3097 25.66ZM66.2897 24.52L66.3952 23.8701L65.5781 23.7374L65.6328 24.5635L66.2897 24.52ZM81.5369 15.186C82.8146 24.8882 83.5925 33.9067 83.8717 42.242L85.1877 42.198C84.9069 33.8133 84.1248 24.7517 82.8424 15.014L81.5369 15.186ZM84.4868 41.563L73.4468 42.283L73.5325 43.597L84.5725 42.877L84.4868 41.563ZM74.1481 42.94V41.2H72.8313V42.94H74.1481ZM73.3932 40.5487L60.4332 42.4687L60.6262 43.7713L73.5862 41.8513L73.3932 40.5487ZM60.8994 42.5752C59.8158 41.8399 58.7048 40.925 57.567 39.8264L56.6524 40.7736C57.8345 41.915 59.0036 42.8801 60.16 43.6648L60.8994 42.5752ZM57.7617 40.2087C57.4849 38.2318 57.2865 36.0319 57.1673 33.6077L55.8521 33.6723C55.9729 36.1281 56.1744 38.3682 56.4577 40.3913L57.7617 40.2087ZM57.1677 33.6184C57.088 31.1878 57.0682 28.9594 57.1079 26.9329L55.7914 26.9071C55.7512 28.9606 55.7714 31.2122 55.8517 33.6616L57.1677 33.6184ZM57.1076 26.9458C57.1875 24.907 57.2675 23.0083 57.3474 21.2499L56.032 21.1901C55.9519 22.9517 55.8719 24.853 55.7918 26.8942L57.1076 26.9458ZM57.3465 21.2648C57.4665 19.5057 57.5663 18.1287 57.646 17.1325L56.3334 17.0275C56.2531 18.0313 56.1529 19.4143 56.0328 21.1752L57.3465 21.2648ZM57.6434 17.1584L57.8234 15.6584L56.516 15.5016L56.336 17.0016L57.6434 17.1584ZM57.4229 16.1877C58.3193 15.8143 59.3607 15.5469 60.5539 15.393L60.3854 14.087C59.0987 14.2531 57.9401 14.5457 56.9165 14.9723L57.4229 16.1877ZM60.5713 15.3905C61.8162 15.196 62.9739 15.1197 64.0462 15.158L64.0932 13.842C62.9255 13.8003 61.6832 13.884 60.368 14.0895L60.5713 15.3905ZM64.0462 15.158C65.1574 15.1976 66.1869 15.2571 67.135 15.3361L67.2444 14.0239C66.2725 13.9429 65.222 13.8824 64.0932 13.842L64.0462 15.158ZM67.135 15.3361C68.0831 15.4151 68.8114 15.5123 69.3317 15.6238L69.6076 14.3362C69.0079 14.2077 68.2163 14.1049 67.2444 14.0239L67.135 15.3361ZM69.3317 15.6238L70.1717 15.8038L70.4476 14.5162L69.6076 14.3362L69.3317 15.6238ZM70.178 15.8051L73.118 16.4051L73.3813 15.1149L70.4413 14.5149L70.178 15.8051ZM73.9081 15.76V15.1H72.5913V15.76H73.9081ZM73.2497 15.7584H82.1897V14.4416H73.2497V15.7584ZM66.8297 33.3384H73.3697V32.0216H66.8297V33.3384ZM74.028 32.6744L73.968 25.6544L72.6513 25.6656L72.7113 32.6856L74.028 32.6744ZM73.4152 25.0101L66.3952 23.8701L66.1842 25.1699L73.2042 26.3099L73.4152 25.0101ZM65.6328 24.5635L66.1728 32.7235L67.4866 32.6365L66.9466 24.4765L65.6328 24.5635ZM112.555 1.84L113.213 1.80807L113.188 1.29757L112.687 1.19501L112.555 1.84ZM112.615 34.6L111.957 34.5809L111.957 34.5858L112.615 34.6ZM112.435 42.94L112.469 43.5975L113.08 43.5664L113.094 42.9542L112.435 42.94ZM92.9353 43.06L92.9162 43.7182L92.9258 43.7183L92.9353 43.06ZM88.7953 42.94L88.2849 43.3559L88.4752 43.5894L88.7762 43.5981L88.7953 42.94ZM86.1553 39.7L85.5016 39.7784L85.5244 39.9679L85.6449 40.1159L86.1553 39.7ZM86.0353 32.56L85.3782 32.5189L85.3776 32.5288L85.3773 32.5388L86.0353 32.56ZM86.2753 28.72L86.9324 28.7611L86.2753 28.72ZM86.5153 25.18L85.8607 25.1099L85.8595 25.1206L85.8587 25.1314L86.5153 25.18ZM86.8153 22.24L86.163 22.151L86.1612 22.1643L86.1599 22.1776L86.8153 22.24ZM87.0553 20.2L86.4059 20.0918L86.4015 20.1184L86.3992 20.1453L87.0553 20.2ZM87.1753 19.48L87.1098 18.8249L86.6087 18.875L86.5259 19.3718L87.1753 19.48ZM102.535 20.38L102.431 21.0301L103.149 21.1452L103.193 20.419L102.535 20.38ZM103.675 1.18L103.615 0.524411L103.052 0.576396L103.018 1.14098L103.675 1.18ZM101.635 35.38L101.617 36.0381L102.258 36.0556L102.293 35.4152L101.635 35.38ZM101.995 28.66L102.653 28.6952L102.683 28.1262L102.124 28.0144L101.995 28.66ZM100.675 28.48L100.567 29.1294L100.594 29.1339L100.621 29.1361L100.675 28.48ZM99.2953 28.3L99.2357 28.9557L99.2953 28.3ZM97.9753 28.18L98.0349 27.5243L97.9753 28.18ZM96.7753 28.12L96.7026 28.7743L96.7388 28.7784H96.7753V28.12ZM95.7553 28.06L95.6622 28.7118L95.7085 28.7184H95.7553V28.06ZM95.1553 27.94L95.3635 27.3154L95.2622 27.2816H95.1553V27.94ZM94.9153 27.94V27.2816H94.3406L94.263 27.851L94.9153 27.94ZM94.7353 30.88H94.0769V30.8922L94.0774 30.9044L94.7353 30.88ZM94.9153 33.82L95.5712 33.763L95.571 33.7604L94.9153 33.82ZM95.0353 35.2L94.3794 35.257L94.4303 35.8421L95.0174 35.8581L95.0353 35.2ZM111.898 1.87192C112.097 5.97755 112.197 11.0861 112.197 17.2H113.514C113.514 11.0739 113.414 5.94245 113.213 1.80807L111.898 1.87192ZM112.197 17.2C112.197 23.2743 112.117 29.0679 111.957 34.5809L113.273 34.6191C113.434 29.0921 113.514 23.2857 113.514 17.2H112.197ZM111.957 34.5858L111.777 42.9258L113.094 42.9542L113.274 34.6142L111.957 34.5858ZM112.402 42.2825C110.058 42.4017 106.911 42.4616 102.955 42.4616V43.7784C106.92 43.7784 110.093 43.7183 112.469 43.5975L112.402 42.2825ZM102.955 42.4616C99.0373 42.4616 95.7007 42.4416 92.9449 42.4017L92.9258 43.7183C95.69 43.7584 99.0333 43.7784 102.955 43.7784V42.4616ZM92.9544 42.4019L88.8144 42.2819L88.7762 43.5981L92.9162 43.7181L92.9544 42.4019ZM89.3057 42.5241L86.6657 39.2841L85.6449 40.1159L88.2849 43.3559L89.3057 42.5241ZM86.809 39.6216C86.6927 38.6527 86.6337 37.5595 86.6337 36.34H85.3169C85.3169 37.6005 85.3779 38.7473 85.5016 39.7784L86.809 39.6216ZM86.6337 36.34C86.6337 35.0669 86.6536 33.8139 86.6933 32.5812L85.3773 32.5388C85.337 33.7861 85.3169 35.0531 85.3169 36.34H86.6337ZM86.6924 32.6011C86.7724 31.3211 86.8524 30.0411 86.9324 28.7611L85.6182 28.6789C85.5382 29.9589 85.4582 31.2389 85.3782 32.5189L86.6924 32.6011ZM86.9324 28.7611C87.0123 27.4831 87.0921 26.3057 87.1719 25.2286L85.8587 25.1314C85.7785 26.2143 85.6983 27.3969 85.6182 28.6789L86.9324 28.7611ZM87.1699 25.2501C87.2901 24.1284 87.3904 23.1457 87.4707 22.3024L86.1599 22.1776C86.0802 23.0143 85.9805 23.9916 85.8607 25.1099L87.1699 25.2501ZM87.4677 22.329C87.5881 21.4453 87.67 20.7519 87.7114 20.2547L86.3992 20.1453C86.3606 20.6081 86.2825 21.2747 86.163 22.151L87.4677 22.329ZM87.7047 20.3082L87.8247 19.5882L86.5259 19.3718L86.4059 20.0918L87.7047 20.3082ZM87.2408 20.1351C91.1617 19.743 96.2192 20.0346 102.431 21.0301L102.639 19.7299C96.3715 18.7254 91.189 18.417 87.1098 18.8249L87.2408 20.1351ZM103.193 20.419L104.333 1.21902L103.018 1.14098L101.878 20.341L103.193 20.419ZM103.736 1.83559C106.256 1.60299 109.149 1.81432 112.423 2.48498L112.687 1.19501C109.322 0.505681 106.295 0.277004 103.615 0.524411L103.736 1.83559ZM102.293 35.4152L102.653 28.6952L101.338 28.6248L100.978 35.3448L102.293 35.4152ZM102.124 28.0144C101.696 27.9287 101.231 27.8656 100.73 27.8239L100.621 29.1361C101.08 29.1744 101.495 29.2313 101.866 29.3056L102.124 28.0144ZM100.784 27.8306C100.289 27.7482 99.8127 27.6859 99.3549 27.6443L99.2357 28.9557C99.6579 28.9941 100.102 29.0518 100.567 29.1294L100.784 27.8306ZM99.3549 27.6443C98.9149 27.6043 98.4749 27.5643 98.0349 27.5243L97.9157 28.8357C98.3557 28.8757 98.7957 28.9157 99.2357 28.9557L99.3549 27.6443ZM98.0349 27.5243C97.5794 27.4829 97.1591 27.4616 96.7753 27.4616V28.7784C97.1116 28.7784 97.4913 28.7971 97.9157 28.8357L98.0349 27.5243ZM96.848 27.4657C96.467 27.4233 96.1025 27.4016 95.7553 27.4016V28.7184C96.0481 28.7184 96.3637 28.7367 96.7026 28.7743L96.848 27.4657ZM95.8484 27.4082C95.5718 27.3687 95.4228 27.3352 95.3635 27.3154L94.9471 28.5646C95.1279 28.6248 95.3789 28.6713 95.6622 28.7118L95.8484 27.4082ZM95.1553 27.2816H94.9153V28.5984H95.1553V27.2816ZM94.263 27.851C94.1382 28.766 94.0769 29.7764 94.0769 30.88H95.3937C95.3937 29.8236 95.4524 28.874 95.5676 28.029L94.263 27.851ZM94.0774 30.9044C94.1177 31.9937 94.1784 32.9856 94.2596 33.8796L95.571 33.7604C95.4923 32.8944 95.4329 31.9263 95.3932 30.8556L94.0774 30.9044ZM94.2594 33.877L94.3794 35.257L95.6912 35.143L95.5712 33.763L94.2594 33.877ZM95.0174 35.8581L101.617 36.0381L101.653 34.7219L95.0533 34.5419L95.0174 35.8581ZM143.45 42.04L143.502 42.6963L144.161 42.6434L144.106 41.9848L143.45 42.04ZM132.23 42.94L131.573 42.9848L131.618 43.6495L132.282 43.5963L132.23 42.94ZM131.81 35.92L131.152 35.9467L131.152 35.956L131.81 35.92ZM131.75 20.56L132.408 20.5672L131.75 20.56ZM132.83 2.02L132.603 1.40177L132.227 1.53971L132.176 1.9377L132.83 2.02ZM142.25 1.42L142.876 1.21698L142.755 0.844375L142.37 0.772731L142.25 1.42ZM148.61 21.04L147.983 21.243L149.258 21.1535L148.61 21.04ZM151.97 1.84L151.81 1.20128L151.395 1.30505L151.321 1.72651L151.97 1.84ZM152.63 1.72L152.723 2.37176L152.767 2.3654L152.811 2.35304L152.63 1.72ZM154.31 1.42L154.403 2.07176L154.415 2.06999L154.427 2.06775L154.31 1.42ZM156.83 1.06L156.767 0.40458L156.764 0.404889L156.83 1.06ZM159.65 0.999997L159.624 1.65789L159.637 1.65837H159.65V0.999997ZM162.59 1.18L162.501 1.83238L162.508 1.83329L162.59 1.18ZM164.33 1.6L164.988 1.59706L164.986 1.14705L164.566 0.985506L164.33 1.6ZM165.53 42.04L165.584 42.6962L166.238 42.6423L166.186 41.9875L165.53 42.04ZM156.05 42.82L155.392 42.8377L155.41 43.5332L156.104 43.4762L156.05 42.82ZM155.57 24.94L156.228 24.9223L154.92 24.8327L155.57 24.94ZM153.29 38.74V39.3984H153.848L153.939 38.8473L153.29 38.74ZM146.09 38.74L145.456 38.918L145.591 39.3984H146.09V38.74ZM142.67 26.56L143.304 26.382L142.012 26.5802L142.67 26.56ZM143.397 41.3837L132.177 42.2837L132.282 43.5963L143.502 42.6963L143.397 41.3837ZM132.887 42.8952C132.767 41.1394 132.627 38.8027 132.467 35.884L131.152 35.956C131.312 38.8773 131.453 41.2206 131.573 42.9848L132.887 42.8952ZM132.468 35.8933C132.348 32.9521 132.328 27.8475 132.408 20.5672L131.091 20.5528C131.011 27.8325 131.031 32.9679 131.152 35.9467L132.468 35.8933ZM132.408 20.5672C132.488 13.3028 132.847 7.14945 133.483 2.10229L132.176 1.9377C131.532 7.05054 131.172 13.2572 131.091 20.5528L132.408 20.5672ZM133.056 2.63822C135.769 1.64485 138.787 1.44543 142.129 2.06727L142.37 0.772731C138.832 0.114566 135.571 0.315145 132.603 1.40177L133.056 2.63822ZM141.623 1.62302L147.983 21.243L149.236 20.837L142.876 1.21698L141.623 1.62302ZM149.258 21.1535L152.618 1.95349L151.321 1.72651L147.961 20.9265L149.258 21.1535ZM152.129 2.47871C152.257 2.44672 152.452 2.41047 152.723 2.37176L152.537 1.06824C152.248 1.10953 152.002 1.15328 151.81 1.20128L152.129 2.47871ZM152.811 2.35304C153.04 2.28736 153.556 2.19269 154.403 2.07176L154.217 0.768241C153.383 0.887305 152.779 0.99263 152.449 1.08696L152.811 2.35304ZM154.427 2.06775C155.292 1.91056 156.115 1.79317 156.895 1.7151L156.764 0.404889C155.945 0.486823 155.087 0.60944 154.192 0.772244L154.427 2.06775ZM156.892 1.71541C157.697 1.63873 158.607 1.61876 159.624 1.65789L159.675 0.342109C158.612 0.301232 157.642 0.32126 156.767 0.404587L156.892 1.71541ZM159.65 1.65837C160.706 1.65837 161.656 1.7171 162.501 1.83234L162.679 0.527661C161.764 0.402892 160.753 0.341622 159.65 0.341622V1.65837ZM162.508 1.83329C163.103 1.90768 163.63 2.03637 164.093 2.21449L164.566 0.985506C163.989 0.763625 163.356 0.61231 162.671 0.526707L162.508 1.83329ZM163.671 1.60293C163.751 19.5667 164.151 33.0669 164.873 42.0925L166.186 41.9875C165.468 33.0131 165.068 19.5533 164.988 1.59706L163.671 1.60293ZM165.476 41.3838L155.996 42.1638L156.104 43.4762L165.584 42.6962L165.476 41.3838ZM156.708 42.8023L156.228 24.9223L154.912 24.9577L155.392 42.8377L156.708 42.8023ZM154.92 24.8327L152.64 38.6327L153.939 38.8473L156.219 25.0473L154.92 24.8327ZM153.29 38.0816H146.09V39.3984H153.29V38.0816ZM146.724 38.562L143.304 26.382L142.036 26.738L145.456 38.918L146.724 38.562ZM142.012 26.5802C142.212 33.1049 142.472 38.2783 142.794 42.0952L144.106 41.9848C143.787 38.2017 143.528 33.0551 143.328 26.5398L142.012 26.5802ZM193.166 15.1L193.819 15.014L193.744 14.4416H193.166V15.1ZM195.506 42.22L195.549 42.877L196.186 42.8355L196.164 42.198L195.506 42.22ZM184.466 42.94H183.808V43.6427L184.509 43.597L184.466 42.94ZM184.466 41.2H185.125V40.4369L184.37 40.5487L184.466 41.2ZM171.506 43.12L171.137 43.6648L171.349 43.8089L171.603 43.7713L171.506 43.12ZM168.086 40.3L167.434 40.3913L167.466 40.616L167.629 40.7736L168.086 40.3ZM167.486 33.64L166.828 33.6616L166.829 33.6723L167.486 33.64ZM167.426 26.92L166.768 26.8942L166.768 26.9071L167.426 26.92ZM167.666 21.22L167.009 21.1752L167.009 21.1827L167.009 21.1901L167.666 21.22ZM167.966 17.08L167.313 17.0016L167.311 17.0145L167.31 17.0275L167.966 17.08ZM168.146 15.58L167.893 14.9723L167.538 15.1201L167.493 15.5016L168.146 15.58ZM171.446 14.74L171.531 15.393L171.539 15.3918L171.548 15.3905L171.446 14.74ZM175.046 14.5L175.07 13.842L175.046 14.5ZM180.446 14.98L180.308 15.6238L180.446 14.98ZM181.286 15.16L181.148 15.8038L181.155 15.8051L181.286 15.16ZM184.226 15.76L184.095 16.4051L184.885 16.5663V15.76H184.226ZM184.226 15.1V14.4416H183.568V15.1H184.226ZM177.806 32.68L177.149 32.7235L177.19 33.3384H177.806V32.68ZM184.346 32.68V33.3384H185.01L185.005 32.6744L184.346 32.68ZM184.286 25.66L184.945 25.6544L184.94 25.0991L184.392 25.0101L184.286 25.66ZM177.266 24.52L177.372 23.8701L176.555 23.7374L176.609 24.5635L177.266 24.52ZM192.514 15.186C193.791 24.8882 194.569 33.9067 194.848 42.242L196.164 42.198C195.883 33.8133 195.101 24.7517 193.819 15.014L192.514 15.186ZM195.463 41.563L184.423 42.283L184.509 43.597L195.549 42.877L195.463 41.563ZM185.125 42.94V41.2H183.808V42.94H185.125ZM184.37 40.5487L171.41 42.4687L171.603 43.7713L184.563 41.8513L184.37 40.5487ZM171.876 42.5752C170.792 41.8399 169.681 40.925 168.544 39.8264L167.629 40.7736C168.811 41.915 169.98 42.8801 171.137 43.6648L171.876 42.5752ZM168.738 40.2087C168.462 38.2318 168.263 36.0319 168.144 33.6077L166.829 33.6723C166.949 36.1281 167.151 38.3682 167.434 40.3913L168.738 40.2087ZM168.144 33.6184C168.065 31.1878 168.045 28.9594 168.085 26.9329L166.768 26.9071C166.728 28.9606 166.748 31.2122 166.828 33.6616L168.144 33.6184ZM168.084 26.9458C168.164 24.907 168.244 23.0083 168.324 21.2499L167.009 21.1901C166.928 22.9517 166.848 24.853 166.768 26.8942L168.084 26.9458ZM168.323 21.2648C168.443 19.5057 168.543 18.1287 168.623 17.1325L167.31 17.0275C167.23 18.0313 167.129 19.4143 167.009 21.1752L168.323 21.2648ZM168.62 17.1584L168.8 15.6584L167.493 15.5016L167.313 17.0016L168.62 17.1584ZM168.399 16.1877C169.296 15.8143 170.337 15.5469 171.531 15.393L171.362 14.087C170.075 14.2531 168.917 14.5457 167.893 14.9723L168.399 16.1877ZM171.548 15.3905C172.793 15.196 173.95 15.1197 175.023 15.158L175.07 13.842C173.902 13.8003 172.66 13.884 171.345 14.0895L171.548 15.3905ZM175.023 15.158C176.134 15.1976 177.163 15.2571 178.112 15.3361L178.221 14.0239C177.249 13.9429 176.199 13.8824 175.07 13.842L175.023 15.158ZM178.112 15.3361C179.06 15.4151 179.788 15.5123 180.308 15.6238L180.584 14.3362C179.984 14.2077 179.193 14.1049 178.221 14.0239L178.112 15.3361ZM180.308 15.6238L181.148 15.8038L181.424 14.5162L180.584 14.3362L180.308 15.6238ZM181.155 15.8051L184.095 16.4051L184.358 15.1149L181.418 14.5149L181.155 15.8051ZM184.885 15.76V15.1H183.568V15.76H184.885ZM184.226 15.7584H193.166V14.4416H184.226V15.7584ZM177.806 33.3384H184.346V32.0216H177.806V33.3384ZM185.005 32.6744L184.945 25.6544L183.628 25.6656L183.688 32.6856L185.005 32.6744ZM184.392 25.0101L177.372 23.8701L177.161 25.1699L184.181 26.3099L184.392 25.0101ZM176.609 24.5635L177.149 32.7235L178.463 32.6365L177.923 24.4765L176.609 24.5635ZM220.292 14.56L220.921 14.3664L220.784 13.9203L220.318 13.9021L220.292 14.56ZM220.892 16.78L221.531 16.6203V16.6203L220.892 16.78ZM221.732 22.42L221.078 22.4948L221.079 22.5052L221.732 22.42ZM222.032 30.4L222.667 30.5726L222.685 30.5079L222.689 30.4411L222.032 30.4ZM219.932 37.12L220.012 37.7735L220.391 37.7271L220.539 37.3746L219.932 37.12ZM207.692 36.94L207.772 36.2865L206.993 36.1909L207.034 36.9746L207.692 36.94ZM208.712 56.32V56.9784H209.406L209.369 56.2854L208.712 56.32ZM197.312 56.32L196.654 56.3152L196.649 56.9784H197.312V56.32ZM197.612 14.8L197.594 14.1419L196.958 14.1591L196.954 14.7952L197.612 14.8ZM206.492 14.56L207.149 14.5235L207.114 13.8846L206.474 13.9019L206.492 14.56ZM206.552 15.64L205.895 15.6765L205.938 16.4551L206.698 16.2819L206.552 15.64ZM207.212 28.78L206.554 28.8094L206.581 29.4146L207.187 29.4379L207.212 28.78ZM213.452 29.02L213.427 29.6779L214.182 29.707L214.107 28.9545L213.452 29.02ZM212.912 23.62L213.567 23.5545L213.495 22.8363L212.787 22.9737L212.912 23.62ZM207.032 24.76L206.907 24.1137L206.349 24.2218L206.374 24.7894L207.032 24.76ZM219.663 14.7536C219.817 15.2568 220.014 15.9835 220.253 16.9397L221.531 16.6203C221.29 15.6565 221.086 14.9032 220.921 14.3664L219.663 14.7536ZM220.253 16.9397C220.481 17.8513 220.757 19.6892 221.078 22.4948L222.386 22.3452C222.067 19.5508 221.783 17.6287 221.531 16.6203L220.253 16.9397ZM221.079 22.5052C221.434 25.2268 221.532 27.8444 221.375 30.3589L222.689 30.4411C222.852 27.8356 222.75 25.1332 222.385 22.3348L221.079 22.5052ZM221.397 30.2274C220.516 33.4686 219.826 35.6701 219.325 36.8654L220.539 37.3746C221.078 36.0899 221.788 33.8114 222.667 30.5726L221.397 30.2274ZM219.852 36.4665C216.317 36.8985 212.292 36.8416 207.772 36.2865L207.612 37.5935C212.211 38.1583 216.347 38.2215 220.012 37.7735L219.852 36.4665ZM207.034 36.9746L208.054 56.3546L209.369 56.2854L208.349 36.9054L207.034 36.9746ZM208.712 55.6616H197.312V56.9784H208.712V55.6616ZM197.97 56.3248L198.27 14.8048L196.954 14.7952L196.654 56.3152L197.97 56.3248ZM197.63 15.4581L206.51 15.2181L206.474 13.9019L197.594 14.1419L197.63 15.4581ZM205.835 14.5965L205.895 15.6765L207.209 15.6035L207.149 14.5235L205.835 14.5965ZM206.698 16.2819C210.67 15.3774 215.191 15.0196 220.266 15.2179L220.318 13.9021C215.153 13.7004 210.513 14.0626 206.406 14.9981L206.698 16.2819ZM207.187 29.4379L213.427 29.6779L213.477 28.3621L207.237 28.1221L207.187 29.4379ZM214.107 28.9545L213.567 23.5545L212.257 23.6855L212.797 29.0855L214.107 28.9545ZM212.787 22.9737L206.907 24.1137L207.157 25.4063L213.037 24.2663L212.787 22.9737ZM206.374 24.7894L206.554 28.8094L207.87 28.7505L207.69 24.7305L206.374 24.7894Z" fill="#0E2E57"/>
</g>
<defs>
<filter id="filter0_d_42_128" x="0.361645" y="0.459961" width="221.91" height="56.5184" filterUnits="userSpaceOnUse" color-interpolation-filters="sRGB">
<feFlood flood-opacity="0" result="BackgroundImageFix"/>
<feColorMatrix in="SourceAlpha" type="matrix" values="0 0 0 0 0 0 0 0 0 0 0 0 0 0 0 0 0 0 127 0" result="hardAlpha"/>
<feOffset dx="-0.658375" dy="0.658375"/>
<feComposite in2="hardAlpha" operator="out"/>
<feColorMatrix type="matrix" values="0 0 0 0 0.98 0 0 0 0 0 0 0 0 0 1 0 0 0 1 0"/>
<feBlend mode="normal" in2="BackgroundImageFix" result="effect1_dropShadow_42_128"/>
<feBlend mode="normal" in="SourceGraphic" in2="effect1_dropShadow_42_128" result="shape"/>
</filter>
</defs>
</svg>
