<svg width="42" height="36" viewBox="0 0 42 36" fill="none" xmlns="http://www.w3.org/2000/svg">
<path d="M14.0156 0.6875C15.4531 0.65625 16.9062 0.984375 18.375 1.67188C19.8438 2.35937 21.1719 3.40625 22.3594 4.8125C23.5469 6.1875 24.5156 7.92188 25.2656 10.0156C26.0156 12.1094 26.4062 14.5625 26.4375 17.375C26.4688 19.25 26.3281 20.9531 26.0156 22.4844C25.7031 24.0156 25.2812 25.3906 24.75 26.6094C24.2188 27.7969 23.6094 28.8594 22.9219 29.7969C22.2656 30.7031 21.5938 31.4844 20.9062 32.1406C20.2188 32.7656 19.5625 33.2656 18.9375 33.6406C18.3125 34.0156 17.7812 34.2656 17.3438 34.3906C16.7812 34.5781 16.1094 34.75 15.3281 34.9062C14.5469 35.0312 13.7344 35.1094 12.8906 35.1406C12.0469 35.2031 11.2031 35.1562 10.3594 35C9.54688 34.875 8.82812 34.625 8.20312 34.25C7.57812 33.875 6.84375 33.3438 6 32.6562C5.1875 31.9375 4.40625 30.9688 3.65625 29.75C2.90625 28.5 2.26562 26.9375 1.73438 25.0625C1.20312 23.1875 0.9375 20.8906 0.9375 18.1719C0.9375 15.4531 1.25 13.0156 1.875 10.8594C2.53125 8.70312 3.42188 6.875 4.54688 5.375C5.70312 3.875 7.07812 2.73437 8.67188 1.95312C10.2969 1.14062 12.0781 0.71875 14.0156 0.6875ZM7.40625 18.125C7.375 19.9688 7.48438 21.5781 7.73438 22.9531C7.98438 24.3281 8.28125 25.4844 8.625 26.4219C8.96875 27.3594 9.3125 28.1094 9.65625 28.6719C10.0312 29.2031 10.3125 29.5781 10.5 29.7969C10.6875 30.0781 11.0312 30.2656 11.5312 30.3594C12.0312 30.4531 12.5625 30.5 13.125 30.5C13.6875 30.4688 14.2344 30.3906 14.7656 30.2656C15.2969 30.1094 15.7031 29.9062 15.9844 29.6562C16.1406 29.5 16.3594 29.1094 16.6406 28.4844C16.9531 27.8594 17.25 27.0469 17.5312 26.0469C17.8438 25.0469 18.125 23.8906 18.375 22.5781C18.625 21.2344 18.7969 19.7969 18.8906 18.2656C18.9844 16.5469 18.9844 14.9688 18.8906 13.5312C18.7969 12.0625 18.6562 10.7812 18.4688 9.6875C18.2812 8.59375 18.0625 7.6875 17.8125 6.96875C17.5625 6.25 17.2969 5.76562 17.0156 5.51562C16.6094 5.14062 16.1094 4.875 15.5156 4.71875C14.9531 4.5625 14.375 4.5 13.7812 4.53125C13.2188 4.5625 12.6719 4.67188 12.1406 4.85938C11.6406 5.04688 11.25 5.29688 10.9688 5.60938C10.4062 6.23438 9.90625 6.89062 9.46875 7.57812C9.03125 8.26562 8.67188 9.09375 8.39062 10.0625C8.10938 11.0312 7.875 12.1719 7.6875 13.4844C7.53125 14.7656 7.4375 16.3125 7.40625 18.125ZM29.0312 5.9375C30.125 5.59375 31.0156 5.3125 31.7031 5.09375C32.3906 4.84375 32.9531 4.64063 33.3906 4.48438C33.8906 4.29688 34.2656 4.125 34.5156 3.96875L35.6406 3.40625C36.0781 3.1875 36.6406 2.90625 37.3281 2.5625C38.0156 2.1875 38.9062 1.71875 40 1.15625C39.75 2.34375 39.5625 3.46875 39.4375 4.53125C39.3438 5.5625 39.2656 6.48438 39.2031 7.29688C39.1094 8.23438 39.0625 9.09375 39.0625 9.875C39.0312 10.5312 38.9844 11.4062 38.9219 12.5C38.8906 13.5938 38.8438 14.7812 38.7812 16.0625C38.7188 17.3438 38.6562 18.6562 38.5938 20C38.5312 21.3438 38.4844 22.6094 38.4531 23.7969C38.4531 24.9531 38.4688 25.9531 38.5 26.7969C38.5625 27.6406 38.6719 28.2188 38.8281 28.5312C38.9844 28.9062 39.1875 29.2656 39.4375 29.6094C39.6562 29.9219 39.9062 30.2812 40.1875 30.6875C40.5 31.0625 40.875 31.4375 41.3125 31.8125C40.5938 31.9688 39.9219 32.1094 39.2969 32.2344C38.6719 32.3281 38.125 32.4062 37.6562 32.4688C37.0938 32.5625 36.5938 32.6406 36.1562 32.7031C35.6875 32.7344 35.0469 32.8125 34.2344 32.9375C33.5469 33.0312 32.6719 33.1562 31.6094 33.3125C30.5469 33.4375 29.2344 33.5781 27.6719 33.7344C28.4844 33.2344 29.125 32.75 29.5938 32.2812C30.0938 31.8125 30.4688 31.4062 30.7188 31.0625C31 30.6562 31.1719 30.2656 31.2344 29.8906C31.2656 29.6406 31.3125 28.9688 31.375 27.875C31.4688 26.75 31.5469 25.4375 31.6094 23.9375C31.7031 22.4062 31.7812 20.7812 31.8438 19.0625C31.9375 17.3125 32 15.6875 32.0312 14.1875C32.0625 12.6875 32.0781 11.4062 32.0781 10.3438C32.0781 9.28125 32.0312 8.64062 31.9375 8.42188C31.8125 8.20312 31.625 7.95312 31.375 7.67188C31.1562 7.42188 30.8594 7.15625 30.4844 6.875C30.1406 6.59375 29.6562 6.28125 29.0312 5.9375Z" fill="#E9CAFF"/>
</svg>
