<svg width="54" height="36" viewBox="0 0 54 36" fill="none" xmlns="http://www.w3.org/2000/svg">
<path d="M14.0156 0.69043C15.4531 0.65918 16.9062 0.987305 18.375 1.6748C19.8438 2.3623 21.1719 3.40918 22.3594 4.81543C23.5469 6.19043 24.5156 7.9248 25.2656 10.0186C26.0156 12.1123 26.4062 14.5654 26.4375 17.3779C26.4688 19.2529 26.3281 20.9561 26.0156 22.4873C25.7031 24.0186 25.2812 25.3936 24.75 26.6123C24.2188 27.7998 23.6094 28.8623 22.9219 29.7998C22.2656 30.7061 21.5938 31.4873 20.9062 32.1436C20.2188 32.7686 19.5625 33.2686 18.9375 33.6436C18.3125 34.0186 17.7812 34.2686 17.3438 34.3936C16.7812 34.5811 16.1094 34.7529 15.3281 34.9092C14.5469 35.0342 13.7344 35.1123 12.8906 35.1436C12.0469 35.2061 11.2031 35.1592 10.3594 35.0029C9.54688 34.8779 8.82812 34.6279 8.20312 34.2529C7.57812 33.8779 6.84375 33.3467 6 32.6592C5.1875 31.9404 4.40625 30.9717 3.65625 29.7529C2.90625 28.5029 2.26562 26.9404 1.73438 25.0654C1.20312 23.1904 0.9375 20.8936 0.9375 18.1748C0.9375 15.4561 1.25 13.0186 1.875 10.8623C2.53125 8.70605 3.42188 6.87793 4.54688 5.37793C5.70312 3.87793 7.07812 2.7373 8.67188 1.95605C10.2969 1.14355 12.0781 0.72168 14.0156 0.69043ZM7.40625 18.1279C7.375 19.9717 7.48438 21.5811 7.73438 22.9561C7.98438 24.3311 8.28125 25.4873 8.625 26.4248C8.96875 27.3623 9.3125 28.1123 9.65625 28.6748C10.0312 29.2061 10.3125 29.5811 10.5 29.7998C10.6875 30.0811 11.0312 30.2686 11.5312 30.3623C12.0312 30.4561 12.5625 30.5029 13.125 30.5029C13.6875 30.4717 14.2344 30.3936 14.7656 30.2686C15.2969 30.1123 15.7031 29.9092 15.9844 29.6592C16.1406 29.5029 16.3594 29.1123 16.6406 28.4873C16.9531 27.8623 17.25 27.0498 17.5312 26.0498C17.8438 25.0498 18.125 23.8936 18.375 22.5811C18.625 21.2373 18.7969 19.7998 18.8906 18.2686C18.9844 16.5498 18.9844 14.9717 18.8906 13.5342C18.7969 12.0654 18.6562 10.7842 18.4688 9.69043C18.2812 8.59668 18.0625 7.69043 17.8125 6.97168C17.5625 6.25293 17.2969 5.76855 17.0156 5.51855C16.6094 5.14355 16.1094 4.87793 15.5156 4.72168C14.9531 4.56543 14.375 4.50293 13.7812 4.53418C13.2188 4.56543 12.6719 4.6748 12.1406 4.8623C11.6406 5.0498 11.25 5.2998 10.9688 5.6123C10.4062 6.2373 9.90625 6.89355 9.46875 7.58105C9.03125 8.26855 8.67188 9.09668 8.39062 10.0654C8.10938 11.0342 7.875 12.1748 7.6875 13.4873C7.53125 14.7686 7.4375 16.3154 7.40625 18.1279ZM35.8281 1.06543C36.8594 1.12793 37.7031 1.1748 38.3594 1.20605C39.0469 1.2373 39.5938 1.25293 40 1.25293C40.4688 1.28418 40.8281 1.28418 41.0781 1.25293H42.2969C42.7656 1.25293 43.4219 1.26855 44.2656 1.2998C45.1406 1.2998 46.2812 1.31543 47.6875 1.34668C47.5312 1.56543 47.4062 1.83105 47.3125 2.14355C47.2188 2.45605 47.1406 2.76855 47.0781 3.08105C46.9844 3.4248 46.9219 3.7998 46.8906 4.20605C46.8594 4.70605 46.7969 5.4873 46.7031 6.5498C46.6406 7.45605 46.5469 8.72168 46.4219 10.3467C46.3281 11.9404 46.2031 14.0186 46.0469 16.5811C46.9531 16.5811 47.7344 16.5029 48.3906 16.3467C49.0469 16.1592 49.5938 15.9404 50.0312 15.6904C50.5312 15.4404 50.9375 15.1436 51.25 14.7998C51.4062 14.6123 51.5781 14.4092 51.7656 14.1904C51.9219 14.0029 52.125 13.7998 52.375 13.5811C52.625 13.3623 52.8906 13.1279 53.1719 12.8779C53.1094 13.7217 53.0625 14.4561 53.0312 15.0811C53 15.6748 52.9688 16.1748 52.9375 16.5811C52.9062 17.0498 52.875 17.4248 52.8438 17.7061C52.8438 18.0498 52.8125 18.5029 52.75 19.0654C52.6875 19.5654 52.625 20.2373 52.5625 21.0811C52.5 21.8936 52.4375 22.9248 52.375 24.1748C52.0625 23.5498 51.7656 23.0654 51.4844 22.7217C51.2344 22.3467 51.0156 22.0654 50.8281 21.8779C50.5781 21.6592 50.3594 21.5029 50.1719 21.4092C49.9531 21.3467 49.6562 21.2842 49.2812 21.2217C48.9375 21.1592 48.5 21.1279 47.9688 21.1279C47.4688 21.0967 46.8125 21.0654 46 21.0342C46 22.8779 46.0312 24.3623 46.0938 25.4873C46.1875 26.6123 46.2812 27.4873 46.375 28.1123C46.5 28.8623 46.6406 29.3936 46.7969 29.7061C46.9844 29.9873 47.25 30.3154 47.5938 30.6904C47.9062 31.0342 48.3281 31.4404 48.8594 31.9092C49.3906 32.3779 50.0781 32.9092 50.9219 33.5029C50.2031 33.6592 49.5156 33.7686 48.8594 33.8311C48.2344 33.8623 47.6562 33.9092 47.125 33.9717C46.5312 34.0342 45.9688 34.0654 45.4375 34.0654C44.875 34.0654 44.1875 34.0967 43.375 34.1592C42.6562 34.2217 41.7656 34.2842 40.7031 34.3467C39.6406 34.4092 38.3594 34.4873 36.8594 34.5811C37.3906 34.0498 37.8125 33.5654 38.125 33.1279C38.4688 32.6592 38.7344 32.2529 38.9219 31.9092C39.1406 31.5342 39.2969 31.2061 39.3906 30.9248C39.4531 30.5811 39.5469 30.0029 39.6719 29.1904C39.7656 28.5029 39.875 27.5498 40 26.3311C40.125 25.1123 40.2656 23.5029 40.4219 21.5029L27.6719 21.6436L27.9062 18.5029C29.4375 16.3154 30.6562 14.5029 31.5625 13.0654C32.5 11.5967 33.2188 10.4092 33.7188 9.50293C34.2812 8.47168 34.6875 7.65918 34.9375 7.06543C35.0938 6.50293 35.2344 5.90918 35.3594 5.28418C35.4844 4.75293 35.5938 4.12793 35.6875 3.40918C35.7812 2.65918 35.8281 1.87793 35.8281 1.06543ZM40.9844 17.0498C41.0469 16.2061 41.0938 15.4404 41.125 14.7529C41.1875 14.0342 41.2344 13.4092 41.2656 12.8779C41.2969 12.2842 41.3125 11.7217 41.3125 11.1904V9.45605C41.3125 8.89355 41.3125 8.2373 41.3125 7.4873C41.3438 6.70605 41.375 5.83105 41.4062 4.8623L34.5156 17.1436L40.9844 17.0498Z" fill="#E9CAFF"/>
</svg>
