<svg width="53" height="36" viewBox="0 0 53 36" fill="none" xmlns="http://www.w3.org/2000/svg">
<path d="M14.0156 0.688477C15.4531 0.657227 16.9062 0.985352 18.375 1.67285C19.8438 2.36035 21.1719 3.40723 22.3594 4.81348C23.5469 6.18848 24.5156 7.92285 25.2656 10.0166C26.0156 12.1104 26.4062 14.5635 26.4375 17.376C26.4688 19.251 26.3281 20.9541 26.0156 22.4854C25.7031 24.0166 25.2812 25.3916 24.75 26.6104C24.2188 27.7979 23.6094 28.8604 22.9219 29.7979C22.2656 30.7041 21.5938 31.4854 20.9062 32.1416C20.2188 32.7666 19.5625 33.2666 18.9375 33.6416C18.3125 34.0166 17.7812 34.2666 17.3438 34.3916C16.7812 34.5791 16.1094 34.751 15.3281 34.9072C14.5469 35.0322 13.7344 35.1104 12.8906 35.1416C12.0469 35.2041 11.2031 35.1572 10.3594 35.001C9.54688 34.876 8.82812 34.626 8.20312 34.251C7.57812 33.876 6.84375 33.3447 6 32.6572C5.1875 31.9385 4.40625 30.9697 3.65625 29.751C2.90625 28.501 2.26562 26.9385 1.73438 25.0635C1.20312 23.1885 0.9375 20.8916 0.9375 18.1729C0.9375 15.4541 1.25 13.0166 1.875 10.8604C2.53125 8.7041 3.42188 6.87598 4.54688 5.37598C5.70312 3.87598 7.07812 2.73535 8.67188 1.9541C10.2969 1.1416 12.0781 0.719727 14.0156 0.688477ZM7.40625 18.126C7.375 19.9697 7.48438 21.5791 7.73438 22.9541C7.98438 24.3291 8.28125 25.4854 8.625 26.4229C8.96875 27.3604 9.3125 28.1104 9.65625 28.6729C10.0312 29.2041 10.3125 29.5791 10.5 29.7979C10.6875 30.0791 11.0312 30.2666 11.5312 30.3604C12.0312 30.4541 12.5625 30.501 13.125 30.501C13.6875 30.4697 14.2344 30.3916 14.7656 30.2666C15.2969 30.1104 15.7031 29.9072 15.9844 29.6572C16.1406 29.501 16.3594 29.1104 16.6406 28.4854C16.9531 27.8604 17.25 27.0479 17.5312 26.0479C17.8438 25.0479 18.125 23.8916 18.375 22.5791C18.625 21.2354 18.7969 19.7979 18.8906 18.2666C18.9844 16.5479 18.9844 14.9697 18.8906 13.5322C18.7969 12.0635 18.6562 10.7822 18.4688 9.68848C18.2812 8.59473 18.0625 7.68848 17.8125 6.96973C17.5625 6.25098 17.2969 5.7666 17.0156 5.5166C16.6094 5.1416 16.1094 4.87598 15.5156 4.71973C14.9531 4.56348 14.375 4.50098 13.7812 4.53223C13.2188 4.56348 12.6719 4.67285 12.1406 4.86035C11.6406 5.04785 11.25 5.29785 10.9688 5.61035C10.4062 6.23535 9.90625 6.8916 9.46875 7.5791C9.03125 8.2666 8.67188 9.09473 8.39062 10.0635C8.10938 11.0322 7.875 12.1729 7.6875 13.4854C7.53125 14.7666 7.4375 16.3135 7.40625 18.126ZM29.5938 1.9541C30.1875 2.3916 30.7812 2.71973 31.375 2.93848C32 3.12598 32.5625 3.25098 33.0625 3.31348C33.625 3.40723 34.1875 3.42285 34.75 3.36035C35.2812 3.29785 35.8281 3.11035 36.3906 2.79785C36.9531 2.48535 37.6094 2.15723 38.3594 1.81348C39.1094 1.46973 39.9844 1.17285 40.9844 0.922852C42.0156 0.641602 43.25 0.500977 44.6875 0.500977C45.3125 0.500977 45.9688 0.625977 46.6562 0.875977C47.375 1.12598 48.0625 1.4541 48.7188 1.86035C49.375 2.23535 49.9688 2.65723 50.5 3.12598C51.0625 3.59473 51.4844 4.06348 51.7656 4.53223C52.0781 5.00098 52.2969 5.7666 52.4219 6.8291C52.5469 7.86035 52.5938 8.98535 52.5625 10.2041C52.5312 11.4229 52.4219 12.626 52.2344 13.8135C52.0781 15.001 51.8438 15.9697 51.5312 16.7197C51.1562 17.376 50.4375 18.2197 49.375 19.251C48.4688 20.126 47.1094 21.251 45.2969 22.626C43.4844 24.001 41.0469 25.6416 37.9844 27.5479C39.7969 27.5166 41.3125 27.4697 42.5312 27.4072C43.7812 27.3135 44.7969 27.2197 45.5781 27.126C46.4844 27.001 47.2031 26.876 47.7344 26.751C48.2031 26.5635 48.7031 26.2979 49.2344 25.9541C49.6719 25.6416 50.1406 25.2354 50.6406 24.7354C51.1719 24.2354 51.6875 23.5791 52.1875 22.7666C52.2812 24.4541 52.375 25.7822 52.4688 26.751C52.5312 27.3135 52.5781 27.7979 52.6094 28.2041C52.6406 28.5791 52.6719 29.0166 52.7031 29.5166C52.7344 29.9541 52.75 30.4541 52.75 31.0166C52.7812 31.5791 52.8281 32.1729 52.8906 32.7979C51.3281 32.3916 49.9062 32.0791 48.625 31.8604C47.3438 31.6104 46.25 31.4385 45.3438 31.3447C44.2812 31.2197 43.3281 31.1572 42.4844 31.1572C41.6094 31.1885 40.6406 31.2666 39.5781 31.3916C38.6406 31.5166 37.5156 31.7041 36.2031 31.9541C34.9219 32.1729 33.4688 32.501 31.8438 32.9385C31.7188 32.5947 31.6094 32.251 31.5156 31.9072C31.4219 31.5322 31.3438 31.1729 31.2812 30.8291C31.1875 30.4541 31.1094 30.0791 31.0469 29.7041C30.9844 29.3291 30.9219 28.9697 30.8594 28.626C30.7969 28.3135 30.75 27.9854 30.7188 27.6416C30.6875 27.2979 30.6562 26.9697 30.625 26.6572C33.125 25.0635 35.1562 23.626 36.7188 22.3447C38.2812 21.0322 39.5156 19.9229 40.4219 19.0166C41.4531 17.9541 42.2344 16.9854 42.7656 16.1104C43.2969 15.0479 43.7344 13.876 44.0781 12.5947C44.4219 11.3135 44.5312 10.126 44.4062 9.03223C44.3125 7.93848 43.9375 7.04785 43.2812 6.36035C42.625 5.6416 41.5781 5.3291 40.1406 5.42285C39.2031 5.48535 38.3125 5.81348 37.4688 6.40723C36.6562 7.00098 35.9062 7.71973 35.2188 8.56348C34.5312 9.40723 33.9219 10.3135 33.3906 11.2822C32.8594 12.2197 32.4062 13.1104 32.0312 13.9541C31.6875 14.7979 31.4062 15.501 31.1875 16.0635C31 16.626 30.9062 16.9229 30.9062 16.9541C30.875 17.0166 30.8281 16.7822 30.7656 16.251C30.7344 15.7197 30.6875 15.0635 30.625 14.2822C30.5938 13.4697 30.5469 12.626 30.4844 11.751C30.4219 10.876 30.3594 10.1416 30.2969 9.54785C30.2656 9.0791 30.2188 8.46973 30.1562 7.71973C30.0625 6.50098 29.875 4.5791 29.5938 1.9541Z" fill="#E9CAFF"/>
</svg>
