<svg width="53" height="36" viewBox="0 0 53 36" fill="none" xmlns="http://www.w3.org/2000/svg">
<path d="M14.0156 0.689453C15.4531 0.658203 16.9062 0.986328 18.375 1.67383C19.8438 2.36133 21.1719 3.4082 22.3594 4.81445C23.5469 6.18945 24.5156 7.92383 25.2656 10.0176C26.0156 12.1113 26.4062 14.5645 26.4375 17.377C26.4688 19.252 26.3281 20.9551 26.0156 22.4863C25.7031 24.0176 25.2812 25.3926 24.75 26.6113C24.2188 27.7988 23.6094 28.8613 22.9219 29.7988C22.2656 30.7051 21.5938 31.4863 20.9062 32.1426C20.2188 32.7676 19.5625 33.2676 18.9375 33.6426C18.3125 34.0176 17.7812 34.2676 17.3438 34.3926C16.7812 34.5801 16.1094 34.752 15.3281 34.9082C14.5469 35.0332 13.7344 35.1113 12.8906 35.1426C12.0469 35.2051 11.2031 35.1582 10.3594 35.002C9.54688 34.877 8.82812 34.627 8.20312 34.252C7.57812 33.877 6.84375 33.3457 6 32.6582C5.1875 31.9395 4.40625 30.9707 3.65625 29.752C2.90625 28.502 2.26562 26.9395 1.73438 25.0645C1.20312 23.1895 0.9375 20.8926 0.9375 18.1738C0.9375 15.4551 1.25 13.0176 1.875 10.8613C2.53125 8.70508 3.42188 6.87695 4.54688 5.37695C5.70312 3.87695 7.07812 2.73633 8.67188 1.95508C10.2969 1.14258 12.0781 0.720703 14.0156 0.689453ZM7.40625 18.127C7.375 19.9707 7.48438 21.5801 7.73438 22.9551C7.98438 24.3301 8.28125 25.4863 8.625 26.4238C8.96875 27.3613 9.3125 28.1113 9.65625 28.6738C10.0312 29.2051 10.3125 29.5801 10.5 29.7988C10.6875 30.0801 11.0312 30.2676 11.5312 30.3613C12.0312 30.4551 12.5625 30.502 13.125 30.502C13.6875 30.4707 14.2344 30.3926 14.7656 30.2676C15.2969 30.1113 15.7031 29.9082 15.9844 29.6582C16.1406 29.502 16.3594 29.1113 16.6406 28.4863C16.9531 27.8613 17.25 27.0488 17.5312 26.0488C17.8438 25.0488 18.125 23.8926 18.375 22.5801C18.625 21.2363 18.7969 19.7988 18.8906 18.2676C18.9844 16.5488 18.9844 14.9707 18.8906 13.5332C18.7969 12.0645 18.6562 10.7832 18.4688 9.68945C18.2812 8.5957 18.0625 7.68945 17.8125 6.9707C17.5625 6.25195 17.2969 5.76758 17.0156 5.51758C16.6094 5.14258 16.1094 4.87695 15.5156 4.7207C14.9531 4.56445 14.375 4.50195 13.7812 4.5332C13.2188 4.56445 12.6719 4.67383 12.1406 4.86133C11.6406 5.04883 11.25 5.29883 10.9688 5.61133C10.4062 6.23633 9.90625 6.89258 9.46875 7.58008C9.03125 8.26758 8.67188 9.0957 8.39062 10.0645C8.10938 11.0332 7.875 12.1738 7.6875 13.4863C7.53125 14.7676 7.4375 16.3145 7.40625 18.127ZM29.125 0.736328C29.6562 1.11133 30.2031 1.39258 30.7656 1.58008C31.3281 1.76758 31.8281 1.9082 32.2656 2.00195C32.7969 2.12695 33.3125 2.18945 33.8125 2.18945C34.4375 2.18945 35 2.11133 35.5 1.95508C36.0312 1.79883 36.6094 1.64258 37.2344 1.48633C37.8594 1.33008 38.5781 1.20508 39.3906 1.11133C40.2031 0.986328 41.2188 0.970703 42.4375 1.06445C43.6562 1.1582 44.75 1.43945 45.7188 1.9082C46.6875 2.3457 47.5 2.9082 48.1562 3.5957C48.8438 4.25195 49.375 4.98633 49.75 5.79883C50.125 6.61133 50.3125 7.43945 50.3125 8.2832C50.25 9.56445 50.0469 10.7676 49.7031 11.8926C49.3906 12.8613 48.9062 13.8145 48.25 14.752C47.5938 15.6582 46.625 16.2988 45.3438 16.6738C46.9062 16.8926 48.125 17.2988 49 17.8926C49.9062 18.4863 50.6094 19.0957 51.1094 19.7207C51.6719 20.4707 52.0625 21.2832 52.2812 22.1582C52.4688 23.3145 52.4531 24.502 52.2344 25.7207C52.0156 26.9082 51.6094 28.0332 51.0156 29.0957C50.4531 30.127 49.6719 31.0488 48.6719 31.8613C47.7031 32.6426 46.5312 33.2207 45.1562 33.5957C44.2188 33.8457 43.1406 33.9082 41.9219 33.7832C40.7344 33.627 39.5781 33.4082 38.4531 33.127C37.3281 32.8457 36.3125 32.5645 35.4062 32.2832C34.5 32.002 33.875 31.877 33.5312 31.9082C33.25 31.9395 32.9219 32.0488 32.5469 32.2363C32.2031 32.3926 31.7969 32.6426 31.3281 32.9863C30.8906 33.2988 30.3594 33.752 29.7344 34.3457C29.8906 32.9395 30 31.8145 30.0625 30.9707C30.1562 30.127 30.2344 29.4551 30.2969 28.9551C30.3594 28.3926 30.3906 27.9707 30.3906 27.6895V26.6582C30.3906 26.2832 30.375 25.7988 30.3438 25.2051C30.3125 24.6113 30.2812 23.8613 30.25 22.9551C31.8438 24.8926 33.3438 26.3457 34.75 27.3145C36.1562 28.2832 37.3906 28.9863 38.4531 29.4238C39.7031 29.9238 40.8438 30.1582 41.875 30.127C42.75 30.0645 43.4531 29.7832 43.9844 29.2832C44.5156 28.752 44.8906 28.127 45.1094 27.4082C45.3281 26.6895 45.4062 25.9238 45.3438 25.1113C45.2812 24.2676 45.0781 23.4863 44.7344 22.7676C44.4219 22.0176 43.9844 21.377 43.4219 20.8457C42.8594 20.2832 42.2031 19.9395 41.4531 19.8145C40.5469 19.6582 39.6875 19.6426 38.875 19.7676C38.1562 19.8613 37.4062 20.0801 36.625 20.4238C35.8438 20.7363 35.1875 21.2832 34.6562 22.0645C34.5938 21.5332 34.5469 21.0801 34.5156 20.7051C34.5156 20.3301 34.5 20.0176 34.4688 19.7676C34.4375 19.4863 34.4219 19.2832 34.4219 19.1582C34.4219 19.002 34.4062 18.7676 34.375 18.4551C34.3438 18.2051 34.3125 17.877 34.2812 17.4707C34.2812 17.0332 34.25 16.4863 34.1875 15.8301C34.75 15.9863 35.2812 16.1113 35.7812 16.2051C36.2812 16.2676 36.7188 16.3145 37.0938 16.3457C37.5312 16.377 37.9375 16.377 38.3125 16.3457C38.7812 16.3145 39.3438 16.1426 40 15.8301C40.6875 15.4863 41.3281 15.0332 41.9219 14.4707C42.5156 13.9082 42.9844 13.2363 43.3281 12.4551C43.7031 11.6738 43.8281 10.8145 43.7031 9.87695C43.4219 7.9707 42.7812 6.61133 41.7812 5.79883C40.8125 4.95508 39.8125 4.56445 38.7812 4.62695C38.0938 4.7207 37.2812 5.04883 36.3438 5.61133C35.5312 6.08008 34.5625 6.79883 33.4375 7.76758C32.3438 8.70508 31.0938 10.0332 29.6875 11.752C29.75 10.9082 29.7812 10.1582 29.7812 9.50195C29.7812 8.81445 29.7812 8.25195 29.7812 7.81445C29.7812 7.2832 29.7656 6.81445 29.7344 6.4082L29.5938 5.00195C29.5312 4.5332 29.4688 3.93945 29.4062 3.2207C29.3438 2.50195 29.25 1.67383 29.125 0.736328Z" fill="#E9CAFF"/>
</svg>
