<svg width="219" height="45" viewBox="0 0 219 45" fill="none" xmlns="http://www.w3.org/2000/svg">
<g filter="url(#filter0_d_42_181)">
<path d="M6.12 42.64C4.16 41.28 2.36 39.28 0.72 36.64C1.16 23.72 1.7 13.94 2.34 7.3C3.1 5.02 4.08 3.1 5.28 1.54C11.92 0.899998 17.92 0.979999 23.28 1.78C24.56 3.58 25.46 5.18 25.98 6.58C27.54 19.38 28.2 29.34 27.96 36.46C26.64 38.74 25.2 40.68 23.64 42.28C16.68 43.24 10.84 43.36 6.12 42.64ZM10.62 11.08C9.82 18.48 9.56 25.82 9.84 33.1C13.68 33.02 16.4 32.78 18 32.38C17.96 20.26 17.78 13.16 17.46 11.08C14.38 10.48 12.1 10.48 10.62 11.08ZM56.0081 14.56C56.0881 18.8 56.0881 23 56.0081 27.16C55.9281 31.28 55.8281 34.86 55.7081 37.9C55.5881 40.9 55.4881 42.44 55.4081 42.52C49.6481 43.16 41.4481 43.16 30.8081 42.52C29.8481 35.96 29.7081 26.7 30.3881 14.74L39.5081 15.1C39.5881 17.3 39.6681 20.34 39.7481 24.22C39.8281 28.06 39.8881 30.78 39.9281 32.38H45.7481L45.9881 14.56H56.0081ZM80.7661 16L81.9061 23.08C81.0261 23.6 79.9261 24.08 78.6061 24.52C77.3261 24.96 76.2461 25.26 75.3661 25.42L74.0461 25.66L73.4461 23.74C72.0861 23.62 70.1261 23.9 67.5661 24.58L68.7061 42.64L58.6261 42.52L58.5061 14.74L66.9661 14.56L67.0261 15.46C71.9061 13.9 76.4861 14.08 80.7661 16ZM106.726 10.66L98.8059 10.24L97.5459 1.96C97.7459 1.92 98.0259 1.88 98.3859 1.84C98.7859 1.8 99.5859 1.74 100.786 1.66C101.986 1.54 103.186 1.44 104.386 1.36C105.586 1.28 107.046 1.2 108.766 1.12C110.486 0.999998 112.146 0.919998 113.746 0.879999C115.346 0.839999 117.026 0.839999 118.786 0.879999C120.586 0.919998 122.246 0.979997 123.766 1.06L123.286 11.02L115.606 10.48L117.286 42.04L106.786 42.52L106.726 10.66ZM146.267 34.66C146.307 34.74 146.347 34.86 146.387 35.02C146.467 35.18 146.587 35.56 146.747 36.16C146.907 36.72 147.007 37.28 147.047 37.84C147.127 38.4 147.187 39.14 147.227 40.06C147.267 40.98 147.187 41.86 146.987 42.7C145.747 42.78 144.127 42.86 142.127 42.94C140.167 42.98 136.927 42.92 132.407 42.76C127.927 42.6 124.407 42.22 121.847 41.62C121.607 34.82 121.507 30.36 121.547 28.24C121.587 26.12 121.767 23.22 122.087 19.54C123.087 17.62 124.327 15.9 125.807 14.38C135.407 13.54 142.107 13.5 145.907 14.26C146.027 14.82 146.147 15.56 146.267 16.48C146.427 17.36 146.587 18.92 146.747 21.16C146.947 23.36 147.007 25.24 146.927 26.8L146.867 27.58C146.347 27.9 145.627 28.28 144.707 28.72C143.787 29.16 141.967 29.86 139.247 30.82C136.567 31.78 133.987 32.48 131.507 32.92C131.587 33.72 131.687 34.5 131.807 35.26L146.267 34.66ZM131.147 22.42L131.087 26.2C133.487 25.64 135.587 25.12 137.387 24.64L137.087 22.06C134.447 21.78 132.467 21.9 131.147 22.42ZM174.768 15.1C176.048 24.82 176.828 33.86 177.108 42.22L166.068 42.94V41.2L153.108 43.12C151.988 42.36 150.848 41.42 149.688 40.3C149.408 38.3 149.208 36.08 149.088 33.64C149.008 31.2 148.988 28.96 149.028 26.92C149.108 24.88 149.188 22.98 149.268 21.22C149.388 19.46 149.488 18.08 149.568 17.08L149.748 15.58C150.708 15.18 151.808 14.9 153.048 14.74C154.328 14.54 155.528 14.46 156.648 14.5C157.768 14.54 158.808 14.6 159.768 14.68C160.728 14.76 161.488 14.86 162.048 14.98L162.888 15.16L165.828 15.76V15.1H174.768ZM159.408 32.68H165.948L165.888 25.66L158.868 24.52L159.408 32.68ZM217.193 16C217.953 24.48 217.973 33.46 217.253 42.94L208.193 42.64L208.553 23.62C207.193 23.5 205.353 23.72 203.033 24.28L203.573 42.94L193.853 42.64L194.213 23.62C192.853 23.5 190.993 23.74 188.633 24.34L189.053 42.64L179.453 42.52C178.893 32.92 178.853 23.66 179.333 14.74L188.453 14.56V15.22C193.453 14.1 197.833 14.2 201.593 15.52C207.633 13.88 212.833 14.04 217.193 16Z" fill="#FBFDFF"/>
<path d="M6.12 42.64L5.74467 43.1809L5.86996 43.2678L6.02072 43.2908L6.12 42.64ZM0.72 36.64L0.0620067 36.6176L0.0551986 36.8175L0.160749 36.9874L0.72 36.64ZM2.34 7.3L1.71541 7.0918L1.69182 7.16258L1.68466 7.23683L2.34 7.3ZM5.28 1.54L5.21684 0.88466L4.93239 0.912076L4.75816 1.13858L5.28 1.54ZM23.28 1.78L23.8165 1.39845L23.6542 1.17018L23.3772 1.12884L23.28 1.78ZM25.98 6.58L26.6335 6.50035L26.6242 6.42341L26.5972 6.35076L25.98 6.58ZM27.96 36.46L28.5298 36.7899L28.6124 36.6471L28.618 36.4822L27.96 36.46ZM23.64 42.28L23.73 42.9322L23.9537 42.9013L24.1114 42.7396L23.64 42.28ZM10.62 11.08L10.3726 10.4699L10.0078 10.6178L9.96544 11.0092L10.62 11.08ZM9.84 33.1L9.18211 33.1253L9.20697 33.7717L9.85371 33.7582L9.84 33.1ZM18 32.38L18.1597 33.0187L18.6601 32.8936L18.6584 32.3778L18 32.38ZM17.46 11.08L18.1107 10.9799L18.0403 10.5223L17.5859 10.4338L17.46 11.08ZM6.49533 42.0991C4.62793 40.8033 2.88552 38.8783 1.27925 36.2926L0.160749 36.9874C1.83448 39.6817 3.69207 41.7567 5.74467 43.1809L6.49533 42.0991ZM1.37799 36.6624C1.81787 23.7459 2.35735 13.9823 2.99534 7.36316L1.68466 7.23683C1.04265 13.8977 0.502127 23.6941 0.0620067 36.6176L1.37799 36.6624ZM2.96459 7.50819C3.70632 5.28301 4.65528 3.43194 5.80184 1.94142L4.75816 1.13858C3.50472 2.76805 2.49368 4.75699 1.71541 7.0918L2.96459 7.50819ZM5.34317 2.19533C11.9415 1.55935 17.8864 1.64066 23.1828 2.43116L23.3772 1.12884C17.9536 0.319342 11.8985 0.240645 5.21684 0.88466L5.34317 2.19533ZM22.7435 2.16154C24.0044 3.9347 24.87 5.48244 25.3628 6.80923L26.5972 6.35076C26.05 4.87756 25.1156 3.2253 23.8165 1.39845L22.7435 2.16154ZM25.3265 6.65965C26.8851 19.4482 27.5403 29.3687 27.302 36.4378L28.618 36.4822C28.8597 29.3113 28.1949 19.3118 26.6335 6.50035L25.3265 6.65965ZM27.3902 36.1301C26.0928 38.3711 24.6845 40.2656 23.1686 41.8204L24.1114 42.7396C25.7155 41.0944 27.1872 39.1089 28.5298 36.7899L27.3902 36.1301ZM23.55 41.6278C16.6262 42.5828 10.8546 42.6962 6.21928 41.9892L6.02072 43.2908C10.8254 44.0238 16.7338 43.8972 23.73 42.9322L23.55 41.6278ZM9.96544 11.0092C9.16207 18.4404 8.90085 25.8126 9.18211 33.1253L10.4979 33.0747C10.2191 25.8274 10.4779 18.5196 11.2746 11.1508L9.96544 11.0092ZM9.85371 33.7582C13.6954 33.6782 16.4811 33.4384 18.1597 33.0187L17.8403 31.7413C16.3189 32.1216 13.6646 32.3618 9.82629 32.4418L9.85371 33.7582ZM18.6584 32.3778C18.6384 26.3158 18.5833 21.5053 18.4932 17.9483C18.4034 14.409 18.2783 12.0694 18.1107 10.9799L16.8093 11.1801C16.9617 12.1706 17.0866 14.421 17.1768 17.9817C17.2667 21.5247 17.3216 26.3242 17.3416 32.3822L18.6584 32.3778ZM17.5859 10.4338C14.4811 9.82895 12.0393 9.79417 10.3726 10.4699L10.8674 11.6901C12.1607 11.1658 14.2789 11.131 17.3341 11.7262L17.5859 10.4338ZM56.0081 14.56L56.6664 14.5476L56.6542 13.9016H56.0081V14.56ZM56.0081 27.16L56.6664 27.1728V27.1727L56.0081 27.16ZM55.7081 37.9L56.366 37.9263L56.366 37.926L55.7081 37.9ZM55.4081 42.52L55.4808 43.1743L55.7104 43.1488L55.8737 42.9855L55.4081 42.52ZM30.8081 42.52L30.1567 42.6153L30.2342 43.145L30.7686 43.1772L30.8081 42.52ZM30.3881 14.74L30.4141 14.0821L29.7675 14.0566L29.7308 14.7026L30.3881 14.74ZM39.5081 15.1L40.1661 15.0761L40.1439 14.4662L39.5341 14.4421L39.5081 15.1ZM39.7481 24.22L39.0899 24.2336L39.0899 24.2337L39.7481 24.22ZM39.9281 32.38L39.27 32.3965L39.286 33.0384H39.9281V32.38ZM45.7481 32.38V33.0384H46.3977L46.4064 32.3889L45.7481 32.38ZM45.9881 14.56V13.9016H45.3386L45.3298 14.5511L45.9881 14.56ZM55.3499 14.5724C55.4297 18.8042 55.4297 22.9959 55.3499 27.1473L56.6664 27.1727C56.7465 23.0041 56.7465 18.7958 56.6664 14.5476L55.3499 14.5724ZM55.3499 27.1472C55.2699 31.2642 55.17 34.8396 55.0503 37.874L56.366 37.926C56.4862 34.8803 56.5863 31.2958 56.6664 27.1728L55.3499 27.1472ZM55.0503 37.8737C54.9903 39.3723 54.9356 40.5007 54.8861 41.2623C54.8613 41.6445 54.8383 41.9263 54.8175 42.1135C54.8069 42.2089 54.7982 42.2675 54.7924 42.298C54.7892 42.3146 54.7895 42.3088 54.7953 42.2905C54.7981 42.2814 54.806 42.2573 54.8209 42.226C54.8319 42.2028 54.8678 42.1292 54.9426 42.0545L55.8737 42.9855C55.9534 42.9058 55.9944 42.8243 56.0105 42.7904C56.0305 42.7484 56.0434 42.7108 56.0514 42.6853C56.0675 42.6342 56.0783 42.5841 56.0857 42.5451C56.1012 42.4644 56.1143 42.3661 56.1262 42.259C56.1504 42.0412 56.1749 41.7355 56.2001 41.3477C56.2507 40.5693 56.3059 39.4277 56.366 37.9263L55.0503 37.8737ZM55.3354 41.8657C49.6316 42.4994 41.4758 42.5021 30.8477 41.8628L30.7686 43.1772C41.4205 43.8179 49.6647 43.8206 55.4808 43.1743L55.3354 41.8657ZM31.4596 42.4247C30.5092 35.9304 30.3663 26.7224 31.0454 14.7774L29.7308 14.7026C29.05 26.6776 29.1871 35.9896 30.1567 42.6153L31.4596 42.4247ZM30.3622 15.3979L39.4822 15.7579L39.5341 14.4421L30.4141 14.0821L30.3622 15.3979ZM38.8502 15.1239C38.93 17.3188 39.0099 20.3549 39.0899 24.2336L40.4064 24.2064C40.3263 20.3251 40.2463 17.2812 40.1661 15.0761L38.8502 15.1239ZM39.0899 24.2337C39.1699 28.0737 39.2299 30.7949 39.27 32.3965L40.5863 32.3635C40.5463 30.7651 40.4864 28.0463 40.4064 24.2063L39.0899 24.2337ZM39.9281 33.0384H45.7481V31.7216H39.9281V33.0384ZM46.4064 32.3889L46.6464 14.5689L45.3298 14.5511L45.0898 32.3711L46.4064 32.3889ZM45.9881 15.2184H56.0081V13.9016H45.9881V15.2184ZM80.7661 16L81.4161 15.8953L81.3596 15.5447L81.0356 15.3993L80.7661 16ZM81.9061 23.08L82.241 23.6468L82.6274 23.4185L82.5561 22.9753L81.9061 23.08ZM78.6061 24.52L78.3979 23.8954L78.3921 23.8974L78.6061 24.52ZM75.3661 25.42L75.4839 26.0678L75.3661 25.42ZM74.0461 25.66L73.4177 25.8564L73.5913 26.4119L74.1639 26.3078L74.0461 25.66ZM73.4461 23.74L74.0745 23.5436L73.943 23.1229L73.504 23.0842L73.4461 23.74ZM67.5661 24.58L67.3971 23.9437L66.875 24.0824L66.909 24.6215L67.5661 24.58ZM68.7061 42.64L68.6983 43.2983L69.4079 43.3068L69.3632 42.5985L68.7061 42.64ZM58.6261 42.52L57.9677 42.5228L57.9705 43.1706L58.6183 43.1783L58.6261 42.52ZM58.5061 14.74L58.4921 14.0818L57.8449 14.0955L57.8477 14.7428L58.5061 14.74ZM66.9661 14.56L67.623 14.5162L67.5812 13.8884L66.9521 13.9018L66.9661 14.56ZM67.0261 15.46L66.3692 15.5038L66.4251 16.3433L67.2266 16.0871L67.0261 15.46ZM80.1161 16.1047L81.2561 23.1847L82.5561 22.9753L81.4161 15.8953L80.1161 16.1047ZM81.5712 22.5132C80.7427 23.0028 79.6884 23.4652 78.3979 23.8954L78.8143 25.1446C80.1638 24.6948 81.3095 24.1972 82.241 23.6468L81.5712 22.5132ZM78.3921 23.8974C77.1293 24.3315 76.0836 24.6204 75.2483 24.7722L75.4839 26.0678C76.4086 25.8996 77.5229 25.5885 78.8201 25.1426L78.3921 23.8974ZM75.2483 24.7722L73.9283 25.0122L74.1639 26.3078L75.4839 26.0678L75.2483 24.7722ZM74.6745 25.4636L74.0745 23.5436L72.8177 23.9364L73.4177 25.8564L74.6745 25.4636ZM73.504 23.0842C72.026 22.9538 69.975 23.2589 67.3971 23.9437L67.7351 25.2163C70.2772 24.5411 72.1462 24.2862 73.3882 24.3958L73.504 23.0842ZM66.909 24.6215L68.049 42.6815L69.3632 42.5985L68.2232 24.5385L66.909 24.6215ZM68.7139 41.9817L58.6339 41.8617L58.6183 43.1783L68.6983 43.2983L68.7139 41.9817ZM59.2845 42.5172L59.1645 14.7372L57.8477 14.7428L57.9677 42.5228L59.2845 42.5172ZM58.5201 15.3982L66.9801 15.2182L66.9521 13.9018L58.4921 14.0818L58.5201 15.3982ZM66.3092 14.6038L66.3692 15.5038L67.683 15.4162L67.623 14.5162L66.3092 14.6038ZM67.2266 16.0871C71.9674 14.5716 76.3788 14.7535 80.4966 16.6007L81.0356 15.3993C76.5934 13.4065 71.8447 13.2284 66.8256 14.8329L67.2266 16.0871ZM106.726 10.66L107.384 10.6588L107.383 10.0355L106.761 10.0025L106.726 10.66ZM98.8059 10.24L98.1551 10.339L98.2357 10.8691L98.7711 10.8975L98.8059 10.24ZM97.5459 1.96L97.4168 1.31441L96.8005 1.43768L96.8951 2.05905L97.5459 1.96ZM98.3859 1.84L98.3204 1.18485L98.3132 1.18565L98.3859 1.84ZM100.786 1.66L100.83 2.31692L100.841 2.31619L100.851 2.31511L100.786 1.66ZM104.386 1.36L104.43 2.01692L104.386 1.36ZM108.766 1.12L108.797 1.77766L108.804 1.77731L108.812 1.77678L108.766 1.12ZM113.746 0.879999L113.729 0.22183L113.746 0.879999ZM118.786 0.879999L118.771 1.5382L118.771 1.53821L118.786 0.879999ZM123.766 1.06L124.424 1.09169L124.455 0.436982L123.801 0.402532L123.766 1.06ZM123.286 11.02L123.24 11.6768L123.911 11.724L123.944 11.0517L123.286 11.02ZM115.606 10.48L115.652 9.82324L114.909 9.77099L114.948 10.515L115.606 10.48ZM117.286 42.04L117.316 42.6977L117.979 42.6674L117.943 42.005L117.286 42.04ZM106.786 42.52L106.128 42.5212L106.129 43.2091L106.816 43.1777L106.786 42.52ZM106.761 10.0025L98.8408 9.58255L98.7711 10.8975L106.691 11.3174L106.761 10.0025ZM99.4568 10.141L98.1968 1.86095L96.8951 2.05905L98.1551 10.339L99.4568 10.141ZM97.6751 2.60559C97.8474 2.57112 98.1055 2.53358 98.4586 2.49435L98.3132 1.18565C97.9464 1.22641 97.6445 1.26888 97.4168 1.31441L97.6751 2.60559ZM98.4514 2.4951C98.8388 2.45637 99.6279 2.39703 100.83 2.31692L100.742 1.00308C99.5439 1.08296 98.7331 1.14363 98.3204 1.18489L98.4514 2.4951ZM100.851 2.31511C102.044 2.19583 103.237 2.09643 104.43 2.01692L104.342 0.703083C103.135 0.783566 101.928 0.88417 100.72 1.00489L100.851 2.31511ZM104.43 2.01692C105.624 1.9373 107.079 1.85754 108.797 1.77766L108.735 0.462335C107.013 0.54246 105.548 0.622694 104.342 0.703083L104.43 2.01692ZM108.812 1.77678C110.523 1.65741 112.173 1.5779 113.762 1.53817L113.729 0.22183C112.119 0.262092 110.449 0.34259 108.72 0.463221L108.812 1.77678ZM113.762 1.53817C115.351 1.49845 117.02 1.49842 118.771 1.5382L118.801 0.221794C117.031 0.18158 115.341 0.181544 113.729 0.22183L113.762 1.53817ZM118.771 1.53821C120.566 1.57809 122.219 1.63787 123.731 1.71746L123.801 0.402532C122.273 0.322126 120.606 0.261908 118.801 0.221786L118.771 1.53821ZM123.108 1.0283L122.628 10.9883L123.944 11.0517L124.424 1.09169L123.108 1.0283ZM123.332 10.3632L115.652 9.82324L115.56 11.1368L123.24 11.6768L123.332 10.3632ZM114.948 10.515L116.628 42.075L117.943 42.005L116.263 10.445L114.948 10.515ZM117.256 41.3823L106.756 41.8623L106.816 43.1777L117.316 42.6977L117.256 41.3823ZM107.444 42.5188L107.384 10.6588L106.068 10.6612L106.128 42.5212L107.444 42.5188ZM146.267 34.66L146.856 34.3656L146.666 33.9845L146.24 34.0022L146.267 34.66ZM146.387 35.02L145.749 35.1797L145.766 35.2498L145.798 35.3144L146.387 35.02ZM146.747 36.16L146.111 36.3297L146.114 36.3409L146.747 36.16ZM147.047 37.84L146.391 37.8869L146.392 37.9101L146.396 37.9331L147.047 37.84ZM146.987 42.7L147.03 43.357L147.515 43.3257L147.628 42.8525L146.987 42.7ZM142.127 42.94L142.141 43.5984L142.154 43.5978L142.127 42.94ZM132.407 42.76L132.384 43.418L132.384 43.418L132.407 42.76ZM121.847 41.62L121.189 41.6432L121.207 42.1462L121.697 42.261L121.847 41.62ZM121.547 28.24L122.206 28.2524L121.547 28.24ZM122.087 19.54L121.503 19.2359L121.443 19.3522L121.431 19.483L122.087 19.54ZM125.807 14.38L125.75 13.7241L125.506 13.7455L125.336 13.9207L125.807 14.38ZM145.907 14.26L146.551 14.122L146.46 13.6992L146.036 13.6144L145.907 14.26ZM146.267 16.48L145.615 16.5652L145.617 16.5815L145.62 16.5978L146.267 16.48ZM146.747 21.16L146.091 21.2069L146.092 21.2196L146.747 21.16ZM146.927 26.8L147.584 26.8505L147.584 26.8421L147.585 26.8337L146.927 26.8ZM146.867 27.58L147.212 28.1407L147.498 27.9649L147.524 27.6305L146.867 27.58ZM144.707 28.72L144.991 29.3139L144.707 28.72ZM139.247 30.82L139.028 30.1992L139.025 30.2002L139.247 30.82ZM131.507 32.92L131.392 32.2717L130.792 32.3783L130.852 32.9855L131.507 32.92ZM131.807 35.26L131.157 35.3627L131.249 35.9421L131.835 35.9178L131.807 35.26ZM131.147 22.42L130.906 21.8074L130.496 21.969L130.489 22.4095L131.147 22.42ZM131.087 26.2L130.429 26.1896L130.416 27.0328L131.237 26.8412L131.087 26.2ZM137.387 24.64L137.557 25.2761L138.107 25.1295L138.041 24.564L137.387 24.64ZM137.087 22.06L137.741 21.984L137.68 21.4608L137.157 21.4053L137.087 22.06ZM145.678 34.9544C145.686 34.9696 145.712 35.0343 145.749 35.1797L147.026 34.8603C146.982 34.6857 146.929 34.5104 146.856 34.3656L145.678 34.9544ZM145.798 35.3144C145.842 35.4024 145.946 35.7116 146.111 36.3296L147.383 35.9904C147.228 35.4084 147.092 34.9576 146.976 34.7256L145.798 35.3144ZM146.114 36.3409C146.262 36.8588 146.354 37.3739 146.391 37.8869L147.704 37.7931C147.661 37.1861 147.552 36.5812 147.38 35.9791L146.114 36.3409ZM146.396 37.9331C146.471 38.4627 146.53 39.1786 146.57 40.0886L147.885 40.0314C147.845 39.1014 147.783 38.3373 147.699 37.7469L146.396 37.9331ZM146.57 40.0886C146.607 40.9518 146.532 41.7706 146.347 42.5475L147.628 42.8525C147.843 41.9494 147.928 41.0082 147.885 40.0314L146.57 40.0886ZM146.945 42.043C145.713 42.1225 144.098 42.2023 142.101 42.2822L142.154 43.5978C144.156 43.5177 145.782 43.4375 147.03 43.357L146.945 42.043ZM142.114 42.2818C140.174 42.3214 136.95 42.262 132.431 42.102L132.384 43.418C136.905 43.578 140.161 43.6386 142.141 43.5982L142.114 42.2818ZM132.431 42.102C127.968 41.9427 124.497 41.5648 121.998 40.979L121.697 42.261C124.318 42.8752 127.886 43.2573 132.384 43.418L132.431 42.102ZM122.505 41.5968C122.265 34.7929 122.166 30.3513 122.206 28.2524L120.889 28.2276C120.849 30.3687 120.95 34.8471 121.189 41.6432L122.505 41.5968ZM122.206 28.2524C122.245 26.1543 122.424 23.2713 122.743 19.597L121.431 19.483C121.111 23.1687 120.929 26.0857 120.889 28.2276L122.206 28.2524ZM122.671 19.8441C123.642 17.9799 124.845 16.3124 126.279 14.8393L125.336 13.9207C123.81 15.4876 122.532 17.2601 121.503 19.2359L122.671 19.8441ZM125.865 15.0359C135.468 14.1956 142.081 14.1662 145.778 14.9056L146.036 13.6144C142.133 12.8338 135.347 12.8844 125.75 13.7241L125.865 15.0359ZM145.264 14.3979C145.378 14.9332 145.496 15.6535 145.615 16.5652L146.92 16.3948C146.799 15.4665 146.676 14.7068 146.551 14.122L145.264 14.3979ZM145.62 16.5978C145.772 17.4385 145.931 18.9658 146.091 21.2069L147.404 21.1131C147.244 18.8742 147.082 17.2815 146.915 16.3622L145.62 16.5978ZM146.092 21.2196C146.29 23.4002 146.348 25.2472 146.27 26.7663L147.585 26.8337C147.667 25.2328 147.605 23.3198 147.403 21.1004L146.092 21.2196ZM146.271 26.7495L146.211 27.5295L147.524 27.6305L147.584 26.8505L146.271 26.7495ZM146.522 27.0193C146.031 27.3218 145.334 27.6904 144.423 28.1261L144.991 29.3139C145.92 28.8696 146.664 28.4782 147.212 28.1407L146.522 27.0193ZM144.423 28.1261C143.54 28.5486 141.752 29.2377 139.028 30.1992L139.466 31.4408C142.182 30.4823 144.035 29.7714 144.991 29.3139L144.423 28.1261ZM139.025 30.2002C136.376 31.1493 133.832 31.839 131.392 32.2717L131.622 33.5682C134.143 33.121 136.759 32.4107 139.469 31.4398L139.025 30.2002ZM130.852 32.9855C130.933 33.7974 131.035 34.5898 131.157 35.3627L132.458 35.1573C132.34 34.4102 132.241 33.6426 132.162 32.8545L130.852 32.9855ZM131.835 35.9178L146.295 35.3178L146.24 34.0022L131.78 34.6022L131.835 35.9178ZM130.489 22.4095L130.429 26.1896L131.746 26.2104L131.806 22.4304L130.489 22.4095ZM131.237 26.8412C133.642 26.2801 135.749 25.7584 137.557 25.2761L137.218 24.0039C135.426 24.4816 133.333 24.9999 130.938 25.5588L131.237 26.8412ZM138.041 24.564L137.741 21.984L136.433 22.136L136.733 24.716L138.041 24.564ZM137.157 21.4053C134.488 21.1223 132.378 21.2277 130.906 21.8074L131.389 23.0326C132.557 22.5723 134.407 22.4377 137.018 22.7147L137.157 21.4053ZM174.768 15.1L175.421 15.014L175.345 14.4416H174.768V15.1ZM177.108 42.22L177.151 42.877L177.787 42.8355L177.766 42.198L177.108 42.22ZM166.068 42.94H165.409V43.6427L166.111 43.597L166.068 42.94ZM166.068 41.2H166.726V40.4369L165.971 40.5487L166.068 41.2ZM153.108 43.12L152.738 43.6648L152.95 43.8089L153.204 43.7713L153.108 43.12ZM149.688 40.3L149.036 40.3913L149.067 40.616L149.231 40.7736L149.688 40.3ZM149.088 33.64L148.43 33.6616L148.43 33.6723L149.088 33.64ZM149.028 26.92L148.37 26.8942L148.37 26.9071L149.028 26.92ZM149.268 21.22L148.611 21.1752L148.61 21.1827L148.61 21.1901L149.268 21.22ZM149.568 17.08L148.914 17.0016L148.913 17.0145L148.912 17.0275L149.568 17.08ZM149.748 15.58L149.495 14.9723L149.14 15.1201L149.094 15.5016L149.748 15.58ZM153.048 14.74L153.132 15.393L153.141 15.3918L153.149 15.3905L153.048 14.74ZM156.648 14.5L156.671 13.842L156.648 14.5ZM162.048 14.98L161.91 15.6238L162.048 14.98ZM162.888 15.16L162.75 15.8038L162.756 15.8051L162.888 15.16ZM165.828 15.76L165.696 16.4051L166.486 16.5663V15.76H165.828ZM165.828 15.1V14.4416H165.169V15.1H165.828ZM159.408 32.68L158.751 32.7235L158.792 33.3384H159.408V32.68ZM165.948 32.68V33.3384H166.612L166.606 32.6744L165.948 32.68ZM165.888 25.66L166.546 25.6544L166.541 25.0991L165.993 25.0101L165.888 25.66ZM158.868 24.52L158.973 23.8701L158.156 23.7374L158.211 24.5635L158.868 24.52ZM174.115 15.186C175.393 24.8882 176.171 33.9067 176.45 42.242L177.766 42.198C177.485 33.8133 176.703 24.7517 175.421 15.014L174.115 15.186ZM177.065 41.563L166.025 42.283L166.111 43.597L177.151 42.877L177.065 41.563ZM166.726 42.94V41.2H165.409V42.94H166.726ZM165.971 40.5487L153.011 42.4687L153.204 43.7713L166.164 41.8513L165.971 40.5487ZM153.477 42.5752C152.394 41.8399 151.283 40.925 150.145 39.8264L149.231 40.7736C150.413 41.915 151.582 42.8801 152.738 43.6648L153.477 42.5752ZM150.34 40.2087C150.063 38.2318 149.865 36.0319 149.745 33.6077L148.43 33.6723C148.551 36.1281 148.753 38.3682 149.036 40.3913L150.34 40.2087ZM149.746 33.6184C149.666 31.1878 149.646 28.9594 149.686 26.9329L148.37 26.9071C148.329 28.9606 148.349 31.2122 148.43 33.6616L149.746 33.6184ZM149.686 26.9458C149.766 24.907 149.846 23.0083 149.926 21.2499L148.61 21.1901C148.53 22.9517 148.45 24.853 148.37 26.8942L149.686 26.9458ZM149.925 21.2648C150.045 19.5057 150.144 18.1287 150.224 17.1325L148.912 17.0275C148.831 18.0313 148.731 19.4143 148.611 21.1752L149.925 21.2648ZM150.221 17.1584L150.402 15.6584L149.094 15.5016L148.914 17.0016L150.221 17.1584ZM150.001 16.1877C150.897 15.8143 151.939 15.5469 153.132 15.393L152.964 14.087C151.677 14.2531 150.518 14.5457 149.495 14.9723L150.001 16.1877ZM153.149 15.3905C154.394 15.196 155.552 15.1197 156.624 15.158L156.671 13.842C155.504 13.8003 154.261 13.884 152.946 14.0895L153.149 15.3905ZM156.624 15.158C157.736 15.1976 158.765 15.2571 159.713 15.3361L159.822 14.0239C158.851 13.9429 157.8 13.8824 156.671 13.842L156.624 15.158ZM159.713 15.3361C160.661 15.4151 161.39 15.5123 161.91 15.6238L162.186 14.3362C161.586 14.2077 160.794 14.1049 159.822 14.0239L159.713 15.3361ZM161.91 15.6238L162.75 15.8038L163.026 14.5162L162.186 14.3362L161.91 15.6238ZM162.756 15.8051L165.696 16.4051L165.959 15.1149L163.019 14.5149L162.756 15.8051ZM166.486 15.76V15.1H165.169V15.76H166.486ZM165.828 15.7584H174.768V14.4416H165.828V15.7584ZM159.408 33.3384H165.948V32.0216H159.408V33.3384ZM166.606 32.6744L166.546 25.6544L165.229 25.6656L165.289 32.6856L166.606 32.6744ZM165.993 25.0101L158.973 23.8701L158.762 25.1699L165.782 26.3099L165.993 25.0101ZM158.211 24.5635L158.751 32.7235L160.065 32.6365L159.525 24.4765L158.211 24.5635ZM217.193 16L217.849 15.9412L217.815 15.5575L217.463 15.3995L217.193 16ZM217.253 42.94L217.232 43.598L217.862 43.6189L217.91 42.9899L217.253 42.94ZM208.193 42.64L207.535 42.6275L207.523 43.2765L208.172 43.298L208.193 42.64ZM208.553 23.62L209.212 23.6325L209.223 23.0182L208.611 22.9642L208.553 23.62ZM203.033 24.28L202.879 23.64L202.36 23.7653L202.375 24.299L203.033 24.28ZM203.573 42.94L203.553 43.5981L204.252 43.6196L204.232 42.921L203.573 42.94ZM193.853 42.64L193.195 42.6275L193.183 43.278L193.833 43.2981L193.853 42.64ZM194.213 23.62L194.872 23.6325L194.883 23.0182L194.271 22.9642L194.213 23.62ZM188.633 24.34L188.471 23.7019L187.963 23.8311L187.975 24.3551L188.633 24.34ZM189.053 42.64L189.045 43.2983L189.727 43.3069L189.712 42.6249L189.053 42.64ZM179.453 42.52L178.796 42.5583L178.832 43.1707L179.445 43.1783L179.453 42.52ZM179.333 14.74L179.32 14.0818L178.709 14.0938L178.676 14.7046L179.333 14.74ZM188.453 14.56H189.112V13.8885L188.44 13.9018L188.453 14.56ZM188.453 15.22H187.795V16.0422L188.597 15.8625L188.453 15.22ZM201.593 15.52L201.375 16.1412L201.568 16.209L201.766 16.1554L201.593 15.52ZM216.538 16.0588C217.294 24.4987 217.315 33.4422 216.597 42.8901L217.91 42.9899C218.632 33.4778 218.613 24.4613 217.849 15.9412L216.538 16.0588ZM217.275 42.282L208.215 41.982L208.172 43.298L217.232 43.598L217.275 42.282ZM208.852 42.6525L209.212 23.6325L207.895 23.6075L207.535 42.6275L208.852 42.6525ZM208.611 22.9642C207.146 22.8349 205.225 23.0738 202.879 23.64L203.188 24.92C205.482 24.3662 207.241 24.1651 208.496 24.2758L208.611 22.9642ZM202.375 24.299L202.915 42.959L204.232 42.921L203.692 24.261L202.375 24.299ZM203.594 42.2819L193.874 41.9819L193.833 43.2981L203.553 43.5981L203.594 42.2819ZM194.512 42.6525L194.872 23.6325L193.555 23.6075L193.195 42.6275L194.512 42.6525ZM194.271 22.9642C192.801 22.8344 190.856 23.0956 188.471 23.7019L188.796 24.9781C191.131 24.3844 192.906 24.1656 194.156 24.2758L194.271 22.9642ZM187.975 24.3551L188.395 42.6551L189.712 42.6249L189.292 24.3249L187.975 24.3551ZM189.062 41.9817L179.462 41.8617L179.445 43.1783L189.045 43.2983L189.062 41.9817ZM180.111 42.4817C179.552 32.9044 179.512 23.669 179.991 14.7754L178.676 14.7046C178.195 23.651 178.235 32.9356 178.796 42.5583L180.111 42.4817ZM179.346 15.3982L188.466 15.2182L188.44 13.9018L179.32 14.0818L179.346 15.3982ZM187.795 14.56V15.22H189.112V14.56H187.795ZM188.597 15.8625C193.511 14.7618 197.761 14.8722 201.375 16.1412L201.812 14.8988C197.906 13.5278 193.396 13.4382 188.31 14.5775L188.597 15.8625ZM201.766 16.1554C207.705 14.5428 212.741 14.7201 216.923 16.6005L217.463 15.3995C212.926 13.3599 207.562 13.2172 201.421 14.8846L201.766 16.1554Z" fill="#0E2E57"/>
</g>
<defs>
<filter id="filter0_d_42_181" x="0.0618401" y="0.580078" width="218.272" height="43.7983" filterUnits="userSpaceOnUse" color-interpolation-filters="sRGB">
<feFlood flood-opacity="0" result="BackgroundImageFix"/>
<feColorMatrix in="SourceAlpha" type="matrix" values="0 0 0 0 0 0 0 0 0 0 0 0 0 0 0 0 0 0 127 0" result="hardAlpha"/>
<feOffset dx="-0.658375" dy="0.658375"/>
<feComposite in2="hardAlpha" operator="out"/>
<feColorMatrix type="matrix" values="0 0 0 0 0.98 0 0 0 0 0 0 0 0 0 1 0 0 0 1 0"/>
<feBlend mode="normal" in2="BackgroundImageFix" result="effect1_dropShadow_42_181"/>
<feBlend mode="normal" in="SourceGraphic" in2="effect1_dropShadow_42_181" result="shape"/>
</filter>
</defs>
</svg>
